<?xml version="1.0" encoding="UTF-8" standalone="no"?>
<!-- Created with Inkscape (http://www.inkscape.org/) -->

<svg
   xmlns:dc="http://purl.org/dc/elements/1.1/"
   xmlns:cc="http://creativecommons.org/ns#"
   xmlns:rdf="http://www.w3.org/1999/02/22-rdf-syntax-ns#"
   xmlns:svg="http://www.w3.org/2000/svg"
   xmlns="http://www.w3.org/2000/svg"
   xmlns:sodipodi="http://sodipodi.sourceforge.net/DTD/sodipodi-0.dtd"
   xmlns:inkscape="http://www.inkscape.org/namespaces/inkscape"
   width="236.21056"
   height="141.63098"
   id="svg4496"
   version="1.1"
   inkscape:version="0.48.2 r9819"
   sodipodi:docname="padded_rectangle.svg">
  <defs
     id="defs4498" />
  <sodipodi:namedview
     id="base"
     pagecolor="#ffffff"
     bordercolor="#666666"
     borderopacity="1.0"
     inkscape:pageopacity="0.0"
     inkscape:pageshadow="2"
     inkscape:zoom="2.4741909"
     inkscape:cx="49.598033"
     inkscape:cy="70.815485"
     inkscape:document-units="px"
     inkscape:current-layer="layer1"
     showgrid="false"
     fit-margin-top="0"
     fit-margin-left="0"
     fit-margin-right="0"
     fit-margin-bottom="0"
     inkscape:window-width="1598"
     inkscape:window-height="735"
     inkscape:window-x="20"
     inkscape:window-y="20"
     inkscape:window-maximized="0" />
  <metadata
     id="metadata4501">
    <rdf:RDF>
      <cc:Work
         rdf:about="">
        <dc:format>image/svg+xml</dc:format>
        <dc:type
           rdf:resource="http://purl.org/dc/dcmitype/StillImage" />
        <dc:title />
      </cc:Work>
    </rdf:RDF>
  </metadata>
  <g
     inkscape:label="Layer 1"
     inkscape:groupmode="layer"
     id="layer1"
     transform="translate(46.676708,-341.5467)">
    <path
       d="m 182.27385,343.6467 c -0.484,0.8125 -2.28387,0.5125 -2.904,1.2 1.17975,0.6875 2.25363,-0.3875 3.267,0.3 -0.19662,-0.4375 0.4235,-1.55 -0.363,-1.5 z m -196.292254,15 c 2.737625,0.875 3.2065,-1.1625 0,0 l 0,0 z m -12.342,0.6 c -4.582876,-2.9125 -8.833001,-7.7 -13.794001,-9.3 3.66025,3.4875 10.31525,7.6625 13.794001,9.3 z m 34.8328739,-8.4 c 1.9662501,-0.4 -2.057,-0.3 -2.904,-0.3 -1.573,0 -3.1459995,0 -4.71899955,0 -5.98949965,-0.1125 -10.37574965,0.225 -14.86787435,-0.9 39.037624,-0.275 74.732624,2.925 112.469499,-0.3 0.39325,-0.0125 0.287375,-0.3875 -0.363,-0.3 -43.696125,-0.7 -88.2543751,0.2625 -126.6265,-1.2 3.236751,0.625 6.594501,1.15 9.075001,2.4 -4.4165,0.325 -11.298376,-1.4375 -15.972001,-0.9 6.912125,2.2875 10.466501,7.3375 16.335001,10.5 2.404875,-0.4125 3.584625,-2.0875 5.445,-2.4 2.69225,-0.45 6.9423747,0.75 10.1488747,0.9 4.43162465,0.2 9.3018742,-0.3875 14.1569993,-0.6 4.961,-0.225 9.816125,0.25 14.141875,0.3 40.5955,0.5 96.452135,-2.325 138.983635,-0.9 4.79462,-4.025 9.2565,-8.3375 14.14187,-12.3 -63.49475,6.5375 -124.46363,9.5125 -187.958379,5.7 5.5357497,0.625 12.4024994,0.1625 18.5129989,0.3 z m -18.5129989,8.7 c -1.0285,-0.175 -3.90225,0.2125 -1.436875,0.3 4.5979997,-0.1875 12.06974935,0.3875 14.8678744,-0.3 -5.11225,-0.5 -9.8766247,-0.25 -13.4309994,0 z m -20.675876,-0.3 c 0.9075,-0.025 1.6335,1.6125 2.541,0.6 -2.8435,-1.15 -5.641625,-3.9375 -7.986,-4.5 1.3915,1.325 5.9895,5.7125 5.445,3.9 z m 62.04275,-0.3 c 12.00925,1.6125 25.5915,1.2625 39.551875,1.2 13.899875,-0.0625 28.46525,0.6375 42.09288,0 9.72538,-0.4625 21.32625,-1.225 29.02488,-1.5 7.03312,-0.25 -1.7545,-0.3 -4.356,-0.3 -2.94938,-0.0125 -6.05,0.175 -7.97088,0 -20.31287,-1.85 -38.659505,-0.4625 -59.51688,0.3 -20.2675,0.7375 -40.943375,-0.9375 -59.50175,0.3 6.8365,-0.25 14.777125,1.425 20.675875,0 z m 125.915635,0.3 c -10.5875,0.1375 -20.328,0.9875 -30.83988,1.2 -0.39325,0.0125 -0.28737,0.3875 0.363,0.3 11.63113,-0.3875 27.346,2.4625 34.46988,-2.1 -1.694,-0.1 -2.42,0.6 -3.993,0.6 z m 27.20987,-8.4 c -2.6015,2.6375 -3.90225,7.75 -2.178,11.7 0.726,-3.7 3.73588,-7.1125 2.178,-11.7 z m -33.74387,11.1 c -7.69863,0.3 -13.89988,-0.525 -20.31288,0 5.17275,1.425 15.09475,1.95 20.31288,0 z m -123.737635,0.3 c -0.57475,0.9125 -2.828375,0.45 -3.251875,1.5 1.406625,-0.05 3.84175,-0.8 3.251875,-1.5 z m 56.249875,-0.9 c 3.0855,1.05 5.611375,2.5625 9.801,3 4.50725,0.4625 9.3775,-0.9875 13.41588,-0.3 3.872,0.65 10.285,-0.925 11.253,-3 -7.88012,1.125 -27.225005,0.0375 -34.46988,0.3 z m -30.476875,3.6 c -4.14425,0.1875 -6.44325,-0.725 -10.527,-0.3 2.193125,0.8125 9.090125,0.8375 10.527,0.3 z m -42.8188751,0.3 c 2.0721251,-3.1625 11.2530001,-2.85 16.6828751,-4.2 1.089,-0.4 1.452,1.975 1.815,0.3 0.51425,-0.0875 0.4235,-0.6625 0.726,-0.9 -14.172125,0.075 -28.81312465,-0.225 -42.440749,0.3 2.646875,2.375 6.0046247,5.5125 11.2378744,4.8 -0.226875,-1.4 2.32924995,-2.0625 3.63,-1.2 0.468875,1.175 -1.05875005,0.725 -1.08900005,1.4875 3.44849955,0.05 6.26174955,-0.425 9.43799955,-0.5875 z m 56.2347501,-0.6 c 4.0535,-1.4875 7.865,-1.4625 9.801,-3.6 -14.293125,0.325 -29.236625,-0.425 -42.092875,-0.3 6.5945,3.2125 19.375125,2.7 27.225,3.9 -1.981375,2.7625 -9.180875,1.2 -13.431,2.1 7.95575,2.675 13.552,-0.2875 18.497875,-2.1 z m 97.97976,-1.2 c -3.94763,4.3375 -1.89063,13.475 1.089,17.3875 -0.34788,-5.7875 3.41825,-13.575 -1.089,-17.3875 z m -0.726,18.8875 c 0.83187,0.4125 0.847,1.5 1.815,1.8 0,-0.5 0,-1 0,-1.5 -0.847,0.2625 -1.573,-1.05 -1.815,-0.3 z m -172.3645093,1.8 c -0.468875,-0.7 -2.4956247,-0.1375 -2.5258747,-1.2 0.605,-1.2 1.6032497,-2.375 1.7998747,-3.9 0.57475,-4.2 -1.4519997,-11.6875 -3.9778747,-13.7875 0.166375,8.7125 0.63525,18.8375 2.904,27.2875 0.57475,-2.825 1.4671247,-5.375 1.7998747,-8.4 z m -6.1558747,-11.7 c -0.408375,8.4875 1.21,16.0375 2.178,22.5 0.166375,-7.25 -1.7545,-16.4875 -2.178,-22.5 z m 175.979384,38.6875 c 0.25712,1.2 0.87725,3.6625 1.815,3.3 -0.95288,-0.8125 -0.62013,-2.6875 -1.815,-3.3 z m 4.719,-7.5 c -0.0453,-1.0625 -1.21,0.6375 -1.089,-0.3 -0.0908,-4.9625 0.62012,-9.275 0.726,-14.0875 -1.05875,0.425 -1.79988,1.1125 -2.178,2.1 -0.0454,0.925 1.13437,0.85 0.726,2.1 -2.46538,3.475 -4.28038,7.475 -3.63,12.2875 0.51425,3.8 4.62825,7.1125 3.993,11.1 0.31762,0.9625 -0.95288,0.625 -1.089,1.2 0.92262,0.6375 0.92262,2.0375 2.541,2.1 -0.58988,-6.1125 -0.0151,-9.3125 0,-16.5 z m -171.6385093,12.9 c -0.922625,-0.2375 -2.057,-0.3 -2.541,-0.9 1.452,-6.0375 0.605,-12.7625 -2.5409997,-16.4875 -0.680625,8.025 0.136125,16.0125 0.378125,23.3875 1.8754997,-1.7375 4.3106247,-3.0375 4.7038747,-6 z m -8.6968747,8.1 c 0.51425,-0.875 2.102375,-0.8625 2.541,-1.8 0.07563,-8.9875 -0.287375,-17.7375 -1.089,-25.7875 1.769625,14.0125 -4.129125,26.525 -0.363,38.375 -0.7865,-3.575 2.75275,-8.7125 -1.089,-10.7875 z m 8.3338747,8.3875 c 0.75625,1.775 -0.0605,5.075 1.089,5.7 -0.257125,-1.975 0.75625,-5.025 -1.089,-5.7 z M 165.59098,421.6217 c -2.85863,-1.3625 -5.73238,-0.7625 -7.26,1.2 -0.19663,7.9875 2.38975,15.9125 8.349,19.7875 -0.89238,-6.775 -0.77138,-13.7625 -1.089,-20.9875 z m -182.150384,0.9 c 0.529375,-6.1375 3.267,-11.875 1.089,-17.7 0.69575,16.075 -7.184375,29.0125 -1.452,42.5875 3.751,-7.4 -0.438625,-15.8375 0.363,-24.8875 z m 183.602384,22.1875 c -5.59625,-1.975 -6.63988,-7.7125 -10.527,-11.1 0.15125,6.4625 4.40137,13.6625 10.527,14.1 0.0908,-1.575 -0.39325,-1.775 0,-3 z M -10.040529,427.9217 c -0.983125,0.2125 -0.726,-0.6 -1.436875,-0.6125 -0.892375,7.425 -3.66025,17.9 0,25.2 5.7928747,-6.1 4.5374997,-16.4625 1.436875,-24.5875 z m 0.3629997,0 c -0.15125,-0.875 -0.7562497,-1.375 -1.7998747,-1.5 -0.07563,1.05 1.2705,0.9375 1.7998747,1.5 z m 41.3668743,22.1875 c 0.226875,0.7125 0.529375,1.3625 0.363,2.4 10.118625,-6.9375 32.715375,-6.7875 45.722875,-2.1 0.04537,-1.575 2.193125,-2.0875 3.267,-2.4 9.7405,-2.8375 35.78576,-4.2375 40.64088,2.1 8.90863,-5.8125 27.467,-3.65 37.01088,0 1.52762,-0.3375 2.299,-1.3 3.993,-1.5 -6.08025,-4.975 -9.075,-13.0125 -7.986,-23.0875 0.22687,-2.1625 0.65037,-4.5875 2.541,-6 1.86037,-0.65 0.33275,1.525 1.815,1.2 0.52937,-0.9625 2.38975,-0.825 3.267,-1.5 -3.29725,-4.825 -5.566,-12.6875 -4.356,-20.0875 0.87725,-5.325 4.84,-9.725 7.26,-12.9 -6.9575,-4.075 -13.05288,-17.6625 -3.63,-23.6875 -3.94763,0.4375 -6.80625,1.775 -11.253,1.8 -7.09363,4.325 -20.35825,0.2 -26.48388,-2.7 -7.21462,3.5375 -18.25588,7.325 -27.57288,6.2875 -1.0285,-0.4375 -0.605,-0.9 0,-1.4875 -5.671875,0.775 -14.036,-0.525 -17.061,-4.5 -11.28325,9.95 -38.825875,7.95 -47.900875,-1.2 -1.860375,3.625 -7.063375,4.7875 -12.689875,5.0875 -8.454875,0.475 -18.33149965,1.25 -25.4099993,1.5125 0.63525,9.5625 2.435125,22.525 -3.9778747,28.4875 1.1192497,1.15 1.9359997,-1.3875 2.5258747,-0.6 -0.105875,0.7 -1.255375,0.55 -1.089,1.5 6.307125,5.5 8.1826247,25.0375 -1.8149997,27.5875 2.6922497,3.15 6.6247497,6.1 7.2599997,10.7875 0.69575,5.05 -2.616625,10.55 -2.541,15.9 3.7358747,-0.5 8.6817497,-1.1875 10.5269992,1.8 6.2920001,-4.2375 20.0255001,-7.0875 27.5728751,-2.7 z m 79.466755,-2.7 c 2.40488,0.7 9.46825,1.375 6.171,3.9 -3.509,-3.425 -18.452505,-4.7 -27.57288,-3.9 -5.641625,0.5 -9.6195,2.4375 -10.89,5.7 11.540375,-1.0125 28.78288,-0.6875 41.00388,-1.2 0.31763,-2.8375 -4.9005,-5.1 -8.712,-4.5 z m -126.263504,-0.6 c 0.196625,2.3375 -0.6655,5.5375 1.089,6.6 0.166375,-1.5125 -0.136125,-5.05 -1.089,-6.6 z m 90.704624,5.7 c -2.435125,-2.175 -7.018,-2.45 -11.253,-2.1 -3.47875,0.2875 -6.14075,2.4875 -8.333875,1.5 -0.363,-1.075 2.888875,-1.775 1.089,-2.1 -5.59625,-0.7125 -12.61425,1.55 -14.52,3.9 9.422875,-0.9125 25.01675,0.2625 33.017875,-1.2 z m 53.70888,-4.2 c -3.46362,0.5375 -5.929,1.9 -7.623,3.9 13.3705,0.0625 23.30763,1.625 34.83288,1.2 -1.36125,0.1125 -2.13263,-0.25 -2.178,-1.2 0.68062,-0.05 1.21,-0.2 1.452,-0.6 -8.349,-3.2125 -21.67413,-4.4125 -29.75088,-0.3 -0.0454,-0.575 -1.21,-0.2125 -1.089,-0.9 0.89238,-1.775 3.47875,-0.725 4.356,-2.1 z m -90.719755,5.4 c 1.557875,-1.925 4.492125,-2.6875 6.171,-4.5 -4.280375,0.8625 -9.4985,2.55 -10.89,4.8 1.134375,-0.3 2.072125,-0.2125 4.719,-0.3 z m 128.456635,0.3 c 0.0453,-1.5875 0.40837,-2.0875 -0.363,-3.3 -1.30075,0.025 -1.331,1.1 -2.904,0.9 -0.13613,-0.75 2.26875,-0.8875 1.089,-1.5 -2.13263,1.2375 -4.34088,2.4125 -6.171,3.9 2.88887,-0.0375 5.71725,0.7125 8.349,0 z m -103.06176,0 c -0.847,-0.0125 -4.855125,-0.1 -2.888875,0.3 3.645125,-0.2 5.35425,0.475 7.244875,0 -0.87725,-0.575 -2.904,-0.2 -4.356,-0.3 z m -33.380875,0 c 0.378125,-2.675 -3.947625,-3.275 -6.518875,-3.6 -5.082,-0.65 -12.689875,-0.275 -14.8830001,2.7 -2.7225,-0.5625 -4.673625,1.325 -7.2599995,1.8 7.0633745,-0.6875 19.5263746,0.3125 28.6618746,-0.9 z m -34.4698743,1.5 c 0.121,-1.6125 3.61487465,-1.6625 4.71899965,-3.3 -5.03662465,-0.55 -12.20587435,-0.3125 -12.68987435,3.9 2.7981247,0.0375 4.3408747,-0.725 7.9708747,-0.6 z m 165.4675093,-0.6 c -2.7225,-0.05 -5.64163,-0.2625 -6.534,1.2 2.26875,-0.3375 5.1425,-0.1625 6.534,-1.2 z m -41.00388,0.3 c 10.17913,0.3625 26.81663,3.225 33.74388,-0.6 -11.58575,-0.5625 -21.14475,-1.3875 -32.65488,-1.5 -1.42175,0.125 -0.99825,1.775 -2.904,1.5 -1.42175,-0.3 0.51425,-1.5 -1.089,-1.5 -13.67301,-0.3625 -32.034755,0.5 -48.98988,1.2 15.51825,0.9875 32.791,0.2 51.89388,0.9 z m -109.21763,0.3 c -7.7439996,0.25 -16.2593743,0.6 -21.764874,1.7875 6.1407497,0.9875 15.2611239,-1.2 21.764874,-1.7875 z m 129.16751,1.7875 c -17.4845,-1.025 -37.76714,-1.7875 -58.04976,-1.7875 -23.821875,0 -55.176,-1.4625 -75.1107501,1.7875 47.4017501,0.1125 92.9733701,2.275 133.1605101,0 z m 41.72987,-9.2875 c 0.57475,5.2875 -2.63175,11.825 2.178,14.0875 -1.04362,-5.275 0.363,-9.7 -2.178,-14.0875 z m -216.983255,-9.9 c -0.81675,9.0375 -0.01513,20.475 1.815,30.2875 2.314125,-9.8875 0.468875,-20.8375 -1.815,-30.2875 z m 11.253001,-76.7625 c -2.132625,-0.9375 4.114,1.525 2.178,3.3 -2.02675,-0.3375 -3.705625,-2.5375 -5.445,-2.1 1.709125,1.575 5.278625,1.625 5.808,4.2 -4.431625,-1.25 -7.668376,-3.7625 -10.890001,-6 -3.312375,-2.3 -5.611375,-5.35 -9.438,-7.2 1.194875,7.6625 0.45375,15.225 1.089,24.2875 0.589875,8.2875 2.767875,16.6 3.267,24.8875 0.317625,5.025 -0.408375,10.075 0,15 1.452,17.6375 9.801001,36.7375 5.808,51.275 5.293751,-4.2125 11.298376,-7.85 16.698001,-12 -4.401375,0.0625 -2.253625,-3.15 -2.541,-5.3875 -0.27225,-2.075 -1.709125,-4.1125 -2.178,-6.3 -0.468875,-2.175 -1.164625,-4.6625 -1.452,-6.9 -1.164625,-9.0875 2.798125,-15.875 3.267,-23.3875 0.57475,-9.2125 2.223375,-16.0125 1.452,-23.9875 -0.7865,-8.0375 -2.32925,-16.95 -3.63,-25.2 0.27225,-1.0625 0.04537,-1.0875 0.363,-2.3875 -1.5125,-0.65 -2.57125,-1.6875 -4.356,-2.1 z m 199.922254,107.35 c -2.46537,0.3125 -3.84175,-0.125 -5.445,0.6 1.7545,-0.2625 4.84,0.6 5.445,-0.6 z m -6.171,0.3 c -1.11925,0.4875 -5.49037,-0.1625 -4.70387,0.9 0.69575,-1.025 4.598,0.6 4.70387,-0.9 z m -182.861254,2.1 c 16.0476244,-2.075 34.227874,-1.275 52.241749,-1.8 25.636875,-0.75 52.196375,-2.7 78.740755,-2.7 13.8545,0 27.57288,1.825 40.64088,0.6 6.68525,-0.625 13.189,-2.8375 19.94987,-2.7 -0.25712,-4.3 -7.21462,-5.6125 -9.78587,-8.9875 2.64687,-1.05 3.63,2.0875 6.51887,0.9 0.40838,2.05 2.299,2.8875 4.356,3.6 -0.605,-6.5125 1.25538,-13.5875 0.726,-21 -0.40837,-5.825 -1.28562,-12.1375 -1.452,-18.2875 -0.0908,-3.25 0.5445,-6.6125 0.363,-9.9 -0.15125,-2.6625 0.242,-5.7625 -0.363,-8.1 -0.21175,-0.825 -0.93775,-1.7875 -1.089,-2.7 -0.77137,-4.975 0.121,-10.7 -0.363,-15.8875 -0.39325,-4.275 -0.98312,-9.1375 -1.452,-14.4 -0.25712,-2.9125 -0.99825,-5.8625 -0.726,-8.3875 0.5445,-4.8125 4.43163,-9.525 3.63,-14.7 -5.18787,2.3125 -9.317,8.0875 -14.14187,11.7 6.14075,6.0375 2.73762,14.0625 2.541,23.0875 -0.51425,22.3625 -1.25538,49.225 1.089,74.375 -24.77475,3.0625 -51.45525,3.9375 -78.37776,3 -14.988875,-0.525 -30.416375,0.2875 -45.722875,-0.3125 -19.526375,-0.7625 -39.8543751,-0.75 -56.597749,0.3125 -4.5375,2.9375 -8.938875,6 -12.342,9.8875 -1.527625,0.3 0.484,-1.475 -1.089,-0.6 -0.862125,1.4375 -4.870251,3.325 -3.630001,4.5 5.671876,-0.475 10.708501,-0.775 16.335001,-1.5 z m 7.9708747,2.4 c 2.5561247,-0.275 6.2314997,-1.05 8.3489997,0.6 -2.96450005,1.7375 -8.1977497,1.625 -11.9789997,2.7 12.9923742,-1.375 26.1662493,-2.1875 39.9148743,-2.7 31.384375,-1.175 64.750125,-6 94.712755,-4.2 22.89925,1.375 39.46113,-3.4 58.41275,-2.7 0.57475,-2.575 -1.43687,-4.6 -3.267,-4.2 0.605,0.05 0.605,2.0625 0,2.1 -10.48162,0.9875 -19.76837,3.25 -29.38787,3.6 -8.09188,0.3 -16.01738,-0.5875 -24.66888,-0.9 -19.69275,-0.7125 -39.567005,0.45 -59.15388,1.8 -22.29425,1.55 -45.40525,0 -70.3917496,1.5 -5.3239997,0.325 -10.4513744,1.3125 -15.5938744,1.8 -5.17275,0.4875 -11.056376,-0.175 -15.246001,2.4 0.63525,0.0875 1.951125,-0.9625 1.815,0.3 -0.09075,1.025 -1.920875,0.6125 -2.178,1.5 10.088376,-0.4125 19.571751,-2.6 28.6618757,-3.6 z m -30.1138757,9.6 c -0.15125,0.6125 -1.830125,-2.4125 -2.178,-3.6 -0.771375,-0.9125 -2.69225,-0.2125 -4.356,-0.9 1.30075,-1.7375 3.90225,-2.375 5.808,-3.6 0.347875,-1.0875 -1.6335,-0.25 -1.452,-1.2 4.673625,-6.725 -2.193125,-23.325 0,-31.4875 -2.314125,-12.3375 -2.132625,-26.05 -2.904,-41.675 -0.3025,-6.1125 -2.32925,-11.9625 -2.904,-18 -0.39325,-4.3625 -0.105875,-8.6125 -0.363,-12.9 -0.438625,-7.6125 -1.225125,-17.225 -3.614875,-24.2875 -0.105875,-1.2375 2.26875,-1.4875 3.251875,-0.9 -0.27225,-1.525 0.27225,-2.375 1.815,-2.4 2.011625,-0.0125 0.771375,2.35 0.726,3.3 48.0672499,2.9 91.914625,0.5125 139.3315,2.1 15.230885,0.5125 30.930635,0.0375 45.722885,-1.2 14.02087,-1.175 28.05687,-1.7125 40.64087,-4.8 1.01338,2.0125 -0.71087,4.1625 -0.726,6.3 -0.3025,1.2375 1.6335,-0.35 2.178,0.6 0.45375,9.5125 -4.85512,17.6625 -6.171,27.5875 -0.6655,5.1 1.48225,10.7 1.815,16.2 1.0285,16.6125 2.37463,34.4625 1.815,50.975 0.28738,0.8625 2.25363,0.3375 2.541,1.2 -1.573,8.325 2.04188,16.675 3.267,24.5875 -0.46887,0.5375 -2.299,-0.6625 -2.178,0.9 -7.03312,-0.3875 -15.0645,0.6125 -22.85387,0.9 -8.33388,0.3125 -16.48625,1.0875 -23.232,0.3 -7.10875,-0.825 -15.246,-0.35 -22.85388,-0.3 -8.0465,0.05 -16.28963,0.0625 -24.30588,0.6 -38.62925,2.6125 -79.723875,4.1 -116.840624,8.1 4.719,-2.9 12.266375,-3.4625 19.2238747,-4.5 -10.2093747,0.5125 -19.8591247,2.375 -30.1138757,3.6 -0.39325,1.4875 -1.557875,3.2125 -1.089,4.5"
       style="fill:#231f20;fill-opacity:1;fill-rule:evenodd;stroke:none"
       id="path3394"
       inkscape:connector-curvature="0" />
  </g>
</svg>
