<?xml version="1.0" encoding="UTF-8" standalone="no"?>
<!-- Created with Inkscape (http://www.inkscape.org/) -->

<svg
   xmlns:dc="http://purl.org/dc/elements/1.1/"
   xmlns:cc="http://creativecommons.org/ns#"
   xmlns:rdf="http://www.w3.org/1999/02/22-rdf-syntax-ns#"
   xmlns:svg="http://www.w3.org/2000/svg"
   xmlns="http://www.w3.org/2000/svg"
   xmlns:sodipodi="http://sodipodi.sourceforge.net/DTD/sodipodi-0.dtd"
   xmlns:inkscape="http://www.inkscape.org/namespaces/inkscape"
   width="176.26331"
   height="169.14609"
   id="svg4690"
   version="1.1"
   inkscape:version="0.48.2 r9819"
   sodipodi:docname="blog.svg">
  <defs
     id="defs4692" />
  <sodipodi:namedview
     id="base"
     pagecolor="#ffffff"
     bordercolor="#666666"
     borderopacity="1.0"
     inkscape:pageopacity="0.0"
     inkscape:pageshadow="2"
     inkscape:zoom="2.8593586"
     inkscape:cx="45.814469"
     inkscape:cy="82.17289"
     inkscape:document-units="px"
     inkscape:current-layer="layer1"
     showgrid="false"
     fit-margin-top="0"
     fit-margin-left="0"
     fit-margin-right="0"
     fit-margin-bottom="0"
     inkscape:window-width="1488"
     inkscape:window-height="978"
     inkscape:window-x="20"
     inkscape:window-y="20"
     inkscape:window-maximized="0" />
  <metadata
     id="metadata4695">
    <rdf:RDF>
      <cc:Work
         rdf:about="">
        <dc:format>image/svg+xml</dc:format>
        <dc:type
           rdf:resource="http://purl.org/dc/dcmitype/StillImage" />
        <dc:title />
      </cc:Work>
    </rdf:RDF>
  </metadata>
  <g
     inkscape:label="Layer 1"
     inkscape:groupmode="layer"
     id="layer1"
     transform="translate(76.70308,-307.78914)"
     style="display:inline">
    <path
       id="path12895"
       transform="translate(-76.70308,307.78914)"
       style="fill:#ffffff;fill-opacity:1;fill-rule:nonzero"
       d="m 20.959214,134.20217 c -0.702553,0.41475 -0.518961,1.46013 -0.829899,2.1337 -0.591585,2.81726 -1.906567,5.68034 -1.283706,8.60434 0.483224,1.83718 2.452835,2.88979 4.242665,2.97141 0.742086,-0.26219 0.485662,-1.30764 0.631584,-1.94269 0.211903,-3.16261 0.480167,-6.35413 0.372875,-9.51418 -0.285188,-0.65142 -1.311468,-0.41865 -1.661338,-1.09724 -0.452958,-0.38169 -0.760031,-1.28984 -1.472181,-1.15534 z m 2.793667,-1.7813 c -1.231577,0.26476 -1.776484,2.20679 -0.541037,2.84134 0.891941,0.50821 0.950181,-0.7445 0.958348,-1.33824 -0.01782,-0.49674 0.493762,-1.28413 -0.23271,-1.48377 -0.05862,-0.0309 -0.122778,-0.0235 -0.184601,-0.0193 z m 0.262752,-15.32073 c -0.549444,1.0168 -0.531815,2.42004 0.185471,3.33849 0.946491,0.22082 0.76462,-1.02649 0.879067,-1.63409 0.03088,-0.66156 0.08763,-1.79912 -0.763147,-1.89374 -0.100464,0.0631 -0.200928,0.12623 -0.301391,0.18934 z m -3.485323,-13.5974 c -0.417687,0.68754 -0.0014,1.57125 -0.02075,2.33252 0.996525,8.46825 0.718978,17.00749 1.027821,25.51102 0.03365,0.54195 -0.01469,1.59668 0.820594,1.41849 1.058927,-0.77183 1.631452,-2.06568 2.097901,-3.2615 0.611521,-1.9691 0.546575,-4.08578 0.371191,-6.11642 -0.215572,-1.75274 -1.495924,-3.14799 -1.835397,-4.84158 -0.283773,-1.66927 1.096696,-2.87627 1.747609,-4.25857 0.691128,-1.48264 0.324342,-3.20693 0.136005,-4.76435 -0.388656,-1.55074 -0.402208,-3.15013 -0.480984,-4.7329 -0.208626,-0.80849 -1.27981,-0.65779 -1.870173,-0.97513 -0.637194,-0.11593 -1.357402,-0.64608 -1.993821,-0.31158 z m 1.970637,-15.274363 c -1.57796,0.574878 -2.894234,1.828693 -3.775122,3.24189 -1.002599,1.883149 -1.121736,4.124598 -0.513911,6.151478 0.391923,1.463441 0.848672,2.984825 1.606893,4.295235 1.280507,0.69289 2.673742,1.30285 4.09618,1.64088 0.861972,-0.0916 0.437983,-1.23932 0.568189,-1.83642 0.133806,-4.374503 -1.600044,-8.566621 -1.294438,-12.944376 -0.03593,-0.333733 -0.351408,-0.595047 -0.687791,-0.548687 z M 19.409752,25.500304 c -0.727269,0.51251 0.18327,1.335837 0.571871,1.808349 1.69597,1.982479 1.863862,4.683436 2.458551,7.1121 0.09124,0.837036 0.527171,1.682409 0.451036,2.516972 -1.321273,2.43798 -0.479576,5.297116 -0.326886,7.89379 0.240068,5.878583 0.215783,11.768705 0.109417,17.65091 -0.201117,8.656773 -1.023708,17.309318 -2.618702,25.81164 -6.94e-4,0.903374 0.969154,0.528917 1.375582,0.115919 0.788229,-0.354483 1.826934,-0.584108 2.260436,-1.421949 0.715621,-3.367996 1.108413,-6.807007 1.452862,-10.231856 0.203391,-2.323376 -0.01657,-4.674636 -0.610511,-6.916548 -0.199297,-1.249351 1.430684,-1.961503 1.085782,-3.245755 -0.173124,-8.955697 -1.412758,-17.865608 -1.330786,-26.831568 -0.01472,-1.966888 0.02553,-3.934249 0.167724,-5.896458 0.698926,-0.537736 1.470069,-1.387367 1.023958,-2.329988 -0.747946,-2.20155 -2.794271,-3.521712 -4.382179,-5.081326 -0.514718,-0.333771 -0.985915,-1.154409 -1.688155,-0.954232 z m 129.439928,0.274343 c -0.39673,0.621842 -0.21485,1.52408 0.11205,2.152245 0.17879,0.589978 1.12207,0.951697 1.30603,0.166152 -0.0447,-0.813779 -0.24438,-1.70908 -0.7728,-2.349309 -0.24368,-0.141831 -0.40652,-0.09306 -0.64528,0.03091 z m 2.93277,4.540193 c -0.74604,0.438877 -0.12509,1.395997 -0.22283,2.067129 0.0671,1.488429 -0.0572,2.984648 -0.16744,4.459156 0.13906,0.650296 0.97832,0.424374 1.34854,0.869399 0.43944,0.441103 1.37415,0.208868 1.19397,-0.513911 -0.34188,-1.850581 -0.0714,-3.833646 -0.72643,-5.610519 -0.29528,-0.520143 -0.68143,-1.444178 -1.42581,-1.271254 z m -0.13911,7.434324 c -0.61505,0.57092 -0.15366,1.566626 -0.27655,2.322038 0.11227,1.760886 -0.13326,3.57785 0.3036,5.301621 0.21804,0.511293 0.44883,1.666469 1.19153,1.143056 0.35456,-0.773348 0.30288,-1.753917 0.56272,-2.584326 0.26435,-1.592437 1.12813,-3.404506 0.22025,-4.938183 -0.42761,-0.682878 -1.1511,-1.31294 -2.00155,-1.244206 z m 0.19707,10.119799 c -0.47457,0.830781 -0.27606,1.895175 -0.43277,2.820715 -0.11157,2.532963 -0.47133,5.179245 0.32844,7.635252 -0.0138,0.763332 1.15644,1.194984 1.18403,0.243554 -0.003,-2.361821 0.44087,-4.683099 0.68614,-7.020999 0.12617,-1.330122 0.0457,-2.998521 -1.20943,-3.759666 -0.19962,-0.112636 -0.36941,0.01599 -0.55641,0.08114 z m 0,12.832323 c -0.51801,0.859016 -0.31177,1.971581 -0.45806,2.936016 -0.12609,2.312711 -0.25262,4.720815 0.41717,6.948781 0.79844,0.655765 1.01497,-0.674345 0.91038,-1.259446 0.0186,-2.523547 0.42988,-5.061913 0.13514,-7.578209 -0.0531,-0.528007 -0.23293,-1.515185 -1.00463,-1.047142 z m -5.47528,0.467543 c -1.97729,0.987264 -2.31195,3.571416 -1.80062,5.513919 0.28818,1.109282 0.79657,2.310841 1.82767,2.909587 0.92625,0.100886 0.67926,-1.074372 0.74448,-1.64217 -0.0112,-2.137979 0.14951,-4.303444 -0.0992,-6.425848 -0.0876,-0.261412 -0.40958,-0.431956 -0.67233,-0.355488 z m -0.72257,9.003105 c -0.6988,0.580895 -0.44045,1.683385 -0.66514,2.482541 -0.60883,5.703551 -0.65786,11.478583 -0.15016,17.192915 0.11491,0.615296 0.019,1.890564 0.95827,1.742661 0.3996,-0.269147 0.97513,-0.376013 1.07805,-0.95827 0.69404,-2.883338 -0.11886,-5.854644 0.0193,-8.77513 -0.0877,-3.379533 0.86104,-6.819716 0,-10.150711 -0.25189,-0.554927 -0.35155,-1.794172 -1.24034,-1.534006 z m 6.34468,5.158432 c -0.85785,0.381146 -0.45669,1.557596 -0.5796,2.291348 -0.009,2.753212 -0.65395,5.522773 -0.22411,8.265082 0.21174,0.675369 0.37866,1.624352 1.04325,1.934685 0.9319,-0.05642 0.44605,-1.318871 0.57232,-1.946254 -0.007,-3.351928 0.0964,-6.708964 -0.0197,-10.057998 -0.0905,-0.331961 -0.45259,-0.562623 -0.79212,-0.486863 z M 151.852,91.945539 c -0.44362,0.696075 -0.20856,1.636996 -0.35676,2.426021 -0.029,1.191078 -0.24434,2.402048 -0.0644,3.586353 0.30955,0.653588 1.08407,0.208945 1.12443,-0.363216 0.46533,-1.583517 0.32699,-3.296029 0.21251,-4.922728 0.0161,-0.50424 -0.34864,-1.124936 -0.91576,-0.72643 z m -5.79986,0.799846 c -1.08623,1.098274 -1.22211,3.112284 -0.24729,4.323809 0.33325,0.499101 1.30913,0.709524 1.29755,-0.119744 -0.0608,-1.338081 0.29954,-2.800324 -0.28905,-4.057233 -0.16808,-0.254931 -0.50669,-0.289591 -0.76121,-0.146832 z m 0.0811,6.383318 c -0.58576,0.552569 -0.30342,1.489307 -0.4405,2.214067 -0.0593,3.75837 -0.18915,7.53315 0.12922,11.28237 -0.0942,0.96459 1.28974,0.76139 1.04539,-0.13789 0.24581,-4.16261 0.26036,-8.34286 0.10051,-12.508469 -0.0282,-0.457791 -0.24025,-1.060299 -0.83462,-0.850078 z m 5.44823,0.297527 c -0.43708,0.72958 -0.10362,1.6826 -0.25502,2.49614 -0.0353,2.50006 -0.775,5.14824 0.20865,7.55024 0.42973,0.65915 1.19283,-0.0198 1.07419,-0.62596 0.26845,-2.70916 0.413,-5.47188 0.0541,-8.17621 -0.14551,-0.4815 -0.1437,-1.463076 -0.86506,-1.327425 l -0.11544,0.0443 -0.10142,0.03892 z m 0.21638,11.34469 c -0.6984,0.70876 -0.76068,1.83758 -0.92325,2.78016 -0.1582,1.65781 -0.17436,3.3502 -0.0873,5.00144 0.31927,0.70628 1.32197,0.21801 1.76019,-0.19658 1.17901,-1.51932 0.74225,-3.61303 0.46754,-5.3555 -0.23598,-0.72895 -0.16709,-1.68653 -0.76121,-2.22952 -0.15709,-0.0607 -0.29883,-0.0583 -0.45595,0 z m -5.6878,5.38254 c -0.75346,0.36906 -0.55415,1.42244 -0.7282,2.11674 -0.16293,0.55568 0.0685,1.54984 0.79776,1.34153 0.76156,-0.37603 0.35838,-1.40818 0.66074,-2.05951 0.0878,-0.53154 0.063,-1.51764 -0.7303,-1.39876 z m 6.63448,2.80139 c -0.71315,0.29066 -1.70484,0.31953 -2.16002,0.96593 -0.13666,2.0641 -0.0668,4.21255 -0.39639,6.23152 0.53941,1.0509 1.66091,1.67716 2.54011,2.42759 0.57932,0.31516 1.22174,1.18223 1.93284,0.73433 0.36328,-0.73687 -0.0718,-1.59763 -0.0779,-2.38445 -0.39609,-2.57462 -0.68107,-5.18212 -1.2784,-7.71216 -0.15569,-0.15497 -0.32056,-0.32644 -0.56028,-0.26276 z m -2.32999,9.21563 c -0.50788,0.5575 -0.17323,1.44459 -0.28806,2.13678 0.0723,1.13487 -0.16056,2.32774 0.12578,3.42351 1.25252,0.46872 2.67887,0.20753 3.99426,0.10715 0.62705,-0.1 1.83282,-0.16464 1.46109,-1.08729 -0.27466,-1.45421 -1.40886,-2.49086 -2.62463,-3.21643 -0.76757,-0.4814 -1.47837,-1.09404 -2.32068,-1.43714 -0.11592,0.0245 -0.23184,0.0489 -0.34776,0.0734 z m 5.4521,6.08192 c -1.8171,0.30272 -3.70861,0.1069 -5.50593,0.40557 -0.52436,0.56727 -0.11638,1.53037 -0.2315,2.26048 0.094,1.93742 -0.11894,3.91538 0.24283,5.82701 0.10354,0.56448 0.71522,1.41996 1.22102,0.69552 0.30664,-1.03853 1.40882,-1.57476 2.43618,-1.54606 1.35419,-0.22821 2.87499,-0.0747 4.11715,-0.74915 0.69811,-0.62831 -0.2359,-1.36486 -0.49072,-1.97837 -0.75369,-1.38962 -1.24294,-2.94952 -1.26146,-4.53584 -0.0318,-0.24909 -0.30038,-0.38626 -0.52757,-0.37916 z m -10.55643,-11.37173 c -1.0347,0.7853 -0.51607,2.23365 -0.63799,3.32689 0.13809,1.22846 -0.35283,2.36656 -0.47871,3.56261 -0.0566,0.75582 0.53705,1.62329 1.26891,1.69237 0.7402,-0.33055 0.29503,-1.38768 0.4824,-2.04707 0.0654,-2.01717 0.44189,-4.05082 0.26185,-6.06333 -0.0393,-0.45228 -0.4923,-0.79811 -0.89646,-0.47147 z m -1.21716,9.15767 c -0.54304,0.68967 -0.44158,1.70551 -0.77645,2.49894 -0.91327,3.49906 -2.912,6.75697 -5.86576,8.91529 -2.06113,1.59412 -4.52395,2.53966 -6.9305,3.42911 -0.74739,0.80495 0.6506,1.05045 1.25419,0.87659 2.74187,-0.076 5.56897,-0.001 8.26133,-0.19441 0.85422,-0.30818 0.12761,-1.26466 -0.0271,-1.8238 -0.36339,-0.66011 0.0172,-1.36068 0.59505,-1.74653 1.02583,-0.73575 2.47653,-0.67297 3.61284,-0.24343 0.56719,0.22951 1.0446,1.30384 1.65815,0.68317 0.26862,-1.10651 0.0391,-2.33497 0.11542,-3.48843 -0.0751,-2.27278 0.16735,-4.58095 -0.20093,-6.83154 -0.29603,-0.75754 -0.51973,-1.76782 -1.30603,-2.14838 -0.13635,-0.0375 -0.26006,0.0498 -0.39026,0.0734 z m -2.13679,11.58811 c -0.59256,0.50624 -1.78197,1.02517 -1.39876,2.00542 0.20714,0.85935 0.59996,1.97617 1.6731,1.94745 0.96703,0.0135 1.98461,0.18858 2.91732,-0.0657 0.36234,-0.75694 -0.18827,-1.64314 -0.55255,-2.32999 -0.54389,-0.84195 -1.58988,-1.75482 -2.63911,-1.55719 z m -5.25117,6.76199 c -0.89921,0.0271 -1.86729,0.021 -2.6932,0.33617 -0.53874,0.72564 0.54561,1.10437 1.01237,1.41809 0.81826,0.40021 1.80174,1.33667 2.71252,0.62983 1.20874,-0.57282 2.74574,-0.44487 3.80217,-1.33695 0.40733,-0.69554 -0.48154,-0.98096 -1.01181,-0.93908 -1.27124,-0.0926 -2.54762,-0.11931 -3.82205,-0.10806 z m -24.9614,-23.06418 c -0.59266,0.56076 -0.22751,1.53334 -0.27434,2.27976 0.19616,1.66307 0.5076,3.52029 1.75812,4.72953 0.78344,0.26795 0.86146,-0.71404 0.67233,-1.21716 -0.40407,-1.83318 -0.65405,-3.75387 -1.4696,-5.45836 -0.13292,-0.27179 -0.39245,-0.40265 -0.68651,-0.33377 z m 9.59816,-7.22566 c -0.67479,0.38596 -0.29177,1.31711 -0.49528,1.93857 -0.32856,4.17686 -1.26862,8.38395 -0.61368,12.57459 0.0175,0.6781 1.03929,0.74305 1.09351,0.0541 0.63147,-4.06921 1.23229,-8.1919 1.04714,-12.32227 -0.12735,-0.72488 -0.0447,-1.62182 -0.58346,-2.18702 -0.15113,-0.036 -0.2902,-0.12352 -0.44823,-0.058 z m 8.14917,9.33927 c -2.90036,4.58596 -5.73505,9.47705 -6.33695,14.97297 0.1601,1.07319 1.23788,0.27455 1.32148,-0.42504 1.67115,-2.9323 3.93039,-5.5467 5.19879,-8.69353 0.65404,-1.81935 1.06864,-3.86968 0.53754,-5.75713 -0.1323,-0.2644 -0.50113,-0.2357 -0.72086,-0.0973 z m -0.74189,21.109 c -3.15605,-0.0304 -6.35254,0.88538 -9.45906,0.0386 -2.21943,0.49379 -3.44444,2.69944 -4.11129,4.69861 -0.18719,0.54921 -0.79878,1.63007 0.16156,1.74836 4.62822,0.488 9.24106,-0.54361 13.60355,-2.01103 1.82388,-0.62094 3.66067,-1.23908 5.45054,-1.94367 0.69986,-0.52606 -0.0878,-1.25313 -0.62211,-1.48377 -1.47773,-1.06076 -3.28111,-1.08011 -5.02319,-1.04714 z m -17.03635,0.22024 c -2.023,0.10872 -4.10026,-0.0567 -6.08625,0.32564 -0.84837,0.55988 0.36635,1.18925 0.83509,1.51749 2.27164,1.45016 4.65921,2.7354 7.02866,4.00648 0.84382,0.0402 0.71533,-1.06227 1.03549,-1.61467 0.55952,-1.36066 1.60036,-2.47605 2.22389,-3.78024 -0.10698,-0.89422 -1.33137,-0.40485 -1.9609,-0.50944 -1.02533,0.0182 -2.05065,0.0365 -3.07598,0.0547 z m -11.39105,0.82303 c -0.761701,0.0632 -1.591091,0.0837 -2.260437,0.46755 -0.224917,0.7984 0.526449,1.5057 0.730295,2.26816 0.402687,0.82626 0.600852,1.73171 0.729758,2.62497 0.445001,0.63785 1.440714,0.20063 2.121864,0.32712 2.97339,-0.0602 5.96713,-0.13522 8.91037,-0.57187 0.65598,-0.0917 0.59853,-0.98747 0.0159,-1.15673 -3.15972,-1.82641 -6.4135,-4.14199 -10.24777,-3.9592 z m 0.58346,-9.37404 c -0.914545,0.10671 -1.923756,-0.11544 -2.770481,0.25116 -1.217384,1.13174 -2.222219,2.99042 -1.356262,4.62133 1.038945,1.75589 3.324203,2.33752 5.242913,2.09061 3.28258,-0.33801 6.51829,-1.0972 9.83822,-0.97298 1.64283,-0.0812 3.34819,0.1187 4.94208,-0.31778 0.66325,-0.25067 0.4646,-1.10596 -0.0966,-1.33308 -4.59948,-3.14885 -10.26499,-4.46497 -15.79987,-4.33926 z m -6.715619,-6.19785 c -1.230839,0.19029 -1.855971,1.60619 -1.931997,2.72798 -0.19648,0.93003 0.821746,0.92104 1.456726,0.85008 1.296914,-0.0913 2.664311,-0.14158 3.867858,-0.65302 0.675991,-0.62234 -0.330338,-1.27268 -0.680063,-1.75811 -0.682625,-0.76573 -1.667829,-1.28375 -2.712524,-1.16693 z m 1.329214,6.29831 c -0.751461,0.0881 -1.769399,0.0848 -2.171564,0.84235 -0.152101,0.59932 0.598579,0.82275 0.710974,1.36399 0.31981,0.7532 1.45091,1.03742 1.904949,0.25116 0.407322,-0.65651 0.859948,-1.33222 0.989183,-2.09428 -0.255366,-0.57232 -0.94232,-0.31279 -1.433542,-0.36322 z m -0.142968,4.81454 c -0.789443,0.18858 -1.33312,1.15073 -1.20943,1.92813 0.456408,0.89486 1.708214,0.68153 2.53478,0.57187 0.558412,-0.0668 1.457739,-0.5977 0.861671,-1.20943 -0.843115,-0.23828 -1.205077,-1.36996 -2.187021,-1.29057 z m 0.823031,4.90727 c -0.99582,0.3694 -2.150541,-0.0418 -3.149155,0.29366 -0.889331,1.38929 -1.077918,3.19721 -0.753479,4.79135 0.437844,0.74405 1.509791,0.29019 2.233389,0.45595 1.358959,-0.0517 2.828801,0.26615 4.115153,-0.27047 0.697391,-0.52804 0.02409,-1.45013 -0.108192,-2.10202 -0.466718,-1.13408 -0.838642,-2.56336 -2.032461,-3.13756 -0.09797,-0.0337 -0.202845,-0.0406 -0.305255,-0.0309 z m -5.18548,0.54096 c -0.533473,0.18139 -1.079813,0.29285 -1.661517,0.24729 -2.927495,0.22548 -5.836242,0.62648 -8.782857,0.65688 -1.138512,0.0159 -2.584462,0.22285 -3.160747,1.32535 -0.119552,0.87106 1.022726,0.74191 1.575182,0.8411 3.793827,0.53195 7.523721,1.62677 11.361469,1.8637 0.759139,0.21564 1.499684,-0.21411 1.307011,-1.06906 0.02403,-1.12666 0.236943,-2.25216 0.215402,-3.37454 -0.0739,-0.38824 -0.497795,-0.54886 -0.853943,-0.49072 z m -15.185495,1.29057 c -0.902156,0.34033 -2.101266,-0.0973 -2.863219,0.59892 -0.439607,0.65175 0.38062,1.21627 0.99691,1.13215 0.833993,-0.042 1.794623,0.17419 2.542508,-0.2473 0.368465,-0.45466 0.0449,-1.62135 -0.676199,-1.48377 z m 13.083483,-5.72257 c -2.40997,0.089 -4.821149,0.7154 -6.947461,1.85085 -0.528382,0.47584 0.163328,1.15206 0.726431,0.96213 3.090207,-0.15344 6.222684,-0.28028 9.234945,-1.02395 0.670838,-0.049 0.803684,-1.00025 0.166152,-1.20557 -0.97675,-0.49548 -2.097797,-0.60528 -3.180067,-0.58346 z m 2.384084,-5.44437 c -6.048684,0.49822 -11.884086,2.27605 -17.700955,3.93354 -0.621122,0.0305 -0.930223,0.95092 -0.235704,1.15147 1.621874,0.51022 2.518739,2.15906 3.81071,3.10692 0.753649,0.1643 1.485845,-0.48309 2.226925,-0.64852 3.743085,-1.43544 7.699165,-3.05033 11.784291,-2.27825 0.816764,0.0452 1.619365,0.71447 2.403114,0.45865 0.948823,-0.79512 1.065334,-2.24894 0.331407,-3.23154 -0.539831,-0.74144 -0.989049,-1.55256 -1.514686,-2.29134 -0.313849,-0.2419 -0.731148,-0.22511 -1.105102,-0.20093 z m -23.782881,4.94977 c -2.288331,0.10914 -4.75628,0.31575 -6.696301,1.6422 -0.978386,0.66778 -0.860452,2.0912 -0.04637,2.83617 0.387058,0.69966 1.1474,0.70708 1.844409,0.57389 4.356743,-0.34695 8.763814,-0.512 13.039695,-1.44329 0.753969,-0.51478 0.02546,-1.50975 -0.490727,-1.9204 -1.929668,-1.36821 -4.412119,-1.57788 -6.707886,-1.68992 -0.314322,-0.003 -0.628585,-0.0113 -0.942822,0.001 z m -24.010856,0.40186 c -0.118518,1.11512 -0.297732,2.21198 -0.629831,3.29212 -0.115228,0.98389 1.106319,1.00406 1.775391,1.14683 4.599814,0.81363 9.37118,1.23391 13.994144,0.36272 0.561509,-0.16681 1.717875,-0.27075 1.35182,-1.09996 -0.581499,-0.68137 -1.214366,-1.51224 -0.915766,-2.46137 0.01958,-0.84708 -0.968863,-0.65347 -1.501889,-0.53147 -3.088002,0.28983 -6.239449,0.50658 -9.339063,0.17666 -1.448073,-0.21812 -2.858551,-0.63767 -4.232487,-1.1251 -0.233281,-0.0652 -0.348836,0.10083 -0.502319,0.23957 z m -8.952874,-5.36322 c -1.769598,0.46418 -2.553207,2.47922 -2.530916,4.15379 0.06562,1.1198 -0.262357,2.53445 0.629831,3.40031 1.01475,0.53581 2.250182,0.48469 3.352325,0.77067 1.92702,0.28345 3.864435,0.79891 5.820796,0.78266 0.91113,-0.25646 0.599904,-1.41656 0.847143,-2.10439 0.02789,-0.77422 0.520707,-1.60626 0.203864,-2.36239 -1.020188,-0.50974 -2.246978,-0.57758 -3.265075,-1.1476 -1.817074,-0.80334 -3.101006,-2.3525 -4.717936,-3.44282 -0.103682,-0.0525 -0.226069,-0.059 -0.340032,-0.0502 z m -3.906497,1.67311 c -0.685821,1.01013 -1.958057,1.33753 -2.782076,2.15997 0.02447,0.99452 -0.167533,2.05521 0.104328,3.01391 0.943831,0.35668 2.056466,0.49736 3.068011,0.32844 0.722966,-0.32337 0.252811,-1.22324 0.370943,-1.81607 -0.07403,-1.19697 0.175509,-2.44523 -0.0966,-3.60511 -0.223761,-0.16979 -0.404344,-0.19191 -0.664607,-0.0811 z m 0.409583,-13.01007 c -1.857074,0.59614 -2.940176,2.5347 -3.164611,4.3895 -0.394735,3.04565 0.211059,6.11166 0.21252,9.16539 0.05313,0.70538 0.916107,0.65207 1.309894,0.25889 2.711429,-1.77281 4.102174,-5.07717 4.323809,-8.22258 0.155717,-1.99198 -0.48148,-4.17833 -2.102013,-5.43664 -0.17481,-0.10156 -0.37178,-0.17569 -0.579599,-0.15456 z m 0.819167,-8.44283 c -0.906376,0.24009 -1.760989,0.69984 -2.68934,0.85781 -0.633783,0.51621 -0.359369,1.50531 -0.536063,2.22521 -0.06258,1.34701 -0.32087,2.73838 -0.101774,4.06441 0.470043,0.53349 1.358396,0.152 2.005691,0.26758 0.774626,-0.25825 0.671761,-1.31104 0.950456,-1.96674 0.386925,-1.64261 0.841338,-3.28829 0.977677,-4.973 -0.02282,-0.27707 -0.32842,-0.52454 -0.606647,-0.47527 z m -2.337716,-8.23803 c -0.828274,0.35546 -0.442949,1.49077 -0.543887,2.18702 0.07191,1.95261 -0.07046,3.93552 0.207719,5.86941 0.212997,0.7251 1.049727,0.47124 1.521273,0.20846 0.776517,-0.26266 1.900556,-0.58209 1.821082,-1.61882 0.04198,-2.19187 -0.255748,-4.68336 -2.067237,-6.1708 -0.257963,-0.25355 -0.553979,-0.55371 -0.93895,-0.47527 z m 5.722574,-9.09584 c -0.483803,0.75984 0.640577,1.25077 1.004638,1.81221 1.548811,1.72937 2.508512,4.01728 2.411133,6.364 0.156965,2.2391 -0.641592,4.47095 -2.177001,6.10428 -0.814569,0.97926 -1.958562,1.53923 -3.012343,2.18399 -0.512166,0.48567 -0.07138,1.24618 -0.329087,1.84536 -0.306213,1.95304 -1.258755,3.75833 -1.440622,5.73965 -0.0213,0.90658 0.617817,2.08509 1.626741,2.04406 0.813627,-0.44465 0.958073,-1.53397 1.638334,-2.14066 1.357361,-1.61068 3.410905,-2.81657 5.587334,-2.56569 0.871944,0.0918 2.096196,0.035 2.41886,1.06647 0.978615,2.25833 0.81624,4.94735 -0.108191,7.1677 -0.374312,1.02477 -1.60168,1.93482 -2.662292,1.29058 -0.675565,-0.18433 -0.0034,-0.88571 0.02238,-1.35537 0.482229,-1.78774 0.859971,-4.00841 -0.428096,-5.55345 -0.535963,-0.624 -1.453249,-0.25441 -1.785165,0.3864 -1.785103,2.39008 -1.704915,5.64911 -0.973727,8.40805 0.31058,0.67204 0.30945,1.63745 0.977591,2.03246 1.429937,0.10182 2.751646,0.73279 3.677177,1.84143 1.154928,1.25269 2.198382,2.77372 3.931026,3.25904 2.504798,1.01851 5.237658,1.04039 7.897933,0.97213 8.423837,0.0149 16.605158,-2.23372 24.753861,-4.11638 4.363157,-1.06224 8.746134,-1.99936 13.159715,-2.8063 0.767802,-0.44458 0.295794,-1.4939 0.552551,-2.19475 0.07526,-0.6285 0.300072,-1.32861 1.012366,-1.45673 1.473037,-0.50077 3.183679,-0.17733 4.273577,0.966 0.871694,0.63334 1.383654,1.68047 2.229524,2.3184 3.954673,0.0125 7.887663,0.39443 11.792903,0.95827 0.76623,0.0408 0.65752,-0.85624 0.30711,-1.28286 -1.55627,-3.28729 -2.91536,-6.75686 -3.18145,-10.40937 -0.0921,-2.29053 -0.0595,-4.95592 1.70355,-6.6656 1.05085,-1.01717 2.69373,-0.51403 3.65534,0.36321 1.24398,1.00566 2.02011,2.47703 2.51734,3.95898 0.79405,0.75524 1.05803,-0.66406 1.08069,-1.26035 0.60865,-2.83797 0.7971,-5.88155 2.32934,-8.41734 0.99403,-1.71124 2.95499,-2.57878 4.88409,-2.61592 1.88081,2.69843 1.59469,6.20026 1.36398,9.31609 -0.14985,1.89503 -0.36243,3.78534 -0.6646,5.65302 0.046,0.75689 1.00664,0.54825 1.27125,0.0386 1.30191,-1.38843 3.1713,-2.51524 5.12366,-2.28362 1.42768,0.22756 1.87295,1.87851 1.85471,3.1221 0.0609,1.25146 -0.0605,2.59187 -1.00463,3.51237 -2.11481,2.99249 -3.08582,6.60358 -4.5402,9.93047 -0.29703,0.45878 0.0157,1.17143 0.61824,0.98145 2.18171,-0.65706 4.40464,-1.16879 6.52629,-1.98609 2.02201,-0.72751 3.17476,-2.69564 3.80976,-4.63704 1.45359,-3.68075 1.87105,-7.65644 1.87031,-11.58787 0.074,-2.26441 -0.0969,-4.54919 0.0834,-6.80055 1.03375,-4.16733 0.99851,-8.50441 0.80528,-12.76671 2.6e-4,-0.93663 -1.14909,-0.68971 -1.76584,-0.71593 -34.78858,-0.14368 -69.577663,-0.10198 -104.366473,-0.14574 -0.110768,0.0425 -0.221536,0.085 -0.332304,0.12751 z m -6.352405,-0.60665 c -0.458024,1.22137 -0.214822,2.60844 -0.213126,3.89857 0.125691,1.45856 0.08552,2.97202 0.396726,4.38886 0.85447,0.63729 1.854052,1.21468 2.474827,2.14535 1.115199,1.58593 1.474996,3.52422 1.947453,5.37482 0.324205,0.7572 1.136378,0.21588 1.526277,-0.17002 2.282663,-1.74338 3.414704,-4.71685 3.052555,-7.54638 -0.339068,-3.82956 -3.296248,-7.28304 -7.099075,-8.03688 -0.668863,-0.13574 -1.431316,-0.30605 -2.085637,-0.0543 z M 28.393537,89.399167 c -0.48755,0.731922 -0.194316,1.731854 -0.301391,2.565691 0.01177,2.157224 -0.06213,4.335956 0.03657,6.479439 0.320063,0.685131 1.281214,0.271512 1.864516,0.124127 1.600857,-0.6731 2.425292,-2.553112 2.22566,-4.223345 -0.03967,-2.130305 -1.232711,-4.631215 -3.49305,-5.073424 -0.110768,0.0425 -0.221536,0.08501 -0.332304,0.127512 z m 5.938959,-24.20792 c -0.793275,0.337157 -0.461657,1.41923 -0.575735,2.094284 -0.157597,3.380725 0.115266,7.070724 -1.758118,10.04252 -0.784082,1.316584 -2.149337,2.10235 -3.446673,2.813557 -0.41096,0.735438 -0.121675,1.722445 -0.253707,2.556226 -0.0021,1.659173 -0.229021,3.343903 -0.161374,4.982798 0.546862,0.551533 1.42158,0.812206 2.150005,1.135072 0.690495,0.06994 0.746654,-0.662765 0.436632,-1.108967 -0.188052,-2.056335 0.147501,-4.310433 1.483773,-5.946686 0.855648,-1.138795 3.080611,-0.283054 2.867083,1.155334 -0.06415,1.552944 -0.692081,3.229353 -0.04637,4.725665 0.591988,0.694428 1.662485,0.344784 2.43818,0.216383 2.017318,-0.482324 3.435953,-2.35049 3.670793,-4.366313 0.574603,-4.244339 -1.085237,-8.389905 -2.828723,-12.161976 -1.008016,-2.064509 -2.050198,-4.156552 -3.438674,-5.987202 -0.143348,-0.132444 -0.344602,-0.180718 -0.537095,-0.150695 z m -2.109741,6.074198 c -1.04466,0.287474 -1.862802,1.075234 -2.925417,1.279068 -0.586273,0.502097 -0.281646,1.482066 -0.468324,2.189597 -0.07513,1.466744 -0.384686,3.104661 0.36437,4.437066 0.782171,0.216222 1.291884,-0.708143 1.816077,-1.163063 1.499468,-1.757626 2.426109,-4.270634 1.765165,-6.545461 -0.06458,-0.169848 -0.388415,-0.249701 -0.551871,-0.197207 z m -2.596604,-4.451321 c -0.572044,0.500895 -0.178686,1.410256 -0.399149,2.081571 -0.06444,0.942292 -0.471145,1.944332 -0.157266,2.868205 0.615578,0.696985 1.677639,0.132148 2.314533,-0.278208 1.276526,-0.910313 1.027712,-2.909599 -0.08114,-3.860129 -0.425997,-0.458561 -1.019926,-0.888047 -1.676974,-0.811439 z M 28.949953,56.261557 c -0.424093,0.766917 0.043,1.708405 0.02676,2.545854 0.233475,2.302072 0.313213,4.632794 0.388477,6.932043 0.35997,0.735805 1.532957,0.171579 1.995892,0.893062 0.532103,0.471068 0.773377,1.303572 1.436818,1.576956 0.87682,0.07386 0.569088,-1.053017 0.572488,-1.618978 -0.20547,-3.264759 -0.605953,-6.802758 -2.751193,-9.420898 C 30.1652,56.797843 29.634045,55.84917 28.94995,56.261557 z M 145.76234,37.710524 c -1.49718,-0.0035 -3.00641,1.256255 -2.80139,2.840035 -0.0227,1.939694 2.0441,3.641931 3.9239,3.265603 0.57261,-0.540879 0.15086,-1.540349 0.28012,-2.272557 -0.0755,-1.217482 0.15699,-2.492031 -0.12751,-3.670794 -0.37012,-0.283563 -0.84342,-0.134084 -1.27512,-0.162287 z m -12.2334,-4.833856 c -0.98543,0.07264 -2.09752,-0.05046 -2.98687,0.421175 -0.52588,0.615281 0.35339,1.058036 0.86487,1.165898 4.08268,1.42386 6.86641,5.112286 8.47054,8.980949 2.05282,4.965295 2.98708,10.292172 4.41449,15.471585 0.2701,0.64188 0.16464,1.592897 0.76805,1.993442 0.74257,0.07646 1.04008,-0.902224 1.39784,-1.433317 1.10063,-2.595906 0.72568,-5.5037 0.67854,-8.249132 -0.11464,-2.096613 -0.0508,-4.213686 -0.0748,-6.299359 -0.33825,-0.71983 -1.37082,-0.286115 -1.9871,-0.648596 -2.06381,-0.651396 -3.30208,-3.140552 -2.38408,-5.142976 0.63061,-1.505883 2.31217,-2.124701 3.85086,-2.061007 0.99597,-0.09136 0.51372,-1.340896 0.62364,-2.015506 0.25406,-0.919711 -0.68107,-1.152308 -1.39295,-1.171637 -3.44322,-0.622992 -6.92094,-1.066309 -10.42699,-1.010746 -0.60536,-0.0049 -1.21074,-0.0074 -1.81609,-7.73e-4 z M 31.272213,33.67265 c -1.620259,0.02384 -3.550025,0.480525 -4.339265,2.036325 1.172131,3.535257 0.910656,7.309392 1.142314,10.981309 0.157899,2.498424 0.239847,5.140312 1.446562,7.388117 0.508216,0.48202 1.105985,-0.247084 0.84235,-0.776663 -0.491122,-2.754622 -0.49241,-5.648014 -0.08114,-8.411914 0.639964,-3.01323 2.035935,-6.091098 4.698617,-7.832315 0.634082,-0.172713 1.093791,-1.001659 0.432767,-1.448998 -0.669875,-0.625522 -0.861059,-1.985291 -1.985167,-1.854057 -0.718392,-0.04141 -1.436767,-0.103983 -2.157034,-0.0818 z m 8.593522,0.104328 c -1.341047,0.08697 -2.744277,-0.04458 -4.039217,0.315365 -0.755639,0.516283 0.300678,1.136561 0.368423,1.767328 0.188305,0.63739 0.901395,1.036408 1.518621,0.696044 2.794265,-0.695515 5.670709,-0.909409 8.51617,-1.291099 0.605781,-0.16995 0.332314,-1.082093 -0.274343,-1.008503 -2.019393,-0.236529 -4.04981,-0.519829 -6.089654,-0.479135 z M 69.877373,32.90758 c -5.611307,0.584315 -11.271171,0.820414 -16.908836,1.15147 -0.908939,0.275278 -0.189591,1.216338 0.490727,1.19011 2.485106,0.772068 5.145869,0.367327 7.704804,0.370943 2.278392,-0.04193 4.614164,-0.200375 6.819948,0.455951 0.931627,-0.137316 1.454659,-1.12393 2.140653,-1.680837 0.438618,-0.325247 0.984338,-1.168032 0.216383,-1.452861 -0.150955,-0.04037 -0.308488,-0.04317 -0.463679,-0.03478 z m 4.374041,7.816859 c -0.755189,0.506456 -0.936695,1.539466 -1.397399,2.285537 -0.631754,1.115047 -0.982184,2.371978 -0.859173,3.661149 -0.134457,0.666719 0.792825,1.146419 1.139878,0.482999 0.555927,-1.981164 1.693739,-3.86383 1.796757,-5.958278 -0.02662,-0.347116 -0.353652,-0.539899 -0.680063,-0.471407 z m 9.111297,-8.083475 c -0.525208,0.718325 0.509733,1.264913 0.826895,1.819941 1.77966,2.230139 2.945948,4.948752 5.011599,6.943597 0.535513,0.498889 1.290689,-0.309675 0.830759,-0.834623 -1.781179,-2.519224 -2.873762,-5.596374 -5.370951,-7.554108 -0.353042,-0.283335 -0.834098,-0.70744 -1.298302,-0.374807 z m -3.636018,2.488412 c -0.487874,0.660774 0.06932,1.555254 0.04637,2.314532 0.599001,4.890409 0.51335,9.930651 1.887734,14.700732 0.291522,0.835104 0.601144,1.74543 0.983213,2.49404 0.632597,0.487641 1.057391,-0.364893 1.008503,-0.904175 0.431875,-5.314504 0.388523,-10.887902 -1.73107,-15.869422 -0.522381,-0.976743 -0.887946,-2.186229 -1.846989,-2.812987 -0.115919,0.02576 -0.231839,0.05152 -0.347759,0.07728 z M 136.03281,19.862737 c -0.94598,0.198823 -0.93431,1.431291 -1.13566,2.185558 -0.0145,0.739891 -0.51152,1.910169 0.4877,2.17269 1.76293,0.842176 4.2912,0.364573 5.1186,-1.549125 0.25439,-0.733575 0.47386,-1.788557 -0.15456,-2.384084 -1.05726,-0.495794 -2.3142,-0.217449 -3.44649,-0.389428 -0.28972,-0.0081 -0.57978,-0.04866 -0.86959,-0.03561 z m -13.58194,-0.166152 c -1.40596,0.126027 -2.90728,0.137299 -4.19243,0.730295 -0.34636,1.964487 0.31066,4.491268 2.36863,5.270487 1.15855,0.544478 2.14715,-0.593984 2.72798,-1.460589 0.81765,-1.297302 1.35539,-2.876382 1.24034,-4.404953 -0.57659,-0.458246 -1.45814,-0.05824 -2.14452,-0.13524 z M 90.368132,19.542026 c -1.57423,0.0075 -3.210259,0.247977 -4.578833,1.047142 -0.604214,0.628828 0.31196,1.22383 0.788255,1.549461 3.582697,2.411905 7.592226,4.348142 11.88178,5.05024 2.114026,0.24953 4.620626,0.117538 6.062606,-1.676973 1.13702,-1.366707 1.39112,-3.301012 1.13243,-4.995186 -0.47766,-0.555517 -1.30152,0.02736 -1.9516,-0.08597 -4.130393,0.161505 -8.191708,-0.797769 -12.30681,-0.893831 -0.342615,-0.0044 -0.685304,-0.0052 -1.027828,0.0051 z m 58.013998,-0.08887 c -2.09849,0.320737 -4.222,0.423486 -6.34081,0.529367 -0.96309,0.295788 -0.79314,1.568304 -0.99162,2.347049 -0.0554,0.689016 -0.11811,1.445652 -0.82059,1.799016 -1.41394,0.989996 -3.49148,1.14677 -4.98069,0.220248 -1.25228,-0.812167 -1.18676,-2.520505 -0.61752,-3.731039 0.499,-0.952832 -0.69287,-1.087636 -1.36085,-0.963714 -2.52275,0.03017 -5.06774,-0.05971 -7.57681,0.0443 -0.71154,0.38058 -0.31192,1.418764 -0.52985,2.10022 -0.19379,2.011561 -1.77322,4.053201 -3.92968,4.030145 -1.79259,0.05788 -3.58591,-1.361598 -3.59351,-3.214842 -0.13679,-0.716245 0.28714,-1.610277 -0.18891,-2.189681 -1.06254,-0.270851 -2.25379,-0.03325 -3.36595,-0.107494 -2.31303,0.03697 -4.64761,-0.04662 -6.94717,0.06127 -0.70395,0.365629 -0.2964,1.395213 -0.44797,2.065643 0.009,1.898365 -1.35321,3.530629 -2.85605,4.528846 -1.8943,1.333081 -4.332503,1.314916 -6.514694,0.931223 -4.205537,-1.029424 -7.787092,-3.580846 -11.626757,-5.479143 -0.707902,-0.170469 -0.887576,0.765861 -1.433541,1.051006 -1.475265,1.441403 -3.387094,2.536791 -4.432001,4.358585 -0.314392,0.632698 -0.337669,1.88188 0.66814,1.708089 7.298997,0.272606 14.604002,-0.0884 21.905303,-0.08463 7.27219,0.03375 14.53583,0.465576 21.80452,0.664025 7.53335,0.273349 15.07643,0.588926 22.56186,1.51855 0.90131,-0.187023 0.65361,-1.379415 0.84622,-2.044053 0.56439,-3.269532 1.8697,-6.449066 1.89469,-9.802209 -0.0779,-0.571247 -0.73544,-0.396598 -1.12576,-0.340774 z m -71.684808,4.578832 c -0.676407,0.59905 -0.73512,1.638878 -0.942814,2.472956 -0.258536,0.780409 0.141976,1.642089 0.95827,1.831533 1.357853,0.48776 3.166029,-0.485199 3.153019,-2.005413 -0.08446,-0.774797 -1.043987,-0.45211 -1.38331,-1.01623 -0.561847,-0.415871 -0.976139,-1.473606 -1.785165,-1.282846 z m -18.960617,-1.01623 c -0.998917,-0.05617 -1.064488,1.139726 -1.058734,1.866309 -0.01477,0.930531 0.560924,2.095541 1.564917,2.18702 0.751099,-0.361943 0.739862,-1.393168 0.919631,-2.105876 0.167487,-0.940603 -0.282778,-2.099526 -1.425814,-1.947453 z m 17.936659,-6.796765 c -5.379685,0.220071 -10.636764,1.632725 -15.732655,3.282729 -3.312666,1.058315 -6.524051,2.52491 -9.230063,4.741009 -2.895309,2.213856 -5.525524,4.797912 -8.804723,6.454646 -0.709128,0.675446 0.370272,1.118787 0.980731,1.029592 10.82612,0.726599 21.740406,-0.167181 32.392582,-2.084462 0.65768,0.01339 1.078932,-0.790986 0.544823,-1.24807 -0.967399,-0.980957 -0.653291,-2.520581 -0.170015,-3.643746 0.60848,-1.401 1.498555,-2.70737 2.098148,-4.076513 0.176522,-0.832199 -0.965776,-0.895139 -1.506552,-1.110268 -2.652984,-0.622969 -5.654375,-0.669708 -8.087744,0.700684 -1.930821,1.272201 -2.388529,3.728663 -3.153019,5.749623 -0.369337,1.054695 -0.746484,2.140517 -1.522413,2.975275 -2.629272,-0.105842 -5.389604,0.256104 -7.909595,-0.606647 -0.976114,-0.39533 -1.907964,-1.13443 -2.202477,-2.179292 0.253985,-0.236217 0.244392,-0.856288 0.633695,-0.888719 0.322539,0.875224 0.325033,2.200805 1.464454,2.4575 0.663331,0.237444 1.323627,-0.53124 0.850079,-1.11283 -0.113682,-1.01062 -0.198705,-2.099941 0.03864,-3.102787 0.275317,-0.665499 0.846096,-1.429667 1.619014,-1.468318 1.768641,0.687383 2.103913,3.065524 1.490324,4.649526 -0.223083,0.506542 -0.603745,1.405478 0.190513,1.621736 1.178099,0.209685 2.446676,0.492178 3.616698,0.200928 0.346126,-0.971871 0.338623,-2.050411 0.745751,-3.025507 1.308928,-4.484953 6.064542,-7.621347 10.703262,-7.040197 1.393575,0.09391 2.749412,0.561281 4.033896,1.083368 0.833958,-0.178199 1.589562,-0.795325 2.26055,-1.342255 0.589821,-0.374649 0.383275,-1.248309 -0.293664,-1.356262 -1.624492,-0.488124 -3.354557,-0.67951 -5.050239,-0.660743 z m 21.058765,15.533254 c -2.300698,0.0599 -4.623864,0.0091 -6.908821,0.255024 -0.88033,0.371384 -0.25589,1.428764 0.03864,2.005413 1.590745,2.86791 4.027156,5.226028 5.328448,8.249626 0.549138,1.501073 0.6562,3.450544 -0.486864,4.698616 -1.407089,0.996556 -3.250988,0.218208 -4.628415,-0.412992 -1.236568,-0.565308 -2.260038,-1.463736 -3.340655,-2.245495 -0.91784,-0.247335 -0.658,0.936234 -0.57422,1.479969 0.332404,3.367664 0.678771,6.819584 0.13524,10.170032 -0.32062,1.564097 -0.8075,3.5149 -2.484548,4.142201 -1.427894,0.44067 -3.182872,-0.153714 -3.771257,-1.603557 -1.12652,-2.26274 -1.077422,-4.892034 -1.482572,-7.358134 -0.284294,-1.782838 -0.332688,-3.669745 -1.073274,-5.329721 -0.59097,-0.664301 -1.044164,0.312975 -1.022213,0.87949 -0.461098,1.87446 -1.407747,3.88871 -3.226434,4.768168 -0.964342,0.276846 -2.073418,0.374325 -3.017779,0.05023 -1.399267,-2.653824 -0.802148,-5.826033 0.146831,-8.520106 0.453021,-1.546663 1.275484,-2.983017 1.599694,-4.559512 -0.04788,-0.77516 -0.963638,-0.606201 -1.398766,-0.258888 -2.937745,0.948832 -6.041101,-0.01966 -9.040973,-0.07784 -5.888826,-0.269969 -11.795497,-0.42685 -17.686271,-0.142406 -2.746224,0.312545 -5.886751,0.694171 -7.762763,2.967547 -1.999147,2.58949 -2.142457,6.075703 -1.96663,9.218723 0.171252,3.633433 1.284823,7.142366 3.00218,10.329221 2.732234,5.464581 6.515555,10.477976 8.223061,16.402465 0.677125,2.352991 0.759578,4.875435 0.455469,7.299272 -0.566538,2.252667 -2.100601,4.231272 -3.93741,5.583471 -2.408083,1.429202 -5.469687,1.577451 -8.122114,0.819167 -0.6728,-0.103163 -1.296709,-0.928918 -1.982229,-0.525503 -0.39722,0.728466 0.412365,1.424468 0.521639,2.156108 0.626573,2.077964 0.771633,4.737016 -0.877127,6.383318 -0.705716,0.751511 -1.731038,1.020291 -2.691622,1.217968 -0.606782,0.47657 -0.197991,1.46347 -0.341613,2.1553 0.09714,0.69224 -0.281743,1.5892 0.194513,2.14011 1.101807,0.29082 2.335077,0.20265 3.42605,0.61878 1.058758,0.24032 1.938233,0.9836 2.971411,1.22879 35.432821,0.0103 70.865645,0.0206 106.298465,0.0309 0.88318,-0.25603 0.32392,-1.37361 0.40577,-2.04357 -0.37106,-7.19896 -1.13492,-14.382869 -1.15538,-21.596342 0.0247,-7.740022 1.01909,-15.52304 -0.008,-23.234917 -0.60211,-3.241087 -1.71627,-6.36217 -2.45075,-9.569895 -1.15023,-4.50945 -3.20653,-9.067433 -6.98742,-11.967214 -1.78821,-1.328879 -3.98584,-2.121347 -6.22968,-2.020937 -2.71643,-0.09196 -5.46194,0.170006 -8.02938,1.085782 -3.83812,1.27476 -7.75704,3.420189 -9.67544,7.148389 -0.66355,1.445878 -1.1319,3.187705 -0.61998,4.734313 0.81175,0.486573 1.95459,0.116213 2.75677,-0.337088 1.29667,-0.836756 1.47733,-2.545081 2.28362,-3.759666 0.18113,-0.293444 0.49859,-0.88478 0.90804,-0.517775 0.59487,0.392567 1.56344,0.365358 1.932,1.023958 -1.11486,2.059929 -2.62636,4.012004 -4.6252,5.266623 -1.36923,0.83526 -3.29791,1.091828 -4.66384,0.146832 -2.04531,-1.491102 -2.22409,-4.480268 -1.18746,-6.612754 1.74555,-3.825272 5.53142,-6.232266 9.23396,-7.9356 2.3271,-1.092866 4.8259,-1.795675 7.32967,-2.297176 0.86846,-0.721136 -0.53988,-1.130185 -1.17157,-0.958183 -7.52189,-0.235994 -15.03243,-0.834012 -22.562421,-0.770505 z" />
  </g>
  <g
     inkscape:groupmode="layer"
     id="layer2"
     inkscape:label="Layer"
     style="display:inline">
    <path
       transform="translate(76.70308,-307.78914)"
       d="m -69.767638,405.56027 c -1.574125,-0.11287 -3.305625,2.23725 -1.79875,4.19963 4.022875,0.63775 4.370125,-4.01263 1.79875,-4.19963 z m 4.498624,-17.98787 c 3.2895,-1 -0.433125,-6.77488 -3.598624,-4.5 -1.640625,2.82525 1.38575,5.17487 3.598624,4.5 z m -1.498999,-15.89988 c 1.152249,0.625 3.423749,0.13775 3.598624,-1.20025 -0.707125,-1.46237 -4.087874,-1.11225 -3.598624,1.20025 z m 3.598624,51.88725 c -3.143625,1.23775 -4.610374,7.2875 -2.69875,10.7875 4.1635,-0.2875 4.902375,-7.79975 2.69875,-10.7875 z m -0.600625,-65.97475 c -2.889125,0.875 -1.626,6.91225 1.5005,4.50013 -0.807125,0.19962 -0.580125,-0.625 -0.899875,-0.89988 0.556625,-0.2505 1.210875,-0.38775 1.499,-0.9005 0.180625,-1.78725 -0.358875,-2.83725 -2.099625,-2.69975 z m -1.499,102.25013 c 0.244125,3.66262 4.23,4.08737 5.997,1.79975 0.7525,-4.86225 -4.542875,-4.23725 -5.997,-1.79975 z m -4.498624,-2.38775 c 0.311625,1.60012 1.800875,4.42487 3.599124,4.1875 -0.716749,-0.53763 -0.168375,-2.33738 0,-3 1.5855,-0.41263 2.24075,-1.75 4.197875,-1.78763 -1.498125,-8.08737 4.17225,-15.2875 2.399875,-24.5995 -0.436125,10.11225 -12.556124,13 -10.196874,25.19963 z m 9.596249,-112.46238 c 0.173375,-0.725 1.132875,-0.6625 1.799375,-0.9 -0.1465,-2.75 -0.57775,-5.2125 -2.399,-6.2875 -2.0395,1.8125 -0.42425,6.1625 0.599625,7.1875 z m 1.5005,-10.7875 c -2.19875,-1.9875 -5.232,-3.8 -8.697749,-3 -6.59575,1.5125 -9.65575,17.5625 -1.19875,19.1875 1.110875,-0.5875 1.245125,-2.15 1.499,-3.6 -1.36375,0.4 -4.122,1.3375 -4.498,-0.6 0.07663,-1.6375 1.784125,-2.7375 2.999,-2.7 1.466375,0.0625 2.088374,1.925 2.997999,2.4 0.546,0.2875 1.72125,0.0375 2.099625,0.3 4.1275,2.9125 5.505375,9.175 3.899,15.3 1.59425,3.38775 -0.477625,8.04975 -1.799375,10.48725 1.90675,4.3125 1.326625,10.61288 -0.899375,14.4 -1.03025,4.1 -0.541,9.5005 -4.498499,11.1 -2.085,0.838 -4.5875,0.025 -6.297375,1.20025 -3.03225,2.0625 -2.96875,6.94975 -0.300875,10.48725 -1.395,-5.54975 7.369624,-6.225 6.59825,-0.89987 -0.24425,1.67537 -1.626,2.1875 -3.298375,3 1.6855,1.95025 3.498499,3.54987 5.097624,5.70025 1.51125,2.02487 2.34375,5.13712 5.097625,6 0.184625,-6.63775 -1.2905,-12.46238 -2.9995,-18 -6.436499,2 -4.241624,-7.38775 1.5005,-5.70025 4.795875,-18.1875 2.80425,-36.25 2.998125,-51.87488 -8.354499,1.925 -8.583124,-13.8375 -0.298875,-13.1875 z m 0.599125,-8.4 c 0.04888,3.35 1.8335,4.9625 3.897875,6.3 -0.537,-2.8625 -2.167875,-4.625 -3.897875,-6.3 z m 2.098625,139.4375 c -2.931125,1.83738 -3.63825,11.1499 1.79925,8.7002 -0.149375,-1.6504 -0.92425,-2.67532 -1.198625,-4.2002 0.3085,-1.38775 1.825625,-1.57525 2.098125,-3 -0.964375,-0.4375 -1.67975,-1.11275 -2.69875,-1.5 z m 2.999,-20.98725 c -1.578625,-0.0255 -1.853,-1.35012 -2.69925,-2.10012 -0.7245,5.08737 -5.086375,12.21237 2.099625,13.19962 0.454125,-4.11225 0.493625,-6.9375 0.599625,-11.0995 z m 0,-1.5 c 0.0035,-0.80037 -0.11325,-1.713 0.30025,-2.10012 -1.223125,-0.0874 -1.6635,2.04975 -0.30025,2.10012 z m -0.899375,-46.47512 c -5.925375,2.61225 -5.187,8.08737 -2.69925,13.1875 1.233875,0.5625 2.44875,1.14987 3.898875,1.5 0.543,-5.73788 -1.88475,-9.77488 -1.199625,-14.6875 z m 1.79875,31.78762 c -0.1875,-0.91262 0.384875,-2.588 -0.30025,-3 -0.408625,0.912 -0.4145,2.39988 0.30025,3 z m -0.30025,2.687 c -0.49075,-2.23737 -2.09075,-3.17487 -1.798875,-5.38725 0.207625,-1.57525 1.8385,-2.6875 2.099125,-4.20025 0.564,-3.26212 -1.145,-5.77487 -0.599125,-8.69962 -1.2875,-0.11288 -1.993625,-0.80038 -3.29925,-0.90038 1.309625,10.9125 1.036125,18.30025 1.19975,28.7875 2.08,-1.17475 3.23725,-5.76212 2.398375,-9.6 z m -4.498,-97.14975 c -1.09375,-0.0125 0.729,1.2375 1.199625,2.1 1.3565,2.475 1.620125,6.1 2.399,8.9875 -1.654375,2.175 -0.40525,6.45 -0.299375,9.6 0.477625,14.2625 -0.147375,29.03738 -2.69875,42.28738 0.476125,-1.22513 2.558625,-0.85013 2.998125,-2.10013 0.588375,-5.19962 2.355875,-12.01212 0.6005,-16.79975 -0.13525,-1.53762 1.15725,-1.63775 1.19875,-3 -0.252375,-11.01275 -2.081,-22.3125 -1.19875,-33.2875 0.51425,-0.375 1.17925,-0.6125 1.19875,-1.5 -0.795875,-3.1 -3.651375,-4.1375 -5.397875,-6.2875 z m 2.099625,130.73763 c 1.21825,0.38712 1.8725,1.32462 2.9995,1.79975 0.271,-0.52488 1.1035,-0.48725 1.19875,-1.19963 -0.856,-1.11287 -3.008375,-2.20025 -4.19825,-0.60012 z m 6.297375,-9.88775 c 0,0.89987 0,1.79987 0,2.70025 1.598125,-0.13775 2.242625,0.58737 2.9985,0 -0.881875,-1.01275 0.171875,-4.21288 -0.299375,-4.80038 -0.475,1.125 -1.745625,1.45025 -2.699125,2.10013 z m 0.30075,-56.97513 c 0,2.88775 0,5.78763 0,8.6875 5.055625,0.1875 3.7265,-8.44962 0,-8.6875 z m 0.599125,34.47513 c -0.001,2.64987 -0.224625,3.46237 -0.300375,5.70025 0.600625,0 1.20025,0 1.799375,0 0.679625,-2.01275 1.119625,-4.27488 1.499,-6.60013 -1.138625,0.16263 -1.662625,0.9375 -2.998,0.89988 z m 0.30025,-9.28763 c 0.19775,2.60013 -0.398,5.98788 0.299375,8.0875 0.6,-0.5875 1.871,-0.525 2.398375,-1.187 0.256375,-3.463 -0.714375,-5.688 -2.69775,-6.9005 z m 0.299375,-47.6875 c 0.2255,1.82525 -0.478625,2.72513 -0.299375,4.5 3.3545,0.025 2.9575,-3.89987 0.299375,-4.5 z m -10.795,85.16263 c 0.044,1.54987 -0.59325,2.41262 -1.199625,3.29987 2.496,1.01263 4.253875,-1.26225 6.29725,-1.19975 1.791125,0.0625 2.634375,1.47513 4.498625,2.10013 0.818875,-1.47513 3.566875,-1.02488 4.19775,-2.70025 -3.535125,-2.5625 -9.829125,-0.52488 -13.794,-1.5 z m 13.493625,-80.66263 c -1.249,0.1505 -1.6445,1.15 -2.998,1.20025 -0.0645,2.32525 -0.67775,3.875 0,6 1.9615,-1.375 3.684125,-4.125 2.998,-7.20025 z m -3.29825,-15.2875 c 0.4335,2.86275 0.649375,5.95013 0.599625,9.2875 2.095625,-0.1875 2.435,1.36288 3.29775,2.4005 -0.222125,-4.97512 -0.73675,-9.6505 -3.897375,-11.688 z m 2.098625,75.26263 c -4.53425,1.96237 -2.665125,7.5 -2.69775,13.5 4.097625,-1.66263 7.00675,-10.3125 2.69775,-13.5 z m 4.19925,-95.36238 c -0.61525,-0.575 -0.985375,-1.4125 -1.5005,-2.1 -3.215375,-0.1625 -5.100125,-0.35 -6.59675,1.5 2.24275,5.7625 -0.265125,13.3875 2.998125,19.20025 -1.942375,-6.83775 -0.65575,-15.52525 5.099125,-18.60025 z m -6.297875,68.97525 c -0.22225,2.14988 0.08638,5.21238 0.30025,7.79975 2.851625,1.25 3.903875,4.28763 4.497125,7.79975 7.0165,-4.08737 3.81925,-15.662 -4.797375,-15.5995 z m 8.096625,-79.16275 c 0.0049,0.45 -1.11425,1.225 -0.29975,1.5 0.253375,-0.575 1.315375,-0.8125 1.79875,-0.3 -0.01312,-0.4125 0.141625,-0.6625 0.300875,-0.9 -0.3555,-0.35 -1.061125,-0.35 -1.799875,-0.3 z m 2.098625,-13.2 c -2.8305,-3.65 -13.325125,-4.1875 -11.3955,2.7 0.2115,-1.2875 0.840375,-2.1625 2.100125,-2.4 1.21775,0.4125 0.92875,2.0625 1.19875,2.7 0.137625,-1.9 3.5215,-2.9375 5.098625,-1.5 0.99025,5.1125 -5.746125,10.025 -1.20025,14.4 -0.430625,-3.225 1.7315,-5.1375 4.798875,-3.9 0.838875,-4.3375 2.246125,-8.325 -0.600625,-12 z m -4.498,130.14975 c -2.482,0.4 -2.857875,4.213 -2.098625,6.9005 2.951625,0.63713 6.015625,1.17475 9.295375,1.5 0.01463,-1.48787 0.354,-2.6505 0.599625,-3.9005 -3.606875,-0.5 -5.71775,-2.48725 -7.796375,-4.5 z m 7.796375,-121.44975 c -0.201125,1.3 -1.17525,3.4125 -0.599625,4.5 0.765625,-0.625 2.062,-3.625 0.599625,-4.5 z m 0,-1.5 c 1.001,0.3 0.983875,-0.4125 0.899375,-1.2 -0.7895,-0.0875 -0.983875,0.4125 -0.899375,1.2 z m -6.897,14.3875 c 0.75925,0.25 0.765125,1.2375 1.20025,1.8 2.92575,-0.8375 7.294375,-1.25 9.896,-1.5 -3.5245,-0.4125 -7.110375,-1.025 -11.09625,-0.3 z m 9.896,-15.5875 c -0.67725,2.025 -1.876,5.1125 -1.4985,7.2 3.304125,-1.8875 1.90775,-3.575 1.4985,-7.2 z m 11.695875,4.5 c -0.44775,1.375 -0.318375,2.825 0.899875,3.3 0.437,-0.9625 1.418,-3.65 -0.899875,-3.3 z m 2.398875,128.63763 c -0.601125,-0.63775 -1.7275,-1.875 -0.899875,-2.98788 -5.402875,0.588 -10.629,1.125 -14.993625,-0.89987 0.158125,1.54987 -0.395625,2.39987 -0.599625,3.60012 4.375,1.0625 13.2885,1.875 16.493125,0.28763 z m -14.994125,5.39987 c 1.5845,5.14988 12.606,5.47513 15.8935,1.5 -5.505375,-0.0874 -10.710375,-2.07525 -15.8935,-1.5 z m 8.096625,-122.95 c 3.21775,1.9125 11,-0.4 15.2935003,1.2 0.92625,-0.675 1.726125,-1.475 2.399375,-2.4 -6.3168753,0.65 -11.1767503,0.9 -17.6928753,1.2 z m 19.7915003,12.9 c 0.46875,-2.2375 2.312,-4.675 1.799375,-6.9 -0.463875,2.2375 -2.86625,4.125 -1.799375,6.9 z M -15.189389,460.1349 c 4.802125,-0.45013 9.3993753,-0.42475 14.0937503,-1.5 -0.319375,-4.29975 -19.6875003,-3.42475 -14.0937503,1.5 z m 9.8958753,7.20025 c 0.22375,1.83737 2.5025,3.01212 3.8975,2.69962 0.61287501,-0.58737 0.89500001,-1.5 0.89987501,-2.69962 -1.59912501,0 -3.19825001,0 -4.79737501,0 z m 1.799375,-4.5 c 1.38275,0.11225 1.725125,0.375 2.99800001,0 -0.04637,-0.35013 0.05138,-0.85013 -0.30025,-0.89988 -0.35250001,0.8495 -2.73437501,-0.32525 -2.69775001,0.89988 z M 0.10298631,332.09752 c -0.27775,1.0125 -0.839375,1.75 -0.599125,3.3 1.09625,1.0125 3.33837499,0.325 3.29837499,-1.5 -1.34525,0.375 -1.484375,-1.2625 -2.69924999,-1.8 z m 0.601125,-3.9 c -2.54050001,-1.1625 -6.48825001,-1.15 -8.69625001,0 -3.2607503,1.6875 -2.6098753,6.9 -5.0991253,9 -4.1285,0.0375 -9.546,0.6375 -10.795,-3.3 0.69725,-0.2 0.226125,-1.575 1.499,-1.2 0.613375,0.7875 -0.0083,2.8 1.799875,2.4 -0.746125,-1.4875 -0.79,-5.2125 1.798875,-5.7 2.484375,0.65 2.927125,4.1625 1.4995,6.3 1.095625,0.2 2.181125,0.4125 3.598625,0.3 0.48525,-7.4 8.0527503,-12.8125 15.8930003,-9 0.629875,-0.675 1.86825,-0.7375 2.099625,-1.8 -6.451125,-2.375 -18.4897503,1.5 -23.9902503,3.6 -6.5185,2.4875 -9.84375,7.875 -15.293,10.2 11.0465,0.9875 23.468375,-0.1375 34.18462531,-2.1 -3.11862501,-2.5625 0.67975,-6.3375 1.5005,-8.7 z m 2.39837499,14.6875 c 1.2915,5.2625 0.371125,13.8375 3.298375,19.49988 0.985375,-6.86238 0.17825,-15.31238 -3.298375,-19.49988 z m 3.298375,-2.3875 c 2.904375,2.2875 4.4766247,7.5125 7.1974997,8.9875 -2.33025,-2.8625 -3.9088747,-8.0875 -7.1974997,-8.9875 z m 7.4974997,120.53725 c -2.20375,-0.14987 -4.6849997,0.4375 -6.8968747,0.60013 -2.264125,0.1875 -5.050375,-0.48725 -5.9985,1.20025 4.7485,0.44962 8.48475,1.91262 13.4953747,2.10012 -0.21625,-1.713 0.31875,-2.67537 0.3,-4.20025 -0.3525,0.0498 -0.8525,-0.0497 -0.9,0.29975 z m -8.9964997,-2.6875 c 3.8535,-0.14987 7.7514997,-0.25 10.7964997,-1.19962 -3.1975,-1.9375 -8.0718747,-0.0752 -10.7964997,1.19962 z m 10.4952497,-7.5 c -7.2739997,0.525 -13.0709997,2.5255 -19.1914997,4.20025 2.313375,0.27488 3.01850001,2.17475 4.49850001,3.29975 4.30612499,-1.57462 10.46087469,-4.79975 15.89299969,-2.39987 1.91,-2.27488 -0.51875,-3.0625 -1.2,-5.10013 z m 1.5,0.30038 c 0.87625,0.22462 0.58,1.61225 1.79875,1.5 0.4625,-0.63775 0.8625,-1.33738 1.2,-2.10013 -1.23125,-0.0376 -2.44875,-0.0497 -2.99875,0.60013 z m 1.5,4.19962 c -0.13,0.5625 -0.6475,0.75 -0.60125,1.5 0.91125,0.4005 2.405,0.41263 3,-0.29975 -1.2575,0.0498 -0.92875,-1.47512 -2.39875,-1.20025 z m -1.2,-11.0995 c -0.795,0.5 -1.27375,1.32463 -1.2,2.69963 1.82875,0.0249 3.50875,-0.0874 4.79875,-0.60013 -0.85375,-1.04975 -1.44375,-2.3495 -3.59875,-2.0995 z m 0.3,25.1875 c 1.06875,1.0625 4.48375,2.0625 4.4975,-0.60012 -1.53,0.17475 -3.85625,-0.45025 -4.4975,0.60012 z m 2.09875,-9.30037 c -0.415,0.6875 -2.0875,0.11287 -2.99875,0.29987 -0.71875,1.17525 -0.90375,3.13763 -0.6,4.5005 1.9025,-0.1875 4.59375,0.39988 5.9975,-0.30037 -0.76625,-1.52488 -0.935,-3.66263 -2.39875,-4.5 z m -0.3,-135.83738 c 1.83375,0.475 5.671248,0.525 7.496248,0 -1.53625,-1.9375 -6.339998,-3.1375 -7.496248,0 z m 9.296248,4.2 c -6.673748,1.0625 -14.529998,-2.4875 -19.4919977,0.3 4.0869997,3.5875 20.3569977,11.35 19.4919977,-0.3 z M 21.694611,460.1349 c 0.46,1.54987 1.49875,2.5 1.5,4.5 3.906248,0.0127 7.688748,-0.10013 11.094998,-0.60013 -3.83125,-2.02487 -7.7475,-5.375 -12.594998,-3.89987 z m 13.493748,-24.88713 c -0.14875,3.04975 0.3675,5.4375 1.8,6.89988 -0.57875,-2.3125 -0.70125,-5.10013 -1.8,-6.89988 z m -6.29625,24 c 2.35375,1.9375 5.4225,3.162 8.09625,4.787 0.40375,-2.1875 1.71875,-3.4745 2.69875,-5.08737 -3.72,-0.0249 -7.47,-0.0751 -10.795,0.30037 z m -7.197498,-8.70025 c -2.64,2.63775 -1.81875,5.28763 1.799998,6 1.7625,0.33738 5.14375,-0.61275 8.39625,-0.89987 4.375,-0.38775 7.4075,0.35012 8.39625,-0.60013 -4.73625,-3.46237 -10.92625,-5.14987 -18.592498,-4.5 z m 19.791248,17.98725 c -1.62625,-0.2245 -2.42875,0.375 -3.8975,0.30038 -0.0687,4.06247 1.805,6.19967 4.7975,7.19967 1.61125,-2.25 0.7,-5.9873 -0.9,-7.50005 z m -8.09625,-143.63725 c 4.51625,-0.2375 9.21,0.45 11.395,-1.5 -3.04625,-2.45 -9.40625,-0.7625 -11.395,1.5 z m 11.395,102.86238 c -0.2525,4.30037 -1.85125,12.11287 -0.59875,15.28762 0.49375,-5.42525 1.96375,-11 0.59875,-15.28762 z m -2.9975,-99.26238 c 0.0825,2.1125 0.47625,4.3875 2.9975,4.8 1.78125,-1.025 2.72125,-3.45 2.69875,-5.4 -2.1675,-0.075 -4.085,0.1125 -5.69625,0.6 z m 5.0975,124.15013 c 2.04375,-4.95025 7.3075,-8.28763 6.2975,-15.30038 -2.6725,4.32525 -5.99125,9.60013 -6.2975,15.30038 z m -1.49875,6.60012 c -1.2575,0.0497 -2.4175,-0.63775 -3.29875,-0.30037 -2.045,0.76275 -3.00625,3.45025 -3.59875,5.38775 5.98375,1.01212 13.59875,-1.77488 19.19125,-3.90038 -2.53375,-2.82475 -7.46,-1.38725 -12.29375,-1.187 z m 2.9975,-135.25025 c 4.79875,-0.1375 7.29125,0.225 11.695,0.3 0.0888,-0.6125 0.8125,-0.5875 0.9,-1.2 -3.3725,-3.025 -9.6175,-1.4 -12.595,0.9 z m 14.99375,4.2 c -1.465,-0.0375 -3.16,0.1625 -4.1975,-0.3 -0.3625,1.0375 -0.8125,1.9875 -0.6,3.6 2.25,1.425 6.0625,-0.1875 4.7975,-3.3 z m -5.9975,130.74988 c 1.1575,0.33737 1.70625,1.28762 3,1.48737 1.11625,-0.97462 3.63375,-0.562 4.4975,-1.79987 -2.4025,0.20025 -5.595,-0.38763 -7.4975,0.3125 z M -16.689014,346.18502 c -7.713375,0.0125 -17.795375,-1.075 -22.190875,1.5 -3.743625,2.2 -3.67525,8.4 -2.999,12.90013 1.56975,10.4375 13.419875,19.75 11.395,31.48725 -0.32225,1.86287 -2.336375,4.60012 -3.898,5.70025 -3.13325,2.1875 -10.57125,2.41262 -11.9955,-2.10013 -0.769125,-2.45025 1.3705,-10.02487 5.099125,-6 0.484375,1.69975 -0.859375,4.07475 0,5.70025 3.656625,0.27488 5.1425,-1.98787 5.396375,-4.80037 0.530875,-5.875 -4.178125,-14.41263 -6.596625,-17.69963 -0.266125,5.17475 0.878875,13.037 -5.398,15.29975 0.06938,3.01275 -0.25875,4.07525 -0.29875,7.20025 5.0385,1.0995 7.15675,11.88713 0.29875,12.58738 0,1.19962 0,2.39987 0,3.59962 11.582125,0.21288 13.881875,14.86275 4.798375,18.58788 0.580125,3.36225 -3.3945,7.85012 -0.29975,9 1.063875,-2.41263 4.104,-6.08738 9.295375,-4.5 2.90775,2.34962 1.36625,13.14987 -3.298375,9.60012 0.758375,-1.53762 1.82375,-6.0005 -0.29875,-6.9005 -2.793,2.1875 -2.373625,7.588 -0.9,10.5 3.4165,-0.0746 4.5215,3.10013 5.997625,4.20025 1.247,0.92475 3.71675,1.67475 5.997,1.79975 14.051875,0.78763 28.4033753,-5.01212 41.383375,-6.89987 -0.09125,-1.38713 0.0025,-2.60013 0.59875,-3.29975 3.57875,-2.02488 6.11125,0.97512 7.49625,3 3.261248,-0.375 7.971248,0.375 11.996248,0.89987 -1.87875,-3.38775 -5.415,-12 -2.69875,-17.10012 2.48375,-4.66263 7.475,0.28762 7.79625,3.60012 1.21625,-5.77487 1.14375,-12.85012 8.0975,-12.88775 3.02375,3.4375 1.49,11.01275 0.89875,15.88775 2.0275,-3.30025 9.8625,-6.32525 8.09625,3 -2.78,3.02488 -3.84625,7.75 -5.6975,11.70025 2.2225,-1.25 6.60875,-1.4005 8.69625,-3.30037 1.19875,-1.08738 2.4575,-4.97513 3,-7.5 1.02125,-4.76213 0.41625,-8.625 0.59875,-13.1875 0.0613,-1.54975 0.78625,-3.39988 0.9,-5.39988 0.51875,-9.16262 -0.9025,-19.95025 -1.2,-29.38775 -0.305,-9.71237 1.22375,-17.19962 0,-26.08737 -0.28625,-2.08738 -1.44625,-5.0625 -2.09875,-8.09988 -1.53875,-7.1875 -5.36,-14.1125 -11.695,-15 -7.88125,-1.0875 -20.69875,3.9125 -19.4925,12.3 4.38875,0.2625 2.88375,-3.8875 5.39875,-5.1 0.67625,0.825 2.47,0.525 2.69875,1.8 -1.74125,3.075 -5.29875,7.78738 -9.59625,6 -1.185,-0.5 -2.24,-2.275 -2.39875,-3.6 -0.955,-7.9375 11.30375,-13.7 18.2925,-14.4 -10.37875,-0.125 -20.00375,-1.4 -31.487498,-0.5875 0.6975,3.6125 7.10125,8.0125 6.2975,12.8875 -0.87375,5.2875 -7.8375,1.2125 -9.5966247,-0.9 0.8261247,5.3125 1.9678747,17.65013 -4.497125,16.19988 -4.45062499,-1.01213 -2.9995,-10.26238 -4.79824999,-14.69988 -0.71825,3.525 -2.54150001,7.38738 -7.19737501,5.99975 -2.719625,-4.84975 0.92725,-10.76225 1.798875,-13.79975 -3.567875,2.0125 -6.9452503,0.3 -11.6943753,0.3 z m 82.166123,105.56275 c -0.295,0.39988 -0.80125,0.5995 -1.2,0.89988 -0.21625,0.91212 0.30625,1.08737 0.3,1.79975 0.55625,0.83737 2.22875,0.5625 3.59875,0.60012 -0.2325,-1.77487 -1.04,-2.96237 -2.69875,-3.29975 z m 2.0975,-11.70025 c -1.32625,8.27488 -6.3125,12.875 -13.79375,15 3.42875,0.33738 5.30375,-0.11225 9.59625,0 -0.1,-1 -0.86875,-1.33737 -0.59875,-2.70025 1.285,-2.23725 5.34,-2.17475 6.2975,0.30038 -1.095,-3.60013 1.09125,-10.48788 -1.50125,-12.60013 z m 1.50125,-9 c -1.235,-0.0752 -0.505,2.5625 -0.60125,3.89988 -0.0937,1.33737 -1.46,3.29987 0.3,3.89987 -0.2075,-2.75 0.64375,-5.89987 0.30125,-7.79975 z m 0.59875,-4.1875 c -0.72875,-0.17525 0.72375,-2.23725 -0.3,-2.70025 0.0613,0.80038 -0.9025,3.5255 0.3,2.70025 z m 0,-20.39987 c -0.50125,3.01212 -0.52,11.97462 0,15 0.12875,-3.89988 0.7025,-9.86288 0,-15 z m 0.3,-1.5 c -0.19375,-1.30038 0.39125,-3.38775 -0.3,-4.20025 -1.065,0.97512 -1.2575,3.57525 0.3,4.20025 z m -1.2,-5.70025 c 0.12375,-0.375 0.3875,-0.61225 0.9,-0.58738 0.835,-2.625 -0.006,-5.6875 0,-8.70025 0.009,-4.1875 1.3375,-8.9125 -0.59875,-12 -0.98125,4.60013 -1.1975,15.98788 -0.30125,21.28763 z m 1.2,-22.1875 c 0,-2.60013 0,-5.20013 0,-7.79975 -2.8825,1.02487 -2.16875,6.77487 0,7.79975 z m 0,-25.78738 c 0,-1.8 0,-3.6 0,-5.4 -4.93,-0.45 -3.97,5.45 0,5.4 z m 0,-9 c -5.13375,-1 -10.4375,-1.7 -16.49375,-0.9 11.0325,2.9625 11.8625,16.1375 14.99375,26.99988 2.95875,-2.75 0.88,-10.52488 1.5,-15.59988 -6.06375,-0.025 -6.595,-8.6125 0,-8.4 0,-0.7 0,-1.4 0,-2.1 z m -0.89875,-33.275 c -1.93625,1.7125 -3.4325,4.2375 -2.7,7.7875 1.605,-1.3875 6.725,-6.4875 2.7,-7.7875 z m -3.89875,19.1875 c -0.4575,0.8375 -0.28625,2.3125 -0.6,3.3 -2.39,3.2375 -9.7025,1.85 -6.8975,-3.6 -2.89875,0 -5.7975,0 -8.69625,0 0.4475,8.6875 -10.0325,7.6 -8.39625,0.6 -5.30625,0.0375 -6.23625,0.275 -10.19625,0 0.82,4.35 -2.6725,7.2875 -5.99625,7.8 -5.794998,0.8875 -11.994998,-4.15 -15.5938727,-5.7 -1.48525,2.0375 -5.991125,4.175 -5.397875,6.3 9.4817497,0.475 18.2679997,-0.45 27.8879977,0 13.00125,0.6 26.445,0.5375 38.98375,2.1 0.2425,-4.3375 1.97375,-6.4625 2.09875,-11.4 -2.54875,0.2375 -3.76875,0.625 -7.19625,0.6 z m 7.19625,5.4 c -0.10625,1.2 0.005,2.1875 0.9,2.4 -0.26375,-0.8375 -0.375,-1.825 -0.9,-2.4 z m -6.5975,-14.1 c -0.73125,1.475 -2.1225,2.275 -2.9975,3.6 1.6975,2.8875 7.84375,0.7625 10.795,0.3 -3.175,-0.725 -5.58375,-2.2125 -7.7975,-3.9 z m 9.2975,87.56275 c 0.37125,4.19963 -1.1225,7.375 0.3,10.5 0.31125,-2.713 0.8825,-8.2755 -0.3,-10.5 z m 0.3,-7.80037 c -0.065,2.89987 -0.28,3.46237 -0.3,6.60012 1.1875,-0.76275 0.5925,-6.32525 0.3,-6.60012 z m 0.29875,-15.58738 c -0.0637,-0.36225 -0.3325,-0.1875 -0.59875,0 0.57625,3.73725 -1.44625,9.27488 0.59875,11.70025 0.265,-2.26275 -0.1375,-8.713 0,-11.70025 z m -0.29875,-15.28762 c -0.2475,2.07525 -0.82125,7.85012 0.29875,10.48737 -0.4775,-3.4995 0.82875,-8.32475 -0.29875,-10.48737 z m 0,50.375 c -1.16625,1.63775 -0.7925,4.79987 -0.9,7.5 2.895,0.14987 1.36375,-6.13763 0.9,-7.5 z m 0,-62.97488 c -0.18375,2.8875 -1.18625,9.17513 0.59875,11.09988 -0.97125,-4.01213 2.20375,-9.12488 -0.59875,-11.09988 z m -0.3,-17.3875 c 0.3675,1.5625 0.3625,3.9875 0,6.2875 0.8775,-0.075 0.92125,0.6875 1.79875,0.6 -0.72625,-2.175 0.335,-6.125 -1.79875,-6.8875 z m 0,7.4875 c 0.15625,2.95 -0.47125,6.675 0.89875,8.4 -0.41125,-2.5125 2.92125,-7.3875 -0.89875,-8.4 z m 1.19875,81.27475 c -0.84875,0.0504 -1.25,0.53763 -2.09875,0.60013 0.165,1.375 0.10875,4.54987 -0.3,6.28762 1.2375,1.0625 2.42125,2.17475 3.89875,3 -0.435,-2.51275 -0.86,-6.6875 -1.5,-9.88775 z m -2.39875,8.98788 c 0,1.69962 0,3.39987 0,5.09962 2.1625,0.188 2.5575,0.23775 4.7975,-0.29987 -0.41375,-2.78763 -3.0425,-3.35013 -4.7975,-4.79975 z m 6.2975,-64.47513 c -0.12375,0.60013 -0.74375,2.22513 0,2.69975 0.41,-0.51225 1.1775,-2.38725 0,-2.69975 z m -2.7,-49.475 c 1.7875,-0.6125 2.98625,-1.8125 3.59875,-3.6 -2.15625,-0.8875 -3.05875,1.8875 -3.59875,3.6 z m 1.8,120.24988 c -1.61375,0.28762 -3.42625,0.375 -5.3975,0.30037 0.22,2.92475 -0.52625,7.2245 0.6,8.39988 0.88875,-3.14988 5.35625,-1.23788 6.89625,-2.70025 -1.12375,-1.57513 -2.05875,-3.33738 -2.09875,-6 z m 0.9,-79.16263 c 0.5525,2.8125 -1.34,6.2755 1.19875,6.9005 0.04,-2.75 -0.18125,-5.22512 -1.19875,-6.9005 z m -0.30125,56.375 c -0.0288,1.22513 -0.0575,2.45025 0.30125,3.30038 0.895,-0.51275 1.8575,-0.95025 2.0975,-2.10013 -0.87375,-0.32525 -1.1275,-1.27487 -2.39875,-1.20025 z m 0.30125,-36.287 c 0.015,3.25 0.0863,7.94963 0,11.0995 5.5525,-0.537 4.47625,-10.037 0,-11.0995 z m 3.59875,9.89988 c -0.9225,1.17475 -1.99375,2.19962 -3.59875,2.69962 -0.30875,2.97513 -0.2275,4.61288 2.0975,5.38775 0.98,-1.88775 2.6,-6.08737 1.50125,-8.08737 z m -2.7,-42.88763 c 0.25375,1.7625 -0.295,5.3 -0.6,7.5 6.13375,0.55 3.1875,-7.3125 0.6,-7.5 z m 1.8,71.975 c -0.81625,0.67475 -1.41625,1.57525 -2.4,2.10013 0.145,5.04975 0.61875,10.23725 2.4,14.38712 2.255,-4.0625 3.8825,-12.9375 0,-16.48725 z m -3,-83.0625 c 0.24125,1.35 0.87875,2.3125 0.6,4.1875 1.69,-0.15 4.88,-2.8875 4.5,-5.0875 -1.02,0.975 -3.725,0.275 -5.1,0.9 z m -3.5975,-9 c -0.10875,1.8125 0.28375,3.1125 1.19875,3.9 2.37,-4.5625 9.83,0.5125 4.49875,3.6 1.64125,0.1375 2.47375,-0.525 3.59875,-0.9 -0.4975,-4.8 -3.68125,-6.9125 -9.29625,-6.6 z m 5.39875,43.17475 c -1.575,2.85013 -1.95,4.45025 -1.5,8.4 3.0825,1.11275 5.0025,3.40038 5.0975,7.5 3.17625,-5.28712 -0.15625,-13.34962 -3.5975,-15.9 z m -0.30125,29.6875 c -3.0175,2.67538 -0.69125,9.85013 -1.5,14.70025 1.7425,0.25 2.39125,1.60013 3.9,2.10013 4.945,-3.98788 2.9425,-14.71238 -2.4,-16.80038 z m -2.09875,-77.36225 c -0.91625,-0.0375 -3.49,0.5875 -2.99875,3 5.06875,-0.2125 8.86625,1.9375 10.49625,6 -0.44,-2.9375 -4.35375,-8.8625 -7.4975,-9 z m 16.7925,125.35013 c -2.62,-3.63775 -9.25125,-6.07525 -11.99375,-7.80038 1.265,3.3375 2.615,6.57525 5.69625,8.10013 0.41625,-0.13713 3.3725,-1.26213 3.59875,0.89987 -0.4,0.42538 -1.69875,0.42538 -2.09875,0 1.18625,2.42538 -0.87375,3.01275 -1.5,4.5 0.795,2.5 3.0475,3.55038 6.59875,3.28763 3.06125,-1.70013 1.39375,-6.63713 -0.30125,-8.98725 z M -60.771014,424.15977 c 0.67625,4.35013 -0.08638,11.16263 -5.097125,11.6875 -4.050374,-2.9375 -1.755374,-12.375 2.398375,-13.48725 -2.366625,-5.13775 -5.798249,-9.20025 -10.795874,-11.70025 -3.0225,-3.07462 -3.575125,-10.29975 0.30025,-12.88712 2.151875,-1.45025 4.59725,-0.61288 7.197375,-1.80038 1.569749,-1.73725 2.220124,-4.38712 2.698624,-7.19962 -3.865624,1.76212 -9.187874,-3.9375 -5.098624,-7.5 3.850124,-0.65038 4.807124,1.58737 6.598249,3 1.156625,-3.25 1.285125,-8.77488 0,-12 -1.256375,0.86225 -3.92725,1.35012 -5.397999,0.29975 0.04888,-0.35013 -0.06587,-0.52488 -0.299375,-0.60013 -0.65175,-3.9745 5.050374,-5.13712 6.296499,-2.08737 1.035125,-1.57463 1.88075,-4.57513 1.5,-6.60013 -2.213,1.625 -6.214375,0.67538 -6.597749,-2.39987 -0.4175,-3.36238 4.109874,-6.78738 6.597749,-3.29988 0.667875,-4.625 -1.34875,-8.7375 -4.798375,-10.2 -0.796875,1.5 -1.09475,3.5125 -2.398999,4.5 -11.338875,0.775 -7.8735,-18.725 -1.5,-21.5875 3.353624,-1.5125 7.565999,-0.3625 10.196874,1.8 -1.570375,-2.325 -3.381375,-9.7875 1.199625,-9.9 4.271,-0.1 8.632875,9.425 8.995125,13.2 1.24175,-3.2625 1.191375,-7.8125 2.9995,-10.5 -0.769,-0.65 -1.574625,1.2125 -3.29825,0.6 -2.109375,-1.0625 -2.24375,-4.7625 -1.19975,-6.6 3.662125,-6.4625 17.1265,-1.6 15.893,6.9 1.275875,-0.025 0.99275,-1.6125 1.799875,-2.1 0.777375,0.425 1.983375,0.4125 2.69875,0.9 0.461375,2.175 0.54925,2.95 0.29875,4.8 0.349125,-0.05 0.53375,0.0625 0.601125,0.3 2.224125,-0.225 4.221125,-2.15 6.596125,-3.3 5.953625,-2.8875 16.3076253,-6.0625 24.2901253,-6 2.28275,0.025 3.974625,1.175 5.998,1.8 0.4775,0.825 1.119625,1.475 1.499,2.4 2.7497497,-0.7125 4.9034997,-0.175 8.0972497,-0.3 0.67125,-2.15 2.6275,-3.425 5.39625,-3.3 3.268748,0.15 4.243748,3.575 6.297498,3.9 2.48625,0.4 5.60625,-3.2875 8.3975,-3.9 3.775,-0.825 6.02125,-0.5375 8.69625,2.1 4.86625,-2.4125 10.5275,-4.825 15.59375,-1.2 1.57375,-0.825 2.2925,-2.5 3.59875,-3.6 -1.68625,-3.7375 0.78625,-10.3375 3.8975,-10.5 6.32125,-0.325 0.0975,8.9 -2.09875,10.5 1.16375,2.2375 3.76625,3.0375 6.5975,3.6 1.75875,-3.6 4.3625,-7.75 10.795,-5.7 1.84125,3.85 -1.1175,7.2625 -3.8975,8.4 2.53875,2.9625 7.555,5.025 7.49625,9.6 -0.0288,2.2625 -3.0025,7.4625 -4.4975,8.9875 -0.9875,1.0125 -2.27,1.425 -2.99875,2.4 -0.31125,3.4375 7.265,7.15 4.19875,12 -0.7575,1.2 -2.0975,1.65 -4.79875,1.8 1.4375,3.17525 3.165,7.61225 2.0975,12.2875 4.31375,3.625 8.3625,14.28763 3.3,20.10013 0.0725,4.36225 -0.68875,7.89987 -2.69875,10.1875 5.08,3.48725 7.61375,14.69962 1.49875,18.89987 3.585,5.17475 2.69375,15.57525 -1.19875,19.78763 4.3375,3.84962 13.54125,6.48725 15.8925,12.89987 3.098751,8.4375 -9.21,11.0625 -10.795,2.69975 -2.1075,-1.29987 -4.36625,-2.437 -7.49625,-2.69975 2.19,5.19975 8.52125,8.86225 8.695,17.08738 -4.70625,4.03762 -9.68,-0.96238 -10.795,-5.10013 -1.33125,1.0625 -3.42,2.125 -4.4975,0.30038 -1.11875,3.58737 -0.6,8.79977 -4.79875,9.29977 -2.9825,-2.2876 -1,-7.10015 -0.29875,-10.50002 -1.10375,0.0752 -3.66125,1.11237 -4.19875,-0.89988 -7.95,0.94975 -14.66375,3.13725 -21.89125,4.79975 1.62875,2.05038 1.885,6.06255 0.3,8.40045 -4.675,-0.3252 -6.9525,-3.0503 -6.8975,-8.10007 -4.215,-0.20025 -13.377498,-1.53763 -14.993748,2.69962 -3.07,0.375 -4.74125,-0.64987 -5.69625,-2.39987 -6.1187497,0.21237 -9.2632497,-0.96238 -14.6953747,-1.79975 -0.57962499,1.125 -0.69337499,2.71237 -1.49912499,3.59962 -3.00137501,0.88763 -5.79100001,-0.72462 -5.99700001,-3.59962 -2.6275,-0.0625 -4.7320003,-0.66263 -7.4966253,-0.60013 -4.05175,5.88721 -17.959,5.76221 -19.7925,-2.10012 -2.629375,-0.22513 -4.46925,0.33737 -6.596625,0.60012 0.249,1.64988 2.61125,1.1875 2.998,2.69975 -2.52775,0.33788 -3.380375,-1.01225 -4.498,-2.09962 -3.09625,1 -5.913625,2.28712 -8.396,3.89987 0.1865,1.61225 1.409625,2.1875 2.69875,2.7002 0.501375,-1.6377 1.274375,-3.36282 3.897375,-3.60007 5.279875,4.31247 -5.015625,10.82467 -9.595625,6.29977 -7.46925,2.6626 -7.74325,-6.85015 -4.19775,-9.8999 -7.315,-0.46237 -14.591374,-1.48775 -13.493624,-12.58737 0.35,-3.5625 1.9955,-6.91263 3.897375,-9.30038 1.296374,-1.625 3.451249,-2.787 4.498624,-4.79975 1.879875,-3.60012 2.887625,-10.72512 1.79875,-14.38775"
       style="fill:#231f20;fill-opacity:1;fill-rule:evenodd;stroke:none;display:inline"
       id="path3026"
       inkscape:connector-curvature="0" />
  </g>
</svg>
