<?xml version="1.0" encoding="UTF-8" standalone="no"?>
<!-- Created with Inkscape (http://www.inkscape.org/) -->

<svg
   xmlns:dc="http://purl.org/dc/elements/1.1/"
   xmlns:cc="http://creativecommons.org/ns#"
   xmlns:rdf="http://www.w3.org/1999/02/22-rdf-syntax-ns#"
   xmlns:svg="http://www.w3.org/2000/svg"
   xmlns="http://www.w3.org/2000/svg"
   xmlns:sodipodi="http://sodipodi.sourceforge.net/DTD/sodipodi-0.dtd"
   xmlns:inkscape="http://www.inkscape.org/namespaces/inkscape"
   width="268.7457"
   height="257.02753"
   id="svg4420"
   version="1.1"
   inkscape:version="0.48.2 r9819"
   sodipodi:docname="New document 13">
  <defs
     id="defs4422" />
  <sodipodi:namedview
     id="base"
     pagecolor="#ffffff"
     bordercolor="#666666"
     borderopacity="1.0"
     inkscape:pageopacity="0.0"
     inkscape:pageshadow="2"
     inkscape:zoom="2.1748644"
     inkscape:cx="134.37284"
     inkscape:cy="128.51376"
     inkscape:document-units="px"
     inkscape:current-layer="layer1"
     showgrid="false"
     fit-margin-top="0"
     fit-margin-left="0"
     fit-margin-right="0"
     fit-margin-bottom="0"
     inkscape:window-width="1075"
     inkscape:window-height="747"
     inkscape:window-x="20"
     inkscape:window-y="20"
     inkscape:window-maximized="0" />
  <metadata
     id="metadata4425">
    <rdf:RDF>
      <cc:Work
         rdf:about="">
        <dc:format>image/svg+xml</dc:format>
        <dc:type
           rdf:resource="http://purl.org/dc/dcmitype/StillImage" />
        <dc:title></dc:title>
      </cc:Work>
    </rdf:RDF>
  </metadata>
  <g
     inkscape:label="Layer 1"
     inkscape:groupmode="layer"
     id="layer1"
     transform="translate(-57.055703,-240.99129)">
    <path
       d="m 116.54683,286.75545 c -1.5375,-0.825 -3.581,-1.0125 -5.27688,-1.65 -1.71625,-0.65 -3.54337,-2.275 -4.65662,-1.9 0.20112,2.825 6.97362,5.375 10.77975,4.2125 -0.46875,-0.0625 -0.1685,-0.775 -0.84625,-0.6625 z m 2.34187,0.7875 c 0.621,0.7125 2.50338,0.1375 3.03713,-0.3375 -0.93175,0.2 -2.97613,-0.9 -3.03713,0.3375 z m -0.54987,2.975 c -0.77488,-0.25 -1.86125,0.0875 -2.71575,0.0625 -3.12263,-0.075 -6.27538,-1.475 -8.88925,-1.65 2.88825,4.4 10.10987,6.6125 16.68212,5.625 -2.11425,-0.2625 -2.7075,-3.2875 -5.07712,-4.0375 z m 5.76075,-11.2625 c 0.53475,-3.75 3.97225,-5.8 5.15875,-7.6875 -2.54638,1.3625 -5.61188,3.875 -5.15875,7.6875 z m 0.36475,9.9625 c -1.09963,0.5625 -2.56688,0.6875 -3.98438,0.875 0.72175,2.35 3.31063,3.125 5.35063,4.3625 1.21675,-0.5375 2.98187,-0.4125 3.73775,-1.5 -2.373,-0.675 -3.2715,-2.6 -5.104,-3.7375 z m 3.6895,-4.5 c 0.98087,0.225 5.11812,-2.625 5.15812,-4.0875 0.0299,-1.1125 -1.41937,-1.6375 -2.18937,-2.5875 -4.31938,-1.25 -6.25488,5.9125 -2.96875,6.675 z m -1.57138,4.375 c 1.22325,1.475 3.03475,2.4375 4.82813,3.425 0.46,-0.775 1.84425,-0.45 1.94437,-1.65 -2.61712,-0.1125 -4.88275,-3.6375 -6.7725,-1.775 z m -1.38912,-8.5375 c 0.75837,-3.9375 7.3575,-5.0875 9.14062,-1.3375 4.48,-11.0125 -10.91062,-6.7875 -9.14062,1.3375 z m 6.22075,8.35 c 1.813,0.0375 2.12062,1.35 4.10737,1.25 0.0479,-0.3875 0.419,-0.3875 0.3735,-0.875 -1.767,0.275 -3.26412,-1.1125 -4.48087,-0.375 z m 6.78312,-16.2875 c -5.5405,-10.3875 -22.77287,3.5875 -19.73087,12.7875 2.15087,0.3125 2.96975,0.5125 5.08,0.425 0.30175,-2.075 -0.99063,-3.6 -1.04338,-5.5 -0.17187,-6.4375 6.5805,-11.925 11.63663,-9.55 2.28425,1.0625 4.15187,5.1625 3.53175,8.1125 -0.73975,3.525 -5.26025,5.15 -6.38075,7.8875 1.6835,0.8375 4.74012,1.2375 6.52387,1.15 3.80963,-3.65 2.51225,-11.325 0.38275,-15.3125 z m 6.04063,17.6625 c -2.56163,0.0875 -5.88438,-1.525 -7.57138,0.5625 5.35063,1.9125 12.23388,0.15 16.438,-2.225 -2.41787,-0.525 -5.40375,1.55 -8.86662,1.6625 z m 9.63712,-0.1 c -4.99025,1.875 -12.3105,4.3625 -18.77775,1.4375 -0.58012,0.7375 -1.99612,0.4875 -2.24125,1.6125 7.77838,2.9125 19.42875,4.9625 24.75287,-0.925 -1.60974,-0.4 -2.56824,-1.35 -3.73387,-2.125 z m 0.35163,-4.175 c -0.90975,-5.2875 1.29975,-11.85 5.33899,-13.4 -5.50012,-0.025 -9.94012,9.4625 -5.33899,13.4 z m 6.72899,-4.85 c -1.43625,-1.275 -3.481,-0.45 -4.83299,0.1875 -0.42138,1.6625 0.59425,2.1 0.62012,3.3625 1.85637,-0.65 3.77162,-1.225 4.21287,-3.55 z m 1.22375,-7.425 c -4.09387,-0.35 -5.70574,2.225 -6.23062,6.1 2.6245,-0.75 4.92562,-0.9125 6.54937,0.85 0.77375,-2.1 1.76875,-5.8875 -0.31875,-6.95 z m 2.2875,5.0125 c -0.59,4.3375 -3.80875,5.5625 -5.53475,8.5625 0.90225,0.525 1.70975,1.1375 2.8885,1.4375 1.86,-2.1875 4.27,-6.65 2.64625,-10 z m -20.78474,21.725 c 8.18362,1.05 13.94537,-0.75 18.35724,-3.575 1.65875,-1.0625 4.13,-2.2375 3.9125,-3.5875 -0.73875,0.45 -4.22625,-0.125 -6.3,-0.225 -5.07124,4.6875 -13.72699,5.5625 -22.54049,3.225 -3.79538,-1.0125 -7.062,-3.85 -9.5635,-0.8125 4.3765,2.225 10.01862,4.1875 16.13425,4.975 z m 18.23599,-9.3 c 4.72875,2.025 9.375,-0.475 9.64,-3.7125 -2.29125,2.325 -6.04375,2.925 -9.64,3.7125 z m 11.5375,-8.3625 c 1.31625,-4.575 -3.6575,-11.125 -8.90875,-12.1875 -4.96125,-1 -9.85637,0.625 -11.28462,5.375 1.68363,-2.8625 4.61087,-5.1875 7.89837,-4.45 5.8925,1.3125 6.5925,12.525 2.775,17.0875 3.52625,-1.15 8.5675,-2.525 9.52,-5.825 z m 6.355,-7.5875 c -3.50625,-4.1 -4.9175,-12.2125 -3.54875,-18.6625 -3.56125,7.1125 -0.855,15.375 1.52875,21.2 1.19375,-0.2375 1.62375,-1.3625 2.02,-2.5375 z m -1.6725,5.575 c -3.575,2.225 -4.52625,7.5625 -7.5025,10.5 4.26875,-1.3 8.12125,-3.0875 11.30875,-5.675 -1.575,-1.35 -2.5175,-3.2375 -3.80625,-4.825 z m 4.015,-8.3875 c 0.34375,-0.9125 1.115,-1.3125 1.39625,-2.3 -2.36625,-4.2875 -2.88,-10.15 -3.475,-15.9375 -1.37125,6.925 -1.065,13.8125 2.07875,18.2375 z m -3.375,-17.1375 c 0.61625,-3.2125 2.41625,-5.75 2.81875,-8.5 -5.54,6.15 -5.94125,22 -0.49125,27.35 -0.6425,-4.9875 -3.7,-11.725 -2.3275,-18.85 z m 1.0725,33.7875 c 1.17375,-0.6875 2.66,-1.0125 3.4875,-2.1125 -0.86625,-0.375 -3.4875,1.4875 -3.4875,2.1125 z m 3.3725,-15.0625 c 0.34625,-0.7875 1.02375,-1.2 1.37,-1.9875 -0.94125,-0.1125 -1.8425,1.5125 -1.37,1.9875 z m -0.52625,2.6625 c 1.12375,0.825 2.9,2.55 4.0075,2.45 -1.5375,-0.4625 -2.395,-2.9625 -4.0075,-2.45 z m -1.295,1.1 c -0.465,0.9875 -1.7525,0.9875 -1.99375,2.2375 0.77375,2.025 2.02875,3.65 3.80625,4.8375 1.0025,-1.45 2.84,-1.9 3.615,-3.6125 -2.04375,-0.95 -3.68375,-2.25 -5.4275,-3.4625 z m 3.63875,-3.9125 c -0.22625,0.6125 -0.70875,0.9125 -1.02125,1.425 1.19375,1.4875 3.59625,3.4375 5.1025,3.7375 -1.875,-1.2875 -2.09,-3.975 -4.08125,-5.1625 z m -0.73125,12.275 c 1.96625,-0.8375 3.535,-2.1625 4.83375,-3.8 -1.7075,-0.3 -4.4325,2.55 -4.83375,3.8 z m 7.0025,-40.325 c -12.88375,-6.8875 -10.07125,18.5875 -6.715,22.6 3.96,-5.8125 8.31625,-14.0125 6.715,-22.6 z m 1.66375,5.25 c 0.0113,-0.3125 -0.3625,-0.275 -0.3225,0.275 -0.61375,8.575 -4.975,12.725 -7.33625,19.2375 3.845,-4.7625 7.935,-10.9625 7.65875,-19.5125 z m 5.97,11.3375 c 1.23375,-7.3875 1.18625,-14.9375 -5.02,-15.475 1.88375,6.2625 0.37,11.1125 -2.6525,17.2375 -1.3725,2.775 -4.57875,6.2875 -4.61125,8.3375 -0.0387,2.2375 2.4475,3.4125 3.1575,5.375 3.08125,-2.3125 8.00625,-8.7875 9.12625,-15.475 z m 1.7,-9.4875 c 0.3625,2.875 0.32875,6.5375 -0.20625,9.6125 -1.3125,7.5125 -6.49625,11.85 -8.6525,17.025 6.835,-4.6125 13.96375,-16.625 8.85875,-26.6375 z m 3.38875,31.275 c -2.0525,-0.65 -3.84,0.125 -6.02625,0.1 -2.485,-0.0375 -5.1125,-1.3875 -6.8225,-1.175 -2.35375,0.2875 -3.42375,2.975 -5.15875,4.075 4.88375,4.5125 15.45,6.0375 22.0375,2.7625 -1.8,-1.5375 -2.87625,-3.6875 -4.03,-5.7625 z m 3.53875,-2.7125 c 0.3125,0.525 1.79875,1.25 2.09125,0.175 -0.2325,-1.025 -1.705,-1.35 -2.09125,-0.175 z m 1.92125,-4.95 c 1.4975,-1.8375 3.11,-3.55 3.01875,-7.275 -3.03625,0.1875 -3.8125,5.4 -3.01875,7.275 z m -3.94,7.4875 c 0.61125,2.5375 2.4275,4.0625 4.03125,5.7625 1.13,-0.3125 2.605,-0.2 3.1125,-1.25 -3.585,-0.4875 -4.5975,-3.15 -7.14375,-4.5125 z m 5.3575,-6.4625 c 3.6125,-1.575 7.29375,-11.575 1.62875,-12.2125 -4.49625,-0.4875 -9.16625,9.075 -5.9875,13.95 2.7775,-2.7 0.3275,-11.65 6.35875,-11.2 2.84875,3 -1.2325,7.8125 -2,9.4625 z m -1.0475,5.325 c 0.0762,1.9125 4.48125,3.9625 7.5425,3.3375 -3.3125,-0.4375 -4.63375,-2.5625 -7.5425,-3.3375 z m 6.625,-3.65 c 5.49125,-3.2125 5.23375,-13.0375 -1.7575,-14.9 5.155,5.1125 0.11625,12.9875 -4.6175,15.5625 1.08375,1.825 4.4625,0.45 6.375,-0.6625 z m 3.20875,8.3875 c 1.13,-0.3 2.605,-0.2 3.1125,-1.2375 -1.1125,0.1125 -3.10125,0.9125 -3.1125,1.2375 z m 9.5975,-17.55 c -2.76375,1.3 -4.8825,6.5875 -3.5925,10.525 2.11125,-2.2875 4.9475,-6.2 3.5925,-10.525 z m 0.32375,-0.275 c 2.9475,5 -1.97625,9.475 -3.7925,12.925 1.95125,-0.7625 3.9525,-1.45 5.355,-2.8625 -1.3075,-3.3125 0.14625,-7.5375 1.2025,-10.7375 -1.08875,0.0375 -2.0275,0.2375 -2.765,0.675 z m -3.1975,16.5875 c -3.84875,2.8875 -10.59375,2.35 -15.39375,4.125 3.29875,5.2375 16.7125,5.5625 20.37125,1.1 -2.01875,-1.4375 -3.875,-3.0125 -4.9775,-5.225 z m 8.47375,-11.325 c -0.5025,0.0875 -0.68125,2.2125 -0.2,2.3875 0.2275,-0.7125 1.21,-0.5375 1.0475,-1.7125 -0.46875,-0.075 -0.17,-0.7875 -0.8475,-0.675 z m -2.47125,7.9125 c -2.08,0.3875 -3.22125,1.8875 -5.03125,2.5875 0.60875,2.725 3.245,3.7375 5.27625,5.2625 0.9725,-1.375 2.27625,-2.35 3.04,-3.9625 -1.41625,-1.025 -2.90625,-1.9875 -3.285,-3.8875 z m 4.4925,-14.0625 c -1.95625,0.2 -3.2975,2.875 -2.8175,4.875 1.1425,-0.85 2.49875,0.475 2.91375,1.15 1.5225,-1.5875 2.02125,-4.975 -0.0962,-6.025 z m 2.6125,4.725 c -1.72625,2.2375 -1.86375,6.3375 -4.53875,7.45 0.37625,1.5375 1.085,2.7875 2.73875,3.2375 1.6475,-2.125 3.52,-7.65 1.8,-10.6875 z m -2.69875,14.225 c -1.1675,1.025 -2.1475,2.275 -3.01625,3.6625 8.89,4.6875 19.2875,0.2375 27.4675,-1.0125 -6.52125,-5.1125 -17.26625,1.8875 -24.45125,-2.65 z m 32.8525,-7.775 c 0.65625,-4.65 -7.31125,-6.6375 -12.52375,-4.9625 -2.43625,2.65 -1.88375,9.0875 0.59,10.8875 3.43875,-2.05 11.31,-1.5 11.93375,-5.925 z m -9.145,8.5625 c 3.6825,1.875 7.99375,0.4875 10.06,-1.5625 -2.88125,1.075 -7.13125,0.5375 -10.06,1.5625 z m 18.11,-7.8 c 3.7375,-9.275 -14.36625,-11.675 -20.1925,-6.8125 7.11375,-2.675 16.83625,4.6375 10.055,9.2625 0.72875,-0.1 2.09375,-1.125 2.39,0.2 -1.97875,2.375 -6.33,1.925 -9.2925,3.1375 6.84,-0.5625 14.88375,-0.4625 17.04,-5.7875 z m -8.175,7.7375 c 1.9325,0.525 4.5775,-0.9375 6.72625,-1.25 -3.53875,2.6 -9.95625,3.375 -16.0425,4.675 -5.77125,1.2375 -12.15125,2.7375 -17.11,3.075 -3.97125,0.275 -8.08625,-0.65 -11.205,-2.75 -5.195,5.125 -18.57875,5 -23.6825,-1.0875 -7.15375,2.9625 -18.89,1.85 -24.4275,-2.95 -2.6025,0.6875 -4.37875,2.175 -7.17375,3.0125 -2.48,0.7375 -6.905,0.4625 -8.89125,1.95 -8.04375,6.05 -12.80212,9.8125 -26.85237,7.9875 -3.89012,-0.5125 -6.99462,-1.575 -10.28225,-2.975 -1.8515,-0.8 -4.1245,-2.3125 -6.09962,-2.625 -2.771,-0.4375 -5.57463,0.4875 -8.1445,0.225 -3.081,-0.325 -7.168,-1.4625 -9.63475,-3.525 -1.59813,-1.3375 -1.857,-3.85 -4.05525,-5.45 -0.497,-0.5625 0.1905,-1.175 0.99562,-1.125 -0.958,-0.3125 -2.87062,-1.2625 -1.915,-2.2625 0.50875,-1.6875 2.251,0.925 3.01275,-0.05 1.874,-1.5625 -1.90675,-2.1625 -0.56987,-3.9625 1.77337,-0.2875 1.998,1.5625 3.11137,2.375 2.3095,1.675 5.50775,2.025 8.43988,3.4125 -0.979,-9.725 13.17725,-21.3 20.00837,-16.075 1.642,1.2625 4.94288,8.3125 5.09813,10.9625 0.19137,3.275 -1.24513,5.9375 -2.7945,8.1875 5.58837,0.925 9.708,0.1 13.07625,-1.6125 -0.708,-5.7125 -1.8155,-10.0875 1.4785,-14.0125 2.69775,-3.2125 8.67099,-4.5125 13.17474,-2.8 4.58375,1.7375 7.20875,7.1 8.36,11.525 1.07625,-0.475 1.51,-1.7125 2.3175,-2.5125 -2.495,-5.3 -4.25375,-11.975 -3.19875,-19.225 0.99875,-6.8625 5.21375,-14.1125 9.25125,-16.975 1.30125,-0.925 3.79375,-2.1 5.85375,-1.6125 0.9975,0.2375 1.56625,1.3625 2.5375,2.0125 3.0825,2.075 7.32,3.975 9.085,6.4875 1.94625,2.7625 2.90125,7.525 3.0075,10.7875 0.2775,8.55 -5.9475,14.9875 -10.42375,20.1875 2.745,1.2875 7.56625,1.3625 9.90875,0.225 0.1425,-1.225 -0.36125,-1.9125 -0.02,-3.3125 0.31875,0.1 0.1525,0.6125 0.54625,0.65 -0.35625,-1.925 -0.3975,-4.1 -0.045,-6.625 3.7575,-2.6875 4.595,-9.175 12.40625,-7.9875 3.0975,1.75 6.385,6.1875 5.39625,10.9875 -0.87625,4.275 -5.46875,5.9625 -9.04375,7.3625 2.3825,4.1125 10.43625,3.475 12.0775,-0.4875 -0.30875,-3.1625 -0.1775,-6.475 1.40125,-9.5125 1.33875,-2.5625 3.915,-3.0125 0.75125,-5.35 0.0188,-0.6375 1.76875,1.75 2.515,2.3125 4.1,-0.8875 8.36625,-2.7625 11.37875,0.6625 0.32875,5.6125 1.5725,11.1125 -1.9275,15.7875 4.4725,2.05 12.09,1.8 16.7575,1.1 -2.00625,-4.4125 -1.51875,-12.6 4.245,-14.6875 9.70625,-3.5125 26.04,1.6875 18.29625,11.475 1.7975,-0.3625 3.55625,-1.5125 3.5625,-3.0125 2.64875,3.325 -3.27875,4.15 -6.17875,5.5 -1.98125,0.925 -3.3775,2.2875 -4.76,2.9125 -0.0987,-0.0125 -0.19875,-0.025 -0.29875,-0.025"
       style="fill:#231f20;fill-opacity:1;fill-rule:evenodd;stroke:none"
       id="path3074"
       inkscape:connector-curvature="0" />
    <path
       d="m 267.51307,452.25545 c 1.5375,0.825 3.58125,1.0125 5.27625,1.65 1.71625,0.6375 3.54375,2.2625 4.6575,1.8875 -0.20125,-2.8125 -6.97375,-5.3625 -10.78,-4.2125 0.46875,0.075 0.16875,0.7875 0.84625,0.675 z m -2.34125,-0.8 c -0.62125,-0.7125 -2.50375,-0.125 -3.0375,0.35 0.93125,-0.2125 2.97625,0.8875 3.0375,-0.35 z m 0.54875,-2.9625 c 0.775,0.25 1.86125,-0.1 2.71625,-0.075 3.1225,0.0875 6.275,1.4875 8.88875,1.65 -2.8875,-4.3875 -10.11,-6.6 -16.68125,-5.6125 2.11375,0.25 2.7075,3.2875 5.07625,4.0375 z m -5.76,11.25 c -0.535,3.75 -3.9725,5.8125 -5.15875,7.7 2.54625,-1.375 5.61125,-3.875 5.15875,-7.7 z m -0.365,-9.9625 c 1.1,-0.55 2.56625,-0.675 3.98375,-0.8625 -0.72125,-2.35 -3.31,-3.125 -5.35,-4.3625 -1.2175,0.525 -2.9825,0.4125 -3.7375,1.4875 2.3725,0.675 3.27125,2.6 5.10375,3.7375 z m -3.68875,4.5125 c -0.9825,-0.2375 -5.11875,2.625 -5.15875,4.075 -0.03,1.1125 1.41875,1.65 2.19,2.5875 4.31875,1.25 6.25375,-5.9 2.96875,-6.6625 z m 1.57,-4.3875 c -1.2225,-1.4625 -3.03375,-2.4375 -4.8275,-3.4125 -0.46,0.775 -1.845,0.45 -1.945,1.6375 2.6175,0.125 4.88375,3.65 6.7725,1.775 z m 1.39,8.5375 c -0.75875,3.9375 -7.3575,5.0875 -9.14125,1.35 -4.48,11 10.91125,6.7875 9.14125,-1.35 z m -6.22125,-8.3375 c -1.8125,-0.05 -2.12,-1.3625 -4.1075,-1.25 -0.0475,0.375 -0.41875,0.375 -0.37375,0.875 1.7675,-0.2875 3.265,1.1125 4.48125,0.375 z m -6.78375,16.275 c 5.54125,10.3875 22.77375,-3.5875 19.7325,-12.775 -2.15125,-0.3125 -2.97,-0.5125 -5.08125,-0.4375 -0.30125,2.0875 0.99125,3.6125 1.04375,5.5125 0.1725,6.425 -6.58125,11.925 -11.6375,9.55 -2.28375,-1.075 -4.15125,-5.1625 -3.53125,-8.125 0.74,-3.525 5.26,-5.15 6.38125,-7.8875 -1.68375,-0.825 -4.74,-1.2375 -6.52375,-1.15 -3.81,3.65 -2.5125,11.325 -0.38375,15.3125 z m -6.04,-17.65 c 2.56125,-0.0875 5.88375,1.5125 7.57125,-0.575 -5.35,-1.9125 -12.23375,-0.1375 -16.4375,2.2375 2.4175,0.5125 5.40375,-1.55 8.86625,-1.6625 z m -9.6375,0.0875 c 4.99125,-1.875 12.31125,-4.3625 18.77875,-1.4375 0.58,-0.7375 1.99625,-0.475 2.24125,-1.6125 -7.77875,-2.9 -19.42875,-4.95 -24.75375,0.925 1.61,0.4 2.56875,1.35 3.73375,2.125 z m -0.35125,4.1875 c 0.91,5.275 -1.3,11.85 -5.33875,13.3875 5.5,0.0375 9.94,-9.4625 5.33875,-13.3875 z m -6.72875,4.85 c 1.43625,1.2625 3.48125,0.45 4.83375,-0.2 0.42,-1.65 -0.595,-2.0875 -0.62125,-3.3625 -1.85625,0.65 -3.77125,1.2375 -4.2125,3.5625 z m -1.22375,7.4125 c 4.09375,0.3625 5.705,-2.225 6.23,-6.0875 -2.62375,0.7375 -4.925,0.9 -6.54875,-0.85 -0.77375,2.0875 -1.76875,5.8875 0.31875,6.9375 z m -2.2875,-5 c 0.59,-4.3375 3.80875,-5.575 5.53375,-8.5625 -0.90125,-0.5375 -1.70875,-1.15 -2.8875,-1.45 -1.86,2.1875 -4.27,6.6625 -2.64625,10.0125 z m 20.785,-21.725 c -8.18375,-1.05 -13.94625,0.7375 -18.3575,3.575 -1.65875,1.0625 -4.13125,2.2375 -3.9125,3.575 0.73875,-0.45 4.22625,0.1375 6.3,0.2375 5.07125,-4.7 13.7275,-5.575 22.54125,-3.225 3.795,1 7.06125,3.85 9.5625,0.8 -4.37625,-2.225 -10.01875,-4.175 -16.13375,-4.9625 z m -18.23625,9.3 c -4.72875,-2.0375 -9.375,0.4625 -9.64,3.7 2.29125,-2.325 6.04375,-2.925 9.64,-3.7 z m -11.5375,8.35 c -1.31625,4.575 3.6575,11.125 8.90875,12.1875 4.96125,1.0125 9.85625,-0.625 11.285,-5.3625 -1.68375,2.85 -4.61125,5.175 -7.89875,4.45 -5.8925,-1.3125 -6.5925,-12.5375 -2.775,-17.0875 -3.52625,1.15 -8.5675,2.5125 -9.52,5.8125 z m -6.355,7.6 c 3.50625,4.1 4.9175,12.2 3.54875,18.65 3.56125,-7.1125 0.855,-15.3625 -1.52875,-21.1875 -1.195,0.225 -1.62375,1.3625 -2.02,2.5375 z m 1.6725,-5.575 c 3.575,-2.2375 4.52625,-7.575 7.5025,-10.5125 -4.26875,1.3 -8.12125,3.1 -11.30875,5.675 1.575,1.35 2.5175,3.2375 3.80625,4.8375 z m -4.015,8.3875 c -0.34375,0.9 -1.115,1.3 -1.39625,2.2875 2.36625,4.3 2.88,10.15 3.47375,15.9375 1.3725,-6.9125 1.06625,-13.8125 -2.0775,-18.225 z m 3.375,17.1375 c -0.61625,3.2 -2.41625,5.7375 -2.81875,8.4875 5.54,-6.15 5.94125,-22 0.49125,-27.35 0.6425,4.9875 3.7,11.725 2.3275,18.8625 z m -1.0725,-33.8 c -1.17375,0.6875 -2.66,1.0125 -3.4875,2.1125 0.865,0.375 3.4875,-1.4875 3.4875,-2.1125 z m -3.3725,15.0625 c -0.34625,0.8 -1.02375,1.2 -1.37,2 0.94125,0.1 1.8425,-1.525 1.37,-2 z m 0.52625,-2.6625 c -1.12375,-0.8125 -2.90125,-2.5375 -4.0075,-2.4375 1.5375,0.4625 2.395,2.9625 4.0075,2.4375 z m 1.295,-1.1 c 0.465,-0.975 1.7525,-0.9875 1.99375,-2.2375 -0.775,-2.025 -2.02875,-3.65 -3.80625,-4.825 -1.0025,1.4375 -2.84,1.8875 -3.615,3.6 2.04375,0.9625 3.68375,2.2625 5.4275,3.4625 z m -3.63875,3.9125 c 0.22625,-0.6 0.70875,-0.9125 1.02125,-1.4125 -1.19375,-1.5 -3.59625,-3.4375 -5.1025,-3.75 1.875,1.2875 2.09,3.975 4.08125,5.1625 z m 0.73125,-12.275 c -1.9675,0.85 -3.535,2.1625 -4.83375,3.8 1.7075,0.3 4.4325,-2.55 4.83375,-3.8 z m -7.0025,40.3375 c 12.88375,6.8875 10.07125,-18.5875 6.715,-22.6 -3.96,5.8125 -8.31625,14 -6.715,22.6 z m -1.66375,-5.2625 c -0.0112,0.325 0.3625,0.275 0.3225,-0.2625 0.61375,-8.5875 4.975,-12.7375 7.33625,-19.25 -3.845,4.7625 -7.93625,10.975 -7.65875,19.5125 z m -5.97,-11.325 c -1.235,7.375 -1.18625,14.925 5.02,15.4625 -1.88375,-6.25 -0.37125,-11.1 2.65125,-17.225 1.37375,-2.7875 4.58,-6.3 4.6125,-8.3375 0.0387,-2.2375 -2.4475,-3.4125 -3.1575,-5.3875 -3.08125,2.3125 -8.00625,8.7875 -9.12625,15.4875 z m -1.7,9.4875 c -0.3625,-2.8875 -0.32875,-6.55 0.205,-9.6125 1.31375,-7.5125 6.4975,-11.8625 8.65375,-17.025 -6.835,4.6125 -13.96375,16.6125 -8.85875,26.6375 z m -3.39,-31.2875 c 2.05375,0.6625 3.84125,-0.1125 6.0275,-0.0875 2.485,0.025 5.1125,1.375 6.8225,1.175 2.35375,-0.3 3.42375,-2.9875 5.15875,-4.0875 -4.885,-4.5125 -15.45,-6.0375 -22.0375,-2.75 1.8,1.525 2.87625,3.675 4.02875,5.75 z m -3.5375,2.7125 c -0.3125,-0.5125 -1.79875,-1.25 -2.09125,-0.175 0.2325,1.0375 1.705,1.35 2.09125,0.175 z m -1.92125,4.9625 c -1.4975,1.8375 -3.11,3.5375 -3.01875,7.2625 3.03625,-0.1875 3.8125,-5.3875 3.01875,-7.2625 z m 3.94,-7.5 c -0.61125,-2.5375 -2.4275,-4.05 -4.03125,-5.75 -1.13,0.3 -2.605,0.2 -3.1125,1.2375 3.585,0.4875 4.5975,3.15 7.14375,4.5125 z m -5.3575,6.475 c -3.6125,1.575 -7.29375,11.575 -1.62875,12.2 4.495,0.5 9.16625,-9.0625 5.9875,-13.9375 -2.7775,2.6875 -0.3275,11.6375 -6.35875,11.2 -2.84875,-3.0125 1.2325,-7.8125 2,-9.4625 z m 1.0475,-5.325 c -0.0763,-1.9125 -4.48125,-3.975 -7.5425,-3.35 3.3125,0.4375 4.63375,2.5625 7.5425,3.35 z m -6.625,3.65 c -5.49125,3.2125 -5.23375,13.025 1.7575,14.8875 -5.155,-5.1125 -0.11625,-12.975 4.6175,-15.55 -1.08375,-1.825 -4.4625,-0.45 -6.375,0.6625 z m -3.20875,-8.4 c -1.13,0.3125 -2.605,0.2 -3.1125,1.25 1.1125,-0.125 3.10125,-0.9125 3.1125,-1.25 z m -9.59812,17.55 c 2.76512,-1.3 4.88312,-6.5875 3.59275,-10.525 -2.11087,2.2875 -4.94775,6.2125 -3.59275,10.525 z m -0.32325,0.275 c -2.94675,-4.9875 1.976,-9.475 3.7925,-12.9125 -1.95075,0.75 -3.95262,1.45 -5.355,2.85 1.30713,3.325 -0.1465,7.5375 -1.20262,10.7375 1.08887,-0.025 2.02725,-0.225 2.76512,-0.675 z m 3.19825,-16.575 c 3.84812,-2.9 10.59312,-2.3625 15.39312,-4.125 -3.29875,-5.2375 -16.71299,-5.5625 -20.37124,-1.1125 2.01912,1.4375 3.87462,3.025 4.97812,5.2375 z m -8.47412,11.325 c 0.50237,-0.1 0.68112,-2.225 0.19962,-2.4 -0.228,0.725 -1.20937,0.55 -1.04737,1.725 0.46875,0.0625 0.17,0.775 0.84775,0.675 z m 2.47012,-7.925 c 2.08063,-0.3875 3.22175,-1.875 5.03175,-2.5875 -0.60887,-2.725 -3.24462,-3.7375 -5.27587,-5.25 -0.97263,1.3625 -2.27638,2.3375 -3.0405,3.95 1.4175,1.025 2.90625,1.9875 3.28462,3.8875 z m -4.49162,14.075 c 1.9565,-0.2125 3.29687,-2.8875 2.81737,-4.8875 -1.14312,0.8625 -2.499,-0.4625 -2.91412,-1.1375 -1.52188,1.575 -2.02138,4.975 0.0967,6.025 z m -2.61275,-4.7375 c 1.726,-2.225 1.86425,-6.3375 4.5385,-7.45 -0.376,-1.525 -1.085,-2.775 -2.73775,-3.2375 -1.648,2.1375 -3.5205,7.6625 -1.80075,10.6875 z m 2.69912,-14.2125 c 1.167,-1.0375 2.1475,-2.2875 3.01613,-3.6625 -8.89013,-4.7 -19.28813,-0.25 -27.46775,1 6.522,5.125 17.26662,-1.8875 24.45162,2.6625 z m -32.8525,7.7625 c -0.65725,4.6625 7.3105,6.65 12.523,4.9625 2.4365,-2.6375 1.88475,-9.075 -0.58937,-10.875 -3.439,2.05 -11.31013,1.4875 -11.93363,5.9125 z m 9.145,-8.55 c -3.68262,-1.875 -7.99412,-0.5 -10.0605,1.55 2.88175,-1.075 7.13138,-0.5375 10.0605,-1.55 z m -18.11037,7.8 c -3.73725,9.2625 14.36675,11.675 20.19287,6.8125 -7.11425,2.675 -16.83687,-4.6375 -10.05462,-9.275 -0.7285,0.1 -2.09475,1.125 -2.39013,-0.2 1.979,-2.3625 6.329,-1.925 9.292,-3.125 -6.83937,0.55 -14.88437,0.45 -17.04012,5.7875 z m 8.17537,-7.7375 c -1.93212,-0.525 -4.57762,0.925 -6.72612,1.2375 3.53912,-2.6 9.956,-3.3625 16.0425,-4.675 5.7715,-1.225 12.15087,-2.7375 17.10937,-3.075 3.97063,-0.2625 8.08688,0.6625 11.20513,2.75 5.19475,-5.1125 18.57899,-4.9875 23.68274,1.0875 7.15375,-2.95 18.89,-1.85 24.4275,2.9625 2.6025,-0.7 4.37875,-2.1875 7.17375,-3.0125 2.47875,-0.7375 6.905,-0.475 8.89125,-1.9625 8.04375,-6.0375 12.8025,-9.8 26.8525,-7.975 3.89,0.5 6.995,1.5625 10.28125,2.975 1.8525,0.7875 4.125,2.3 6.1,2.6125 2.77125,0.45 5.575,-0.4875 8.145,-0.2125 3.08125,0.325 7.1675,1.45 9.635,3.5125 1.5975,1.3375 1.85625,3.8625 4.055,5.4625 0.4975,0.55 -0.19,1.1625 -0.99625,1.1125 0.95875,0.3125 2.87125,1.2625 1.915,2.275 -0.50875,1.675 -2.25,-0.925 -3.0125,0.05 -1.87375,1.5625 1.9075,2.1625 0.57,3.95 -1.77375,0.2875 -1.9975,-1.55 -3.11125,-2.3625 -2.31,-1.675 -5.5075,-2.0375 -8.44,-3.4125 0.97875,9.7125 -13.1775,21.3 -20.00875,16.0625 -1.64125,-1.25 -4.9425,-8.3 -5.0975,-10.9625 -0.19125,-3.275 1.245,-5.9375 2.79375,-8.1875 -5.5875,-0.9125 -9.7075,-0.1 -13.075,1.6125 0.7075,5.725 1.815,10.1 -1.47875,14.025 -2.6975,3.2125 -8.6725,4.5125 -13.175,2.8 -4.58375,-1.7375 -7.20875,-7.1125 -8.36,-11.5375 -1.07625,0.475 -1.51,1.7125 -2.3175,2.5125 2.495,5.3125 4.25375,11.975 3.19875,19.225 -0.99875,6.875 -5.21375,14.125 -9.25125,16.9875 -1.30125,0.9125 -3.79375,2.1 -5.85375,1.6125 -0.9975,-0.2375 -1.56625,-1.375 -2.5375,-2.025 -3.08375,-2.075 -7.32,-3.975 -9.085,-6.475 -1.94625,-2.775 -2.90125,-7.5375 -3.0075,-10.7875 -0.2775,-8.5625 5.9475,-15 10.42375,-20.1875 -2.745,-1.3 -7.56625,-1.375 -9.90875,-0.2375 -0.1425,1.225 0.36125,1.9125 0.02,3.3125 -0.31875,-0.1 -0.1525,-0.6125 -0.54625,-0.65 0.35625,1.925 0.3975,4.1125 0.045,6.625 -3.7575,2.6875 -4.595,9.1875 -12.40625,7.9875 -3.0975,-1.7375 -6.385,-6.175 -5.39625,-10.9875 0.87625,-4.2625 5.46875,-5.95 9.04375,-7.3625 -2.3825,-4.1 -10.43625,-3.4625 -12.0775,0.4875 0.30875,3.1625 0.1775,6.4875 -1.40162,9.5125 -1.33787,2.5625 -3.9145,3.025 -0.751,5.3625 -0.0195,0.6375 -1.7685,-1.7625 -2.51462,-2.325 -4.10013,0.9 -8.36625,2.7625 -11.37888,-0.65 -0.32862,-5.6125 -1.57225,-11.125 1.92725,-15.7875 -4.47262,-2.05 -12.08987,-1.8 -16.75787,-1.1125 2.00687,4.4125 1.51862,12.6 -4.24463,14.6875 -9.707,3.525 -26.039496,-1.6875 -18.29587,-11.4625 -1.79788,0.35 -3.55713,1.5 -3.563,3.0125 -2.648876,-3.3375 3.27887,-4.15 6.17925,-5.5 1.981,-0.925 3.37737,-2.2875 4.75925,-2.9125 0.0991,0.0125 0.19925,0.0125 0.29937,0.025"
       style="fill:#231f20;fill-opacity:1;fill-rule:evenodd;stroke:none"
       id="path3076"
       inkscape:connector-curvature="0" />
    <path
       d="m 280.03932,295.36795 c 0.8225,-1.5375 1.01,-3.575 1.65,-5.275 0.64375,-1.7125 2.2675,-3.5375 1.895,-4.6625 -2.82,0.2125 -5.36875,6.975 -4.21625,10.7875 0.0675,-0.475 0.78125,-0.175 0.67125,-0.85 z m -0.7975,2.3375 c -0.7125,0.625 -0.13125,2.5125 0.34625,3.0375 -0.20875,-0.925 0.895,-2.975 -0.34625,-3.0375 z m -2.96375,-0.5375 c 0.24625,-0.775 -0.0962,-1.8625 -0.07,-2.725 0.0825,-3.125 1.47875,-6.275 1.6475,-8.8875 -4.39125,2.8875 -6.60375,10.1125 -5.615,16.6875 0.2525,-2.1125 3.2875,-2.7125 4.0375,-5.075 z m 11.25375,5.75 c 3.7475,0.5375 5.80875,3.975 7.69125,5.1625 -1.36875,-2.55 -3.87,-5.6125 -7.69125,-5.1625 z m -9.9625,0.375 c -0.5575,-1.1 -0.68375,-2.575 -0.86875,-3.9875 -2.35125,0.725 -3.125,3.3125 -4.3625,5.35 0.5325,1.2125 0.41375,2.975 1.49125,3.7375 0.68,-2.375 2.605,-3.275 3.74,-5.1 z m 4.50625,3.6875 c -0.23,0.975 2.6225,5.1125 4.08,5.15 1.11625,0.0375 1.6475,-1.4125 2.59125,-2.1875 1.25,-4.3125 -5.9075,-6.25 -6.67125,-2.9625 z m -4.38375,-1.575 c -1.465,1.225 -2.4325,3.0375 -3.41375,4.825 0.77,0.4625 0.445,1.85 1.64125,1.95 0.12,-2.625 3.645,-4.8875 1.7725,-6.775 z m 8.5425,-1.3875 c 3.9325,0.7625 5.08875,7.35 1.34,9.1375 11.0075,4.4875 6.78875,-10.9125 -1.34,-9.1375 z m -8.34625,6.225 c -0.0413,1.8125 -1.35375,2.1125 -1.24875,4.1 0.38125,0.05 0.38125,0.425 0.87375,0.375 -0.28375,-1.7625 1.11375,-3.2625 0.375,-4.475 z m 16.2825,6.775 c 10.385,-5.5375 -3.58875,-22.775 -12.785,-19.725 -0.30875,2.15 -0.5125,2.9625 -0.42625,5.075 2.08125,0.3 3.6025,-0.9875 5.50125,-1.0375 6.43,-0.175 11.93,6.575 9.55375,11.6375 -1.07,2.275 -5.16375,4.15 -8.11875,3.525 -3.525,-0.7375 -5.14875,-5.2625 -7.88875,-6.375 -0.8325,1.675 -1.23875,4.7375 -1.15125,6.525 3.65375,3.8 11.3275,2.5125 15.315,0.375 z m -17.66,6.0375 c -0.0863,-2.55 1.52375,-5.875 -0.5675,-7.5625 -1.91125,5.35 -0.14,12.225 2.23,16.4375 0.52375,-2.425 -1.5475,-5.4125 -1.6625,-8.875 z m 0.0937,9.6375 c -1.87125,-4.9875 -4.3575,-12.3 -1.4325,-18.775 -0.73875,-0.575 -0.485,-2 -1.6175,-2.2375 -2.90125,7.775 -4.955,19.425 0.93,24.75 0.3975,-1.6125 1.34625,-2.5625 2.12,-3.7375 z m 4.1825,0.3625 c 5.27875,-0.9125 11.85375,1.3 13.39375,5.3375 0.03,-5.5 -9.4625,-9.95 -13.39375,-5.3375 z m 4.85125,6.725 c 1.27125,-1.4375 0.45125,-3.4875 -0.1975,-4.8375 -1.65,-0.425 -2.0875,0.6 -3.36125,0.625 0.65,1.85 1.23125,3.775 3.55875,4.2125 z m 7.42,1.225 c 0.35625,-4.1 -2.2275,-5.7125 -6.09625,-6.2375 0.745,2.625 0.905,4.925 -0.85125,6.55 2.09875,0.775 5.89125,1.775 6.9475,-0.3125 z m -5.00625,2.2875 c -4.34,-0.5875 -5.5675,-3.8125 -8.5625,-5.5375 -0.53375,0.9 -1.1475,1.7125 -1.4475,2.8875 2.1875,1.8625 6.66,4.275 10.01,2.65 z m -21.7275,-20.7875 c -1.05125,8.1875 0.7425,13.95 3.57375,18.3625 1.06375,1.65 2.2425,4.125 3.58375,3.9125 -0.45125,-0.75 0.13125,-4.2375 0.22875,-6.3 -4.6925,-5.075 -5.56375,-13.7375 -3.22125,-22.55 1.00625,-3.7875 3.8475,-7.0625 0.8025,-9.5625 -2.22375,4.375 -4.18125,10.025 -4.9675,16.1375 z m 9.3025,18.2375 c -2.03125,4.725 0.46875,9.375 3.7025,9.6375 -2.32625,-2.2875 -2.92125,-6.0375 -3.7025,-9.6375 z m 8.3575,11.5375 c 4.575,1.3125 11.12,-3.6625 12.185,-8.9125 1.0075,-4.9625 -0.6225,-9.85 -5.37125,-11.2875 2.85875,1.6875 5.185,4.6125 4.45375,7.9 -1.31375,5.9 -12.53,6.6 -17.0875,2.775 1.14875,3.525 2.5175,8.575 5.82,9.525 z m 7.59375,6.35 c 4.09875,-3.5 12.20125,-4.9125 18.6525,-3.55 -7.11125,-3.5625 -15.37,-0.85 -21.19375,1.5375 0.23125,1.1875 1.365,1.625 2.54125,2.0125 z m -5.57875,-1.675 c -2.23,-3.575 -7.565,-4.525 -10.505,-7.5 1.3,4.275 3.09375,8.125 5.6725,11.3125 1.3525,-1.575 3.23875,-2.5125 4.8325,-3.8125 z m 8.39,4.025 c 0.90625,0.3375 1.3075,1.1125 2.29125,1.3875 4.2925,-2.3625 10.1525,-2.875 15.94,-3.475 -6.92,-1.3625 -13.815,-1.0625 -18.23125,2.0875 z m 17.135,-3.375 c 3.20625,0.6125 5.745,2.4125 8.4925,2.8125 -6.1475,-5.5375 -21.9975,-5.9375 -27.345,-0.4875 4.9825,-0.65 11.72,-3.7 18.8525,-2.325 z m -33.79375,1.0625 c 0.69,1.175 1.015,2.6625 2.11375,3.4875 0.37625,-0.8625 -1.48625,-3.4875 -2.11375,-3.4875 z m 15.06375,3.375 c 0.795,0.35 1.1975,1.025 1.9925,1.375 0.10875,-0.9375 -1.51875,-1.85 -1.9925,-1.375 z m -2.66625,-0.525 c -0.81375,1.125 -2.53875,2.9 -2.44125,4.0125 0.4625,-1.5375 2.965,-2.4 2.44125,-4.0125 z m -1.09375,-1.2875 c -0.9825,-0.475 -0.99125,-1.7625 -2.23875,-2 -2.02875,0.775 -3.6525,2.025 -4.835,3.8125 1.44625,1 1.89875,2.8375 3.61,3.6125 0.95625,-2.05 2.255,-3.6875 3.46375,-5.425 z m 3.90875,3.6375 c -0.6075,-0.225 -0.9125,-0.7125 -1.4175,-1.025 -1.495,1.1875 -3.43625,3.6 -3.7425,5.1 1.285,-1.875 3.97375,-2.0875 5.16,-4.075 z m -12.27625,-0.7375 c 0.84875,1.9625 2.1675,3.5375 3.805,4.8375 0.295,-1.7125 -2.5525,-4.4375 -3.805,-4.8375 z m 40.33625,7 c 6.88375,-12.875 -18.58875,-10.0625 -22.605,-6.7125 5.81375,3.9625 14.00875,8.3125 22.605,6.7125 z m -5.255,1.6625 c 0.31625,0.0125 0.2675,-0.3625 -0.2725,-0.3125 -8.58375,-0.6125 -12.73125,-4.975 -19.24625,-7.3375 4.76375,3.8375 10.9725,7.9375 19.51875,7.65 z m -11.33375,5.975 c 7.37875,1.2375 14.93,1.1875 15.4675,-5.025 -6.25375,1.8875 -11.10375,0.375 -17.23125,-2.65 -2.78375,-1.375 -6.29625,-4.575 -8.33875,-4.6125 -2.23625,-0.0375 -3.4125,2.45 -5.3825,3.1625 2.315,3.075 8.79125,8 15.485,9.125 z m 9.48625,1.7 c -2.87875,0.3625 -6.545,0.325 -9.61125,-0.2 -7.51625,-1.3125 -11.85875,-6.5 -17.0275,-8.6625 4.61125,6.8375 16.6225,13.9625 26.63875,8.8625 z m -31.28,3.3875 c 0.655,-2.05 -0.12125,-3.8375 -0.0975,-6.025 0.0312,-2.4875 1.38625,-5.1125 1.1775,-6.825 -0.29125,-2.35 -2.98125,-3.425 -4.0825,-5.15 -4.51375,4.875 -6.03375,15.45 -2.75375,22.0375 1.53125,-1.8 3.6775,-2.8875 5.75625,-4.0375 z m 2.71125,3.5375 c -0.5175,0.3125 -1.24625,1.8 -0.17625,2.1 1.03375,-0.2375 1.35375,-1.7125 0.17625,-2.1 z m 4.95375,1.925 c 1.84125,1.5 3.545,3.1125 7.27125,3.0125 -0.19,-3.025 -5.39375,-3.8125 -7.27125,-3.0125 z m -7.4925,-3.9375 c -2.5375,0.6125 -4.0575,2.425 -5.755,4.025 0.305,1.1375 0.2,2.6125 1.2425,3.1125 0.48875,-3.5875 3.14875,-4.6 4.5125,-7.1375 z m 6.47125,5.35 c 1.57625,3.6125 11.57625,7.3 12.2025,1.6375 0.495,-4.5 -9.06375,-9.175 -13.94375,-5.9875 2.69375,2.775 11.64375,0.325 11.20125,6.35 -3.0075,2.85 -7.80875,-1.225 -9.46,-2 z m -5.32875,-1.0375 c -1.91,0.075 -3.96375,4.475 -3.3425,7.5375 0.43875,-3.3125 2.56125,-4.6375 3.3425,-7.5375 z m 3.655,6.625 c 3.21,5.4875 13.0275,5.225 14.89375,-1.7625 -5.115,5.15 -12.98375,0.1125 -15.56125,-4.6125 -1.825,1.075 -0.4475,4.4625 0.6675,6.375 z m -8.39375,3.2 c 0.305,1.1375 0.20125,2.6125 1.2425,3.1125 -0.11875,-1.1125 -0.9125,-3.1 -1.2425,-3.1125 z m 17.54875,9.6 c -1.30125,-2.7625 -6.58625,-4.8875 -10.52875,-3.5875 2.2875,2.1125 6.2075,4.9375 10.52875,3.5875 z m 0.27375,0.325 c -4.9925,2.95 -9.47625,-1.975 -12.92125,-3.7875 0.75625,1.95 1.45375,3.95 2.86,5.35 3.31875,-1.3125 7.54,0.15 10.73375,1.2 -0.0262,-1.0875 -0.22875,-2.025 -0.6725,-2.7625 z m -16.58125,-3.2 c -2.89125,-3.85 -2.35625,-10.5875 -4.12375,-15.3875 -5.24125,3.3 -5.5625,16.7125 -1.10875,20.3625 1.44,-2.0125 3.0175,-3.875 5.2325,-4.975 z m 11.32375,8.475 c -0.0913,-0.5 -2.215,-0.675 -2.39125,-0.2 0.71625,0.225 0.54125,1.2125 1.7175,1.05 0.0675,-0.475 0.78375,-0.175 0.67375,-0.85 z m -7.91625,-2.475 c -0.385,-2.075 -1.8825,-3.2125 -2.5875,-5.025 -2.725,0.6125 -3.735,3.2375 -5.2575,5.275 1.36625,0.975 2.34375,2.275 3.95875,3.0375 1.0225,-1.4125 1.98625,-2.9 3.88625,-3.2875 z m 14.065,4.5 c -0.205,-1.9625 -2.88125,-3.3 -4.8775,-2.825 0.85625,1.15 -0.4675,2.5 -1.1475,2.9125 1.5825,1.525 4.9775,2.025 6.025,-0.0875 z m -4.73125,2.6125 c -2.22875,-1.725 -6.33625,-1.8625 -7.445,-4.5375 -1.53375,0.375 -2.78375,1.075 -3.23875,2.7375 2.1275,1.65 7.655,3.5125 10.68375,1.8 z m -14.21875,-2.7 c -1.02875,-1.175 -2.27875,-2.15 -3.66,-3.0125 -4.69625,8.8875 -0.24125,19.2875 1.005,27.4625 5.1225,-6.525 -1.88375,-17.2625 2.655,-24.45 z m 7.7725,32.85 c 4.6575,0.6625 6.645,-7.3125 4.96375,-12.525 -2.645,-2.4375 -9.0825,-1.8875 -10.88375,0.5875 2.05125,3.4375 1.49125,11.3125 5.92,11.9375 z m -8.56,-9.15 c -1.87,3.6875 -0.48875,8 1.56125,10.0625 -1.07875,-2.875 -0.53875,-7.125 -1.56125,-10.0625 z m 7.805,18.1125 c 9.26375,3.7375 11.67375,-14.3625 6.8125,-20.1875 2.67125,7.1125 -4.64125,16.8375 -9.27,10.05 0.1,0.7375 1.125,2.1 -0.20125,2.3875 -2.36625,-1.975 -1.9275,-6.325 -3.13125,-9.2875 0.56,6.8375 0.455,14.8875 5.79,17.0375 z m -7.7375,-8.175 c -0.53,1.9375 0.93125,4.575 1.24,6.725 -2.59625,-3.5375 -3.37,-9.95 -4.67125,-16.0375 -1.23375,-5.775 -2.74,-12.15 -3.075,-17.1125 -0.26875,-3.975 0.6525,-8.0875 2.7475,-11.2 -5.11625,-5.2 -4.995,-18.5875 1.085,-23.6875 -2.95625,-7.15 -1.84875,-18.8875 2.95625,-24.425 -0.68875,-2.6 -2.17625,-4.375 -3.0075,-7.175 -0.7375,-2.475 -0.46875,-6.9 -1.96,-8.8875 -6.04375,-8.05 -9.8025,-12.8 -7.9775,-26.85 0.50625,-3.9 1.56375,-7 2.97125,-10.2875 0.79375,-1.85 2.305,-4.125 2.61875,-6.1 0.445,-2.775 -0.48875,-5.575 -0.21875,-8.15 0.325,-3.075 1.455,-7.1625 3.51875,-9.625 1.3375,-1.6 3.85625,-1.8625 5.45625,-4.0625 0.56,-0.5 1.16875,0.1875 1.12,1 0.31125,-0.9625 1.26125,-2.875 2.2675,-1.9125 1.68,0.5 -0.92375,2.25 0.0488,3.0125 1.56375,1.875 2.165,-1.9125 3.96,-0.575 0.285,1.775 -1.56,2 -2.3675,3.1125 -1.67625,2.3125 -2.03125,5.5125 -3.4175,8.4375 9.72375,-0.975 21.305,13.175 16.0725,20.0125 -1.25625,1.6375 -8.3075,4.9375 -10.9625,5.1 -3.27875,0.1875 -5.94125,-1.25 -8.18875,-2.8 -0.91875,5.5875 -0.10125,9.7125 1.61,13.075 5.72125,-0.7 10.0975,-1.8125 14.01875,1.4875 3.21375,2.6875 4.515,8.6625 2.80375,13.175 -1.74,4.575 -7.10625,7.2 -11.53375,8.35 0.4775,1.075 1.715,1.5125 2.5125,2.325 5.305,-2.5 11.975,-4.2625 19.2275,-3.2 6.86875,1 14.12,5.2125 16.9775,9.25 0.92125,1.3 2.10125,3.7875 1.615,5.85 -0.23625,1 -1.36625,1.575 -2.02,2.5375 -2.07375,3.0875 -3.97125,7.325 -6.48125,9.0875 -2.765,1.95 -7.5275,2.9 -10.785,3.0125 -8.555,0.275 -14.99625,-5.95 -20.18875,-10.425 -1.2925,2.7375 -1.37125,7.5625 -0.23125,9.9 1.22875,0.15 1.915,-0.35 3.31125,-0.0125 -0.1,0.3125 -0.61,0.15 -0.6475,0.55 1.92125,-0.3625 4.1075,-0.4 6.62625,-0.05 2.6875,3.7625 9.18,4.6 7.9825,12.4 -1.74375,3.1 -6.17875,6.3875 -10.98625,5.4 -4.27,-0.875 -5.95625,-5.4625 -7.36375,-9.0375 -4.105,2.375 -3.46375,10.4375 0.48875,12.075 3.16375,-0.3125 6.48125,-0.175 9.515,1.4 2.56375,1.3375 3.015,3.9125 5.3525,0.75 0.64125,0.025 -1.755,1.775 -2.31875,2.5125 0.89375,4.1 2.76625,8.375 -0.65375,11.3875 -5.61375,0.325 -11.12,1.5625 -15.7875,-1.9375 -2.05125,4.475 -1.7975,12.1 -1.1075,16.7625 4.4125,-2.0125 12.6,-1.525 14.68875,4.25 3.51625,9.7 -1.685,26.0375 -11.46625,18.2875 0.35375,1.8 1.50125,3.5625 3.01,3.5625 -3.33125,2.65 -4.1475,-3.275 -5.50125,-6.175 -0.92375,-1.9875 -2.28875,-3.375 -2.91,-4.7625 0.009,-0.1 0.0175,-0.2 0.0263,-0.3"
       style="fill:#231f20;fill-opacity:1;fill-rule:evenodd;stroke:none"
       id="path3078"
       inkscape:connector-curvature="0" />
    <path
       d="m 102.81683,444.81795 c -0.82313,1.5375 -1.00875,3.5875 -1.64788,5.275 -0.6445,1.725 -2.268621,3.55 -1.897496,4.6625 2.820376,-0.2 5.368626,-6.975 4.216876,-10.7875 -0.0665,0.475 -0.78125,0.175 -0.6715,0.85 z m 0.79787,-2.3375 c 0.71288,-0.625 0.13238,-2.5 -0.34612,-3.0375 0.2095,0.925 -0.89413,2.975 0.34612,3.0375 z m 2.96388,0.55 c -0.24613,0.775 0.0957,1.8625 0.0714,2.7125 -0.0831,3.125 -1.4795,6.275 -1.648,8.8875 4.38912,-2.8875 6.604,-10.1125 5.61525,-16.675 -0.25388,2.1125 -3.28913,2.7 -4.03863,5.075 z m -11.254876,-5.7625 c -3.747,-0.5375 -5.808125,-3.975 -7.689875,-5.1625 1.369625,2.55 3.869625,5.6125 7.689875,5.1625 z m 9.963376,-0.3625 c 0.55662,1.1 0.68412,2.5625 0.86912,3.975 2.35163,-0.7125 3.125,-3.3 4.36338,-5.35 -0.53225,-1.2125 -0.41563,-2.975 -1.49175,-3.7375 -0.68113,2.375 -2.6055,3.275 -3.74075,5.1125 z m -4.50675,-3.6875 c 0.22937,-0.9875 -2.621626,-5.125 -4.079126,-5.1625 -1.11575,-0.025 -1.6485,1.4125 -2.590875,2.1875 -1.25,4.325 5.905751,6.2625 6.670001,2.975 z m 4.38525,1.5625 c 1.46425,-1.225 2.43162,-3.025 3.4125,-4.825 -0.7685,-0.4625 -0.44375,-1.8375 -1.64063,-1.9375 -0.11962,2.6125 -3.645,4.875 -1.77187,6.7625 z m -8.542501,1.3875 c -3.933125,-0.75 -5.087875,-7.35 -1.340875,-9.1375 -11.00775,-4.475 -6.789,10.9125 1.340875,9.1375 z m 8.344751,-6.2125 c 0.0415,-1.8125 1.35437,-2.125 1.25,-4.1125 -0.38088,-0.05 -0.38088,-0.4125 -0.87463,-0.375 0.28375,1.775 -1.11325,3.2625 -0.37537,4.4875 z m -16.281751,-6.7875 c -10.385746,5.5375 3.588875,22.775 12.785621,19.7375 0.30763,-2.15 0.51213,-2.975 0.42725,-5.0875 -2.082496,-0.3 -3.603496,0.9875 -5.503496,1.05 -6.430125,0.1625 -11.928125,-6.5875 -9.552625,-11.6375 1.06875,-2.2875 5.163,-4.15 8.117625,-3.5375 3.524875,0.7375 5.148376,5.2625 7.890626,6.3875 0.832,-1.6875 1.23725,-4.75 1.14937,-6.525 -3.65237,-3.8125 -11.328121,-2.5125 -15.314371,-0.3875 z m 17.661121,-6.0375 c 0.0849,2.5625 -1.524,5.8875 0.56638,7.575 1.91162,-5.35 0.14162,-12.2375 -2.229,-16.4375 -0.52488,2.4125 1.54787,5.4 1.66262,8.8625 z m -0.0953,-9.6375 c 1.87213,4.9875 4.35738,12.3125 1.43313,18.775 0.73975,0.5875 0.48575,2 1.61812,2.2375 2.90038,-7.775 4.95413,-19.425 -0.92962,-24.75 -0.3985,1.6125 -1.34825,2.575 -2.12163,3.7375 z m -4.18212,-0.35 c -5.278876,0.9125 -11.853001,-1.3 -13.393626,-5.3375 -0.02975,5.5 9.463,9.9375 13.393626,5.3375 z m -4.851626,-6.7375 c -1.271375,1.4375 -0.451625,3.4875 0.19775,4.8375 1.650875,0.425 2.088,-0.5875 3.362376,-0.6125 -0.64938,-1.8625 -1.232876,-3.775 -3.560126,-4.225 z m -7.418875,-1.2125 c -0.357,4.0875 2.226,5.7 6.095625,6.225 -0.744625,-2.625 -0.90575,-4.925 0.852625,-6.55 -2.099625,-0.775 -5.891125,-1.7625 -6.94825,0.325 z m 5.004875,-2.2875 c 4.34075,0.5875 5.568876,3.8 8.564496,5.525 0.53163,-0.9 1.14688,-1.7 1.44775,-2.8875 -2.1875,-1.8625 -6.660746,-4.2625 -10.012246,-2.6375 z m 21.727996,20.775 c 1.05225,-8.175 -0.74162,-13.9375 -3.57425,-18.35 -1.06387,-1.6625 -2.24062,-4.1375 -3.58387,-3.9125 0.45212,0.7375 -0.1295,4.225 -0.22713,6.3 4.69238,5.0625 5.5645,13.725 3.22075,22.5375 -1.00587,3.8 -3.84775,7.0625 -0.80325,9.5625 2.22413,-4.375 4.18213,-10.0125 4.96775,-16.1375 z m -9.30125,-18.2375 c 2.03125,-4.725 -0.46875,-9.375 -3.70412,-9.6375 2.32662,2.3 2.92287,6.05 3.70412,9.6375 z m -8.359371,-11.5375 c -4.57275,-1.3125 -11.118125,3.6625 -12.185,8.9125 -1.005875,4.9625 0.6225,9.8625 5.3735,11.2875 -2.858875,-1.6875 -5.186,-4.6125 -4.456125,-7.9 1.3135,-5.8875 12.531746,-6.5875 17.087876,-2.775 -1.14738,-3.525 -2.517,-8.5625 -5.820251,-9.525 z m -7.59275,-6.35 c -4.099125,3.5125 -12.202126,4.9125 -18.652876,3.55 7.11238,3.5625 15.371626,0.85 21.194376,-1.525 -0.2325,-1.2 -1.36475,-1.625 -2.5415,-2.025 z m 5.578625,1.675 c 2.230875,3.575 7.565376,4.525 10.505376,7.5 -1.30125,-4.2625 -3.09325,-8.125 -5.67138,-11.3125 -1.35312,1.575 -3.239746,2.525 -4.833996,3.8125 z m -8.38925,-4.0125 c -0.907625,-0.35 -1.308,-1.125 -2.292,-1.4 -4.291871,2.3625 -10.151251,2.875 -15.939871,3.475 6.919,1.375 13.815371,1.0625 18.231871,-2.075 z m -17.135751,3.375 c -3.2055,-0.625 -5.745,-2.425 -8.49112,-2.825 6.14737,5.5375 21.996496,5.9375 27.343746,0.4875 -4.983,0.65 -11.718746,3.7 -18.852626,2.3375 z m 33.793497,-1.075 c -0.69037,-1.175 -1.01562,-2.6625 -2.11375,-3.4875 -0.3765,0.8625 1.48688,3.4875 2.11375,3.4875 z m -15.063496,-3.375 c -0.795875,-0.35 -1.19875,-1.025 -1.991625,-1.375 -0.109875,0.95 1.518,1.85 1.991625,1.375 z m 2.666,0.525 c 0.813,-1.125 2.539625,-2.9 2.442,-4 -0.463875,1.5375 -2.966875,2.3875 -2.442,4 z m 1.09375,1.3 c 0.982,0.4625 0.99125,1.75 2.239375,1.9875 2.02875,-0.775 3.65175,-2.025 4.833371,-3.8 -1.444746,-1 -1.896371,-2.8375 -3.608371,-3.6125 -0.9565,2.0375 -2.255875,3.675 -3.464375,5.425 z m -3.908125,-3.6375 c 0.607375,0.225 0.913,0.7 1.418375,1.0125 1.49425,-1.1875 3.435125,-3.5875 3.73975,-5.1 -1.283625,1.875 -3.972125,2.0875 -5.158125,4.0875 z m 12.275371,0.725 c -0.84712,-1.9625 -2.1655,-3.5375 -3.804246,-4.8375 -0.294875,1.7125 2.551376,4.4375 3.804246,4.8375 z m -40.334997,-7 c -6.88475,12.8875 18.58888,10.075 22.605001,6.7125 -5.814871,-3.9625 -14.008251,-8.3125 -22.605001,-6.7125 z m 5.25388,-1.6625 c -0.31738,-0.0125 -0.2685,0.3625 0.274,0.325 8.584,0.6125 12.7295,4.975 19.245621,7.3375 -4.763751,-3.85 -10.972251,-7.9375 -19.519621,-7.6625 z m 11.3335,-5.975 c -7.37838,-1.225 -14.92913,-1.1875 -15.46675,5.025 6.253,-1.8875 11.1035,-0.375 17.232,2.65 2.782621,1.375 6.296371,4.575 8.337371,4.6125 2.235875,0.0375 3.413,-2.45 5.38275,-3.1625 -2.313875,-3.075 -8.7915,-8 -15.485371,-9.125 z m -9.48475,-1.7 c 2.87837,-0.3625 6.54537,-0.325 9.61125,0.2125 7.514621,1.3125 11.857871,6.4875 17.026371,8.65 -4.611375,-6.8375 -16.623001,-13.9625 -26.637621,-8.8625 z m 31.279247,-3.3875 c -0.654251,2.05 0.122,3.8375 0.0971,6.025 -0.0318,2.4875 -1.386626,5.1125 -1.176751,6.825 0.2905,2.35 2.981501,3.425 4.082001,5.1625 4.51475,-4.8875 6.03275,-15.45 2.7545,-22.0375 -1.53075,1.8 -3.67675,2.875 -5.75688,4.025 z m -2.710501,-3.5375 c 0.515125,-0.3125 1.245125,-1.8 0.17625,-2.0875 -1.035625,0.225 -1.354875,1.7 -0.17625,2.0875 z m -4.9555,-1.925 c -1.841375,-1.4875 -3.545375,-3.1 -7.2705,-3.0125 0.189875,3.0375 5.3925,3.8125 7.2705,3.0125 z m 7.492121,3.95 c 2.53963,-0.6125 4.05763,-2.4375 5.75738,-4.0375 -0.30525,-1.125 -0.20075,-2.6 -1.24275,-3.1125 -0.48875,3.5875 -3.14988,4.6 -4.51463,7.15 z m -6.469621,-5.3625 c -1.57725,-3.6125 -11.577246,-7.3 -12.202246,-1.625 -0.49563,4.4875 9.062496,9.1625 13.942871,5.9875 -2.692875,-2.7875 -11.6425,-0.3375 -11.200625,-6.3625 3.00725,-2.85 7.807625,1.2375 9.46,2 z m 5.327625,1.05 c 1.911626,-0.075 3.964246,-4.4875 3.344126,-7.55 -0.43888,3.3125 -2.562876,4.6375 -3.344126,7.55 z m -3.655375,-6.625 c -3.208,-5.5 -13.026746,-5.2375 -14.891996,1.75 5.114746,-5.15 12.983371,-0.1125 15.561496,4.625 1.82375,-1.0875 0.44625,-4.4625 -0.6695,-6.375 z m 8.394121,-3.2125 c -0.30275,-1.125 -0.20075,-2.6 -1.24325,-3.1125 0.11963,1.1125 0.91313,3.1 1.24325,3.1125 z m -17.549371,-9.6 c 1.30125,2.7625 6.587,4.8875 10.52975,3.6 -2.287,-2.1125 -6.208375,-4.95 -10.52975,-3.6 z m -0.272875,-0.325 c 4.992125,-2.9375 9.4775,1.975 12.922375,3.8 -0.756875,-1.95 -1.455125,-3.95 -2.861375,-5.3625 -3.317875,1.3125 -7.539625,-0.1375 -10.732375,-1.2 0.02625,1.0875 0.229375,2.025 0.671375,2.7625 z m 16.581996,3.2 c 2.89063,3.85 2.356,10.6 4.123,15.4 5.24225,-3.3 5.5615,-16.7125 1.10838,-20.375 -1.43988,2.0125 -3.017,3.875 -5.23138,4.975 z m -11.323246,-8.475 c 0.09038,0.5 2.214375,0.6875 2.389625,0.2 -0.715375,-0.225 -0.539,-1.2125 -1.71575,-1.05 -0.06838,0.475 -0.78425,0.175 -0.673875,0.85 z m 7.9145,2.475 c 0.38575,2.075 1.882876,3.225 2.587876,5.025 2.72462,-0.6 3.73537,-3.2375 5.25937,-5.275 -1.36775,-0.9625 -2.34375,-2.275 -3.9605,-3.0375 -1.02287,1.425 -1.98487,2.9125 -3.886746,3.2875 z m -14.064375,-4.4875 c 0.2045,1.95 2.880875,3.2875 4.877375,2.8125 -0.856375,-1.1375 0.46875,-2.5 1.148,-2.9125 -1.582,-1.525 -4.978,-2.025 -6.025375,0.1 z m 4.730875,-2.6125 c 2.229,1.725 6.337875,1.8625 7.446875,4.5375 1.532625,-0.375 2.782625,-1.0875 3.236751,-2.7375 -2.126501,-1.65 -7.653251,-3.525 -10.683626,-1.8 z m 14.218746,2.6875 c 1.03075,1.175 2.28075,2.15 3.66025,3.025 4.69725,-8.8875 0.24113,-19.2875 -1.004,-27.475 -5.1215,6.525 1.88288,17.275 -2.65625,24.45 z m -7.770996,-32.85 c -4.657625,-0.65 -6.6455,7.3125 -4.96525,12.525 2.6465,2.4375 9.084496,1.8875 10.883246,-0.5875 -2.050246,-3.4375 -1.48925,-11.3125 -5.917996,-11.9375 z m 8.560126,9.15 c 1.87012,-3.6875 0.48775,-8 -1.5625,-10.0625 1.07912,2.8875 0.539,7.1375 1.5625,10.0625 z m -7.805251,-18.1125 c -9.265625,-3.7375 -11.67525,14.3625 -6.813875,20.1875 -2.670875,-7.1125 4.641125,-16.825 9.27,-10.05 -0.100625,-0.725 -1.123,-2.0875 0.202125,-2.3875 2.366251,1.975 1.926251,6.325 3.129871,9.2875 -0.55912,-6.8375 -0.45412,-14.875 -5.788121,-17.0375 z m 7.736371,8.175 c 0.52975,-1.9375 -0.92962,-4.575 -1.24025,-6.725 2.59763,3.5375 3.37213,9.95 4.67338,16.0375 1.23237,5.775 2.73875,12.15 3.07375,17.1125 0.268,3.975 -0.65188,8.0875 -2.74713,11.2125 5.11475,5.1875 4.99513,18.575 -1.08587,23.675 2.956,7.15 1.85,18.8875 -2.95713,24.425 0.6915,2.6125 2.17775,4.3875 3.00838,7.175 0.73675,2.4875 0.46875,6.9125 1.96037,8.9 6.045,8.0375 9.80188,12.8 7.97863,26.85 -0.50838,3.8875 -1.5655,6.9875 -2.97175,10.275 -0.7935,1.85 -2.30413,4.125 -2.61963,6.1 -0.44437,2.775 0.48825,5.575 0.22025,8.15 -0.32712,3.075 -1.45562,7.1625 -3.5205,9.6375 -1.33787,1.5875 -3.855,1.85 -5.457,4.05 -0.55862,0.5 -1.16662,-0.1875 -1.11825,-1 -0.3125,0.9625 -1.26175,2.875 -2.267496,1.925 -1.68025,-0.5125 0.922376,-2.25 -0.04888,-3.0125 -1.565375,-1.875 -2.1655,1.9 -3.9605,0.5625 -0.285625,-1.775 1.560625,-2 2.36875,-3.1125 1.67425,-2.3 2.03125,-5.5 3.415496,-8.4375 -9.722246,0.975 -21.304247,-13.175 -16.071746,-20.0125 1.25675,-1.6375 8.307625,-4.9375 10.961875,-5.0875 3.27825,-0.2 5.942371,1.2375 8.190371,2.7875 0.918,-5.5875 0.10013,-9.7125 -1.61075,-13.075 -5.720246,0.7125 -10.098246,1.8125 -14.019121,-1.475 -3.212875,-2.7 -4.513625,-8.675 -2.80275,-13.175 1.738875,-4.5875 7.1045,-7.2125 11.53375,-8.3625 -0.4785,-1.075 -1.716375,-1.5125 -2.51275,-2.3125 -5.304625,2.4875 -11.974625,4.25 -19.228496,3.1875 -6.86713,-0.9875 -14.11813,-5.2125 -16.977,-9.25 -0.92038,-1.3 -2.1025,-3.7875 -1.61375,-5.85 0.23437,-1 1.36475,-1.5625 2.0185,-2.5375 2.07275,-3.0875 3.97212,-7.325 6.48237,-9.0875 2.76375,-1.9375 7.52638,-2.9 10.78325,-3 8.555251,-0.2875 14.998001,5.9375 20.190876,10.425 1.291625,-2.75 1.369625,-7.575 0.229125,-9.9125 -1.228125,-0.15 -1.913625,0.3625 -3.310625,0.0125 0.100625,-0.3125 0.610875,-0.15 0.6475,-0.5375 -1.921375,0.35 -4.107,0.4 -6.6265,0.0375 -2.688,-3.75 -9.179126,-4.5875 -7.982876,-12.4 1.74563,-3.1 6.178751,-6.3875 10.985876,-5.4 4.2705,0.875 5.9575,5.475 7.365625,9.05 4.103996,-2.3875 3.462496,-10.4375 -0.490625,-12.0875 -3.16125,0.3125 -6.479125,0.1875 -9.51425,-1.4 -2.5635,-1.3375 -3.015125,-3.9125 -5.350996,-0.75 -0.64213,-0.0125 1.755371,-1.7625 2.316871,-2.5125 -0.894125,-4.1 -2.766121,-8.3625 0.65375,-11.375 5.61525,-0.3375 11.120625,-1.575 15.789126,1.925 2.05025,-4.475 1.79687,-12.0875 1.1055,-16.7625 -4.411251,2.0125 -12.599626,1.525 -14.687501,-4.2375 -3.515625,-9.7125 1.6845,-26.0375 11.46775,-18.3 -0.354,-1.8 -1.502,-3.55 -3.01025,-3.5625 3.3295,-2.65 4.145501,3.275 5.500501,6.175 0.92237,1.9875 2.287,3.3875 2.91012,4.7625 -0.01,0.1 -0.0176,0.2 -0.0274,0.3"
       style="fill:#231f20;fill-opacity:1;fill-rule:evenodd;stroke:none"
       id="path3080"
       inkscape:connector-curvature="0" />
  </g>
</svg>
