<?xml version="1.0" encoding="UTF-8" standalone="no"?>
<!-- Created with Inkscape (http://www.inkscape.org/) -->

<svg
   xmlns:dc="http://purl.org/dc/elements/1.1/"
   xmlns:cc="http://creativecommons.org/ns#"
   xmlns:rdf="http://www.w3.org/1999/02/22-rdf-syntax-ns#"
   xmlns:svg="http://www.w3.org/2000/svg"
   xmlns="http://www.w3.org/2000/svg"
   xmlns:sodipodi="http://sodipodi.sourceforge.net/DTD/sodipodi-0.dtd"
   xmlns:inkscape="http://www.inkscape.org/namespaces/inkscape"
   width="197.61664"
   height="88.154236"
   id="svg4522"
   version="1.1"
   inkscape:version="0.48.2 r9819"
   sodipodi:docname="New document 19">
  <defs
     id="defs4524" />
  <sodipodi:namedview
     id="base"
     pagecolor="#ffffff"
     bordercolor="#666666"
     borderopacity="1.0"
     inkscape:pageopacity="0.0"
     inkscape:pageshadow="2"
     inkscape:zoom="1.9279753"
     inkscape:cx="98.808317"
     inkscape:cy="44.077121"
     inkscape:document-units="px"
     inkscape:current-layer="layer1"
     showgrid="false"
     fit-margin-top="0"
     fit-margin-left="0"
     fit-margin-right="0"
     fit-margin-bottom="0"
     inkscape:window-width="542"
     inkscape:window-height="610"
     inkscape:window-x="20"
     inkscape:window-y="20"
     inkscape:window-maximized="0" />
  <metadata
     id="metadata4527">
    <rdf:RDF>
      <cc:Work
         rdf:about="">
        <dc:format>image/svg+xml</dc:format>
        <dc:type
           rdf:resource="http://purl.org/dc/dcmitype/StillImage" />
        <dc:title></dc:title>
      </cc:Work>
    </rdf:RDF>
  </metadata>
  <g
     inkscape:label="Layer 1"
     inkscape:groupmode="layer"
     id="layer1"
     transform="translate(-21.191685,-388.28507)">
    <path
       d="m 27.188685,402.85264 c 1.140125,0.25 2.1485,0.3875 2.999,-0.3 -0.911625,0.1875 -2.583,-0.3875 -2.999,0.3 z m 6.297375,47.675 c 0.90575,-2.5875 3.09625,-5.4875 3.298875,-7.7875 -0.92675,2.575 -3.163125,5.425 -3.298875,7.7875 z m 5.69725,-18.8875 c -4.023375,-8.175 -7.959,-16.425 -12.8945,-23.6875 2.861875,9.8375 7.88725,17.5 12.294875,25.7875 -0.04825,-0.95 0.797375,-1 0.599625,-2.1 z m -13.493625,-27.8875 c -0.48825,0.9625 -0.142625,1.625 0,2.7 1.2525,-0.4375 2.45025,-0.8125 3.898,-0.3 0.751375,-3.3375 8.436,0.1 10.19625,-1.5 -4.437,-0.2 -10.335875,-0.275 -14.09425,-0.9 z m 14.993625,24.8875 c -0.957,1.475 -0.05125,2.5375 0.599625,3.9 0.237875,-0.8625 0.607,-1.5875 0.899375,-2.4 -0.865125,-0.1375 -0.708875,-1.2875 -1.499,-1.5 z m -5.097625,-26.0875 c 1.975625,0.325 4.598625,1.5875 6.596625,0.9 -1.608875,-1.1 -4.251375,-2.2 -6.596625,-0.9 z m -8.69575,59.675 c 0.242625,-1.5625 0.703125,-1.95 0.29875,-3.6 2.568375,-2.9 3.549875,-7.25 5.098625,-11.0875 1.608,-4 3.648,-7.85 4.19825,-11.7 -2.636625,0.95 -3.34225,4.3 -4.19825,6.6 -3.012125,8.0625 -6.439875,15.5625 -9.896,22.7875 7.382875,-0.3875 14.090875,-4.1125 22.789625,-4.5 -6.28175,-1.8 -13.041,1.4125 -18.291,1.5 z m 14.992125,-55.475 c 1.837375,0.0375 3.5845,-0.0125 4.798875,-0.6 -1.713875,0.0875 -3.4595,0.1375 -4.798875,0.6 z m 8.09725,-0.3 c 5.378375,0.2125 15.205,-0.525 20.690875,-1.2 -6.694375,-0.35 -15.598125,-0.9875 -20.690875,1.2 z m 10.4955,55.775 c 4.890125,2.4125 12.113375,2.5625 17.092375,0 -6.182625,0.2875 -12.421875,-0.45 -17.092375,0 z m 0,-5.7 c 6.67,0.825 13.5035,2.275 17.99225,1.5 -6.67875,-0.275 -11.351625,-2.4375 -17.99225,-1.5 z m -17.3925,2.4 c 12.48625,0.4875 26.376875,2.975 39.283125,1.5 -13.846125,-0.0375 -26.94525,-6.1375 -39.283125,-1.5 z m 48.28025,3.3 c 1.081,0.0375 1.98825,1.7875 2.9975,0.9 -0.8495,-0.2625 -2.2495,-1.525 -2.9975,-0.9 z m -0.899875,-59.375 c 1.169375,-0.2875 4.61175,-1.9125 4.19825,-2.4 -5.665625,0.225 -11.3165,1.35 -17.393125,1.8 -9.394,0.6875 -19.368625,-2.625 -25.48925,1.5 10.7105,-2.1 27.38375,1.85 38.684125,-0.9 z m 8.69625,62.675 c -1.359875,-0.55 -3.269,-2.125 -4.498,-1.8 1.19625,0.5625 4.240125,2.275 4.498,1.8 z m 13.794005,3.6 c 0.31487,-0.025 0.23675,-0.3875 -0.29888,-0.3 -8.17137,-2.325 -14.01175,-8.5875 -23.091375,-9 8.22175,2.675 14.722255,7.075 23.390255,9.3 z m -14.39463,-66.275 c 6.99375,-0.9 11.79938,-4 18.59275,-5.1 -5.497,-1.3125 -13.7035,2.1375 -18.59275,5.1 z m 11.09625,-9.9 c -0.166,0 -0.34087,0.25 0,0.3 3.82813,-0.8 8.601,-2.775 13.19438,-2.7 3.58537,0.075 6.26062,1.8125 8.99562,2.1 -5.27112,-6.5125 -15.1465,-1.8125 -22.19,0.3 z m 12.59425,-0.9 c -5.812,0.05 -13.7075,2.7 -17.09237,5.7 13.49712,-6.6 25.88937,0.1875 38.08312,3.3 -6.675,-1.6375 -12.11125,-9.05 -20.99074,-9 z m 8.397,77.075 c -2.15187,0.9875 -5.78862,2.375 -7.79687,2.7 -4.875,0.7875 -10.43075,-1.4625 -15.59338,-0.9 5.27013,2.8375 11.94338,4.8625 18.29251,3.6 6.36275,-1.2625 9.32775,-5.8 14.39275,-8.7 3.8775,-2.225 7.66375,-3.25 11.69625,-4.8 -10.24126,-1 -14.39001,5.0625 -20.99126,8.1 z m 2.09875,-75.275 c 7.06375,3.8375 14.82125,8.575 24.29,9 -8.61,-2.6625 -17.01375,-5.7125 -24.29,-9 z m 18.8925,63.275 c 4.97,-0.4125 8.395,-0.475 12.89375,-0.6 -4.35875,-0.3125 -8.88875,-1.35 -12.89375,0.6 z m -1.8,2.4 c 5.43625,0.1875 10.6075,0.5625 15.89375,-0.6 -5.075,-0.9 -10.715,-0.7375 -15.89375,0.6 z m 2.7,-53.675 c 5.2775,2.4 11.48625,2.6875 17.6925,2.4 -5.65125,-0.3875 -12.1975,-2.4625 -17.6925,-2.4 z m 43.78125,22.7875 c 0.4975,0.3 0.32625,1.275 0.6,1.8 2.4875,-3.3125 4.0325,-9.1625 5.3975,-12.5875 -1.995,3.6 -3.8125,7.375 -5.9975,10.7875 z m 3.3,4.2 c 1.2475,2.8625 4.0475,8.3375 5.99625,10.5 -2.16875,-3.3375 -2.99625,-8 -5.99625,-10.5 z m 5.39625,-16.7875 c 0.30625,-1.3 2.09125,-2.7 1.49875,-3.9 -0.4475,1.025 -1.99,3.9 -1.49875,3.9 z m -157.734,38.975 c 2.078625,-0.2125 4.168375,-1.0125 5.997,-1.2 7.619625,-0.7625 15.525875,0.5625 23.389625,1.5 7.6285,0.9125 15.174875,0.775 21.2915,3.3 5.973255,2.475 14.007875,8.9375 21.590875,9.3 5.26275,0.25 11.81625,-5.1375 15.595,-7.2 1.73125,-0.95 3.70626,-1.2625 5.69625,-2.1 3.83375,-1.6125 7.53,-4.0375 11.09625,-4.8 5.65125,-1.2 11.30625,0.4625 17.6925,0.9 12.89375,0.8875 24.5175,-0.5375 37.185,0.9 0.1825,-0.0125 0.355,-0.0375 0.3,-0.3 -5.41375,-8.075 -8.4675,-18.525 -14.095,-26.3875 3.005,-6.1875 6.7125,-11.675 10.19625,-17.3875 -20.8875,1.825 -40.2075,0.45 -57.57625,-4.8 -5.625,-1.7 -10.565,-4.8875 -15.89375,-6 -10.25337,-2.125 -18.73625,1.9625 -27.2885,4.2 -9.611875,2.5125 -19.602125,1.65 -28.787625,2.7 -13.085,1.5 -24.857375,1.8625 -38.983375,2.4 2.608875,7.6875 9.088375,14.1 12.894,21.5875 -4.338375,8.2625 -9.481,15.7125 -12.894,24.8875 4.76175,-1.6375 7.276875,-0.95 12.59425,-1.5 z m 160.43275,-47.075 c -6.3725,0.1 -11.57875,1.8625 -16.7925,1.5 -1.79875,0 -3.59874,0 -5.39875,0 -0.2175,0.625 3.24001,0.15 4.49875,0.3 6.86126,0.125 11.56,-0.375 17.3925,-1.5 0.72625,-0.2625 0.6675,2.2125 0.9,0.6 0.35,-0.05 0.325,-0.475 0.3,-0.9 -0.3,0 -0.6,0 -0.9,0 z m -44.98125,-4.2 c 8.49251,3.375 19.0025,2.225 27.58876,2.4 7.12,0.1375 13.74125,0.575 18.89125,-0.6 -16.2175,1.1375 -33.20625,-4.3 -46.48,-1.8 z m 8.39751,53.975 c 13.28999,0.975 30.13624,2.8625 41.3825,0.6 -10.71626,-0.025 -29.10625,-1.7875 -41.3825,-0.6 z m 38.98375,-6.9 c 1.70625,2.8125 3.18375,7.4 4.4975,9.6 -9.90375,1.6375 -18.62875,0.3875 -30.8875,0.6 9.95875,4.2 21.3725,1.225 32.38625,0.9 -1.22,-4.275 -4.035,-8.5625 -5.99625,-11.1 z m 8.695,11.1 c 0,0.3 0,0.6 0,0.9 -1.75625,1.45 -3.10625,0.025 -4.7975,0 -5.51,-0.0875 -10.67,2.3375 -15.59375,2.4 -8.80626,0.1 -15.1625,-3.9375 -22.49001,-4.5 -6.1175,-0.475 -11.35249,0.1125 -16.7925,0.9 -9.58251,1.4 -15.96125,3.7625 -22.19125,8.4 -4.81374,3.575 -11.00062,7.0875 -19.19212,6.3 -10.163,-0.9875 -18.23088,-10.1875 -27.58888,-12.9 -2.59125,-0.75 -7.21925,-1.3125 -9.595625,-0.6 -4.238375,1.275 -8.8785,3.425 -13.495125,3 -2.706625,-0.25 -5.040125,-1.825 -7.496625,-2.4 -8.316375,-1.925 -16.543,-1.65 -25.189,0.3 -4.304125,0.975 -7.532625,4.475 -13.19425,3 0.984875,-11.9125 8.599625,-19.7875 11.693875,-30.5875 1.200125,-0.4 1.772375,-1.425 2.9995,-1.8 -2.539125,-7.5125 -6.695875,-14.1125 -10.495625,-20.6875 -1.171875,-2.025 -2.662125,-4.2875 -2.998125,-6.6 2.338,-0.1375 1.945875,2.45 3.298375,3.3 -0.34575,-2.9125 -2.329125,-5.45 -0.899375,-8.4 5.390625,-0.325 8.5205,-2.3375 14.693375,-1.2 1.398875,0.2625 2.312,1.4375 3.598625,1.8 1.748,0.4875 4.941375,0.65 7.496,0.3 3.042,-0.4125 6.16125,-2.3375 9.8965,-2.4 5.127,-0.0875 10.542,0.9 15.893625,0.6 5.595625,-0.3125 11.158125,-0.7375 16.193875,-1.2 2.365625,-0.2125 5.161125,-0.4375 7.19725,-1.2 3.01025,-1.125 4.57763,-4.5125 7.19575,-6 3.229,-1.825 6.64213,-1.9 11.09525,-2.9875 4.96676,-1.225 11.60275,-3.15 13.49525,2.0875 4.71375,2.3375 10.25624,4.875 15.89376,6.6 4.8375,1.475 8.52,4.025 14.3925,4.2 1.93125,0.0625 3.9475,-0.6 5.99875,-0.6 2.7925,0 5.27375,0.175 8.09625,0 5.36,-0.325 10.79125,1.6625 16.19375,2.1 7.755,0.6375 15.40625,-0.4375 22.79,0 0.35624,1.2625 -1.265,0.5375 -1.49876,1.2 0.93376,0.5625 2.65001,0.35 2.99751,1.5 0.22624,2.25 -2.22875,3.8 -3.89751,5.1 -0.40501,-1.4125 2.18001,-2.4125 2.39876,-4.2 -0.37126,-1.125 -3.03001,-0.5375 -3.89752,-0.3 -1.33625,2.625 -1.55,5.2125 -3.3,7.8 1.0225,0.3125 2.5775,-3.0125 3.59875,-2.7 -4.38,4.7125 -7.11875,11.075 -10.495,16.7875 5.2975,7.275 9.1275,17.3625 14.09375,26.3875 1.41375,2.575 2.12375,5.8625 3.8975,6.3"
       style="fill:#231f20;fill-opacity:1;fill-rule:evenodd;stroke:none"
       id="path3064"
       inkscape:connector-curvature="0" />
  </g>
</svg>
