<?xml version="1.0" encoding="UTF-8" standalone="no"?>
<!-- Created with Inkscape (http://www.inkscape.org/) -->

<svg
   xmlns:dc="http://purl.org/dc/elements/1.1/"
   xmlns:cc="http://creativecommons.org/ns#"
   xmlns:rdf="http://www.w3.org/1999/02/22-rdf-syntax-ns#"
   xmlns:svg="http://www.w3.org/2000/svg"
   xmlns="http://www.w3.org/2000/svg"
   xmlns:sodipodi="http://sodipodi.sourceforge.net/DTD/sodipodi-0.dtd"
   xmlns:inkscape="http://www.inkscape.org/namespaces/inkscape"
   width="111.55499"
   height="133.72437"
   id="svg4574"
   version="1.1"
   inkscape:version="0.48.2 r9819"
   sodipodi:docname="New document 23">
  <defs
     id="defs4576" />
  <sodipodi:namedview
     id="base"
     pagecolor="#ffffff"
     bordercolor="#666666"
     borderopacity="1.0"
     inkscape:pageopacity="0.0"
     inkscape:pageshadow="2"
     inkscape:zoom="4.1683476"
     inkscape:cx="55.777498"
     inkscape:cy="66.862177"
     inkscape:document-units="px"
     inkscape:current-layer="layer1"
     showgrid="false"
     fit-margin-top="0"
     fit-margin-left="0"
     fit-margin-right="0"
     fit-margin-bottom="0"
     inkscape:window-width="626"
     inkscape:window-height="793"
     inkscape:window-x="20"
     inkscape:window-y="20"
     inkscape:window-maximized="0" />
  <metadata
     id="metadata4579">
    <rdf:RDF>
      <cc:Work
         rdf:about="">
        <dc:format>image/svg+xml</dc:format>
        <dc:type
           rdf:resource="http://purl.org/dc/dcmitype/StillImage" />
        <dc:title></dc:title>
      </cc:Work>
    </rdf:RDF>
  </metadata>
  <g
     inkscape:label="Layer 1"
     inkscape:groupmode="layer"
     id="layer1"
     transform="translate(1.4917857,-342.64285)">
    <path
       d="m 1.8069643,427.81294 c -0.35875,0.84 -0.33,2.0675 -0.29875,3.29875 2.8525,-0.245 4.78875,-1.4075 6.29625,-2.99875 -1.7775,0.65 -4.47,0.235 -5.9975,-0.3 z m 1.2,-29.6875 c 1.01375,2.02625 4.38125,0.2 5.0975,-0.90125 -1.92625,0.0737 -4.31125,-0.3125 -5.0975,0.90125 z m -0.6,7.795 c 0,0.60125 0,1.2 0,1.8 2.22125,0.12625 4.94875,0.53375 5.9975,-1.19875 -2.075,-0.5575 -3.51,-1.38 -5.9975,-0.60125 z m 1.5,9.2975 c -1.16625,1.0325 -2.95750001,1.4425 -2.69875,3.89875 3.09125,1.61875 6.75125,-0.65 7.79625,-3 -1.66,-0.3375 -3.09375,-0.90375 -5.0975,-0.89875 z m 0.29875,-24.89 c 2.15375,0.6825 5.15,0.075 5.9987497,-1.5 -1.9399997,-0.32625 -6.0449997,-1.06625 -5.9987497,1.5 z m 5.69875,17.6925 c -1.8525,1.3475 -4.475,1.92375 -7.7975,1.79875 -0.45,1.65 -0.745,3.4525 -0.89875,5.39875 1.8975,-2.1925 5.725,-1.26375 8.69625,-0.60125 1.2174997,-2.0525 1.7087497,-4.98625 0,-6.59625 z m 1.1999997,9.89625 c -2.2674997,0.74875 -5.4174997,4.75625 -9.8962497,3.29875 0,1.3 0,2.59875 0,3.8975 4.62375,4.48 11.2649997,-1.2675 9.8962497,-7.19625 z m -2.9999997,9.59625 c 0.4575,1.045 2.2862497,-1.43 3.5987497,-1.5 -0.17875,-0.6225 0.37125,-1.97 -0.3,-2.09875 -0.8875,1.41125 -1.6799997,2.9175 -3.2987497,3.59875 z m 2.3987497,-29.08875 c -2.3912497,1.0075 -3.9424997,2.85375 -7.7962497,2.39875 0.19,1.01125 -0.38625,2.78625 0.3,3.29875 2.08,-0.37625 5.2625,0.7325 7.1974997,1.5 1.725,-1.815 2.0275,-5.0425 0.29875,-7.1975 z M 3.9069643,379.23294 c 0.36625,2.5525 0.27,4.505 0.29875,7.79625 2.9225,-0.15125 5.03625,-0.20625 7.4974997,0.6 0.3475,-4.5625 -2.8549997,-8.13 -7.7962497,-8.39625 z m -0.30125,-3.89875 c 0.22875,-1.07125 0.99875,-1.60125 2.1,-1.79875 2.13625,-3.36125 5.1187497,-7.475 6.2974997,-10.79625 -2.9549997,3.84375 -6.9087497,8.28375 -8.3974997,12.595 z m 8.9974997,33.28625 c -0.605,-1.1125 0.47875,-2.06 -0.3,-2.99875 -0.84,0.8775 -0.57625,2.32375 0.3,2.99875 z m -0.3,-17.9925 c -2.185,-0.0838 -4.6724997,3.0425 -8.0974997,1.79875 -0.5325,1.53125 -0.42125,1.9925 -0.6,3.59875 2.52875,-0.19 4.46375,-0.915 6.5987497,0 1.12125,-1.22375 3.04125,-3.09 2.09875,-5.3975 z m -1.19875,-21.29125 c 0.19125,-2.1925 2.5625,-3.3325 1.49875,-5.0975 0.05625,1.98125 -3.5287497,4.00875 -1.49875,5.0975 z m 0.59875,28.1875 c 0.92875,0.17125 0.78875,1.41125 1.79875,1.5 -0.1925,-1.20625 0.39,-3.18875 -0.3,-3.89875 -0.29625,1.0025 -1.2025,1.3975 -1.49875,2.39875 z m 1.2,-13.79375 c 0.61625,0.5825 0.58125,1.81625 1.19875,2.39875 0.1225,-1.13625 -0.60625,-2.9725 -1.19875,-2.39875 z m -3.5987497,61.47501 c 0.60625,-4.59251 3.0137497,-7.38126 5.3962497,-10.19501 -4.2475,0.74875 -6.4449997,5.14625 -5.3962497,10.19501 z m 2.6987497,-16.79376 c -3.4712497,1.1275 -5.8162497,3.38 -9.8962497,3.89875 1.13375,1.145 -0.46375,3.6 1.19875,4.49875 2.42375,-2.77625 4.06125,-6.335 8.3974997,-7.1975 0.5325,0.56625 1.6225,0.57625 1.2,2.09875 -3.5324997,-0.6675 -10.1624997,5.0725 -6.2974997,8.99625 -0.32,0.28 -0.09375,1.10625 -0.9,0.9 0.52125,0.7775 0.42125,2.17751 1.49875,2.39876 -0.2825,-6.38126 2.53375,-9.66251 7.4962497,-10.79501 -0.27625,-2.22125 -2.2725,-2.72375 -2.6975,-4.79875 z m 4.4975,-42.2825 c 0,-0.59875 0,-1.2 0,-1.79875 -1.36375,12.6175 -2.80375,27.5625 -2.99875,40.4825 1.2725,-0.16125 2.1725,2.875 2.7,1.50125 -3.46,-13.73625 0.62,-25.735 0.29875,-40.185 z m -1.19875,43.4825 c 0.585,1.11375 1.10125,2.2975 2.09875,2.99875 0.11875,-1.8175 -1.2775,-2.12125 -2.09875,-2.99875 z M 8.7044643,371.13544 c -0.635,1.56375 -1.67,2.73 -2.39875,4.19875 0.45,1.54875 1.81375,2.18625 3.59875,2.39875 0.5474997,2.45 2.9112497,3.08625 4.7962497,4.19875 1.41125,-0.48875 2.1675,-1.63125 2.7,-2.99875 -4.67875,-0.82 -6.5125,-4.48375 -8.6962497,-7.7975 z m 5.9962497,-6.29625 c -0.09875,3.2 1.8175,5.97625 3.9,5.99625 -2.11625,-1.18125 -3.17625,-3.42 -3.9,-5.99625 z m -0.59875,74.06875 c -4.5099997,3.45625 -3.8475,14.21251 4.79875,11.39501 -4.95875,-1.00875 -7.87,-6.565 -4.79875,-11.39501 z m 4.1975,-0.6 c -3.7675,-0.25625 -2.65875,10.40626 1.8,7.49626 -3.37375,-0.4275 -2.81875,-4.95001 -1.8,-7.49626 z m 2.4,-75.56875 c -0.9425,-0.14125 -0.79125,0.8075 -1.5,0.9 -0.21125,1.62 0.7975,3.59 1.5,3.29875 -1.1725,-0.7975 -0.4525,-3.22625 0,-4.19875 z m -7.4975,5.39875 c -2.64125,4.60125 1.2475,8.68625 5.69875,8.99625 0.7675,-1.03125 1.72875,-1.87 2.09875,-3.3 -3.945,-0.5525 -6.05,-2.945 -7.7975,-5.69625 z m 6.2975,72.56875 c -0.07625,1.77625 0.045,3.35376 1.8,3.29876 0.33625,-0.0637 0.46625,-0.33375 0.59875,-0.6 -1.07375,-0.625 -1.01375,-2.38501 -2.39875,-2.69876 z m 3.89875,5.39751 c -1.18875,1.01125 -2.62625,1.7725 -4.19875,2.4 1.7975,0.66875 4.04625,-0.19 4.79875,-1.5 -0.42125,-0.0775 -0.34125,-0.6575 -0.6,-0.9 z m -3.29875,-92.06126 c 1.065,-0.73375 2.74125,-0.85625 3.89875,-1.49875 -1.63875,-1.29375 -4.44625,1.60375 -3.89875,1.49875 z m 2.1,102.25751 c 0.8775,-0.72875 2.18125,-2.52375 1.79875,-2.99875 -1.69625,1.3625 -4.48,2.7425 -7.4975,2.39875 -2.0925,-0.23875 -3.57,-2.2425 -4.4975,-1.79875 1.34,1.65875 1.985,4.01125 3.8975,5.0975 1.915,-0.5 4.73875,-1.405 6.29875,-2.69875 z m 0,-92.06126 c -0.295,2.4925 1.53875,2.85875 2.69875,3.89875 1.25125,-1.47875 -0.96375,-4.51875 -2.69875,-3.89875 z m -3.9,88.16376 c -2.0725,0.095 -3.98875,-0.78125 -5.69625,-0.90125 3.40375,4.1275 10.9425,1.9025 13.19375,-1.79875 -2.22125,-0.1375 -4.235,2.5475 -7.4975,2.7 z m 3.3,-13.79376 c 0.42625,3.0225 3.72625,7.22876 5.39625,8.99501 -2.19,-2.6075 -3.09,-6.50501 -5.39625,-8.99501 z m 0,-80.06875 c -1.21,0.21125 -1.44375,1.13375 -2.1,2.4 4.6775,-1.09375 5.91375,3.65125 7.49625,2.9975 -1.4275,-1.72 -2.5075,-5.89875 -5.39625,-5.3975 z m -0.3,-2.6975 c 3.89,0.4075 5.4775,3.12 6.89625,5.9975 0.495,-3.4 -3.285,-9.475 -6.89625,-5.9975 z m 7.49625,104.65501 c -1.765,2.7325 -3.52,5.47625 -5.3975,8.0975 -0.39875,-0.30125 -1.11625,-0.285 -1.19875,-0.9 0.865,-2.8325 3.02875,-4.36625 4.4975,-6.59625 -1.18,-0.3325 0.0125,-3.07625 0.9,-3.29875 1.565,0.14375 -0.81875,3.08125 0,2.3975 0.7825,-1.21625 1.895,-2.10125 2.39875,-3.59875 -1.59625,-0.6025 -1.0475,-3.35 -2.69875,-3.8975 -2.57625,3.52125 -5.70625,6.48875 -10.49625,7.79625 1.2475,3.65 4.3225,5.47375 5.69875,8.9975 2.87625,-0.8525 6.3725,0.17 8.095,0 -3.0725,-1.2825 -2.2,-6.475 -1.79875,-8.9975 z m 1.79875,-103.45626 c -1.16375,-2.73375 -1.89875,-5.89625 -2.69875,-8.9975 -0.01875,-1.0175 1.54125,-0.45875 1.5,-1.49875 -0.41625,-0.1825 -0.045,-1.155 -0.6,-1.19875 -0.76625,0.6325 -2.75875,0.0387 -3.29875,0.89875 0.22,2.615 -3.1,1.77 -3.8975,4.19875 5.34875,-0.15125 6.27875,4.115 8.09625,7.4975 -0.11875,-0.72 1.365,0.16625 0.89875,-0.9 z m 0,-11.395 c 0.15,3.7575 0.3625,7.90125 2.1,10.795 3.03625,-2.91375 -0.90875,-8.10625 2.1,-11.395 -1.555,0.045 -2.98125,0.2175 -4.2,0.6 z m 4.79875,111.55376 c -1.33375,0.23375 -1.79875,-0.4 -2.99875,-0.30125 -1.76625,2.75625 -3.86875,9.11 -0.6,11.69625 2.205,0.10625 4.10375,-0.0937 4.49875,-1.8 -0.96,-2.46625 -0.865,-7.15125 -0.9,-9.595 z m -0.3,-101.65876 c -0.4225,0.57875 -0.7925,1.20625 -0.9,2.1 0.6025,0.21875 2.4325,0.74 2.69875,0.3 -0.92375,-0.475 -1.05125,-1.7475 -1.79875,-2.4 z m 2.39875,102.85751 c -0.46875,1.4575 -0.6175,4.95375 0.3,5.9975 0.39875,-1.525 0.6675,-4.90125 -0.3,-5.9975 z m 0.3,10.19625 c -0.81375,0.18375 -1.40375,0.59375 -1.79875,1.2 0.81375,-0.18625 2.38,0.38125 2.69875,-0.3 -0.4325,-0.16875 -0.73125,-0.4675 -0.9,-0.9 z m 4.79875,-122.64876 c -1.47,0.53125 -3.90875,0.09 -5.09875,0.89875 -1.15375,5.57625 -1.53625,9.98125 2.99875,12.295 4.9425,-2.62875 0.385,-8.45125 2.1,-13.19375 z m 1.19875,121.74876 c -0.27,-3.76875 0.86875,-6.1275 0.9,-9.59625 -1.4325,-0.4675 -3.5725,-0.225 -5.0975,-0.59875 0.9425,3.19625 0.26125,6.90625 -0.9,9.595 0.7925,1.7625 3.9175,2.43125 5.0975,0.6 z m 0.3,-109.75376 c 0.05,0.6775 -1.44125,1.31875 -0.59875,1.8 -0.05125,-0.6525 1.0625,-0.1375 1.49875,-0.3 -0.03375,-0.7675 -0.55,-1.05 -0.9,-1.5 z m 0.3,-11.39625 c -1.08125,1.28875 -0.435,4.15 0,5.69875 -0.1525,-1.8825 2.0825,-4.69125 0,-5.69875 z m 0,122.64876 c -0.27125,0.52875 -1.10375,0.49625 -1.2,1.2 0.77875,-0.055 2.00875,0.95875 2.39875,0.3 -0.90875,0.009 -0.29,-1.50875 -1.19875,-1.5 z m 2.09875,-10.495 c -0.245,1.8575 -1.32375,4.46625 -0.59875,6.2975 0.72375,-1.9225 1.5225,-4.255 0.59875,-6.2975 z m 0,-112.45376 c 1.37625,3.93125 -2.87375,9.31625 0.3,12.895 1.55125,0.2 1.50875,0.23375 3.29875,0.30125 4.07125,-2.8175 0.37875,-9.77625 2.99875,-13.795 -2.57125,0.40875 -4.2375,-0.0787 -6.5975,0.59875 z m 2.1,111.85376 c 0.87,3.6975 -1.2025,7.1825 -2.69875,10.1975 1.01625,2.41125 4.17375,4.35875 6.59625,2.0975 -0.45875,-4.29125 0.74,-8.89 2.1,-12.295 -1.71375,-0.6675 -4.1625,-0.14 -5.9975,0 z m 5.3975,-110.35376 c -0.0125,0.905 -0.80625,2.57 0,3.29875 -0.31625,-1.35875 1.32875,-2.775 0,-3.29875 z m -0.3,9.29625 c -0.40125,1.09875 -1.14375,1.855 -1.49875,2.99875 1.1775,-0.065 2.9325,0.8475 3.8975,0 -1.21375,-0.58625 -1.535,-2.06375 -2.39875,-2.99875 z m 3.29875,101.35751 c -2.47625,1.92375 -3.11875,7.275 -2.7,11.09625 2.0975,-2.36375 4.42875,-6.8 2.7,-11.09625 z m 6.89625,-104.95626 c 0.20875,-1.96125 -1.39,-4.7625 -0.29875,-6.5975 -3.2975,-0.2775 -6.05,-0.84875 -8.0975,-0.89875 1.35,1.8075 -0.01125,6.385 -0.89875,8.69625 1.155,2.04375 1.92375,4.47375 4.1975,5.3975 1.94875,-1.6075 4.7625,-3.43625 5.0975,-6.5975 z m -4.4975,105.25626 c -0.1925,1.80875 0.26375,3.37875 0,4.79875 -0.7,3.75625 -3.9375,5.72875 -4.4975,8.3975 1.7125,1.37625 6.73875,0.5125 7.79625,-1.50125 -0.06625,-4.26375 0.64875,-7.7475 1.49875,-11.095 -1.9175,0.1175 -2.72625,-0.87125 -4.7975,-0.6 z m 6.2975,-109.15376 c -0.17875,-0.62125 0.37125,-1.97125 -0.3,-2.09875 0.08125,0.89375 -0.83875,1.825 0.3,2.09875 z m -0.9,118.45001 c 0.7025,-1.99875 1.82875,-5.165 0.9,-7.7975 -0.68375,2.24375 -1.38375,6.18375 -0.9,7.7975 z m 5.9975,-7.4975 c -0.9375,-0.0613 -2.20125,0.2025 -2.6975,-0.3 1.04875,4.69625 -4.35,8.905 -2.4,12.595 7.41375,1.3625 4.39625,-7.67 5.0975,-12.295 z m -3.29875,-113.05126 c -0.75125,3.985 -3.2,11.46 1.49875,11.995 4.1925,0.475 6.26375,-6.545 5.99875,-11.09625 -2.58125,-0.2175 -4.82125,-0.77625 -7.4975,-0.89875 z m 7.4975,114.85126 c -2.25625,1.05625 -2.49125,6.465 -1.2,8.39625 0.8,0 1.6,0 2.39875,0 1.22875,-2.61 0.1,-6.495 -1.19875,-8.39625 z m -9.29625,-117.55126 c 2.6275,1.55 8.2675,2.36625 11.395,0.6 -3.97625,-1.1525 -6.69625,-1.6775 -11.395,-0.6 z m 9.29625,112.45376 c 1.74,-1.16125 2.7975,-4.595 2.99875,-6.2975 -1.1275,1.9725 -2.10875,4.0875 -2.99875,6.2975 z m -0.3,-100.15876 c -0.98625,2.74625 -5.4275,5.6575 -8.39625,3.59875 -1.36375,-0.945 -0.7675,-2.69125 -2.1,-3.9 -0.815,1.585 -2.29875,2.5 -2.99875,4.2 6.8,0.83625 12.215,1.44 18.8925,0.6 -2.8725,-0.42625 -4.19,-2.40625 -5.3975,-4.49875 z m 8.69625,9.59625 c 0.23,1.07 0.77375,1.825 1.49875,2.3975 -0.3725,-0.92625 -0.74,-1.8575 -1.49875,-2.3975 z m 2.99875,76.76751 c -1.12875,0.0712 -1.16875,1.23 -1.5,2.1 1.37125,0.2125 2.3425,-1.0375 1.5,-2.1 z m -1.2,-1.79876 c 0.475,-2.02875 3.06875,-3.525 2.7,-5.3975 -0.87,1.6325 -2.76875,3.8225 -2.7,5.3975 z m -6.59625,-92.66125 c -1.58125,4.3 -3.8525,9.45875 2.09875,10.79625 3.0675,-2.71 6.305,-6.035 8.09625,-10.79625 -4.30375,-0.42625 -6.62375,-0.18875 -10.195,0 z m 0.6,-1.49875 c 2.24375,0 6.9675,0.5525 9.595,-0.60125 0.23375,-0.065 0.35,-0.25125 0.30125,-0.6 -3.425,0.27625 -7.3625,0.0363 -9.89625,1.20125 z m 4.1975,99.85876 c -0.27375,1.225 -1.415,1.58375 -1.49875,2.9975 4.78625,0.2875 8.9375,-1.655 8.09625,-5.9975 0.6375,4.1675 -4.035,4.50625 -6.5975,3 z m 5.3975,-76.17001 c 0.185,0.815 0.595,1.405 1.2,1.8 0.1725,-0.6275 0.74375,-0.85625 0.6,-1.8 -0.70125,-0.0925 -1.23875,-0.58625 -1.8,0 z m 0.6,63.875 c 0.4675,-0.9425 1.97875,-2.4075 1.49875,-3.3 -0.64,0.7675 -2.21875,2.16625 -1.49875,3.3 z m -3.59875,23.08876 c 2.37125,1.4225 6.09125,0.475 5.9975,-2.39875 -2.05,0.74875 -3.78,1.8175 -5.9975,2.39875 z m 4.19875,6.8975 c 0.735,-1.9625 2.13,-3.2675 2.6975,-5.39625 -2.08625,0.415 -2.6725,3.91625 -2.6975,5.39625 z m -0.6,-26.98876 c -0.84875,2.82 2.91875,4.1775 2.99875,6.89751 0.095,3.2425 -2.9875,4.97375 -5.6975,6.59625 8.1,1.81875 7.915,-13.11376 2.69875,-13.49376 z m 2.69875,-50.67875 c 0.13,-0.57125 0.64625,-0.75375 0.59875,-1.49875 -2.8375,-7.05875 -9.24375,-13.14625 -12.29375,-20.99125 -5.11125,-0.31875 -11.8925,-1.955 -17.6925,-0.90125 -3.3775,-1.71375 -10.27125,-2.10875 -14.09375,-1.49875 -4.6025,-1.1525 -9.965,-1.18125 -15.295,-0.89875 -4.8775,7.5175 -9.30125,15.4875 -14.99375,22.19 0.84625,11.32 -2.80375,25.28625 -1.19875,38.685 0.2925,2.43875 1.94,5.16375 1.5,7.79625 4.98875,7.40625 9.71125,15.07626 13.495,23.69001 4.3625,0.55375 11.04125,2.5075 14.6925,0.9 1.975,1.995 7.14,1.795 10.19625,1.2 3.825,2.07125 10.93375,0.86 16.19375,1.49875 3.68875,-7.8275 7.6325,-14.96876 12.295,-21.59251 1.52875,-2.1725 3.9675,-4.18625 4.1975,-7.19625 0.49875,-0.4 1.9075,0.11 1.8,-0.89875 0.46875,-11.71625 2.18,-28.2375 0.59875,-40.48375 z m -9.89625,68.97126 c 7.585,0.86 13.5,-3.9075 12.895,-10.795 -0.14,6.30625 -7.86,10.0225 -14.69375,6.29625 -1.8025,2.3325 -1.97,5.63625 -2.99875,8.0975 3.33125,1.1825 9.16375,7.71125 11.395,0.59875 -2.055,-0.1525 -3.9925,-0.7925 -5.6975,-1.49875 -1.57875,-0.65375 -3.785,-1.10625 -4.4975,-2.69875 0.7125,-1.56375 2.4875,-0.12625 3.5975,0 z m 13.195,-44.68126 c 0.325,0.76875 -0.91125,1.42875 0,1.79875 -0.1475,-0.9475 1.4875,-0.11125 1.2,-1.19875 -0.81875,0.2175 -0.60375,-0.595 -1.2,-0.6 z m -5.0975,-61.175 c -1.64625,3.7525 -4.4925,6.3025 -5.6975,10.49625 -0.7075,0.73375 -0.5575,-0.44875 -1.5,-0.3 -1.06625,1.5775 -0.0225,2.50875 1.2,3.2975 1.6525,-4.20625 8.615,-5.4125 13.495,-4.49625 -2.33,-3.17 -3.98125,-7.01625 -7.4975,-8.9975 z m 5.3975,15.59375 c 0.30625,0.2925 0.60625,0.59375 0.9,0.9 0.1075,2.68375 -0.1125,5.985 -1.5,8.09625 -0.68125,1.0375 -2.46,1.15625 -2.09875,2.39875 3.5175,-1.39 7.279996,-9.89875 2.69875,-11.395 z m -2.69875,91.46251 c 2.77625,-2.3225 3.95375,-6.2425 5.3975,-9.89625 -2.245,2.65375 -4.38875,7.005 -5.3975,9.89625 z m -1.8,-21.59251 c 2.9425,2.55625 4.6125,6.385 6.2975,10.19626 3.659996,-5.92126 -4.39875,-10.09126 -5.0975,-12.59501 -0.44125,0.75875 -1.05875,1.34 -1.2,2.39875 z m -4.7975,-71.06875 c 4.79125,-1.2725 11.3575,-2.33375 13.195,2.09875 2.164996,-6.8325 -10.9175,-7.0075 -13.195,-2.09875 z m 12.595,74.3675 c 0.705,0.29375 0.2675,1.73125 0.89875,2.1 0.964996,-0.79875 -0.4775,-2.745 -0.89875,-2.1 z m 3.297496,0.90125 c -0.37125,1.5325 -2.23625,3.15126 -1.7975,4.49626 0.55625,-1.28625 2.79375,-3.59751 1.7975,-4.49626 z m -7.796246,-60.57625 c 5.38125,-1.59 12.146246,-8.93125 7.197496,-14.39375 0.42875,7.4275 -3.681246,11.91375 -7.197496,14.39375 z m 3.89875,51.27875 c 1.957496,0.91375 4.209996,1.9125 6.297496,1.2 -0.83875,-1.465 -4.2325,-1.96 -6.297496,-1.2 z m 0,-8.99625 c 2.118746,0.45 5.394996,0.9275 6.596246,-0.89875 -1.915,-1.48375 -5.081246,0.0775 -6.596246,0.89875 z m -1.79875,9.89625 c 1.335,3.40125 4.541246,6.4025 7.796246,6.89875 0.795,-1.105 0.7175,-3.08125 1.2,-4.5 -3.5325,-0.265 -6.898746,-0.69875 -8.996246,-2.39875 z m 4.797496,-26.98875 c 1.4125,-0.30375 3.62375,1.42375 4.19875,0 -1.35125,-0.38 -3.05125,-0.965 -4.19875,0 z m -6.897496,14.69375 c 0.55,0.35 1.015,0.785 1.5,1.2 3.02375,-0.65375 6.717496,-2.885 10.194996,-1.2 0.11125,-2.035 -0.265,-2.96375 0,-4.49875 -5.39,-0.65125 -12.008746,-2.9125 -11.694996,4.49875 z m 11.694996,-12.59375 c -3.1725,-0.41 -4.90375,-0.6275 -8.394996,-0.90125 -4.31875,4.24875 2.269996,7.26625 8.094996,5.99875 0.0613,-1.79875 0.39625,-2.63875 0.3,-5.0975 z m -10.494996,15.89375 c -2.15375,2.48 -1.00375,5.5125 1.2,6.29625 1.1,0.39 2.915,-0.47625 4.497496,-0.3 2.04125,0.22875 2.94375,0.94375 4.4975,1.5 -0.0275,-2.43125 1.2,-5.19125 0.3,-7.49625 -2.60625,1.745 -7.784996,1.355 -10.494996,0 z m 5.397496,-26.69 c 1.79875,0.06 4.93625,1.08875 5.39875,-0.9 -1.515,-0.79375 -4.35375,-0.41875 -5.39875,0.9 z m 5.39875,1.49875 c -3.04125,0.50125 -4.80125,-0.15625 -8.097496,0 -0.88625,1.365 -2.81625,4.0275 -1.2,5.99875 2.939996,0.33 6.467496,-2.13875 9.297496,0 0.12875,-2.44375 0.002,-3.3525 0,-5.99875 z m -9.596246,-2.09875 c 2.80875,0.095 6.267496,-3.57625 9.596246,-2.09875 0.0463,-2.1525 -0.18,-4.57625 0.29875,-6.2975 -3.14,2.76625 -11.071246,2.3125 -9.894996,8.39625 z m 8.396246,-24.29 c -1.40375,3.0175 -3.4375,6.135 -5.997496,8.0975 -1.15875,0.8875 -3.06,1.345 -3.29875,2.69875 1.63375,0.4025 3.62375,-1.49625 5.397496,-2.69875 1.955,-1.32625 3.835,-2.9625 5.6975,-3.89875 0.18375,-0.0162 0.355,-0.045 0.3,-0.3 -0.9125,-1.08625 -1.08,-2.9175 -2.09875,-3.89875 z m 1.79875,5.99875 c -3.765,2.9525 -10.686246,4.28 -10.194996,10.495 4.723746,1.02375 5.306246,-4.41375 10.194996,-4.19875 -0.006,-1.87 0.97,-4.2825 0,-6.29625 z M 77.975714,465.2967 c 0.6075,1.87625 0.4925,5.44 -0.6,6.59875 -1.27,0.3025 -4.7075,0.8975 -5.0975,-0.60125 -0.68875,0.41125 -0.96375,1.235 -1.5,1.79875 2.99875,0 5.99875,0 8.99625,0 0.93,0.80375 -0.78625,1.14125 0,1.8 1.1,0 2.2,0 3.29875,0 -1.6,2.44625 -8.98875,1.57 -10.49625,-0.60125 -2.20125,-0.1025 -4.16375,0.035 -5.69625,0.60125 -3.11875,-2.5075 -6.76125,-0.0588 -10.19625,-0.3 -1.255,-0.0887 -2.57375,-1.265 -3.89875,-1.5 -1.18875,-0.20875 -2.4725,0.155 -3.59875,0 -2.40625,-0.3275 -4.8025,-1.5025 -7.19625,-1.79875 -5.825,-0.7225 -12.47625,-0.205 -18.5925,-0.3 -1.35375,-0.655 -0.74,-0.825 -2.39875,-0.3 -1.61,-3.69 -4.235,-6.36 -5.9975,-9.895 -1.93375,0.0337 -3.01125,-0.78875 -4.19875,-1.5 -0.08125,-1.28125 -1.3549997,-3.5425 0.30125,-3.89875 -2.2212497,-9.045 -12.1699997,-15.84751 -11.69624971,-26.68876 0.045,-1.03375 0.83125,-1.5 0.9,-2.09875 0.1075,-0.94625 -1.39374999,-1.74625 -0.3,-2.99875 -0.0775,-0.62375 -1.31749999,-0.0813 -1.49999999,-0.6 1.47249999,-15.60125 3.09375,-31.93875 3.59875,-44.68125 -0.1375,-0.9375 0.64125,-0.95875 1.49875,-0.9 0.04625,-0.39875 -1.21875,-0.90375 -0.3,-1.2 -0.03125,-1.2425 -1.8825,0.5275 -2.0975,-0.89875 6.88625,-10.90625 15.0512497,-23.13125 24.2887497,-32.68625 0.74625,-0.0462 0.92875,0.47 1.49875,0.6 11.50125,-1.52875 22.9625,2.54125 35.08625,0.89875 0.26,-0.54 0.65875,-0.94 1.2,-1.2 5.565,0.3225 11.04625,-1.2175 15.89375,0.60125 0.46875,1.405 -0.95875,1.705 -0.30125,2.39875 4.74875,-0.22125 11.98625,-2.34625 14.99375,0.89875 -0.0225,0.9775 -1.3575,0.64 -2.09875,0.9 1.22125,4.57625 5.33875,6.25625 6.5975,10.795 0.71375,-1.28375 -1.91375,-3.18875 -0.9,-4.7975 1.73875,0.035 1.77375,1.9325 2.39875,2.9975 2.952496,5.03375 5.959996,10.875 8.397496,16.495 0.225,1.07375 1.32875,1.27 1.8,2.09875 -2.8125,11.9925 0.25625,25.62375 -0.9,38.38375 -0.435,4.78625 -1.09375,8.73875 -0.60125,14.395 0.0963,1.09875 -0.06,2.33125 0,3.5975 0.09,1.875 1.46125,4.95 -0.59875,5.3975 -1.5825,-0.92625 -0.3675,-1.92 -0.6,-4.1975 -0.81625,2.80375 -1.575,6.35 -1.5,8.39625 -0.3925,0.385 -1.105,0.385 -1.49875,0 -4.399996,4.09626 -4.521246,12.47126 -9.296246,16.19376 -0.57375,2.12375 -1.3775,4.01875 -2.69875,5.3975 -0.055,1.79125 -1.47875,3.355 -2.39875,4.7975 -0.79375,1.2475 -1.4725,3.54 -2.99875,3.29875 -1.4775,-1.54375 1.4925,-3.6575 1.2,-5.9975 -3.93625,1.87125 -8.4075,-1.19125 -10.49625,-3.8975 0.51375,3.69875 5.3325,5.65 6.8975,9.295 -3.1175,0.39 -4.08125,-3.895 -6.5975,-5.0975"
       style="fill:#231f20;fill-opacity:1;fill-rule:evenodd;stroke:none"
       id="path3502"
       inkscape:connector-curvature="0" />
  </g>
</svg>
