<?xml version="1.0" encoding="UTF-8" standalone="no"?>
<!-- Created with Inkscape (http://www.inkscape.org/) -->

<svg
   xmlns:dc="http://purl.org/dc/elements/1.1/"
   xmlns:cc="http://creativecommons.org/ns#"
   xmlns:rdf="http://www.w3.org/1999/02/22-rdf-syntax-ns#"
   xmlns:svg="http://www.w3.org/2000/svg"
   xmlns="http://www.w3.org/2000/svg"
   xmlns:sodipodi="http://sodipodi.sourceforge.net/DTD/sodipodi-0.dtd"
   xmlns:inkscape="http://www.inkscape.org/namespaces/inkscape"
   width="111.55499"
   height="133.72437"
   id="svg4574"
   version="1.1"
   inkscape:version="0.48.2 r9819"
   sodipodi:docname="giftlist_hover.svg">
  <defs
     id="defs4576" />
  <sodipodi:namedview
     id="base"
     pagecolor="#ffffff"
     bordercolor="#666666"
     borderopacity="1.0"
     inkscape:pageopacity="0.0"
     inkscape:pageshadow="2"
     inkscape:zoom="4.1683476"
     inkscape:cx="20.482624"
     inkscape:cy="66.96205"
     inkscape:document-units="px"
     inkscape:current-layer="layer1"
     showgrid="false"
     fit-margin-top="0"
     fit-margin-left="0"
     fit-margin-right="0"
     fit-margin-bottom="0"
     inkscape:window-width="1163"
     inkscape:window-height="914"
     inkscape:window-x="20"
     inkscape:window-y="20"
     inkscape:window-maximized="0" />
  <metadata
     id="metadata4579">
    <rdf:RDF>
      <cc:Work
         rdf:about="">
        <dc:format>image/svg+xml</dc:format>
        <dc:type
           rdf:resource="http://purl.org/dc/dcmitype/StillImage" />
        <dc:title />
      </cc:Work>
    </rdf:RDF>
  </metadata>
  <g
     inkscape:label="Layer 1"
     inkscape:groupmode="layer"
     id="layer1"
     transform="translate(1.4917857,-342.64285)">
    <path
       style="fill:#56008c;fill-opacity:0.39607843;fill-rule:nonzero"
       d="m 36.373826,17.722512 c -1.247519,-0.133781 -2.546009,0.221682 -3.018702,1.522992 -4.671423,7.208769 -9.149264,14.607658 -14.436811,21.359901 -0.304518,3.898377 -0.108336,7.889882 -0.517883,11.812424 -0.636357,6.933258 -1.232689,13.8786 -1.053928,20.849775 0.09898,3.111998 -0.408236,6.310575 0.792884,9.275793 0.659198,1.91016 0.800387,3.930174 1.32876,5.853104 3.121068,5.094047 6.463761,10.118926 9.238093,15.454249 1.602081,2.62729 2.498948,5.69137 4.398906,8.11624 1.868119,0.9769 4.140451,0.95185 6.199998,1.33446 2.924636,0.34062 5.978266,0.66398 8.861425,0.14245 3.246911,2.0062 7.184766,0.94485 10.750663,1.25199 3.774868,1.29297 7.879195,0.73301 11.798299,1.05919 1.55994,-0.17691 3.426084,0.59944 4.778522,-0.29354 4.402589,-8.69423 8.963542,-17.39134 15.022931,-25.048353 0.748541,-1.064815 1.353102,-2.366631 1.679323,-3.538572 1.417084,0.153466 2.016996,-1.302543 1.853041,-2.495939 0.722272,-12.961815 1.756523,-25.971632 0.7709,-38.947342 -0.05382,-1.133519 0.783438,-2.227024 0.0075,-3.32116 C 91.334492,35.002448 86.045653,28.950522 82.802595,21.695909 81.577666,20.55908 79.602944,21.103676 78.058507,20.694543 73.515752,20.045826 68.938663,19.773495 64.352539,19.866647 61.81365,19.62644 59.360287,18.637141 56.759683,18.605715 53.560526,18.244708 50.28852,18.953331 47.14698,18.172331 43.569289,17.834117 39.966896,17.710643 36.373826,17.722512 z"
       id="path11290"
       inkscape:connector-curvature="0"
       transform="translate(-1.4917857,342.64285)" />
    <path
       style="fill:#56008c;fill-opacity:0.39607843;fill-rule:nonzero"
       d="m 22.677764,95.168804 c -0.87822,0.48941 -0.528491,1.570639 -0.238946,2.330137 0.879207,2.475486 2.394343,4.673959 4.031927,6.703039 0.404674,0.58975 1.334208,0.94256 1.875925,0.32696 0.599967,-0.54468 0.136424,-1.37802 -0.218106,-1.92366 -1.380014,-2.36848 -2.317493,-5.025151 -4.112257,-7.131659 -0.340004,-0.39024 -0.85794,-0.517279 -1.338543,-0.304817 z"
       id="path11292"
       inkscape:connector-curvature="0"
       transform="translate(-1.4917857,342.64285)" />
    <path
       style="fill:#56008c;fill-opacity:0.39607843;fill-rule:nonzero"
       d="m 16.565524,86.355622 c -0.739708,0.36438 -0.672656,1.310396 -0.265058,1.897816 0.585802,0.970989 1.169565,2.08694 2.210584,2.637328 0.796981,0.289139 1.54577,-0.522758 1.391555,-1.301435 -0.02411,-0.969542 -0.527263,-1.8481 -1.285531,-2.435884 -0.566101,-0.480866 -1.243784,-1.155714 -2.05155,-0.797825 z"
       id="path11294"
       inkscape:connector-curvature="0"
       transform="translate(-1.4917857,342.64285)" />
    <path
       style="fill:#56008c;fill-opacity:0.39607843;fill-rule:nonzero"
       d="m 17.612503,42.525613 c -0.912647,0.293729 -0.815701,1.388468 -0.951558,2.14697 -1.182615,10.976515 -2.165521,21.989668 -2.579448,33.028753 -0.03032,1.542294 -0.1336,3.095614 -0.06584,4.631898 0.03404,0.593299 0.636692,0.795766 1.10795,0.926509 0.7323,0.590681 1.182038,1.750123 2.268897,1.752034 0.878275,0.04152 1.441142,-0.897964 1.243123,-1.696371 -0.480849,-2.380144 -0.946971,-4.770931 -1.107943,-7.196328 -0.604587,-7.307515 0.467687,-14.602405 1.059554,-21.878608 0.294631,-3.439684 0.480594,-6.894306 0.445976,-10.347158 0.02889,-0.777101 -0.554634,-1.600322 -1.420712,-1.367699 z"
       id="path11296"
       inkscape:connector-curvature="0"
       transform="translate(-1.4917857,342.64285)" />
    <path
       style="fill:#56008c;fill-opacity:1;fill-rule:nonzero"
       d="m 43.993737,2.8013533 c -1.637212,0.4109855 -3.422215,0.1487366 -5.009052,0.8109738 -0.732137,0.3686269 -0.60904,1.3488751 -0.808096,2.0211558 -0.408124,2.5261657 -0.832922,5.2336951 0.121244,7.6923601 0.659928,1.613139 1.978635,2.942088 3.556885,3.65877 0.700843,-0.01254 1.225254,-0.626559 1.744083,-1.033727 1.072652,-1.098154 1.395162,-2.711605 1.236002,-4.198239 C 44.716179,9.2355007 43.91084,6.7195101 44.388674,4.2061613 44.504578,3.7446007 44.821409,3.0060928 44.166025,2.809305 c -0.06551,-0.0065 -0.108534,-0.014823 -0.172288,-0.00795 z"
       id="path11298"
       inkscape:connector-curvature="0"
       transform="translate(-1.4917857,342.64285)" />
    <path
       style="fill:#56008c;fill-opacity:1;fill-rule:nonzero"
       d="m 45.73782,14.925111 c -0.617354,-0.06833 -0.710908,0.602402 -1.099992,0.95421 -0.405555,0.40707 -0.660252,1.186776 -0.07156,1.569144 0.282145,0.262176 0.676851,0.08689 0.901197,-0.129879 0.500089,-0.01854 1.336271,0.195315 1.497579,-0.485056 0.04439,-0.720714 -0.462287,-1.39562 -1.004571,-1.8236 -0.06514,-0.04088 -0.150887,-0.07933 -0.222648,-0.08482 z"
       id="path11808"
       inkscape:connector-curvature="0"
       transform="translate(-1.4917857,342.64285)" />
    <path
       style="fill:#56008c;fill-opacity:1;fill-rule:nonzero"
       d="m 45.809385,3.4215893 c -0.7317,0.2752681 -0.856421,1.1976646 -0.980715,1.8739608 -0.110481,1.3317655 0.03375,2.7104692 0.487707,3.96792 0.229734,0.5371718 1.027537,0.3351677 1.073486,-0.2199983 0.364901,-1.2031795 0.749812,-2.4172774 0.930354,-3.6631031 -0.0134,-0.8235273 -0.525381,-1.7241422 -1.333243,-1.9693817 -0.0592,0.00353 -0.118392,0.00707 -0.177589,0.010602 z"
       id="path11810"
       inkscape:connector-curvature="0"
       transform="translate(-1.4917857,342.64285)" />
    <path
       style="fill:#56008c;fill-opacity:1;fill-rule:nonzero"
       d="m 54.545701,2.4938859 c -2.220311,0.277578 -4.497297,0.048244 -6.682115,0.5857784 -0.650501,0.2653467 -0.25287,0.9651498 -0.204095,1.468422 0.239495,2.3084063 -0.618932,4.5259971 -0.946258,6.7907887 -0.200468,1.25765 -0.194587,2.585983 0.18024,3.808885 0.343873,0.79679 0.74306,1.854406 1.754685,1.929623 1.01418,0.08187 2.046735,0.318373 3.061421,0.188191 1.054736,-0.489829 1.669934,-1.615212 2.0542,-2.666484 0.539784,-1.643739 0.307564,-3.404875 0.380932,-5.1076664 C 54.202051,8.0205398 54.04264,6.5227443 54.296546,5.0755519 54.440542,4.3045051 54.944437,3.6514942 55.09172,2.8941236 55.004622,2.6481619 54.810103,2.4894955 54.545701,2.4938859 z"
       id="path11812"
       inkscape:connector-curvature="0"
       transform="translate(-1.4917857,342.64285)" />
    <path
       style="fill:#56008c;fill-opacity:1;fill-rule:nonzero"
       d="m 55.404489,4.6620612 c -0.606702,0.2725559 -0.499305,1.080708 -0.662645,1.6301074 -0.07954,0.7688831 -0.320149,1.7498099 0.294214,2.3616678 C 55.575503,9.0159403 56.040702,8.363645 56.00352,7.8507103 56.124054,6.9438755 56.784999,5.9823472 56.310988,5.0808531 56.099831,4.8226907 55.75,4.5979634 55.404489,4.6620612 z"
       id="path11814"
       inkscape:connector-curvature="0"
       transform="translate(-1.4917857,342.64285)" />
    <path
       style="fill:#56008c;fill-opacity:1;fill-rule:nonzero"
       d="m 55.081118,14.010661 c -0.593506,0.370337 -0.807,1.12359 -1.17749,1.689496 -0.242014,0.568773 -0.732588,1.12387 -0.69382,1.756259 0.215209,0.659913 1.036235,0.407465 1.545289,0.599032 1.032086,0.180685 2.287479,0.480902 3.159492,-0.288914 0.43806,-0.411341 -0.01839,-0.888837 -0.434695,-1.060232 -0.814437,-0.734697 -1.17345,-1.840421 -1.932274,-2.621425 -0.156543,-0.04249 -0.300559,-0.146003 -0.466502,-0.07422 z"
       id="path11816"
       inkscape:connector-curvature="0"
       transform="translate(-1.4917857,342.64285)" />
    <path
       style="fill:#56008c;fill-opacity:1;fill-rule:nonzero"
       d="m 57.0505,2.7987027 c -0.555361,0.03016 -0.634544,0.6999922 -0.360479,1.0761359 0.581415,1.4663172 0.218626,3.0800514 -0.07952,4.5696019 -0.244035,1.1857693 -0.696269,2.3354805 -1.028425,3.4961165 0.08646,0.697886 0.612466,1.28529 0.884396,1.935575 0.782978,1.589973 1.832989,3.235145 3.52352,3.951366 0.697895,0.235423 1.147623,-0.555923 1.668124,-0.871288 1.863393,-1.50403 3.806736,-3.319083 4.192311,-5.810827 C 66.103979,9.0184903 64.936526,6.9462231 65.360072,4.8369996 65.632012,4.3977032 65.489236,3.6725591 64.882967,3.657491 62.315452,3.3959776 59.749061,2.9795747 57.169776,2.790751 l -0.04241,0 -0.07687,0.00795 z"
       id="path11818"
       inkscape:connector-curvature="0"
       transform="translate(-1.4917857,342.64285)" />
    <path
       style="fill:#56008c;fill-opacity:1;fill-rule:nonzero"
       d="M 67.09331,4.3227869 C 66.364423,4.2392701 66.325421,5.1437984 66.206096,5.6467093 66.051314,6.2359713 66.063548,7.0784949 66.761988,7.3046906 67.200909,7.5931778 67.76776,7.2137001 67.69016,6.697904 67.661957,5.9863996 67.847316,5.161678 67.437886,4.5321828 67.351059,4.4278175 67.225556,4.339192 67.09331,4.3227869 z"
       id="path11820"
       inkscape:connector-curvature="0"
       transform="translate(-1.4917857,342.64285)" />
    <path
       style="fill:#56008c;fill-opacity:1;fill-rule:nonzero"
       d="m 65.44995,13.674037 c -0.505068,0.396688 -0.733043,1.050725 -1.191155,1.506646 -0.69303,0.938462 -1.642189,1.762194 -2.009641,2.896204 -0.215384,0.578864 0.419704,0.855525 0.899368,0.808386 3.955607,0.440061 7.915618,1.001898 11.904481,0.873848 2.204637,-0.04012 4.426889,-0.01024 6.599949,-0.36778 0.509001,-0.2727 0.239855,-0.992183 -0.270359,-1.060233 -1.252457,-0.290837 -2.424907,-0.951652 -3.243622,-1.97036 -0.651816,-0.684784 -1.025206,-1.577147 -1.636098,-2.286473 -0.524728,-0.355743 -0.924169,0.25525 -1.089388,0.68385 -0.96062,1.67072 -2.684864,2.932276 -4.561651,3.318527 -1.047438,0.08557 -2.263226,0.05939 -3.016361,-0.781921 -0.593824,-0.592371 -0.580164,-1.516421 -0.934389,-2.247305 -0.242831,-0.561908 -0.565618,-1.298061 -1.228485,-1.426401 -0.07422,0.01767 -0.148433,0.03534 -0.222649,0.05301 z"
       id="path11822"
       inkscape:connector-curvature="0"
       transform="translate(-1.4917857,342.64285)" />
    <path
       style="fill:#56008c;fill-opacity:1;fill-rule:nonzero"
       d="m 68.670406,4.3545938 c -0.433914,0.5749997 -0.368246,1.3802139 -0.585778,2.0542004 -0.502152,2.7146596 -1.335119,5.5129848 -0.707705,8.2751138 0.337235,1.413633 1.605375,2.586115 3.087927,2.618775 1.28451,0.104947 2.561508,-0.39707 3.437803,-1.341194 1.124679,-1.166219 1.785683,-2.713078 2.311307,-4.217075 0.549537,-1.9720086 0.910734,-4.034513 0.779271,-6.0883848 -0.185849,-0.71449 -1.094672,-0.4507813 -1.646471,-0.6190965 -2.148281,-0.244929 -4.293384,-0.6697453 -6.451003,-0.7406192 -0.07512,0.019427 -0.150234,0.038854 -0.225351,0.05828 z"
       id="path11824"
       inkscape:connector-curvature="0"
       transform="translate(-1.4917857,342.64285)" />
    <path
       style="fill:#56008c;fill-opacity:1;fill-rule:nonzero"
       d="m 71.381951,1.0069099 c -1.417687,0.108236 -2.876833,0.1748931 -4.230328,0.6281877 -0.533191,0.229738 -0.333027,0.9671021 0.151083,1.1211958 2.137263,1.0390645 4.547303,1.5024215 6.920668,1.3995068 1.413124,-0.0047 2.859931,-0.124649 4.134906,-0.7925237 C 78.823959,3.2373166 79.153735,2.5944276 78.673699,2.2712371 77.312055,1.6947925 75.82632,1.4528725 74.375356,1.1986862 73.384804,1.0558359 72.383285,0.97764356 71.381951,1.0069099 z"
       id="path11826"
       inkscape:connector-curvature="0"
       transform="translate(-1.4917857,342.64285)" />
    <path
       style="fill:#56008c;fill-opacity:1;fill-rule:nonzero"
       d="m 90.002283,3.1247242 c -2.813202,0.1481273 -5.682667,0.087898 -8.427886,0.8011109 -0.495613,0.1443563 -1.398591,0.3887807 -1.119507,1.0755005 0.423855,0.5615502 1.246196,0.3184414 1.855371,0.4063496 2.19994,0.00693 4.432725,0.1157195 6.603559,-0.2616833 0.75248,-0.2087566 1.799817,-0.2847279 2.143394,-1.1094778 0.224114,-0.4842718 -0.179036,-1.0220307 -0.715657,-0.9144505 -0.1131,-7.754e-4 -0.226183,0.00169 -0.339274,0.00265 z"
       id="path11828"
       inkscape:connector-curvature="0"
       transform="translate(-1.4917857,342.64285)" />
    <path
       style="fill:#56008c;fill-opacity:1;fill-rule:nonzero"
       d="m 85.141117,5.5844635 c -1.72169,0.025214 -3.454389,0.041586 -5.162759,0.2059524 -0.558024,0.2358697 -0.582335,0.9952812 -0.835506,1.4904195 -0.745963,2.2441846 -1.774645,4.6335816 -1.171557,7.0399436 0.33221,1.347236 1.512755,2.330351 2.739436,2.866195 0.630539,0.204129 1.474222,0.693992 2.026309,0.0733 1.669137,-1.499547 3.289559,-3.085651 4.665433,-4.865496 1.375343,-1.834434 2.593293,-3.8231535 3.352575,-5.9939345 C 90.844744,5.8040169 90.163765,5.7046721 89.724192,5.7214898 88.199966,5.5873146 86.670435,5.5710171 85.141117,5.5844635 z"
       id="path11830"
       inkscape:connector-curvature="0"
       transform="translate(-1.4917857,342.64285)" />
    <path
       style="fill:#56008c;fill-opacity:1;fill-rule:nonzero"
       d="m 91.444199,7.3868586 c -0.779905,1.3871546 -1.515556,2.7959444 -2.42293,4.1138484 -1.310971,2.002835 -2.593184,4.069738 -3.392445,6.329441 -0.439774,-0.395019 -1.274052,-0.579239 -1.590349,0.06096 -0.556423,0.798371 -0.601235,1.948041 0.09807,2.679737 0.486387,0.480315 0.974378,1.105666 1.653963,1.256376 0.62011,-0.149498 0.653845,-0.956775 1.054931,-1.362399 1.519272,-2.003878 4.082693,-2.827007 6.462117,-3.212504 1.758639,-0.255409 3.557127,-0.161787 5.322367,-0.02916 0.4061,0.143284 1.067356,0.163241 1.107942,-0.416141 -0.259909,-0.798835 -0.886997,-1.444307 -1.2973,-2.167843 -1.407243,-2.052603 -2.657361,-4.26114 -4.560484,-5.9111283 -0.650028,-0.5618413 -1.316795,-1.1938133 -2.141669,-1.4631208 -0.09807,0.040642 -0.196143,0.081285 -0.294215,0.1219267 z"
       id="path11832"
       inkscape:connector-curvature="0"
       transform="translate(-1.4917857,342.64285)" />
    <path
       style="fill:#56008c;fill-opacity:1;fill-rule:nonzero"
       d="m 94.96152,18.301952 c -2.624862,0.07732 -5.508151,0.816855 -7.168333,3.00687 -0.340757,0.34011 -0.614275,1.118691 0.0095,1.317319 0.851174,0.05161 1.681154,-0.342349 2.523009,-0.459642 2.250419,-0.501836 4.630634,-0.672523 6.915366,-0.291564 1.389319,0.305734 2.650784,1.205461 3.27347,2.496847 0.24333,0.52605 1.04446,0.377394 1.11854,-0.190841 0.39951,-1.447734 0.0952,-3.137261 -1.06817,-4.156783 -1.49066,-1.372882 -3.641883,-1.754431 -5.60334,-1.722206 z"
       id="path11834"
       inkscape:connector-curvature="0"
       transform="translate(-1.4917857,342.64285)" />
    <path
       style="fill:#56008c;fill-opacity:1;fill-rule:nonzero"
       d="m 84.804759,23.553548 c -0.394893,0.07736 -0.498641,0.5366 -0.356504,0.86409 0.252404,0.940092 0.837604,1.768038 1.598301,2.364318 0.370241,0.266393 0.931567,-0.108527 0.792343,-0.553706 C 86.52931,25.40676 86.162761,24.562821 85.554873,23.918003 85.356365,23.719226 85.1117,23.493538 84.804759,23.553548 z"
       id="path11836"
       inkscape:connector-curvature="0"
       transform="translate(-1.4917857,342.64285)" />
    <path
       style="fill:#56008c;fill-opacity:1;fill-rule:nonzero"
       d="m 90.81209,27.695081 c -0.411698,0.04744 -0.88934,0.261368 -1.043188,0.665082 -0.0605,0.363339 0.148959,0.71616 0.274519,1.051169 0.280847,0.583317 0.731102,1.117351 1.321315,1.396857 0.406152,0.06243 0.595456,-0.334237 0.732952,-0.64316 0.244532,-0.463461 0.556673,-0.939828 0.481491,-1.49055 C 92.6101,28.321076 92.365054,27.977185 91.999167,27.946348 91.6074,27.853275 91.21778,27.70379 90.81209,27.695081 z"
       id="path11838"
       inkscape:connector-curvature="0"
       transform="translate(-1.4917857,342.64285)" />
    <path
       style="fill:#56008c;fill-opacity:1;fill-rule:nonzero"
       d="m 97.256978,22.943914 c -0.39429,-0.0037 -0.634895,0.507298 -0.398913,0.825656 0.192886,0.297146 0.523481,0.505842 0.70373,0.791199 0.01262,2.274631 -0.05678,4.61716 -0.98552,6.723138 -0.232851,0.479724 -0.472279,1.001238 -0.953328,1.27945 -0.560875,0.45392 -1.343594,0.736146 -1.63016,1.448059 -0.13759,0.439292 -0.156666,1.126566 0.38566,1.260351 0.427959,0.03552 0.787634,-0.275684 1.139749,-0.475779 1.604014,-1.122241 2.699427,-2.829352 3.474347,-4.598319 0.651554,-1.569082 1.068157,-3.355761 0.573091,-5.029917 -0.309544,-1.02986 -1.150283,-1.914682 -2.18938,-2.219862 -0.04106,0.0022 -0.08219,-0.0087 -0.119276,-0.004 z"
       id="path11840"
       inkscape:connector-curvature="0"
       transform="translate(-1.4917857,342.64285)" />
    <path
       style="fill:#56008c;fill-opacity:1;fill-rule:nonzero"
       d="m 102.86561,22.175246 c -0.3023,0.331698 -0.16372,0.825194 -0.21703,1.233813 -0.006,1.17778 -0.0534,2.35413 -0.33164,3.502775 -0.61239,2.872 -2.15274,5.5248 -4.269933,7.560627 -0.682702,0.692407 -1.45609,1.291609 -2.216042,1.897972 -0.32288,0.23181 -0.277199,0.800037 0.130841,0.92769 0.393905,0.110617 0.764207,-0.166442 1.132161,-0.26902 2.261283,-0.928293 4.251463,-2.467436 5.826213,-4.328388 1.436,-1.735531 2.5378,-3.905493 2.45666,-6.208971 -0.0484,-1.604091 -0.74148,-3.173225 -1.85521,-4.320474 -0.18498,-0.156138 -0.4653,-0.135345 -0.65602,0.004 z"
       id="path11842"
       inkscape:connector-curvature="0"
       transform="translate(-1.4917857,342.64285)" />
    <path
       style="fill:#56008c;fill-opacity:1;fill-rule:nonzero"
       d="m 106.54726,28.05556 c -0.40772,0.268593 -0.48364,0.80277 -0.73652,1.192318 -1.30411,2.543137 -2.95732,4.958163 -5.1809,6.784606 -0.991241,0.791479 -2.275901,1.169715 -3.147563,2.117814 -0.294103,0.366716 -0.649377,0.872762 -0.434695,1.361074 0.252223,0.443374 0.839695,0.323729 1.261676,0.303491 1.251759,-0.176664 2.281082,-0.977053 3.285392,-1.679143 1.70982,-1.228936 3.41552,-2.462962 5.11938,-3.700344 0.66839,-0.462 1.3483,-0.933825 2.09285,-1.262869 0.51048,-0.09719 0.7459,-0.76954 0.39892,-1.16228 -0.83384,-1.195914 -1.0304,-2.75397 -2.04493,-3.840692 -0.1608,-0.159938 -0.40602,-0.199858 -0.61361,-0.113975 z"
       id="path11844"
       inkscape:connector-curvature="0"
       transform="translate(-1.4917857,342.64285)" />
    <path
       style="fill:#56008c;fill-opacity:1;fill-rule:nonzero"
       d="m 108.42123,33.987561 c -0.5455,0.319629 -1.0308,0.742027 -1.58783,1.049308 -1.99813,1.218187 -4.17221,2.174768 -6.02597,3.626317 -1.469513,1.12779 -2.639715,2.749518 -2.90014,4.615601 -0.0517,0.596178 -0.162513,1.21741 -0.01682,1.806757 0.168151,0.486666 0.755478,0.4851 1.182159,0.512887 0.879168,0.02882 1.790854,-0.05019 2.571764,-0.491017 1.8417,-0.942298 3.04493,-2.829135 5.01712,-3.546575 0.64354,-0.240879 1.34412,-0.233273 2.01448,-0.308857 0.4541,-0.0942 0.39868,-0.632863 0.42511,-0.990496 0.14322,-1.68323 0.64249,-3.392078 0.2359,-5.077188 -0.11899,-0.387417 -0.19972,-0.838091 -0.50224,-1.121979 -0.13009,-0.08929 -0.26165,-0.09005 -0.41353,-0.07476 z"
       id="path11846"
       inkscape:connector-curvature="0"
       transform="translate(-1.4917857,342.64285)" />
    <path
       style="fill:#56008c;fill-opacity:1;fill-rule:nonzero"
       d="m 108.01436,43.986878 c -0.52175,0.301366 -0.98919,0.696587 -1.55057,0.931087 -2.07628,0.985865 -4.38733,1.47352 -6.36394,2.686065 -1.133205,0.692279 -2.068927,1.802442 -2.28625,3.14183 -0.11674,0.708876 -0.09508,1.446458 0.0488,2.148447 0.140088,0.452656 0.684381,0.423427 1.060468,0.369605 1.490432,-0.188684 2.804082,-0.97601 4.174232,-1.533751 1.23657,-0.552456 2.60083,-1.073763 3.971,-0.786833 0.40998,0.06407 0.85326,0.387725 1.24578,0.1153 0.30269,-0.3338 0.12281,-0.820444 0.16913,-1.227213 0.018,-1.462388 -0.0737,-2.956357 0.0933,-4.39732 0.0267,-0.409219 0.26188,-0.851899 0.0654,-1.243699 -0.12838,-0.209105 -0.39908,-0.295587 -0.62731,-0.203518 z"
       id="path11848"
       inkscape:connector-curvature="0"
       transform="translate(-1.4917857,342.64285)" />
    <path
       style="fill:#56008c;fill-opacity:1;fill-rule:nonzero"
       d="m 105.49631,51.596696 c -0.87196,0.01821 -1.73186,0.299299 -2.48386,0.73933 -0.34466,0.247297 -0.79074,0.502561 -0.88575,0.947716 -0.0815,0.409932 0.3557,0.688212 0.723,0.64414 1.35969,0.101744 2.74904,0.465403 4.11106,0.156385 0.71936,-0.188063 1.3961,-0.771728 1.47239,-1.541313 9e-4,-0.497281 -0.54009,-0.664935 -0.92638,-0.791199 -0.64905,-0.203815 -1.33951,-0.146238 -2.01046,-0.155059 z"
       id="path11850"
       inkscape:connector-curvature="0"
       transform="translate(-1.4917857,342.64285)" />
    <path
       style="fill:#56008c;fill-opacity:1;fill-rule:nonzero"
       d="m 100.58346,54.361253 c -0.42607,0.0083 -0.992361,-0.07686 -1.237824,0.367105 -0.616954,0.911169 -1.167315,1.879262 -1.558183,2.909656 -0.378392,1.111139 -0.390471,2.441894 0.364096,3.402703 0.331927,0.488098 0.984541,0.366211 1.488301,0.356503 1.85602,-0.104038 3.61903,-0.836097 5.48008,-0.872041 0.89071,-0.0134 1.77707,0.22131 2.51159,0.73854 0.28965,0.193159 0.71947,0.101466 0.82578,-0.265061 0.0771,-0.641652 0.0187,-1.301664 0.0406,-1.949852 -0.008,-1.415338 0.0161,-2.833096 -0.0335,-4.24694 -0.0684,-0.361681 -0.46644,-0.484137 -0.78532,-0.399529 -2.35637,0.33427 -4.73197,-0.08096 -7.0956,-0.04108 z"
       id="path11852"
       inkscape:connector-curvature="0"
       transform="translate(-1.4917857,342.64285)" />
    <path
       style="fill:#56008c;fill-opacity:1;fill-rule:nonzero"
       d="m 104.35523,61.051319 c -0.65005,0.01296 -1.35911,0.184727 -1.81564,0.674573 -0.27628,0.359717 0.0732,0.878844 0.50228,0.842885 0.90035,-0.01176 1.73338,0.375767 2.60685,0.539393 0.6162,0.135144 1.36132,0.01474 1.72818,-0.551321 0.2801,-0.297698 0.20421,-0.842173 -0.1988,-0.974088 -0.91838,-0.258553 -1.85867,-0.542912 -2.82287,-0.531442 z"
       id="path11854"
       inkscape:connector-curvature="0"
       transform="translate(-1.4917857,342.64285)" />
    <path
       style="fill:#56008c;fill-opacity:1;fill-rule:nonzero"
       d="m 99.079252,62.796727 c -0.708737,0.575884 -1.271902,1.357544 -1.569144,2.226488 -0.390441,1.05115 -2.2e-4,2.255891 0.785897,3.016361 1.123593,1.08774 2.673115,1.600607 4.182615,1.869985 1.20747,0.21534 2.4451,0.180014 3.66311,0.08747 0.48877,-0.09158 1.01818,-0.08594 1.46842,-0.311444 0.39689,-0.329354 0.24425,-0.905692 0.32921,-1.352819 0.1374,-1.400869 0.33051,-2.8166 0.21416,-4.227979 -0.0889,-0.45505 -0.61987,-0.449396 -0.98124,-0.503316 -2.62512,-0.347487 -5.26083,-0.640884 -7.900376,-0.834134 -0.06422,0.0098 -0.128434,0.01959 -0.192652,0.02939 z"
       id="path11856"
       inkscape:connector-curvature="0"
       transform="translate(-1.4917857,342.64285)" />
    <path
       style="fill:#56008c;fill-opacity:1;fill-rule:nonzero"
       d="m 96.803728,68.490175 c -0.392653,0.08226 -0.450182,0.524551 -0.426743,0.854813 -0.226527,0.530935 -0.659905,1.305384 -0.01193,1.728178 0.261855,0.260466 0.766562,0.262053 0.933077,-0.08581 0.04446,-0.151441 0.08385,-0.263023 0.269533,-0.246849 0.452894,-0.0445 0.997884,-0.287217 1.029887,-0.808156 0.06766,-0.3818 -0.166429,-0.823784 -0.590462,-0.832542 -0.312408,0.02978 -0.386448,-0.37343 -0.642766,-0.487707 -0.163602,-0.109794 -0.36557,-0.162955 -0.560598,-0.121927 z"
       id="path11858"
       inkscape:connector-curvature="0"
       transform="translate(-1.4917857,342.64285)" />
    <path
       style="fill:#56008c;fill-opacity:1;fill-rule:nonzero"
       d="m 100.6696,70.937987 c -1.376756,-0.0054 -2.868547,0.2722 -3.875127,1.287209 -0.8163,0.786422 -1.186683,1.910062 -1.294699,3.014368 -0.04751,0.58591 -0.11876,1.19276 -0.0028,1.773555 0.276433,0.315888 0.673036,0.499907 0.975634,0.793812 0.349724,0.225682 0.616827,0.696423 1.082542,0.669309 1.794695,-0.424256 3.500242,-1.140189 5.296292,-1.551313 1.45446,-0.324477 3.0423,-0.38599 4.42736,0.247227 0.30516,0.161376 0.74166,0.09856 0.86542,-0.262408 0.10109,-0.673404 0.0125,-1.363499 0,-2.042273 -0.0613,-0.811142 -0.0941,-1.622993 -0.008,-2.431881 0.0724,-0.369684 -0.24287,-0.697075 -0.60718,-0.690503 -1.80722,-0.24841 -3.60381,-0.590164 -5.42165,-0.751811 -0.47816,-0.03441 -0.95834,-0.05897 -1.43805,-0.05529 z"
       id="path11860"
       inkscape:connector-curvature="0"
       transform="translate(-1.4917857,342.64285)" />
    <path
       style="fill:#56008c;fill-opacity:1;fill-rule:nonzero"
       d="m 104.35126,77.169503 c -1.55163,0.0093 -2.99826,0.678484 -4.357557,1.361073 -0.299325,0.131157 -0.640002,0.384949 -0.535526,0.758956 0.148895,0.46973 0.736223,0.44521 1.129253,0.54248 1.44906,0.263446 2.97035,0.399247 4.41322,0.02916 0.66989,-0.212523 1.30151,-0.572315 1.74408,-1.127822 0.29913,-0.24833 0.26281,-0.753482 -0.0888,-0.93698 -0.66366,-0.488167 -1.49033,-0.673517 -2.30468,-0.626863 z"
       id="path11862"
       inkscape:connector-curvature="0"
       transform="translate(-1.4917857,342.64285)" />
    <path
       style="fill:#56008c;fill-opacity:1;fill-rule:nonzero"
       d="m 107.54521,79.584182 c -0.48052,0.206617 -0.92006,0.510071 -1.42999,0.656019 -1.70553,0.552822 -3.54313,0.541578 -5.30844,0.33653 -1.165662,-0.144317 -2.308503,-0.466195 -3.384141,-0.931585 -0.339518,-0.165023 -0.693596,0.05256 -0.862764,0.353852 -0.729971,0.962994 -1.174444,2.180087 -1.02445,3.398045 0.101495,0.996582 0.572552,1.945191 1.321142,2.613981 0.407354,0.435404 0.962898,0.703288 1.510397,0.908094 0.839752,0.06878 1.692716,0.0012 2.517936,-0.178596 0.79822,-0.164315 1.63232,-0.179893 2.43926,-0.08326 1.34208,0.221727 2.53871,0.901742 3.80226,1.366375 0.37401,0.128147 0.7488,-0.198408 0.73553,-0.577827 0.0466,-0.963265 0.19799,-1.911848 0.36024,-2.863753 0.22398,-1.512837 0.48879,-3.110398 -0.0499,-4.590284 -0.0639,-0.266799 -0.33504,-0.475931 -0.62709,-0.407587 z"
       id="path11864"
       inkscape:connector-curvature="0"
       transform="translate(-1.4917857,342.64285)" />
    <path
       style="fill:#56008c;fill-opacity:1;fill-rule:nonzero"
       d="m 101.92068,87.315928 c -0.7795,0.01938 -1.58628,0.09735 -2.302035,0.422767 -0.355941,0.222426 -0.261142,0.791935 0.119277,0.933005 1.466628,0.681506 2.994068,1.359667 4.631888,1.433964 0.69107,-0.0015 1.42138,-0.01345 2.05553,-0.314094 0.32603,-0.222082 0.24818,-0.680632 -0.001,-0.927703 -0.81642,-0.97519 -2.1219,-1.345245 -3.33815,-1.494238 -0.38655,-0.0451 -0.77604,-0.06074 -1.16518,-0.0537 z"
       id="path11866"
       inkscape:connector-curvature="0"
       transform="translate(-1.4917857,342.64285)" />
    <path
       style="fill:#56008c;fill-opacity:1;fill-rule:nonzero"
       d="m 97.887816,88.706157 c -0.342285,0.182924 -0.314452,0.626565 -0.145782,0.921077 1.124946,2.528876 3.068496,4.728341 5.539716,6.000916 0.79203,0.396993 1.64142,0.757326 2.52998,0.826981 0.63448,-0.06645 0.79513,-0.812603 0.98204,-1.308061 0.32045,-1.140495 0.43356,-2.318086 0.71433,-3.465635 0.11064,-0.364316 -0.18456,-0.745529 -0.56325,-0.736862 -2.34128,-0.207621 -4.74039,-0.408145 -6.92862,-1.32529 -0.59697,-0.229125 -1.112998,-0.61093 -1.667213,-0.918427 -0.150834,-0.0794 -0.306969,-0.04135 -0.461201,0.0053 z"
       id="path11868"
       inkscape:connector-curvature="0"
       transform="translate(-1.4917857,342.64285)" />
    <path
       style="fill:#56008c;fill-opacity:1;fill-rule:nonzero"
       d="m 103.54018,97.058139 c -0.37235,0.229712 -0.37536,0.728288 -0.60963,1.064208 -0.53828,1.051556 -1.34209,2.013983 -1.54529,3.207203 -0.0659,0.4255 0.054,1.0503 0.57915,1.07083 0.49767,-0.0335 0.61396,-0.61023 0.8716,-0.94034 0.55858,-0.93064 1.26666,-1.800487 1.59742,-2.848661 0.15304,-0.544288 0.0882,-1.283109 -0.46651,-1.571795 -0.14083,-0.0666 -0.28592,-0.01936 -0.42674,0.01855 z"
       id="path11870"
       inkscape:connector-curvature="0"
       transform="translate(-1.4917857,342.64285)" />
    <path
       style="fill:#56008c;fill-opacity:1;fill-rule:nonzero"
       d="m 100.61659,95.930316 c -0.46001,0.0028 -0.827466,0.595282 -0.49831,0.975414 0.2601,0.172155 0.25693,0.507214 0.3128,0.782201 0.0609,0.556936 0.22114,1.243419 0.79762,1.473265 0.45699,0.08817 0.75203,-0.401936 0.89209,-0.769815 0.2373,-0.838239 -0.20439,-1.763337 -0.87866,-2.264922 -0.18187,-0.124767 -0.40135,-0.215083 -0.62554,-0.196143 z"
       id="path11872"
       inkscape:connector-curvature="0"
       transform="translate(-1.4917857,342.64285)" />
    <path
       style="fill:#56008c;fill-opacity:1;fill-rule:nonzero"
       d="m 93.628332,90.439637 c -0.372864,0.277503 -0.555178,0.741827 -0.820161,1.109537 -0.352729,0.540996 -0.633699,1.161904 -0.660188,1.812729 0.200481,0.427834 0.639662,0.677818 0.940229,1.033465 2.136946,2.179704 3.446596,4.985773 4.711397,7.730732 0.259211,0.52896 0.453579,1.11317 0.780009,1.59692 0.252924,0.32359 0.772723,0.17747 0.917101,-0.17891 0.798511,-1.31969 1.144291,-2.94003 0.768901,-4.453326 -0.493653,-2.075273 -1.914743,-3.761401 -3.35956,-5.267189 -0.752151,-0.833873 -1.594801,-1.59539 -2.245327,-2.514567 -0.262155,-0.27631 -0.246845,-0.765738 -0.640115,-0.899872 -0.136664,-0.04794 -0.258723,-0.0037 -0.392286,0.03048 z"
       id="path11874"
       inkscape:connector-curvature="0"
       transform="translate(-1.4917857,342.64285)" />
    <path
       style="fill:#56008c;fill-opacity:1;fill-rule:nonzero"
       d="m 92.247379,88.608086 c -0.406486,0.109078 -0.592807,0.542671 -0.879332,0.816007 -0.571062,0.680532 -1.230714,1.439285 -1.18282,2.388546 0.01332,0.377607 0.14424,0.839921 0.520839,1.001919 0.331426,0.107852 0.611787,-0.153929 0.746056,-0.432157 0.507776,-0.805598 1.147919,-1.556245 1.445975,-2.47288 0.13003,-0.44287 0.104533,-1.106683 -0.409287,-1.281419 -0.07573,-0.03684 -0.160757,-0.01745 -0.241431,-0.02002 z"
       id="path11876"
       inkscape:connector-curvature="0"
       transform="translate(-1.4917857,342.64285)" />
    <path
       style="fill:#56008c;fill-opacity:1;fill-rule:nonzero"
       d="m 89.117043,93.197567 c -0.371707,0.227556 -0.491113,0.695008 -0.751853,1.027428 -0.827732,1.377639 -1.890334,2.689313 -2.200894,4.308192 -0.105166,0.384871 0.284045,0.804067 0.677152,0.6583 0.450595,-0.183017 0.48484,-0.745271 0.754161,-1.092995 0.725586,-1.198002 1.828289,-2.192346 2.239742,-3.563707 0.07313,-0.415025 0.172406,-0.96051 -0.170963,-1.27758 -0.151944,-0.122242 -0.373075,-0.131062 -0.547345,-0.05964 z"
       id="path11878"
       inkscape:connector-curvature="0"
       transform="translate(-1.4917857,342.64285)" />
    <path
       style="fill:#56008c;fill-opacity:1;fill-rule:nonzero"
       d="m 90.945944,94.87671 c -0.415649,-0.01288 -0.653082,0.393753 -0.677223,0.763368 -0.150628,1.002866 0.196497,2.019334 0.803677,2.813817 0.690337,0.998356 1.617657,1.847875 2.100034,2.979025 0.257632,0.72673 0.176348,1.5493 -0.03843,2.2689 -0.399509,1.17793 -1.354579,2.06422 -2.300705,2.82419 -0.922373,0.71687 -1.966194,1.25585 -2.92094,1.923 -0.354816,0.27535 -0.169885,0.89704 0.279636,0.93566 1.04694,0.22201 2.177879,0.17948 3.175396,-0.22928 1.646744,-0.67909 2.713686,-2.28312 3.210428,-3.93873 0.493659,-1.53631 0.541858,-3.17588 0.394363,-4.77108 -0.227807,-1.643045 -0.7263,-3.35678 -1.920346,-4.562974 -0.559923,-0.549221 -1.310936,-0.97023 -2.105887,-1.005896 z"
       id="path11880"
       inkscape:connector-curvature="0"
       transform="translate(-1.4917857,342.64285)" />
    <path
       style="fill:#56008c;fill-opacity:1;fill-rule:nonzero"
       d="m 87.706934,100.26004 c -0.710285,0.0778 -1.266058,0.67117 -1.457287,1.33699 -0.140144,0.41094 -0.3412,0.8129 -0.392819,1.24733 0.01409,0.48478 0.570378,0.60689 0.972764,0.54204 0.874269,-0.0537 1.761099,-0.69114 1.842617,-1.60867 0.04694,-0.52928 -0.147704,-1.12332 -0.583591,-1.44612 -0.116764,-0.0637 -0.25055,-0.0802 -0.381684,-0.0716 z"
       id="path11882"
       inkscape:connector-curvature="0"
       transform="translate(-1.4917857,342.64285)" />
    <path
       style="fill:#56008c;fill-opacity:1;fill-rule:nonzero"
       d="m 91.491964,102.39111 c -0.401881,0.0143 -0.539995,0.46294 -0.588429,0.79782 -0.203568,0.84567 -0.976695,1.43304 -1.789143,1.63144 -0.665945,0.16928 -1.368788,0.13172 -2.048899,0.0729 -0.715579,-0.10906 -1.390204,-0.39124 -2.044923,-0.70373 -0.333122,-0.12361 -0.696847,0.16326 -0.694452,0.50758 -0.399936,0.90536 -1.278072,1.57841 -1.428664,2.60022 -0.107474,0.32439 -0.04472,0.76893 0.342551,0.85321 1.483419,0.13088 3.000303,-0.008 4.44007,-0.39852 1.571851,-0.43166 3.130165,-1.34246 3.894057,-2.83093 0.314267,-0.6387 0.522487,-1.35706 0.479755,-2.07276 -0.03434,-0.27523 -0.301523,-0.49165 -0.561923,-0.45722 z"
       id="path11884"
       inkscape:connector-curvature="0"
       transform="translate(-1.4917857,342.64285)" />
    <path
       style="fill:#56008c;fill-opacity:1;fill-rule:nonzero"
       d="m 96.420719,102.87484 c -0.492472,0.18934 -0.412232,0.79528 -0.518188,1.21396 -0.417929,2.16478 -1.97587,3.99761 -3.928315,4.98214 -1.430739,0.72719 -3.048128,1.10177 -4.660893,1.03866 -1.814758,0.008 -3.581894,-0.56501 -5.185862,-1.3836 -0.323509,-0.16248 -0.691586,0.0343 -0.831704,0.34689 -0.827648,1.17156 -1.319305,2.53339 -1.692975,3.90729 -0.395055,1.39525 -0.726325,2.80935 -1.228082,4.17104 -0.109647,0.40477 0.323164,0.6162 0.637109,0.7277 1.487156,0.68433 2.798751,1.68959 4.230221,2.47783 1.264984,0.71401 2.678226,1.42698 4.175634,1.24426 1.243035,-0.14662 2.224875,-1.10377 2.758286,-2.18654 0.228041,-0.49439 0.499532,-0.99406 0.573851,-1.53867 0.0073,-0.40876 -0.425894,-0.55595 -0.764693,-0.5659 -1.771815,-0.17387 -3.480554,-0.73752 -5.131525,-1.38758 -1.056413,-0.43221 -2.166852,-0.74183 -3.160818,-1.31203 -0.397045,-0.24067 -0.787689,-0.53923 -1.031076,-0.93566 0.209778,-0.3013 0.635418,-0.21899 0.939631,-0.13518 0.925513,0.30496 1.847418,0.7066 2.839944,0.69807 3.176951,0.20516 6.503465,-0.59363 9.002392,-2.62822 2.104727,-1.68795 3.458744,-4.27183 3.634407,-6.96122 0.0045,-0.47749 0.101844,-0.9727 -0.0076,-1.44048 -0.08022,-0.25958 -0.380542,-0.4194 -0.649771,-0.33276 z"
       id="path11886"
       inkscape:connector-curvature="0"
       transform="translate(-1.4917857,342.64285)" />
    <path
       style="fill:#56008c;fill-opacity:1;fill-rule:nonzero"
       d="m 79.308568,107.94805 c -0.441704,0.1235 -0.562455,0.63545 -0.792524,0.97674 -0.943409,1.76946 -1.77858,3.59607 -2.522028,5.45755 -0.12769,0.42386 0.379903,0.8302 0.762042,0.59373 0.562211,-0.38184 0.987956,-0.93097 1.380157,-1.47884 0.917472,-1.46416 1.487477,-3.1324 1.787287,-4.82822 0.09646,-0.37928 -0.200555,-0.80403 -0.614934,-0.72096 z"
       id="path11888"
       inkscape:connector-curvature="0"
       transform="translate(-1.4917857,342.64285)" />
    <path
       style="fill:#56008c;fill-opacity:1;fill-rule:nonzero"
       d="m 93.176408,112.56006 c -0.807088,0.25031 -1.568016,0.63807 -2.345325,0.96895 -1.133234,0.51405 -2.277727,1.01745 -3.468619,1.37198 -0.352756,0.076 -0.655608,0.45259 -0.461463,0.80907 0.257164,0.40397 0.782589,0.49859 1.200264,0.66359 0.833724,0.27582 1.741523,0.28356 2.602151,0.14771 1.277209,-0.2384 2.519818,-1.07487 2.919615,-2.35505 0.119863,-0.41281 0.208311,-0.86959 0.09542,-1.29215 -0.0969,-0.21817 -0.307678,-0.33147 -0.542044,-0.3141 z"
       id="path11890"
       inkscape:connector-curvature="0"
       transform="translate(-1.4917857,342.64285)" />
    <path
       style="fill:#56008c;fill-opacity:1;fill-rule:nonzero"
       d="m 99.659729,104.59904 c -0.409541,0.1437 -0.606322,0.59344 -0.881318,0.90518 -1.756736,2.39711 -3.129893,5.05634 -4.267853,7.79695 -0.182221,0.47672 -0.396014,0.94645 -0.541626,1.43502 -0.07524,0.40991 0.418408,0.73896 0.767343,0.52747 0.639315,-0.47468 1.156417,-1.09997 1.651312,-1.72023 1.732576,-2.30012 2.651518,-5.06961 3.688213,-7.7233 0.11909,-0.34117 0.39831,-0.80217 0.044,-1.09901 -0.11072,-0.12517 -0.303561,-0.15287 -0.460031,-0.12208 z"
       id="path11892"
       inkscape:connector-curvature="0"
       transform="translate(-1.4917857,342.64285)" />
    <path
       style="fill:#56008c;fill-opacity:1;fill-rule:nonzero"
       d="m 94.048449,116.46967 c -1.096809,0.20999 -1.864566,1.16642 -2.291427,2.14299 -0.505449,1.12419 -0.727505,2.3535 -0.797825,3.57829 -0.01014,0.44402 0.589598,0.69681 0.89192,0.36578 0.358166,-0.49946 0.563169,-1.09332 0.893008,-1.61264 0.711726,-1.24779 1.565006,-2.46769 1.907982,-3.87911 0.04399,-0.33682 -0.240922,-0.64363 -0.603658,-0.59531 z"
       id="path11894"
       inkscape:connector-curvature="0"
       transform="translate(-1.4917857,342.64285)" />
    <path
       style="fill:#56008c;fill-opacity:1;fill-rule:nonzero"
       id="path11896"
       d="m 91.158662,102.89281 c -0.06297,-0.13807 -0.04511,-0.28159 -0.01052,-0.4241 0.02366,-0.0975 0.04793,-0.0728 0.0124,-0.10122 -0.0042,0.029 0.0032,0.0624 -0.01265,0.0871 -0.0079,0.0122 -0.01366,-0.0259 -0.01763,-0.0399 -0.03082,-0.10868 -0.02548,-0.2148 -0.01121,-0.32516 0.0034,-0.0898 0.0017,-0.10457 0.05796,0.19286 0.0016,0.008 -0.01523,-0.009 -0.01947,-0.0169 -0.02741,-0.0482 -0.05741,-0.096 -0.07466,-0.14873 -0.02829,-0.0865 -0.02014,-0.14421 -0.0162,-0.22758 0.002,-0.0167 0.0045,-0.0667 0.0059,-0.05 0.01749,0.21834 -0.02994,0.0504 -0.04027,-0.008 -0.01638,-0.0926 -0.01059,-0.11446 -0.0051,-0.20041 0.0079,-0.043 0.0071,-0.0862 0.0058,-0.12954 -0.0011,-0.051 0.719884,-0.0672 0.721029,-0.0162 l 0,0 c 0.0017,0.0706 0.0029,0.14154 -0.0091,0.21139 -0.0012,-4.3e-4 -0.0024,-8.7e-4 -0.0036,-0.001 -0.0026,-0.0111 -0.0051,-0.0222 -0.0077,-0.0333 -8.73e-4,-0.004 -0.0044,-0.0147 -0.0026,-0.0113 0.04759,0.0925 0.07865,0.20082 0.05936,0.305 -0.0021,0.003 -0.0046,0.0125 -0.0064,0.009 -0.0093,-0.0173 -0.01002,-0.0383 -0.01878,-0.0559 -0.01456,-0.0292 -0.03744,-0.054 -0.0508,-0.0838 -0.005,-0.0112 0.02036,0.0156 0.02526,0.0268 0.108299,0.24886 0.106212,0.17245 0.09375,0.31744 -0.0016,0.0116 -0.0023,0.0234 -0.0048,0.0348 -3.64e-4,0.002 -0.0016,-0.003 -0.0019,-0.005 -0.0013,-0.007 -0.0038,-0.015 -0.0028,-0.0225 3.52e-4,-0.003 0.0039,0.004 0.0049,0.006 0.0456,0.11133 0.02724,0.0855 0.04923,0.25923 -0.0071,0.0254 -0.01272,0.0513 -0.02119,0.0764 -0.01104,0.0326 0.0047,-0.0865 0.03188,-0.0478 0.01442,0.0206 0.02213,0.0452 0.0306,0.0688 0.06507,0.18156 0.04371,0.12735 0.04541,0.35272 0,0.057 -0.806025,0.057 -0.806025,0 z"
       inkscape:connector-curvature="0"
       transform="translate(-1.4917857,342.64285)" />
    <path
       style="fill:#56008c;fill-opacity:1;fill-rule:nonzero"
       d="m 76.315202,119.18784 c -0.902193,0.35521 -1.442632,1.26438 -1.786491,2.12842 -0.573825,1.54092 -0.663924,3.2392 -0.432045,4.85719 0.139601,0.78732 0.347009,1.60268 0.826441,2.25307 0.326745,0.25955 0.790602,0.0933 1.178724,0.1404 0.581187,-0.0237 1.173913,0.0495 1.747298,-0.0398 0.39719,-0.16085 0.400754,-0.67164 0.561269,-1.01834 0.368423,-1.0795 0.301508,-2.25386 0.202858,-3.37628 -0.204114,-1.65212 -0.781525,-3.25807 -1.663239,-4.67032 -0.134709,-0.20779 -0.386406,-0.3406 -0.634815,-0.27434 z"
       id="path11898"
       inkscape:connector-curvature="0"
       transform="translate(-1.4917857,342.64285)" />
    <path
       style="fill:#56008c;fill-opacity:1;fill-rule:nonzero"
       d="m 69.346825,117.16015 c -0.355842,0.20033 -0.268638,0.62818 -0.204095,0.95818 0.175162,1.41848 -0.240156,2.83464 -0.788548,4.12696 -0.634164,1.55301 -1.47909,3.02988 -1.908418,4.66104 -0.303442,1.16831 -0.331792,2.51022 0.341305,3.558 0.26872,0.32511 0.755055,0.21026 1.128442,0.29727 1.272762,0.13135 2.703183,-0.11925 3.596838,-1.10927 0.977849,-1.09436 1.205129,-2.62139 1.278424,-4.03411 0.0833,-2.247 -0.156565,-4.4916 -0.07938,-6.73916 -0.01667,-0.40004 0.07755,-0.7951 0.04143,-1.19012 -0.184524,-0.44693 -0.717286,-0.31957 -1.099921,-0.34339 -0.50449,-0.0325 -1.028688,0.0338 -1.522829,-0.0661 -0.25061,-0.0977 -0.51232,-0.24983 -0.783246,-0.11927 z"
       id="path11900"
       inkscape:connector-curvature="0"
       transform="translate(-1.4917857,342.64285)" />
    <path
       style="fill:#56008c;fill-opacity:1;fill-rule:nonzero"
       d="m 67.02094,117.16147 c -0.457957,0.17835 -0.44676,0.75404 -0.583589,1.15049 -0.523203,2.1152 -0.939254,4.29749 -0.788087,6.48584 0.01723,0.37756 0.105778,0.92497 0.578552,0.95765 0.406146,0.0372 0.600991,-0.38262 0.697703,-0.7191 0.548795,-1.63405 1.066475,-3.30423 1.09734,-5.04008 -0.01384,-0.8672 -0.04574,-1.76625 -0.376382,-2.57769 -0.124976,-0.23159 -0.383649,-0.31807 -0.625537,-0.25711 z"
       id="path11902"
       inkscape:connector-curvature="0"
       transform="translate(-1.4917857,342.64285)" />
    <path
       style="fill:#56008c;fill-opacity:1;fill-rule:nonzero"
       d="m 61.383154,115.51148 c -0.347243,0.002 -0.822788,-0.0413 -0.975261,0.35745 -0.137947,0.582 -0.05546,1.19536 -0.06125,1.78945 0.0087,1.23899 0.265398,2.51873 -0.132185,3.7238 -0.447808,1.73641 -1.632318,3.15718 -2.660449,4.58954 -0.714508,0.97368 -1.424102,2.01031 -1.682741,3.20881 -0.02008,0.51038 0.56731,0.71779 0.959511,0.89325 1.294999,0.50928 2.744259,0.40855 4.081894,0.13518 1.310603,-0.30156 2.674268,-0.82292 3.527924,-1.91505 0.348959,-0.57019 0.210045,-1.27624 0.271949,-1.91081 0.04971,-2.59806 0.425481,-5.17843 1.005322,-7.70808 0.132707,-0.66319 0.3367,-1.3152 0.458008,-1.9774 0.05023,-0.40906 -0.405524,-0.60683 -0.753239,-0.53807 -1.363248,-0.0169 -2.622436,-0.73992 -4.001047,-0.64848 l -0.03844,4.1e-4 z"
       id="path11904"
       inkscape:connector-curvature="0"
       transform="translate(-1.4917857,342.64285)" />
    <path
       style="fill:#56008c;fill-opacity:1;fill-rule:nonzero"
       d="m 58.406551,115.29414 c -0.478368,0.10862 -0.784261,0.56844 -1.089389,0.92107 -1.317213,1.75758 -1.823409,3.97048 -2.05155,6.11754 -0.139205,1.49825 -0.153804,3.01728 -0.0066,4.51262 0.03652,0.43292 0.621455,0.6281 0.913125,0.30879 0.65058,-0.67907 1.156802,-1.48119 1.656911,-2.27629 1.220753,-2.10685 1.979921,-4.57764 1.698725,-7.02857 -0.127127,-0.77257 -0.25631,-1.56751 -0.588429,-2.28215 -0.102345,-0.18185 -0.325427,-0.29782 -0.532767,-0.27301 z"
       id="path11906"
       inkscape:connector-curvature="0"
       transform="translate(-1.4917857,342.64285)" />
    <path
       style="fill:#56008c;fill-opacity:1;fill-rule:nonzero"
       d="m 53.790564,114.63812 c -1.285643,0.031 -2.571208,0.14823 -3.842017,0.33662 -0.3878,0.13381 -0.403296,0.59169 -0.310082,0.9243 0.31514,1.74922 -0.02412,3.55255 -0.678855,5.18836 -0.557008,1.48002 -1.344033,2.86464 -1.988505,4.30918 -0.228232,0.46782 0.181537,0.89816 0.388781,1.28748 0.794015,1.26942 2.106969,2.26513 3.597207,2.52563 0.836933,0.10321 1.712295,-0.004 2.449137,-0.4347 0.388839,-0.23398 0.857643,-0.45539 1.050955,-0.89059 0.06198,-0.38222 -0.04785,-0.77323 -0.02402,-1.16094 -0.03762,-1.31462 -0.01997,-2.63227 0.187507,-3.93224 0.327675,-2.43668 1.045992,-4.80459 1.909266,-7.10215 0.154192,-0.35887 -0.140163,-0.72501 -0.494334,-0.78987 -0.724037,-0.23914 -1.487949,-0.28094 -2.245042,-0.26108 z"
       id="path11908"
       inkscape:connector-curvature="0"
       transform="translate(-1.4917857,342.64285)" />
    <path
       style="fill:#56008c;fill-opacity:1;fill-rule:nonzero"
       d="m 45.887512,126.05019 c -0.35199,0.0174 -0.486856,0.39273 -0.794185,0.50861 -0.459624,0.26171 -0.982339,0.70128 -0.892788,1.29141 0.05969,0.33068 0.407276,0.43384 0.696981,0.43708 0.718221,0.1521 1.419464,0.68615 2.174802,0.40288 0.3657,-0.11947 0.661145,-0.55695 0.420117,-0.91842 -0.0873,-0.16886 -0.295414,-0.19165 -0.421443,-0.27831 -0.151325,-0.4814 -0.20032,-1.10849 -0.722283,-1.35047 -0.142625,-0.0704 -0.3016,-0.11091 -0.461201,-0.0928 z"
       id="path11910"
       inkscape:connector-curvature="0"
       transform="translate(-1.4917857,342.64285)" />
    <path
       style="fill:#56008c;fill-opacity:1;fill-rule:nonzero"
       d="m 47.84099,115.62546 c -0.327303,0.077 -0.411808,0.40669 -0.429394,0.69578 -0.278301,1.61001 -0.844583,3.20893 -0.769665,4.86768 0.06063,0.4701 0.03325,1.0147 0.354849,1.39697 0.287208,0.3092 0.818222,0.13209 0.923728,-0.25711 0.624354,-1.60423 1.147616,-3.33361 0.923727,-5.07321 -0.08768,-0.51303 -0.176225,-1.06675 -0.50361,-1.48698 -0.12438,-0.12691 -0.328922,-0.1749 -0.499635,-0.14313 z"
       id="path11912"
       inkscape:connector-curvature="0"
       transform="translate(-1.4917857,342.64285)" />
    <path
       style="fill:#56008c;fill-opacity:1;fill-rule:nonzero"
       d="m 40.847432,114.40884 c -0.354338,0.19194 -0.273504,0.62277 -0.169755,0.93861 0.411047,1.58684 0.374302,3.28111 0.165779,4.90195 -0.195246,1.39473 -0.619975,2.73389 -1.145051,4.03551 -0.106045,0.43853 0.270799,0.79502 0.521798,1.10992 1.153055,1.28986 3.276218,1.68387 4.739606,0.70308 0.332562,-0.25132 0.721014,-0.5555 0.808427,-0.9847 0.01191,-1.37456 -0.01171,-2.75344 0.239058,-4.10829 0.281343,-1.85246 0.667584,-3.70058 0.692529,-5.58013 -0.01961,-0.47121 -0.556524,-0.51321 -0.914939,-0.59711 -1.556904,-0.27442 -3.153177,-0.20449 -4.706852,-0.4745 -0.07687,0.0186 -0.153733,0.0371 -0.2306,0.0557 z"
       id="path11914"
       inkscape:connector-curvature="0"
       transform="translate(-1.4917857,342.64285)" />
    <path
       style="fill:#56008c;fill-opacity:1;fill-rule:nonzero"
       d="m 39.19877,125.45779 c -0.860639,0.16829 -1.682476,0.67993 -2.14432,1.43529 -0.179778,0.35751 0.144961,0.79432 0.538068,0.75011 0.813745,-0.0463 1.642154,0.18298 2.442547,-0.0425 0.393475,-0.14154 0.821519,-0.58194 0.551285,-1.01244 -0.208737,-0.26154 -0.576395,-0.34369 -0.732886,-0.66132 -0.09975,-0.27332 -0.346482,-0.50226 -0.654694,-0.46915 z"
       id="path11916"
       inkscape:connector-curvature="0"
       transform="translate(-1.4917857,342.64285)" />
    <path
       style="fill:#56008c;fill-opacity:1;fill-rule:nonzero"
       d="m 38.774677,115.3339 c -0.398579,0.24661 -0.378094,0.77996 -0.487259,1.18546 -0.213246,1.16338 -0.187521,2.35921 -0.108877,3.53501 0.102288,0.69771 0.246552,1.44649 0.708786,2.00272 0.286259,0.30936 0.837679,0.13772 0.903848,-0.26638 0.345583,-1.41372 0.428012,-2.89156 0.297712,-4.33976 -0.06994,-0.70155 -0.269579,-1.41997 -0.692648,-1.99115 -0.156524,-0.16845 -0.400857,-0.22177 -0.621562,-0.1259 z"
       id="path11918"
       inkscape:connector-curvature="0"
       transform="translate(-1.4917857,342.64285)" />
    <path
       style="fill:#56008c;fill-opacity:1;fill-rule:nonzero"
       d="m 33.669658,113.77668 c -0.356288,0.25791 -0.48845,0.71335 -0.718301,1.07517 -1.087281,2.11972 -1.845361,4.46059 -1.883244,6.85934 -0.02912,1.5918 0.420219,3.28426 1.62604,4.39277 0.211287,0.25686 0.50934,0.4496 0.854904,0.38491 1.257733,-0.003 2.62959,0.019 3.718765,-0.70506 0.531645,-0.38317 0.970459,-0.98641 1.00457,-1.65529 -0.08605,-0.53354 -0.309636,-1.0335 -0.387585,-1.57225 -0.475075,-2.63324 -0.474978,-5.32584 -0.476504,-7.99634 -0.0099,-0.38497 -0.413768,-0.56037 -0.752764,-0.50022 -0.515395,0.0245 -1.030814,-0.0185 -1.52276,-0.17966 -0.474617,-0.10029 -0.980572,-0.19162 -1.463121,-0.10337 z"
       id="path11920"
       inkscape:connector-curvature="0"
       transform="translate(-1.4917857,342.64285)" />
    <path
       style="fill:#56008c;fill-opacity:1;fill-rule:nonzero"
       d="m 28.642173,109.57153 c -0.390447,0.21502 -0.58361,0.65612 -0.875618,0.97934 -1.718545,2.19443 -3.768844,4.19774 -6.265911,5.48447 -1.050309,0.56904 -2.175513,0.98113 -3.316339,1.32492 -0.377066,0.12039 -0.44847,0.58873 -0.284938,0.9065 0.630404,1.74082 1.786065,3.2139 2.940854,4.63444 1.044687,1.28754 2.06956,2.61426 2.683679,4.16682 0.169398,0.36402 0.600679,0.32031 0.915776,0.20012 1.997337,-0.44838 4.055524,-0.12417 6.069213,0.04 0.560044,0.0217 1.134992,0.12647 1.689592,0.0435 0.416648,-0.0934 0.499107,-0.69908 0.139927,-0.91851 -0.493323,-0.26565 -0.967046,-0.60278 -1.247098,-1.10264 -0.717329,-1.2271 -0.74734,-2.7066 -0.687649,-4.09107 0.05028,-1.04427 0.220299,-2.07378 0.341748,-3.10791 0.05577,-0.42122 -0.446306,-0.77245 -0.809753,-0.53276 -0.347313,0.26767 -0.513861,0.70548 -0.776299,1.0495 -1.460232,2.23304 -2.898362,4.47288 -4.438719,6.64911 -0.15999,-0.0797 -0.331952,-0.14942 -0.47843,-0.25313 0.42797,-1.35471 1.293803,-2.50804 2.201351,-3.57976 0.735725,-0.89654 1.543608,-1.74581 2.150903,-2.73658 0.15118,-0.29655 -0.01423,-0.65076 -0.302166,-0.78854 -0.171292,-0.24162 -0.03362,-0.58194 0.01325,-0.84819 0.162865,-0.50479 0.407047,-1.01511 0.808427,-1.37035 -0.08497,0.67265 -0.545775,1.22674 -0.705055,1.87661 -0.04672,0.39986 0.411759,0.69039 0.756741,0.51952 0.432365,-0.24144 0.62976,-0.74106 0.955535,-1.09072 0.713146,-0.91728 1.527063,-1.81961 1.85249,-2.95775 0.07281,-0.35384 -0.24867,-0.56142 -0.511296,-0.70668 -0.555377,-0.48087 -0.677934,-1.24883 -0.942196,-1.89924 -0.224422,-0.68796 -0.594347,-1.36818 -1.240558,-1.74133 -0.189838,-0.13348 -0.403692,-0.21268 -0.637464,-0.14976 z"
       id="path11922"
       inkscape:connector-curvature="0"
       transform="translate(-1.4917857,342.64285)" />
    <path
       style="fill:#56008c;fill-opacity:1;fill-rule:nonzero"
       d="m 25.397861,110.18912 c -0.492389,0.16699 -0.850847,0.58144 -1.307013,0.8228 -1.802932,1.09796 -3.942166,1.7792 -6.061602,1.51899 -1.377674,-0.15904 -2.404418,-1.18496 -3.636598,-1.70963 -0.400884,-0.14227 -0.976265,-0.25786 -1.269628,0.14181 -0.262449,0.42042 0.1324,0.82368 0.354104,1.15211 0.979328,1.45167 1.674835,3.16274 3.079724,4.28423 0.327151,0.25822 0.732462,0.59703 1.174207,0.39891 2.044911,-0.57946 4.112014,-1.24347 5.885616,-2.44648 0.935925,-0.71185 1.739834,-1.62893 2.247693,-2.69432 0.180334,-0.41407 0.34293,-1.00408 -0.02656,-1.35789 -0.115934,-0.0983 -0.290967,-0.1376 -0.439945,-0.11053 z"
       id="path11924"
       inkscape:connector-curvature="0"
       transform="translate(-1.4917857,342.64285)" />
    <path
       style="fill:#56008c;fill-opacity:1;fill-rule:nonzero"
       d="m 27.067727,106.53397 c -1.421986,0.08 -2.627502,0.92005 -3.846617,1.56797 -1.162612,0.62767 -2.429955,1.19909 -3.781755,1.11972 -1.499524,0.032 -2.932269,-0.4879 -4.393338,-0.74614 -0.407152,-0.0483 -0.908318,-0.26751 -1.260352,0.0464 -0.278262,0.28685 -0.105344,0.69986 0.151948,0.92845 1.443097,1.56929 3.654246,2.26165 5.749531,2.12185 3.000525,-0.14919 6.016555,-1.51415 7.845715,-3.94457 0.235515,-0.25672 0.374552,-0.69862 0.06454,-0.95686 -0.144344,-0.12623 -0.34593,-0.14649 -0.529669,-0.1368 z"
       id="path11926"
       inkscape:connector-curvature="0"
       transform="translate(-1.4917857,342.64285)" />
    <path
       style="fill:#56008c;fill-opacity:1;fill-rule:nonzero"
       d="m 24.838589,103.01002 c -0.470049,0.0834 -0.775,0.50604 -1.177603,0.73135 -0.940041,0.65311 -1.976256,1.13256 -3.018267,1.59586 -0.387713,0.14353 -0.500939,0.69384 -0.170963,0.93565 0.669438,0.38553 1.488139,0.33932 2.233115,0.28229 1.262945,-0.17675 2.505839,-0.82542 3.213829,-1.91107 0.179604,-0.27849 0.02813,-0.65808 -0.269034,-0.77264 -0.14705,-0.37648 -0.29137,-0.90594 -0.811077,-0.86144 z"
       id="path11928"
       inkscape:connector-curvature="0"
       transform="translate(-1.4917857,342.64285)" />
    <path
       style="fill:#56008c;fill-opacity:1;fill-rule:nonzero"
       d="m 15.407821,95.865377 c -0.460057,0.155331 -0.764643,0.578805 -1.088064,0.919752 -1.21414,1.460565 -1.883938,3.349031 -1.965405,5.238871 -0.09145,1.6429 0.265372,3.36533 1.281556,4.69153 0.931885,1.26035 2.519357,1.92857 4.064655,1.91468 0.980911,-0.006 1.96658,-0.16918 2.882518,-0.52047 0.372553,-0.20394 0.31273,-0.8016 -0.08482,-0.93301 -1.03947,-0.27357 -2.063196,-0.69316 -2.927567,-1.34649 -0.864612,-0.70201 -1.623942,-1.55604 -2.083357,-2.57902 -0.802534,-1.68657 -0.819866,-3.699052 -0.121449,-5.429602 0.153009,-0.470468 0.465313,-0.865856 0.642289,-1.322752 0.08986,-0.359651 -0.231178,-0.710561 -0.600357,-0.633489 z"
       id="path11930"
       inkscape:connector-curvature="0"
       transform="translate(-1.4917857,342.64285)" />
    <path
       style="fill:#56008c;fill-opacity:1;fill-rule:nonzero"
       d="m 19.583812,95.170925 c -0.949896,-0.01004 -1.737351,0.714424 -2.09663,1.547631 -0.543499,1.148558 -0.531893,2.459765 -0.400218,3.696544 0.210791,1.29001 0.704495,2.67285 1.850106,3.4166 0.683225,0.43164 1.564447,0.43656 2.283475,0.0914 0.345066,-0.14928 0.84371,-0.32719 0.846861,-0.76336 0.0029,-0.40435 -0.426914,-0.54658 -0.760717,-0.58048 -0.683037,-0.1664 -1.267568,-0.6753 -1.488301,-1.34915 -0.475008,-1.330328 -0.292316,-2.800594 0.05036,-4.140204 0.105212,-0.478214 0.326942,-0.922233 0.409515,-1.404808 -0.01688,-0.364676 -0.358815,-0.560027 -0.694452,-0.514213 z"
       id="path11932"
       inkscape:connector-curvature="0"
       transform="translate(-1.4917857,342.64285)" />
    <path
       style="fill:#56008c;fill-opacity:1;fill-rule:nonzero"
       d="m 20.651996,97.63464 c -0.340642,0.335606 -0.134869,0.854258 -0.172235,1.277558 0.0099,0.895758 0.121335,1.917442 0.862711,2.524702 0.482112,0.35463 1.14299,0.55748 1.728179,0.37373 0.388475,-0.17278 0.70323,-0.5431 0.807102,-0.95553 0.05687,-0.34213 -0.249078,-0.53431 -0.465177,-0.73289 C 22.799224,99.356377 22.545584,98.264722 21.63006,97.765844 21.333592,97.622256 20.964127,97.42706 20.651996,97.63464 z"
       id="path11934"
       inkscape:connector-curvature="0"
       transform="translate(-1.4917857,342.64285)" />
    <path
       style="fill:#56008c;fill-opacity:1;fill-rule:nonzero"
       d="m 16.091671,91.872277 c -2.037241,0.315576 -3.843116,1.654766 -4.855314,3.435264 -1.119514,1.889338 -1.3539873,4.168209 -1.112469,6.316219 0.08785,0.39927 0.01946,0.95384 0.438671,1.17554 0.401156,0.19273 0.815234,-0.17276 0.805776,-0.58181 0.349995,-2.10083 1.150437,-4.134351 2.373672,-5.886165 0.850387,-1.274559 1.868928,-2.424334 2.808214,-3.630742 0.265316,-0.347638 -0.0087,-0.881275 -0.45855,-0.828306 z"
       id="path11936"
       inkscape:connector-curvature="0"
       transform="translate(-1.4917857,342.64285)" />
    <path
       style="fill:#56008c;fill-opacity:1;fill-rule:nonzero"
       d="m 13.32579,85.278956 c -2.142589,0.737597 -4.0863857,1.930367 -6.1539659,2.841414 -1.141573,0.528112 -2.3612566,0.838029 -3.5988478,1.044338 -0.3898502,0.0595 -0.5732608,0.547321 -0.3405997,0.850837 0.4009077,0.508502 0.2718693,1.197586 0.2663834,1.797094 -0.057429,0.831567 -0.059436,1.779118 0.5605979,2.41998 0.2377022,0.287208 0.6683385,0.563182 1.0181322,0.311704 0.4986195,-0.425774 0.8528823,-0.987378 1.2737841,-1.48652 1.3532713,-1.739215 2.6634088,-3.624444 4.6261008,-4.729353 0.658505,-0.367489 1.365362,-0.632074 2.100585,-0.792524 0.273743,0.234108 0.676072,0.363948 0.849511,0.693127 0.0019,0.0984 0.114129,0.350349 -0.07952,0.286263 -1.540192,-0.01102 -2.98491,0.708273 -4.2102416,1.586201 -1.3773174,1.032626 -2.5941657,2.415168 -3.062953,4.103271 -0.3478212,1.274727 -0.086519,2.702655 0.7448133,3.737319 0.1486116,0.119811 0.1739901,0.254154 0.072703,0.413488 -0.011486,0.223924 -0.2888911,0.06548 -0.4219608,0.169034 -0.3387257,0.151433 -0.3542759,0.604649 -0.1291719,0.86337 0.3420688,0.722321 0.4142655,1.628591 1.0787865,2.154921 0.2996417,0.23933 0.8015599,0.48859 1.1208782,0.17051 0.2659457,-0.32154 0.1113189,-0.78652 0.1680346,-1.17218 0.010776,-1.539006 0.1634424,-3.089713 0.7480588,-4.523465 0.7560671,-1.998222 2.4410471,-3.549839 4.4065911,-4.332374 0.651755,-0.281789 1.367241,-0.440207 2.025044,-0.662646 0.400173,-0.158242 0.330632,-0.631047 0.22523,-0.958145 -0.21688,-1.076507 -0.992741,-1.89536 -1.679074,-2.703632 -0.438293,-0.51021 -0.815147,-1.090165 -0.960835,-1.75601 -0.09875,-0.26276 -0.377639,-0.409656 -0.648067,-0.326022 z"
       id="path11938"
       inkscape:connector-curvature="0"
       transform="translate(-1.4917857,342.64285)" />
    <path
       style="fill:#56008c;fill-opacity:1;fill-rule:nonzero"
       d="m 3.2906894,84.679925 c -0.4569937,0.03913 -0.5761508,0.542646 -0.6527744,0.909276 -0.21211,0.967673 -0.1464669,1.971043 -0.1430513,2.952762 0.018909,0.351864 0.4152783,0.532839 0.7216094,0.423951 C 4.9621607,88.772672 6.712306,88.225801 8.1317426,87.157484 8.7141919,86.729775 9.2905588,86.260157 9.7401771,85.690761 9.9953106,85.31553 9.5361914,84.80805 9.1278933,84.985524 8.1324368,85.346663 7.0528215,85.270262 6.0090514,85.221924 5.140675,85.140689 4.2816427,84.937486 3.448399,84.685226 c -0.05264,-0.0051 -0.1048075,-0.012 -0.1577096,-0.0053 z"
       id="path11940"
       inkscape:connector-curvature="0"
       transform="translate(-1.4917857,342.64285)" />
    <path
       style="fill:#56008c;fill-opacity:1;fill-rule:nonzero"
       d="m 12.68965,80.804775 c -0.375207,0.285558 -0.548793,0.75841 -0.823005,1.131798 -0.611024,0.951928 -1.304769,1.925412 -2.3643187,2.413354 -0.3608886,0.130773 -0.5249616,0.605853 -0.2677087,0.906499 0.2656556,0.401365 0.8221724,0.478786 1.2298694,0.254456 0.935915,-0.435235 1.64838,-1.269281 2.634678,-1.603602 0.369219,-0.01938 0.641029,-0.376136 0.576501,-0.736861 1.86e-4,-0.570621 0.138044,-1.156385 0.01419,-1.723276 -0.141483,-0.398113 -0.537075,-0.854467 -1.000209,-0.642368 z"
       id="path11942"
       inkscape:connector-curvature="0"
       transform="translate(-1.4917857,342.64285)" />
    <path
       style="fill:#56008c;fill-opacity:1;fill-rule:nonzero"
       d="m 12.441821,74.793257 c -0.761645,0.24755 -1.417662,0.741766 -2.094293,1.160536 -1.5187072,1.00178 -3.0850382,2.08138 -4.9191449,2.364737 -0.8620847,0.06736 -1.745594,0.04603 -2.5710637,-0.226625 -0.3706672,-0.09099 -0.6966661,0.25756 -0.6480671,0.621562 -0.028518,1.265449 -0.029233,2.53464 -0.011254,3.798424 0.068452,0.393771 0.4786238,0.588025 0.7481153,0.844068 1.1000425,0.828887 2.4892723,1.352133 3.8803349,1.19228 2.0920579,-0.152377 3.9400972,-1.510628 5.0795252,-3.219543 0.95977,-1.423458 1.466546,-3.153471 1.360177,-4.872199 -0.04345,-0.485693 -0.02972,-1.013364 -0.270386,-1.449515 -0.123313,-0.173955 -0.347182,-0.25082 -0.553944,-0.213725 z"
       id="path11944"
       inkscape:connector-curvature="0"
       transform="translate(-1.4917857,342.64285)" />
    <path
       style="fill:#56008c;fill-opacity:1;fill-rule:nonzero"
       d="m 5.2189872,72.081713 c -0.6239163,0.468014 -1.2798835,0.898086 -1.8832379,1.394205 -0.6942672,0.547827 -1.1171775,1.394898 -1.1543281,2.276849 -0.00817,0.40531 -0.097187,0.95475 0.3114433,1.194087 1.245824,0.624504 2.7180979,0.740834 4.0565155,0.351932 0.8602845,-0.251451 1.6755905,-0.676435 2.4047582,-1.199469 0.8377376,-0.662638 1.6037558,-1.469101 2.0191988,-2.465437 0.10902,-0.425138 -0.322512,-0.716859 -0.69794,-0.741068 -1.5233578,-0.350955 -3.041472,-0.783608 -4.6137934,-0.833902 -0.1502883,-0.02338 -0.2946847,-0.0093 -0.4426164,0.0228 z"
       id="path11946"
       inkscape:connector-curvature="0"
       transform="translate(-1.4917857,342.64285)" />
    <path
       style="fill:#56008c;fill-opacity:1;fill-rule:nonzero"
       d="m 11.117855,64.9543 c -1.6150122,1.128583 -3.5979887,1.591336 -5.5344129,1.672517 -0.7094788,0.05294 -1.4305958,-0.0019 -2.1334214,0.08571 -0.4474586,0.129524 -0.3939076,0.695121 -0.5237862,1.056695 -0.3702365,1.574066 -0.6248982,3.181135 -0.7262592,4.7896 0.013345,0.444693 0.6058534,0.64877 0.9064987,0.335299 0.7070364,-0.780484 1.7915882,-1.124437 2.8122666,-1.147702 1.0784795,-0.02802 2.1442446,0.05402 3.1983256,0.280935 0.7480729,0.127091 1.4933438,0.318753 2.2406658,0.451477 0.455415,0.02369 0.600009,-0.496941 0.797826,-0.815905 0.542322,-1.140241 0.886163,-2.404319 0.853487,-3.673706 -0.06481,-1.104197 -0.436847,-2.27762 -1.317168,-2.998764 -0.165994,-0.130079 -0.39107,-0.136583 -0.574022,-0.03615 z"
       id="path11948"
       inkscape:connector-curvature="0"
       transform="translate(-1.4917857,342.64285)" />
    <path
       style="fill:#56008c;fill-opacity:1;fill-rule:nonzero"
       d="m 13.676992,62.483958 c -0.392355,0.138874 -0.56904,0.572096 -0.743488,0.917101 -0.319289,0.938288 -0.09993,2.048149 0.610958,2.752629 0.227989,0.319534 0.805391,0.330037 0.9487,-0.0678 0.166332,-0.333908 -0.149906,-0.666856 -0.05678,-1.01629 0.08372,-0.733964 0.338686,-1.55678 -0.111324,-2.226488 -0.122273,-0.251512 -0.36054,-0.415241 -0.648067,-0.359154 z"
       id="path11950"
       inkscape:connector-curvature="0"
       transform="translate(-1.4917857,342.64285)" />
    <path
       style="fill:#56008c;fill-opacity:1;fill-rule:nonzero"
       d="m 5.7583804,62.457453 c -0.7225819,0.02594 -1.4668013,0.11439 -2.1337439,0.399184 -0.3906028,0.235502 -0.2063988,0.759458 -0.2491285,1.136827 0.035098,0.441882 -0.080118,0.921516 0.1086738,1.337218 0.2609628,0.391439 0.7789817,0.23693 1.1716286,0.313814 1.1126459,0.06486 2.2390701,0.104775 3.346287,-0.04213 C 8.9384582,65.43836 9.8611403,64.942391 10.346536,64.100813 10.504157,63.746512 10.205598,63.378166 9.8495524,63.328168 8.826607,63.024279 7.8011238,62.69411 6.7474734,62.511093 c -0.3273352,-0.04528 -0.658825,-0.05965 -0.989093,-0.05364 z"
       id="path11952"
       inkscape:connector-curvature="0"
       transform="translate(-1.4917857,342.64285)" />
    <path
       style="fill:#56008c;fill-opacity:1;fill-rule:nonzero"
       d="m 11.966041,55.298233 c -0.437617,0.03818 -0.803322,0.341924 -1.197054,0.515606 -1.4857769,0.782285 -2.9647461,1.772777 -4.688561,1.877869 -0.662474,0.06175 -1.339221,-0.03345 -1.9996166,0.02302 -0.4119214,0.07637 -0.4115677,0.562292 -0.3891123,0.894076 0.025409,0.826605 -0.087696,1.660159 0.019109,2.482273 0.061647,0.513549 0.5455505,1.016862 1.0920394,0.865415 1.7348866,-0.131658 3.4233874,0.375348 5.0601672,0.893387 0.5892699,0.174445 1.1461399,0.458641 1.7410359,0.612161 0.497712,0.02347 0.760117,-0.495502 1.021656,-0.837106 1.43617,-2.108621 1.382743,-5.15328 -0.234245,-7.146463 -0.108373,-0.10968 -0.278255,-0.199866 -0.425419,-0.180239 z"
       id="path11954"
       inkscape:connector-curvature="0"
       transform="translate(-1.4917857,342.64285)" />
    <path
       style="fill:#56008c;fill-opacity:1;fill-rule:nonzero"
       d="m 7.3778855,54.081616 c -1.0435085,0.0069 -2.2117517,0.04634 -3.0282889,0.787223 -0.32847,0.246389 -0.4528153,0.730937 -0.1828901,1.061558 0.4207288,0.692404 1.2695433,1.032182 2.0595015,0.946257 0.9973996,-0.02059 1.9404924,-0.470998 2.7499779,-1.025775 0.4142451,-0.320771 0.8394607,-0.663877 1.1225211,-1.107943 0.113039,-0.387862 -0.2678698,-0.719641 -0.64276,-0.650795 -0.6926774,-0.0044 -1.3853585,-0.01564 -2.0780615,-0.01053 z"
       id="path11956"
       inkscape:connector-curvature="0"
       transform="translate(-1.4917857,342.64285)" />
    <path
       style="fill:#56008c;fill-opacity:1;fill-rule:nonzero"
       d="m 14.582165,52.019464 c -0.435274,0.110525 -0.433591,0.634353 -0.705055,0.917101 -0.428308,0.577759 -1.000507,1.116028 -1.168906,1.842154 -0.03961,0.338824 0.263724,0.574972 0.555297,0.681199 0.428089,0.453343 0.673173,1.136081 1.312038,1.350471 0.369519,0.209862 0.884504,-0.04133 0.895896,-0.479755 0.01956,-0.82284 0.04385,-1.647269 0.07554,-2.470341 -6.14e-4,-0.620217 -0.06724,-1.374941 -0.577827,-1.77854 -0.120878,-0.0825 -0.248758,-0.06378 -0.386985,-0.06229 z"
       id="path11958"
       inkscape:connector-curvature="0"
       transform="translate(-1.4917857,342.64285)" />
    <path
       style="fill:#56008c;fill-opacity:1;fill-rule:nonzero"
       d="m 13.633257,47.473717 c -1.313207,0.09648 -2.43821,0.846136 -3.616802,1.355667 -0.9122311,0.434774 -1.898892,0.788603 -2.923507,0.703835 -0.4844566,0.0079 -0.9375631,-0.180618 -1.4114344,-0.245179 -0.3871973,0.0031 -0.5232848,0.390773 -0.5910796,0.70373 -0.3363155,1.001619 -0.3864872,2.058939 -0.4793632,3.10377 -0.059932,0.339603 0.070156,0.77364 0.4700744,0.796232 1.4800454,-0.08315 2.9357086,-0.457408 4.4224733,-0.422087 0.6948595,-0.0026 1.3859705,0.121737 2.0250775,0.397234 0.477936,0.133937 0.728839,-0.378569 1.023124,-0.653368 0.858638,-0.984651 1.755173,-2.0652 1.950931,-3.398833 0.108332,-0.705494 0.0368,-1.460703 -0.283716,-2.103774 -0.137924,-0.190222 -0.358791,-0.257995 -0.585778,-0.237227 z"
       id="path11960"
       inkscape:connector-curvature="0"
       transform="translate(-1.4917857,342.64285)" />
    <path
       style="fill:#56008c;fill-opacity:1;fill-rule:nonzero"
       d="M 8.0180008,45.361204 C 7.2116514,45.3467 6.3702141,45.590565 5.7676575,46.1418 5.3289048,46.608722 5.0798974,47.295839 5.25477,47.925642 c 0.2569979,0.359319 0.7543197,0.345177 1.1463026,0.450036 0.8415919,0.125698 1.708217,0.0941 2.5486075,-0.03257 1.2558469,-0.214652 2.5841399,-0.793104 3.2191309,-1.96143 0.145936,-0.330781 -0.132293,-0.716467 -0.489032,-0.718307 C 10.503106,45.42661 9.2985093,45.325935 8.0961955,45.360345 l -0.042407,4.66e-4 -0.035788,3.93e-4 z"
       id="path11962"
       inkscape:connector-curvature="0"
       transform="translate(-1.4917857,342.64285)" />
    <path
       style="fill:#56008c;fill-opacity:1;fill-rule:nonzero"
       d="m 5.4283831,36.098749 c -0.3828684,0.0083 -0.5907388,0.407077 -0.5089116,0.750114 0.28823,2.250775 0.2031332,4.528282 0.2762771,6.793417 0.052439,0.373882 -0.1060204,0.847722 0.2161765,1.121861 0.3330324,0.232374 0.7746443,0.07141 1.1587353,0.100806 2.13509,-0.09446 4.3226326,-0.09599 6.3654936,0.583726 0.361335,0.140136 0.757161,-0.148767 0.760717,-0.538068 C 13.89493,42.45781 12.954425,39.898102 11.076913,38.277146 9.5341629,36.904679 7.4789299,36.169875 5.4283831,36.098749 z"
       id="path11964"
       inkscape:connector-curvature="0"
       transform="translate(-1.4917857,342.64285)" />
    <path
       style="fill:#56008c;fill-opacity:1;fill-rule:nonzero"
       d="m 14.635177,40.473533 c -0.353934,0.008 -0.778489,0.248227 -0.733995,0.642157 0.05034,0.352329 0.399805,0.603951 0.475958,0.966665 0.252072,0.609558 0.362932,1.347899 0.907429,1.783922 0.352123,0.246851 0.856608,-0.07403 0.832282,-0.489033 -0.0043,-0.900254 -0.222922,-1.846491 -0.789873,-2.563112 -0.173564,-0.195746 -0.418567,-0.362784 -0.691801,-0.340599 z"
       id="path11966"
       inkscape:connector-curvature="0"
       transform="translate(-1.4917857,342.64285)" />
    <path
       style="fill:#56008c;fill-opacity:1;fill-rule:nonzero"
       d="m 9.9728044,28.088692 c -0.3714277,0.261133 -0.4532722,0.755017 -0.6990026,1.113287 -0.6068149,1.136427 -1.4065404,2.165788 -1.9580325,3.328738 -0.101487,0.362453 0.1577781,0.708015 0.2980179,1.031425 0.6083946,1.134099 1.8693788,1.722926 3.0892528,1.933599 0.19988,0.0055 0.340259,0.06647 0.357828,0.279637 0.476414,1.277885 1.574403,2.201755 2.753954,2.818893 0.739711,0.39767 1.474055,0.816776 2.232388,1.172746 0.387227,0.109126 0.719991,-0.202429 1.056983,-0.34709 1.092755,-0.622001 1.799891,-1.742908 2.235765,-2.890459 0.121665,-0.398296 -0.221721,-0.775902 -0.612284,-0.805777 -1.984692,-0.37016 -3.755861,-1.54565 -5.028153,-3.085276 -1.172565,-1.361722 -2.061361,-2.942514 -3.093228,-4.410567 -0.152969,-0.188072 -0.415534,-0.231386 -0.6334886,-0.139156 z"
       id="path11968"
       inkscape:connector-curvature="0"
       transform="translate(-1.4917857,342.64285)" />
    <path
       style="fill:#56008c;fill-opacity:1;fill-rule:nonzero"
       d="m 14.457588,25.077632 c -0.379299,0.265545 -0.48246,0.763004 -0.679874,1.158304 -0.73222,1.740941 -0.547662,3.84205 0.519947,5.409708 1.213906,1.833435 3.311142,2.967737 5.452753,3.292547 0.348735,0.04641 0.795886,0.170787 1.040737,-0.171359 0.707054,-0.831554 1.466983,-1.656285 1.911069,-2.666485 0.121296,-0.377748 0.440572,-0.820471 0.182626,-1.203469 -0.269652,-0.307994 -0.734505,-0.247165 -1.098402,-0.36435 C 20.128776,30.17467 18.580433,29.338774 17.402046,28.125463 16.521272,27.293702 15.85569,26.282132 15.161932,25.30115 15.015265,25.061172 14.716546,24.963023 14.457588,25.077632 z"
       id="path11970"
       inkscape:connector-curvature="0"
       transform="translate(-1.4917857,342.64285)" />
    <path
       style="fill:#56008c;fill-opacity:1;fill-rule:nonzero"
       d="m 13.299284,19.735386 c -0.406661,0.166832 -0.599615,0.609992 -0.886279,0.913318 -2.11901,2.712846 -4.3404033,5.360188 -6.104629,8.326608 -0.5007715,0.861519 -0.982435,1.741193 -1.3478205,2.669135 -0.094116,0.337101 0.2163397,0.71256 0.588429,0.644091 0.42675,-0.119438 0.6518686,-0.578662 1.0880636,-0.695777 0.3855408,-0.175703 0.9218696,-0.140822 1.1084457,-0.599075 1.6978472,-2.636787 3.4752912,-5.227121 4.9892162,-7.972905 0.454712,-0.870392 0.89384,-1.758411 1.208665,-2.689014 0.0556,-0.372684 -0.270937,-0.688565 -0.644091,-0.596381 z"
       id="path11972"
       inkscape:connector-curvature="0"
       transform="translate(-1.4917857,342.64285)" />
    <path
       style="fill:#56008c;fill-opacity:1;fill-rule:nonzero"
       d="m 13.940724,21.186579 c -0.346336,0.09928 -0.389176,0.486275 -0.406864,0.784572 -0.32687,0.998616 -1.093225,1.763283 -1.631433,2.647931 -0.385675,0.572333 -0.647533,1.423469 -0.161685,2.017092 0.261229,0.299765 0.655481,0.695682 1.078285,0.508685 0.368621,-0.22674 0.275827,-0.723772 0.445799,-1.075909 0.392419,-1.160437 1.381241,-2.051171 1.591674,-3.280095 0.0546,-0.521269 -0.04722,-1.113454 -0.418792,-1.502879 -0.143868,-0.12359 -0.317968,-0.128484 -0.496984,-0.0994 z"
       id="path11974"
       inkscape:connector-curvature="0"
       transform="translate(-1.4917857,342.64285)" />
    <path
       style="fill:#56008c;fill-opacity:1;fill-rule:nonzero"
       d="m 15.989624,21.938019 c -0.440141,0.245136 -0.292541,0.819531 -0.272812,1.228338 0.180825,1.796598 0.906368,3.64483 2.358819,4.78583 0.594475,0.448067 1.338963,0.799746 2.097852,0.723372 0.439507,-0.07305 0.537219,-0.729729 0.14454,-0.936743 -1.102073,-0.676663 -1.987481,-1.683769 -2.55251,-2.844074 -0.449936,-0.837615 -0.728914,-1.745326 -1.035052,-2.641304 -0.124774,-0.301734 -0.439838,-0.441074 -0.740837,-0.315419 z"
       id="path11976"
       inkscape:connector-curvature="0"
       transform="translate(-1.4917857,342.64285)" />
    <path
       style="fill:#56008c;fill-opacity:1;fill-rule:nonzero"
       d="m 21.991865,19.575026 c -0.482081,-0.0012 -0.881442,0.309415 -1.1371,0.695777 -0.166059,0.279952 -0.606032,0.26113 -0.668368,0.626204 -0.110899,1.084322 0.13846,2.21035 0.72138,3.136296 0.292962,0.493032 0.864219,0.952794 1.467097,0.758066 0.391872,-0.157162 0.401487,-0.708875 0.07976,-0.944363 -0.485471,-0.464459 -0.404484,-1.218289 -0.309248,-1.81948 0.09479,-0.625383 0.338669,-1.215165 0.514421,-1.819011 0.07218,-0.394473 -0.291854,-0.687806 -0.667946,-0.633489 z"
       id="path11978"
       inkscape:connector-curvature="0"
       transform="translate(-1.4917857,342.64285)" />
    <path
       style="fill:#56008c;fill-opacity:1;fill-rule:nonzero"
       d="m 24.089799,21.005014 c -0.381015,0.01563 -0.905354,0.137362 -0.909194,0.607795 -0.163711,1.080947 0.215647,2.256232 1.085458,2.946635 0.566058,0.479667 1.207559,0.874067 1.805046,1.317338 0.324952,0.212933 0.752441,0.01213 0.894571,-0.327346 0.496214,-0.829466 0.311584,-1.874179 -0.143131,-2.677087 -0.547273,-0.979103 -1.54799,-1.890273 -2.73275,-1.867335 z"
       id="path11980"
       inkscape:connector-curvature="0"
       transform="translate(-1.4917857,342.64285)" />
    <path
       style="fill:#56008c;fill-opacity:1;fill-rule:nonzero"
       id="path11982"
       d="m 5.7677676,32.139197 c -0.038036,0.0918 -0.046219,0.134924 -0.1184514,0.20949 -0.00725,0.0075 -0.023117,-0.0013 -0.030715,0.0058 -0.019694,0.01848 -0.03088,0.04432 -0.046319,0.06649 -0.085887,0.06197 -0.1744778,0.120352 -0.2576597,0.185907 -0.067549,0.05324 0.1404725,-0.09927 0.2107087,-0.148906 0.013663,-0.02699 0.024834,-0.05539 0.040989,-0.08097 0.00155,-0.0025 0.00863,5.59e-4 0.00801,0.0034 -0.013242,0.06046 -0.027393,0.121001 -0.048037,0.179346 -0.00874,0.0247 -0.021631,0.04879 -0.039475,0.06799 -0.012678,0.01364 0.03418,-0.06591 0.023415,-0.05071 -0.039139,0.05524 -0.072622,0.11427 -0.1089329,0.171405 0.010192,-0.013 0.022485,-0.02461 0.030575,-0.03901 0.016367,-0.02915 0.055479,-0.121648 0.042373,-0.0909 -0.1400411,0.328604 -0.065989,0.145685 -0.040372,0.08602 0.00259,-0.006 0.00569,-0.01185 0.00854,-0.01778 -0.069062,0.244342 -0.051648,0.202932 -0.2330418,0.373147 -0.042318,0.02717 -0.4265525,-0.571296 -0.3842347,-0.598465 l 0,0 c -0.1301359,0.170772 -0.060117,0.0344 -0.1049856,0.247616 0.00591,-0.117644 -0.00197,-0.11843 0.043828,-0.241436 0.00855,-0.02297 0.034502,-0.08862 0.035914,-0.06416 0.0022,0.03809 -0.047707,0.144853 -0.033297,0.109522 0.096738,-0.237176 0.00176,-0.09278 0.1209895,-0.250178 -0.070617,0.149128 -0.090829,0.201058 -0.022566,0.02593 0.00242,-0.0062 -0.00512,0.01241 -0.00634,0.01895 -0.0072,0.03842 0.018821,0.105418 -0.018881,0.115733 -0.095428,0.02611 0.1531379,-0.416128 0.05165,-0.292277 0.082606,-0.06907 0.1512627,-0.159552 0.2478169,-0.207218 0.082639,-0.0408 -0.1364769,0.123889 -0.2046481,0.185907 -0.00488,0.0044 -0.014298,0.02007 -0.014512,0.01347 -0.00109,-0.03361 0.00411,-0.06744 0.011694,-0.100204 0.00707,-0.03056 0.018244,-0.06031 0.031976,-0.08851 0.024656,-0.05064 0.055216,-0.0982 0.082824,-0.147292 0.024882,-0.05099 0.7460462,0.30089 0.7211642,0.351884 z"
       inkscape:connector-curvature="0"
       transform="translate(-1.4917857,342.64285)" />
    <path
       style="fill:#56008c;fill-opacity:1;fill-rule:nonzero"
       d="m 23.472214,15.353975 c -0.876422,-0.01148 -1.730511,0.460129 -2.164199,1.227219 -0.28768,0.506857 -0.582902,1.020671 -0.780597,1.566494 -0.107192,0.397265 0.315964,0.773078 0.698429,0.626862 1.03765,-0.199347 2.175548,-0.170367 3.107822,0.377005 1.144817,0.613341 1.939377,1.678898 2.980562,2.428635 0.421353,0.280758 1.072534,0.438234 1.492278,0.07952 0.27469,-0.26838 0.136348,-0.683072 -0.09807,-0.925053 -0.932197,-1.38456 -1.577748,-2.963365 -2.698291,-4.217075 -0.660845,-0.687456 -1.557417,-1.208179 -2.537932,-1.163605 z"
       id="path11984"
       inkscape:connector-curvature="0"
       transform="translate(-1.4917857,342.64285)" />
    <path
       style="fill:#56008c;fill-opacity:1;fill-rule:nonzero"
       d="m 24.967142,11.664366 c -0.943646,0.01134 -1.83475,0.499274 -2.493867,1.148179 -0.267808,0.284237 -0.124982,0.817313 0.288583,0.884817 1.003412,0.157926 2.011204,0.424312 2.866604,0.991318 1.574174,1.010834 2.558571,2.658971 3.371899,4.295781 0.139266,0.323837 0.439497,0.701796 0.83668,0.557189 0.470561,-0.167824 0.407927,-0.751439 0.396806,-1.152759 -0.107645,-1.970635 -0.949663,-3.892748 -2.290135,-5.335905 -0.770468,-0.811548 -1.828889,-1.431479 -2.97657,-1.38862 z"
       id="path11986"
       inkscape:connector-curvature="0"
       transform="translate(-1.4917857,342.64285)" />
    <path
       style="fill:#56008c;fill-opacity:1;fill-rule:nonzero"
       d="m 24.411845,9.0747487 c -1.295819,0.083009 -2.440302,0.8950011 -3.248287,1.8673343 -0.309996,0.331066 -0.09179,0.96176 0.385659,0.95686 0.470814,-0.08513 0.864688,-0.405135 1.326662,-0.532823 0.938794,-0.342251 1.945033,-0.554677 2.845353,-1.009815 0.369907,-0.213656 0.302805,-0.7712264 -0.04771,-0.9542095 -0.368689,-0.2495296 -0.82268,-0.3460107 -1.261677,-0.3273468 z"
       id="path11988"
       inkscape:connector-curvature="0"
       transform="translate(-1.4917857,342.64285)" />
    <path
       style="fill:#56008c;fill-opacity:1;fill-rule:nonzero"
       d="m 30.263003,2.2150447 c -0.298,0.047544 -0.5402,0.2613744 -0.854343,0.2580963 -0.835647,0.1428786 -1.794041,0.00241 -2.527799,0.5224999 -0.314383,0.1981056 -0.423524,0.5716671 -0.398912,0.9250528 -0.01929,0.4845027 -0.33123,0.9203116 -0.77515,1.112831 -0.962225,0.5580326 -2.158918,0.9026633 -2.762051,1.9141326 -0.198382,0.3425781 -0.516245,0.8191721 -0.199287,1.188292 0.282588,0.3213366 0.737962,0.1202681 1.09916,0.197962 1.301371,0.063667 2.633951,0.5187327 3.535381,1.4904582 1.2085,1.1115635 1.827553,2.6578805 2.551764,4.0942415 0.282782,0.534104 0.491724,1.116287 0.846775,1.607652 0.219491,0.213561 0.562901,0.161567 0.777946,-0.02121 0.391719,-2.6e-5 0.869379,-0.05143 1.056293,-0.454908 0.216401,-0.468589 -0.139952,-0.943947 -0.266832,-1.38599 C 31.309657,11.004276 30.642256,8.2162098 29.938307,5.4580307 29.880821,5.3528599 29.925176,5.2776204 30.031077,5.2512854 30.508178,5.0698475 31.092872,4.9234638 31.303356,4.3977983 31.45,4.0990236 31.367174,3.7551457 31.205285,3.4873237 31.113425,3.0339706 31.077408,2.4250071 30.560876,2.2475574 30.465951,2.2136033 30.36286,2.207428 30.263003,2.2150447 z"
       id="path11990"
       inkscape:connector-curvature="0"
       transform="translate(-1.4917857,342.64285)" />
    <path
       style="fill:#56008c;fill-opacity:1;fill-rule:nonzero"
       d="m 36.04392,1.9102279 c -1.385863,0.045793 -2.781353,0.198892 -4.111051,0.6083084 -0.48292,0.2122193 -0.325193,0.8038156 -0.332003,1.2258479 0.13968,2.8301676 0.318145,5.7069328 1.250422,8.4051068 0.26109,0.68271 0.528108,1.387124 0.976747,1.970639 0.273189,0.277075 0.71536,0.127167 0.913125,-0.164336 0.913975,-0.976206 1.225295,-2.361262 1.173702,-3.665751 -0.01437,-1.7860654 -0.48062,-3.5684527 -0.243348,-5.3488756 0.08674,-0.8195599 0.47144,-1.5748616 0.991317,-2.2052835 0.262742,-0.3717 -0.07071,-0.8767049 -0.518189,-0.825656 -0.03351,-0.00285 -0.06718,-8.722e-4 -0.100722,0 z"
       id="path11992"
       inkscape:connector-curvature="0"
       transform="translate(-1.4917857,342.64285)" />
    <path
       style="fill:#56008c;fill-opacity:1;fill-rule:nonzero"
       d="m 36.308978,12.450264 c -0.520539,0.595527 -0.888992,1.337962 -1.065899,2.110364 -0.08505,0.357291 -0.05854,0.856043 0.376047,0.953653 0.876794,0.266134 1.802359,0.586988 2.728149,0.393666 0.329747,-0.07912 0.598531,-0.395943 0.531049,-0.690471 -0.0046,-0.324246 -0.381812,-0.385064 -0.532374,-0.608314 -0.615249,-0.671625 -0.810426,-1.672807 -1.578421,-2.209259 -0.167342,-0.04191 -0.303421,-0.02715 -0.458551,0.05036 z"
       id="path11994"
       inkscape:connector-curvature="0"
       transform="translate(-1.4917857,342.64285)" />
    <path
       d="m 1.8069643,427.81294 c -0.35875,0.84 -0.33,2.0675 -0.29875,3.29875 2.8525,-0.245 4.78875,-1.4075 6.29625,-2.99875 -1.7775,0.65 -4.47,0.235 -5.9975,-0.3 z m 1.2,-29.6875 c 1.01375,2.02625 4.38125,0.2 5.0975,-0.90125 -1.92625,0.0737 -4.31125,-0.3125 -5.0975,0.90125 z m -0.6,7.795 c 0,0.60125 0,1.2 0,1.8 2.22125,0.12625 4.94875,0.53375 5.9975,-1.19875 -2.075,-0.5575 -3.51,-1.38 -5.9975,-0.60125 z m 1.5,9.2975 c -1.16625,1.0325 -2.95750001,1.4425 -2.69875,3.89875 3.09125,1.61875 6.75125,-0.65 7.79625,-3 -1.66,-0.3375 -3.09375,-0.90375 -5.0975,-0.89875 z m 0.29875,-24.89 c 2.15375,0.6825 5.15,0.075 5.9987497,-1.5 -1.9399997,-0.32625 -6.0449997,-1.06625 -5.9987497,1.5 z m 5.69875,17.6925 c -1.8525,1.3475 -4.475,1.92375 -7.7975,1.79875 -0.45,1.65 -0.745,3.4525 -0.89875,5.39875 1.8975,-2.1925 5.725,-1.26375 8.69625,-0.60125 1.2174997,-2.0525 1.7087497,-4.98625 0,-6.59625 z m 1.1999997,9.89625 c -2.2674997,0.74875 -5.4174997,4.75625 -9.8962497,3.29875 0,1.3 0,2.59875 0,3.8975 4.62375,4.48 11.2649997,-1.2675 9.8962497,-7.19625 z m -2.9999997,9.59625 c 0.4575,1.045 2.2862497,-1.43 3.5987497,-1.5 -0.17875,-0.6225 0.37125,-1.97 -0.3,-2.09875 -0.8875,1.41125 -1.6799997,2.9175 -3.2987497,3.59875 z m 2.3987497,-29.08875 c -2.3912497,1.0075 -3.9424997,2.85375 -7.7962497,2.39875 0.19,1.01125 -0.38625,2.78625 0.3,3.29875 2.08,-0.37625 5.2625,0.7325 7.1974997,1.5 1.725,-1.815 2.0275,-5.0425 0.29875,-7.1975 z M 3.9069643,379.23294 c 0.36625,2.5525 0.27,4.505 0.29875,7.79625 2.9225,-0.15125 5.03625,-0.20625 7.4974997,0.6 0.3475,-4.5625 -2.8549997,-8.13 -7.7962497,-8.39625 z m -0.30125,-3.89875 c 0.22875,-1.07125 0.99875,-1.60125 2.1,-1.79875 2.13625,-3.36125 5.1187497,-7.475 6.2974997,-10.79625 -2.9549997,3.84375 -6.9087497,8.28375 -8.3974997,12.595 z m 8.9974997,33.28625 c -0.605,-1.1125 0.47875,-2.06 -0.3,-2.99875 -0.84,0.8775 -0.57625,2.32375 0.3,2.99875 z m -0.3,-17.9925 c -2.185,-0.0838 -4.6724997,3.0425 -8.0974997,1.79875 -0.5325,1.53125 -0.42125,1.9925 -0.6,3.59875 2.52875,-0.19 4.46375,-0.915 6.5987497,0 1.12125,-1.22375 3.04125,-3.09 2.09875,-5.3975 z m -1.19875,-21.29125 c 0.19125,-2.1925 2.5625,-3.3325 1.49875,-5.0975 0.05625,1.98125 -3.5287497,4.00875 -1.49875,5.0975 z m 0.59875,28.1875 c 0.92875,0.17125 0.78875,1.41125 1.79875,1.5 -0.1925,-1.20625 0.39,-3.18875 -0.3,-3.89875 -0.29625,1.0025 -1.2025,1.3975 -1.49875,2.39875 z m 1.2,-13.79375 c 0.61625,0.5825 0.58125,1.81625 1.19875,2.39875 0.1225,-1.13625 -0.60625,-2.9725 -1.19875,-2.39875 z m -3.5987497,61.47501 c 0.60625,-4.59251 3.0137497,-7.38126 5.3962497,-10.19501 -4.2475,0.74875 -6.4449997,5.14625 -5.3962497,10.19501 z m 2.6987497,-16.79376 c -3.4712497,1.1275 -5.8162497,3.38 -9.8962497,3.89875 1.13375,1.145 -0.46375,3.6 1.19875,4.49875 2.42375,-2.77625 4.06125,-6.335 8.3974997,-7.1975 0.5325,0.56625 1.6225,0.57625 1.2,2.09875 -3.5324997,-0.6675 -10.1624997,5.0725 -6.2974997,8.99625 -0.32,0.28 -0.09375,1.10625 -0.9,0.9 0.52125,0.7775 0.42125,2.17751 1.49875,2.39876 -0.2825,-6.38126 2.53375,-9.66251 7.4962497,-10.79501 -0.27625,-2.22125 -2.2725,-2.72375 -2.6975,-4.79875 z m 4.4975,-42.2825 c 0,-0.59875 0,-1.2 0,-1.79875 -1.36375,12.6175 -2.80375,27.5625 -2.99875,40.4825 1.2725,-0.16125 2.1725,2.875 2.7,1.50125 -3.46,-13.73625 0.62,-25.735 0.29875,-40.185 z m -1.19875,43.4825 c 0.585,1.11375 1.10125,2.2975 2.09875,2.99875 0.11875,-1.8175 -1.2775,-2.12125 -2.09875,-2.99875 z M 8.7044643,371.13544 c -0.635,1.56375 -1.67,2.73 -2.39875,4.19875 0.45,1.54875 1.81375,2.18625 3.59875,2.39875 0.5474997,2.45 2.9112497,3.08625 4.7962497,4.19875 1.41125,-0.48875 2.1675,-1.63125 2.7,-2.99875 -4.67875,-0.82 -6.5125,-4.48375 -8.6962497,-7.7975 z m 5.9962497,-6.29625 c -0.09875,3.2 1.8175,5.97625 3.9,5.99625 -2.11625,-1.18125 -3.17625,-3.42 -3.9,-5.99625 z m -0.59875,74.06875 c -4.5099997,3.45625 -3.8475,14.21251 4.79875,11.39501 -4.95875,-1.00875 -7.87,-6.565 -4.79875,-11.39501 z m 4.1975,-0.6 c -3.7675,-0.25625 -2.65875,10.40626 1.8,7.49626 -3.37375,-0.4275 -2.81875,-4.95001 -1.8,-7.49626 z m 2.4,-75.56875 c -0.9425,-0.14125 -0.79125,0.8075 -1.5,0.9 -0.21125,1.62 0.7975,3.59 1.5,3.29875 -1.1725,-0.7975 -0.4525,-3.22625 0,-4.19875 z m -7.4975,5.39875 c -2.64125,4.60125 1.2475,8.68625 5.69875,8.99625 0.7675,-1.03125 1.72875,-1.87 2.09875,-3.3 -3.945,-0.5525 -6.05,-2.945 -7.7975,-5.69625 z m 6.2975,72.56875 c -0.07625,1.77625 0.045,3.35376 1.8,3.29876 0.33625,-0.0637 0.46625,-0.33375 0.59875,-0.6 -1.07375,-0.625 -1.01375,-2.38501 -2.39875,-2.69876 z m 3.89875,5.39751 c -1.18875,1.01125 -2.62625,1.7725 -4.19875,2.4 1.7975,0.66875 4.04625,-0.19 4.79875,-1.5 -0.42125,-0.0775 -0.34125,-0.6575 -0.6,-0.9 z m -3.29875,-92.06126 c 1.065,-0.73375 2.74125,-0.85625 3.89875,-1.49875 -1.63875,-1.29375 -4.44625,1.60375 -3.89875,1.49875 z m 2.1,102.25751 c 0.8775,-0.72875 2.18125,-2.52375 1.79875,-2.99875 -1.69625,1.3625 -4.48,2.7425 -7.4975,2.39875 -2.0925,-0.23875 -3.57,-2.2425 -4.4975,-1.79875 1.34,1.65875 1.985,4.01125 3.8975,5.0975 1.915,-0.5 4.73875,-1.405 6.29875,-2.69875 z m 0,-92.06126 c -0.295,2.4925 1.53875,2.85875 2.69875,3.89875 1.25125,-1.47875 -0.96375,-4.51875 -2.69875,-3.89875 z m -3.9,88.16376 c -2.0725,0.095 -3.98875,-0.78125 -5.69625,-0.90125 3.40375,4.1275 10.9425,1.9025 13.19375,-1.79875 -2.22125,-0.1375 -4.235,2.5475 -7.4975,2.7 z m 3.3,-13.79376 c 0.42625,3.0225 3.72625,7.22876 5.39625,8.99501 -2.19,-2.6075 -3.09,-6.50501 -5.39625,-8.99501 z m 0,-80.06875 c -1.21,0.21125 -1.44375,1.13375 -2.1,2.4 4.6775,-1.09375 5.91375,3.65125 7.49625,2.9975 -1.4275,-1.72 -2.5075,-5.89875 -5.39625,-5.3975 z m -0.3,-2.6975 c 3.89,0.4075 5.4775,3.12 6.89625,5.9975 0.495,-3.4 -3.285,-9.475 -6.89625,-5.9975 z m 7.49625,104.65501 c -1.765,2.7325 -3.52,5.47625 -5.3975,8.0975 -0.39875,-0.30125 -1.11625,-0.285 -1.19875,-0.9 0.865,-2.8325 3.02875,-4.36625 4.4975,-6.59625 -1.18,-0.3325 0.0125,-3.07625 0.9,-3.29875 1.565,0.14375 -0.81875,3.08125 0,2.3975 0.7825,-1.21625 1.895,-2.10125 2.39875,-3.59875 -1.59625,-0.6025 -1.0475,-3.35 -2.69875,-3.8975 -2.57625,3.52125 -5.70625,6.48875 -10.49625,7.79625 1.2475,3.65 4.3225,5.47375 5.69875,8.9975 2.87625,-0.8525 6.3725,0.17 8.095,0 -3.0725,-1.2825 -2.2,-6.475 -1.79875,-8.9975 z m 1.79875,-103.45626 c -1.16375,-2.73375 -1.89875,-5.89625 -2.69875,-8.9975 -0.01875,-1.0175 1.54125,-0.45875 1.5,-1.49875 -0.41625,-0.1825 -0.045,-1.155 -0.6,-1.19875 -0.76625,0.6325 -2.75875,0.0387 -3.29875,0.89875 0.22,2.615 -3.1,1.77 -3.8975,4.19875 5.34875,-0.15125 6.27875,4.115 8.09625,7.4975 -0.11875,-0.72 1.365,0.16625 0.89875,-0.9 z m 0,-11.395 c 0.15,3.7575 0.3625,7.90125 2.1,10.795 3.03625,-2.91375 -0.90875,-8.10625 2.1,-11.395 -1.555,0.045 -2.98125,0.2175 -4.2,0.6 z m 4.79875,111.55376 c -1.33375,0.23375 -1.79875,-0.4 -2.99875,-0.30125 -1.76625,2.75625 -3.86875,9.11 -0.6,11.69625 2.205,0.10625 4.10375,-0.0937 4.49875,-1.8 -0.96,-2.46625 -0.865,-7.15125 -0.9,-9.595 z m -0.3,-101.65876 c -0.4225,0.57875 -0.7925,1.20625 -0.9,2.1 0.6025,0.21875 2.4325,0.74 2.69875,0.3 -0.92375,-0.475 -1.05125,-1.7475 -1.79875,-2.4 z m 2.39875,102.85751 c -0.46875,1.4575 -0.6175,4.95375 0.3,5.9975 0.39875,-1.525 0.6675,-4.90125 -0.3,-5.9975 z m 0.3,10.19625 c -0.81375,0.18375 -1.40375,0.59375 -1.79875,1.2 0.81375,-0.18625 2.38,0.38125 2.69875,-0.3 -0.4325,-0.16875 -0.73125,-0.4675 -0.9,-0.9 z m 4.79875,-122.64876 c -1.47,0.53125 -3.90875,0.09 -5.09875,0.89875 -1.15375,5.57625 -1.53625,9.98125 2.99875,12.295 4.9425,-2.62875 0.385,-8.45125 2.1,-13.19375 z m 1.19875,121.74876 c -0.27,-3.76875 0.86875,-6.1275 0.9,-9.59625 -1.4325,-0.4675 -3.5725,-0.225 -5.0975,-0.59875 0.9425,3.19625 0.26125,6.90625 -0.9,9.595 0.7925,1.7625 3.9175,2.43125 5.0975,0.6 z m 0.3,-109.75376 c 0.05,0.6775 -1.44125,1.31875 -0.59875,1.8 -0.05125,-0.6525 1.0625,-0.1375 1.49875,-0.3 -0.03375,-0.7675 -0.55,-1.05 -0.9,-1.5 z m 0.3,-11.39625 c -1.08125,1.28875 -0.435,4.15 0,5.69875 -0.1525,-1.8825 2.0825,-4.69125 0,-5.69875 z m 0,122.64876 c -0.27125,0.52875 -1.10375,0.49625 -1.2,1.2 0.77875,-0.055 2.00875,0.95875 2.39875,0.3 -0.90875,0.009 -0.29,-1.50875 -1.19875,-1.5 z m 2.09875,-10.495 c -0.245,1.8575 -1.32375,4.46625 -0.59875,6.2975 0.72375,-1.9225 1.5225,-4.255 0.59875,-6.2975 z m 0,-112.45376 c 1.37625,3.93125 -2.87375,9.31625 0.3,12.895 1.55125,0.2 1.50875,0.23375 3.29875,0.30125 4.07125,-2.8175 0.37875,-9.77625 2.99875,-13.795 -2.57125,0.40875 -4.2375,-0.0787 -6.5975,0.59875 z m 2.1,111.85376 c 0.87,3.6975 -1.2025,7.1825 -2.69875,10.1975 1.01625,2.41125 4.17375,4.35875 6.59625,2.0975 -0.45875,-4.29125 0.74,-8.89 2.1,-12.295 -1.71375,-0.6675 -4.1625,-0.14 -5.9975,0 z m 5.3975,-110.35376 c -0.0125,0.905 -0.80625,2.57 0,3.29875 -0.31625,-1.35875 1.32875,-2.775 0,-3.29875 z m -0.3,9.29625 c -0.40125,1.09875 -1.14375,1.855 -1.49875,2.99875 1.1775,-0.065 2.9325,0.8475 3.8975,0 -1.21375,-0.58625 -1.535,-2.06375 -2.39875,-2.99875 z m 3.29875,101.35751 c -2.47625,1.92375 -3.11875,7.275 -2.7,11.09625 2.0975,-2.36375 4.42875,-6.8 2.7,-11.09625 z m 6.89625,-104.95626 c 0.20875,-1.96125 -1.39,-4.7625 -0.29875,-6.5975 -3.2975,-0.2775 -6.05,-0.84875 -8.0975,-0.89875 1.35,1.8075 -0.01125,6.385 -0.89875,8.69625 1.155,2.04375 1.92375,4.47375 4.1975,5.3975 1.94875,-1.6075 4.7625,-3.43625 5.0975,-6.5975 z m -4.4975,105.25626 c -0.1925,1.80875 0.26375,3.37875 0,4.79875 -0.7,3.75625 -3.9375,5.72875 -4.4975,8.3975 1.7125,1.37625 6.73875,0.5125 7.79625,-1.50125 -0.06625,-4.26375 0.64875,-7.7475 1.49875,-11.095 -1.9175,0.1175 -2.72625,-0.87125 -4.7975,-0.6 z m 6.2975,-109.15376 c -0.17875,-0.62125 0.37125,-1.97125 -0.3,-2.09875 0.08125,0.89375 -0.83875,1.825 0.3,2.09875 z m -0.9,118.45001 c 0.7025,-1.99875 1.82875,-5.165 0.9,-7.7975 -0.68375,2.24375 -1.38375,6.18375 -0.9,7.7975 z m 5.9975,-7.4975 c -0.9375,-0.0613 -2.20125,0.2025 -2.6975,-0.3 1.04875,4.69625 -4.35,8.905 -2.4,12.595 7.41375,1.3625 4.39625,-7.67 5.0975,-12.295 z m -3.29875,-113.05126 c -0.75125,3.985 -3.2,11.46 1.49875,11.995 4.1925,0.475 6.26375,-6.545 5.99875,-11.09625 -2.58125,-0.2175 -4.82125,-0.77625 -7.4975,-0.89875 z m 7.4975,114.85126 c -2.25625,1.05625 -2.49125,6.465 -1.2,8.39625 0.8,0 1.6,0 2.39875,0 1.22875,-2.61 0.1,-6.495 -1.19875,-8.39625 z m -9.29625,-117.55126 c 2.6275,1.55 8.2675,2.36625 11.395,0.6 -3.97625,-1.1525 -6.69625,-1.6775 -11.395,-0.6 z m 9.29625,112.45376 c 1.74,-1.16125 2.7975,-4.595 2.99875,-6.2975 -1.1275,1.9725 -2.10875,4.0875 -2.99875,6.2975 z m -0.3,-100.15876 c -0.98625,2.74625 -5.4275,5.6575 -8.39625,3.59875 -1.36375,-0.945 -0.7675,-2.69125 -2.1,-3.9 -0.815,1.585 -2.29875,2.5 -2.99875,4.2 6.8,0.83625 12.215,1.44 18.8925,0.6 -2.8725,-0.42625 -4.19,-2.40625 -5.3975,-4.49875 z m 8.69625,9.59625 c 0.23,1.07 0.77375,1.825 1.49875,2.3975 -0.3725,-0.92625 -0.74,-1.8575 -1.49875,-2.3975 z m 2.99875,76.76751 c -1.12875,0.0712 -1.16875,1.23 -1.5,2.1 1.37125,0.2125 2.3425,-1.0375 1.5,-2.1 z m -1.2,-1.79876 c 0.475,-2.02875 3.06875,-3.525 2.7,-5.3975 -0.87,1.6325 -2.76875,3.8225 -2.7,5.3975 z m -6.59625,-92.66125 c -1.58125,4.3 -3.8525,9.45875 2.09875,10.79625 3.0675,-2.71 6.305,-6.035 8.09625,-10.79625 -4.30375,-0.42625 -6.62375,-0.18875 -10.195,0 z m 0.6,-1.49875 c 2.24375,0 6.9675,0.5525 9.595,-0.60125 0.23375,-0.065 0.35,-0.25125 0.30125,-0.6 -3.425,0.27625 -7.3625,0.0363 -9.89625,1.20125 z m 4.1975,99.85876 c -0.27375,1.225 -1.415,1.58375 -1.49875,2.9975 4.78625,0.2875 8.9375,-1.655 8.09625,-5.9975 0.6375,4.1675 -4.035,4.50625 -6.5975,3 z m 5.3975,-76.17001 c 0.185,0.815 0.595,1.405 1.2,1.8 0.1725,-0.6275 0.74375,-0.85625 0.6,-1.8 -0.70125,-0.0925 -1.23875,-0.58625 -1.8,0 z m 0.6,63.875 c 0.4675,-0.9425 1.97875,-2.4075 1.49875,-3.3 -0.64,0.7675 -2.21875,2.16625 -1.49875,3.3 z m -3.59875,23.08876 c 2.37125,1.4225 6.09125,0.475 5.9975,-2.39875 -2.05,0.74875 -3.78,1.8175 -5.9975,2.39875 z m 4.19875,6.8975 c 0.735,-1.9625 2.13,-3.2675 2.6975,-5.39625 -2.08625,0.415 -2.6725,3.91625 -2.6975,5.39625 z m -0.6,-26.98876 c -0.84875,2.82 2.91875,4.1775 2.99875,6.89751 0.095,3.2425 -2.9875,4.97375 -5.6975,6.59625 8.1,1.81875 7.915,-13.11376 2.69875,-13.49376 z m 2.69875,-50.67875 c 0.13,-0.57125 0.64625,-0.75375 0.59875,-1.49875 -2.8375,-7.05875 -9.24375,-13.14625 -12.29375,-20.99125 -5.11125,-0.31875 -11.8925,-1.955 -17.6925,-0.90125 -3.3775,-1.71375 -10.27125,-2.10875 -14.09375,-1.49875 -4.6025,-1.1525 -9.965,-1.18125 -15.295,-0.89875 -4.8775,7.5175 -9.30125,15.4875 -14.99375,22.19 0.84625,11.32 -2.80375,25.28625 -1.19875,38.685 0.2925,2.43875 1.94,5.16375 1.5,7.79625 4.98875,7.40625 9.71125,15.07626 13.495,23.69001 4.3625,0.55375 11.04125,2.5075 14.6925,0.9 1.975,1.995 7.14,1.795 10.19625,1.2 3.825,2.07125 10.93375,0.86 16.19375,1.49875 3.68875,-7.8275 7.6325,-14.96876 12.295,-21.59251 1.52875,-2.1725 3.9675,-4.18625 4.1975,-7.19625 0.49875,-0.4 1.9075,0.11 1.8,-0.89875 0.46875,-11.71625 2.18,-28.2375 0.59875,-40.48375 z m -9.89625,68.97126 c 7.585,0.86 13.5,-3.9075 12.895,-10.795 -0.14,6.30625 -7.86,10.0225 -14.69375,6.29625 -1.8025,2.3325 -1.97,5.63625 -2.99875,8.0975 3.33125,1.1825 9.16375,7.71125 11.395,0.59875 -2.055,-0.1525 -3.9925,-0.7925 -5.6975,-1.49875 -1.57875,-0.65375 -3.785,-1.10625 -4.4975,-2.69875 0.7125,-1.56375 2.4875,-0.12625 3.5975,0 z m 13.195,-44.68126 c 0.325,0.76875 -0.91125,1.42875 0,1.79875 -0.1475,-0.9475 1.4875,-0.11125 1.2,-1.19875 -0.81875,0.2175 -0.60375,-0.595 -1.2,-0.6 z m -5.0975,-61.175 c -1.64625,3.7525 -4.4925,6.3025 -5.6975,10.49625 -0.7075,0.73375 -0.5575,-0.44875 -1.5,-0.3 -1.06625,1.5775 -0.0225,2.50875 1.2,3.2975 1.6525,-4.20625 8.615,-5.4125 13.495,-4.49625 -2.33,-3.17 -3.98125,-7.01625 -7.4975,-8.9975 z m 5.3975,15.59375 c 0.30625,0.2925 0.60625,0.59375 0.9,0.9 0.1075,2.68375 -0.1125,5.985 -1.5,8.09625 -0.68125,1.0375 -2.46,1.15625 -2.09875,2.39875 3.5175,-1.39 7.279996,-9.89875 2.69875,-11.395 z m -2.69875,91.46251 c 2.77625,-2.3225 3.95375,-6.2425 5.3975,-9.89625 -2.245,2.65375 -4.38875,7.005 -5.3975,9.89625 z m -1.8,-21.59251 c 2.9425,2.55625 4.6125,6.385 6.2975,10.19626 3.659996,-5.92126 -4.39875,-10.09126 -5.0975,-12.59501 -0.44125,0.75875 -1.05875,1.34 -1.2,2.39875 z m -4.7975,-71.06875 c 4.79125,-1.2725 11.3575,-2.33375 13.195,2.09875 2.164996,-6.8325 -10.9175,-7.0075 -13.195,-2.09875 z m 12.595,74.3675 c 0.705,0.29375 0.2675,1.73125 0.89875,2.1 0.964996,-0.79875 -0.4775,-2.745 -0.89875,-2.1 z m 3.297496,0.90125 c -0.37125,1.5325 -2.23625,3.15126 -1.7975,4.49626 0.55625,-1.28625 2.79375,-3.59751 1.7975,-4.49626 z m -7.796246,-60.57625 c 5.38125,-1.59 12.146246,-8.93125 7.197496,-14.39375 0.42875,7.4275 -3.681246,11.91375 -7.197496,14.39375 z m 3.89875,51.27875 c 1.957496,0.91375 4.209996,1.9125 6.297496,1.2 -0.83875,-1.465 -4.2325,-1.96 -6.297496,-1.2 z m 0,-8.99625 c 2.118746,0.45 5.394996,0.9275 6.596246,-0.89875 -1.915,-1.48375 -5.081246,0.0775 -6.596246,0.89875 z m -1.79875,9.89625 c 1.335,3.40125 4.541246,6.4025 7.796246,6.89875 0.795,-1.105 0.7175,-3.08125 1.2,-4.5 -3.5325,-0.265 -6.898746,-0.69875 -8.996246,-2.39875 z m 4.797496,-26.98875 c 1.4125,-0.30375 3.62375,1.42375 4.19875,0 -1.35125,-0.38 -3.05125,-0.965 -4.19875,0 z m -6.897496,14.69375 c 0.55,0.35 1.015,0.785 1.5,1.2 3.02375,-0.65375 6.717496,-2.885 10.194996,-1.2 0.11125,-2.035 -0.265,-2.96375 0,-4.49875 -5.39,-0.65125 -12.008746,-2.9125 -11.694996,4.49875 z m 11.694996,-12.59375 c -3.1725,-0.41 -4.90375,-0.6275 -8.394996,-0.90125 -4.31875,4.24875 2.269996,7.26625 8.094996,5.99875 0.0613,-1.79875 0.39625,-2.63875 0.3,-5.0975 z m -10.494996,15.89375 c -2.15375,2.48 -1.00375,5.5125 1.2,6.29625 1.1,0.39 2.915,-0.47625 4.497496,-0.3 2.04125,0.22875 2.94375,0.94375 4.4975,1.5 -0.0275,-2.43125 1.2,-5.19125 0.3,-7.49625 -2.60625,1.745 -7.784996,1.355 -10.494996,0 z m 5.397496,-26.69 c 1.79875,0.06 4.93625,1.08875 5.39875,-0.9 -1.515,-0.79375 -4.35375,-0.41875 -5.39875,0.9 z m 5.39875,1.49875 c -3.04125,0.50125 -4.80125,-0.15625 -8.097496,0 -0.88625,1.365 -2.81625,4.0275 -1.2,5.99875 2.939996,0.33 6.467496,-2.13875 9.297496,0 0.12875,-2.44375 0.002,-3.3525 0,-5.99875 z m -9.596246,-2.09875 c 2.80875,0.095 6.267496,-3.57625 9.596246,-2.09875 0.0463,-2.1525 -0.18,-4.57625 0.29875,-6.2975 -3.14,2.76625 -11.071246,2.3125 -9.894996,8.39625 z m 8.396246,-24.29 c -1.40375,3.0175 -3.4375,6.135 -5.997496,8.0975 -1.15875,0.8875 -3.06,1.345 -3.29875,2.69875 1.63375,0.4025 3.62375,-1.49625 5.397496,-2.69875 1.955,-1.32625 3.835,-2.9625 5.6975,-3.89875 0.18375,-0.0162 0.355,-0.045 0.3,-0.3 -0.9125,-1.08625 -1.08,-2.9175 -2.09875,-3.89875 z m 1.79875,5.99875 c -3.765,2.9525 -10.686246,4.28 -10.194996,10.495 4.723746,1.02375 5.306246,-4.41375 10.194996,-4.19875 -0.006,-1.87 0.97,-4.2825 0,-6.29625 z M 77.975714,465.2967 c 0.6075,1.87625 0.4925,5.44 -0.6,6.59875 -1.27,0.3025 -4.7075,0.8975 -5.0975,-0.60125 -0.68875,0.41125 -0.96375,1.235 -1.5,1.79875 2.99875,0 5.99875,0 8.99625,0 0.93,0.80375 -0.78625,1.14125 0,1.8 1.1,0 2.2,0 3.29875,0 -1.6,2.44625 -8.98875,1.57 -10.49625,-0.60125 -2.20125,-0.1025 -4.16375,0.035 -5.69625,0.60125 -3.11875,-2.5075 -6.76125,-0.0588 -10.19625,-0.3 -1.255,-0.0887 -2.57375,-1.265 -3.89875,-1.5 -1.18875,-0.20875 -2.4725,0.155 -3.59875,0 -2.40625,-0.3275 -4.8025,-1.5025 -7.19625,-1.79875 -5.825,-0.7225 -12.47625,-0.205 -18.5925,-0.3 -1.35375,-0.655 -0.74,-0.825 -2.39875,-0.3 -1.61,-3.69 -4.235,-6.36 -5.9975,-9.895 -1.93375,0.0337 -3.01125,-0.78875 -4.19875,-1.5 -0.08125,-1.28125 -1.3549997,-3.5425 0.30125,-3.89875 -2.2212497,-9.045 -12.1699997,-15.84751 -11.69624971,-26.68876 0.045,-1.03375 0.83125,-1.5 0.9,-2.09875 0.1075,-0.94625 -1.39374999,-1.74625 -0.3,-2.99875 -0.0775,-0.62375 -1.31749999,-0.0813 -1.49999999,-0.6 1.47249999,-15.60125 3.09375,-31.93875 3.59875,-44.68125 -0.1375,-0.9375 0.64125,-0.95875 1.49875,-0.9 0.04625,-0.39875 -1.21875,-0.90375 -0.3,-1.2 -0.03125,-1.2425 -1.8825,0.5275 -2.0975,-0.89875 6.88625,-10.90625 15.0512497,-23.13125 24.2887497,-32.68625 0.74625,-0.0462 0.92875,0.47 1.49875,0.6 11.50125,-1.52875 22.9625,2.54125 35.08625,0.89875 0.26,-0.54 0.65875,-0.94 1.2,-1.2 5.565,0.3225 11.04625,-1.2175 15.89375,0.60125 0.46875,1.405 -0.95875,1.705 -0.30125,2.39875 4.74875,-0.22125 11.98625,-2.34625 14.99375,0.89875 -0.0225,0.9775 -1.3575,0.64 -2.09875,0.9 1.22125,4.57625 5.33875,6.25625 6.5975,10.795 0.71375,-1.28375 -1.91375,-3.18875 -0.9,-4.7975 1.73875,0.035 1.77375,1.9325 2.39875,2.9975 2.952496,5.03375 5.959996,10.875 8.397496,16.495 0.225,1.07375 1.32875,1.27 1.8,2.09875 -2.8125,11.9925 0.25625,25.62375 -0.9,38.38375 -0.435,4.78625 -1.09375,8.73875 -0.60125,14.395 0.0963,1.09875 -0.06,2.33125 0,3.5975 0.09,1.875 1.46125,4.95 -0.59875,5.3975 -1.5825,-0.92625 -0.3675,-1.92 -0.6,-4.1975 -0.81625,2.80375 -1.575,6.35 -1.5,8.39625 -0.3925,0.385 -1.105,0.385 -1.49875,0 -4.399996,4.09626 -4.521246,12.47126 -9.296246,16.19376 -0.57375,2.12375 -1.3775,4.01875 -2.69875,5.3975 -0.055,1.79125 -1.47875,3.355 -2.39875,4.7975 -0.79375,1.2475 -1.4725,3.54 -2.99875,3.29875 -1.4775,-1.54375 1.4925,-3.6575 1.2,-5.9975 -3.93625,1.87125 -8.4075,-1.19125 -10.49625,-3.8975 0.51375,3.69875 5.3325,5.65 6.8975,9.295 -3.1175,0.39 -4.08125,-3.895 -6.5975,-5.0975"
       style="fill:#231f20;fill-opacity:1;fill-rule:evenodd;stroke:none"
       id="path3502"
       inkscape:connector-curvature="0" />
  </g>
</svg>
