<?xml version="1.0" encoding="UTF-8" standalone="no"?>
<!-- Created with Inkscape (http://www.inkscape.org/) -->

<svg
   xmlns:dc="http://purl.org/dc/elements/1.1/"
   xmlns:cc="http://creativecommons.org/ns#"
   xmlns:rdf="http://www.w3.org/1999/02/22-rdf-syntax-ns#"
   xmlns:svg="http://www.w3.org/2000/svg"
   xmlns="http://www.w3.org/2000/svg"
   xmlns:sodipodi="http://sodipodi.sourceforge.net/DTD/sodipodi-0.dtd"
   xmlns:inkscape="http://www.inkscape.org/namespaces/inkscape"
   width="154.24377"
   height="137.32332"
   id="svg4603"
   version="1.1"
   inkscape:version="0.48.2 r9819"
   sodipodi:docname="guestbook_hover.svg">
  <defs
     id="defs4605" />
  <sodipodi:namedview
     id="base"
     pagecolor="#ffffff"
     bordercolor="#666666"
     borderopacity="1.0"
     inkscape:pageopacity="0.0"
     inkscape:pageshadow="2"
     inkscape:zoom="3.1703064"
     inkscape:cx="67.696043"
     inkscape:cy="85.167518"
     inkscape:document-units="px"
     inkscape:current-layer="layer1"
     showgrid="false"
     fit-margin-top="0"
     fit-margin-left="0"
     fit-margin-right="0"
     fit-margin-bottom="0"
     inkscape:window-width="1325"
     inkscape:window-height="852"
     inkscape:window-x="155"
     inkscape:window-y="42"
     inkscape:window-maximized="0" />
  <metadata
     id="metadata4608">
    <rdf:RDF>
      <cc:Work
         rdf:about="">
        <dc:format>image/svg+xml</dc:format>
        <dc:type
           rdf:resource="http://purl.org/dc/dcmitype/StillImage" />
        <dc:title />
      </cc:Work>
    </rdf:RDF>
  </metadata>
  <g
     inkscape:label="Layer 1"
     inkscape:groupmode="layer"
     id="layer1"
     transform="translate(82.836169,-286.55766)">
    <path
       style="fill:#56008c;fill-opacity:0.39607843;fill-rule:nonzero"
       d="m 111.65719,25.424518 c -7.78361,2.447211 -16.065165,2.310572 -24.1178,1.468889 -6.490284,-0.281229 -13.176171,-1.332426 -19.568831,0.167388 -4.421263,1.038449 -7.764251,4.284079 -10.507659,7.688531 -1.712793,-1.993256 -3.427902,-4.960781 -6.535252,-4.465262 -6.42253,0.960221 -12.953154,-0.578439 -19.379041,0.0099 -1.730057,0.95952 -1.411381,3.463531 -1.951705,5.125687 -0.629886,4.220926 -1.189456,8.891889 0.620997,12.893076 1.32113,2.537876 4.392151,3.114302 6.200111,5.096116 1.564042,2.511558 0.240524,5.686249 0.348731,8.446468 -0.988937,13.622939 -2.861429,27.159343 -4.153569,40.750272 -0.01634,1.86368 2.162081,1.25534 3.035985,0.33514 2.038696,-1.11125 5.418358,-0.60269 5.914254,2.02071 0.788721,3.35868 0.0022,7.03246 -2.247416,9.66981 -1.123043,1.12053 0.164197,2.60504 1.567277,2.23755 10.351844,-0.0988 20.786111,2.36834 31.069552,0.414 4.539489,-0.88109 7.459323,-4.81345 10.734373,-7.58996 1.603769,1.83429 3.039782,4.80318 5.973038,4.16703 9.670721,0.0771 19.375545,0.6641 29.029495,-0.007 1.8439,-0.37863 3.12968,-2.99953 2.10942,-4.5934 -0.46633,-0.38965 -1.52826,-0.98379 -1.57714,-1.29128 1.43277,1.30153 3.10873,0.41851 3.10688,-1.4774 2.05819,-6.715075 4.53489,-13.559735 3.79085,-20.710148 0.068,-3.210614 -1.93046,-6.050182 -4.75965,-7.443158 -1.63469,-0.735093 -3.28084,-2.02969 -3.00266,-4.040666 -0.0529,-8.629945 1.17677,-17.208141 1.85029,-25.796459 -0.36068,-1.861048 -2.40297,-0.582072 -3.42041,-0.069 -2.96985,1.056422 -7.15062,0.180968 -8.5461,-2.858556 -0.19731,-1.598206 0.70388,-3.777459 2.30656,-4.23855 0.99911,0.257763 -0.99609,1.247048 -1.20256,1.853133 -1.83187,2.197305 0.64861,5.239971 3.09512,5.431258 3.37652,0.675813 8.11921,-0.907795 8.31794,-4.893653 0.41039,-3.428665 1.17895,-6.93 1.08573,-10.355268 -1.63007,-2.576437 -3.47026,-5.348668 -6.53525,-6.259253 -0.98695,-0.429932 -1.46611,-1.783683 -2.65156,-1.685562 z"
       id="path8710"
       inkscape:connector-curvature="0"
       transform="translate(-82.836169,286.55766)" />
    <path
       style="fill:#56008c;fill-opacity:0.39607843;fill-rule:nonzero"
       d="m 35.718156,102.81254 c -0.849194,0.88567 0.225222,3.07856 -0.975852,3.59784 -0.894727,-1.43506 -2.92348,-0.68013 -2.700843,0.97585 -0.09918,2.61747 -0.810814,5.41928 -0.108428,7.95468 1.525513,1.58737 4.385353,0.90833 6.062111,-0.19715 3.855976,-2.52663 4.738835,-8.8271 1.370136,-12.06508 -1.074284,-0.49277 -2.545768,-0.65086 -3.647124,-0.26614 z"
       id="path8712"
       inkscape:connector-curvature="0"
       transform="translate(-82.836169,286.55766)" />
    <path
       style="fill:#56008c;fill-opacity:1;fill-rule:nonzero"
       d="m 27.91134,30.106636 c -1.423496,0.212037 -4.274729,-0.561893 -4.035479,1.72484 -6.08e-4,6.111359 -0.478345,12.379176 -3.386911,17.831629 -0.643109,3.899107 2.603083,7.464286 6.10154,8.654527 2.435578,0.0021 1.192693,2.891749 1.578201,4.502653 0.382337,10.674706 0.439117,21.357137 0.462216,32.037585 0.487489,1.233483 2.222244,2.001822 3.538696,1.882704 1.470468,-1.238732 0.747995,-3.620319 1.291217,-5.317852 1.274535,-9.39166 2.167376,-18.824802 2.575522,-28.294028 -0.149419,-3.070376 1.427214,-6.344891 0.09581,-9.276325 -1.780354,-2.7461 -6.426199,-2.677046 -7.028106,-6.387395 -0.927799,-5.325022 -0.339788,-10.810957 1.271565,-15.938917 0.10538,-1.36121 -1.376873,-1.561914 -2.464273,-1.419421 z"
       id="path8714"
       inkscape:connector-curvature="0"
       transform="translate(-82.836169,286.55766)" />
    <path
       style="fill:#56008c;fill-opacity:1;fill-rule:nonzero"
       d="m 18.865752,51.977536 c -1.003274,0.315167 -1.899575,1.377853 -1.78084,2.474355 0.302949,1.376609 1.603098,2.206883 2.474992,3.219576 1.482753,1.467752 2.954983,3.062047 3.589141,5.106203 0.977909,2.650558 1.421421,5.476326 1.317115,8.30468 0.159277,5.348007 -0.803862,10.623469 -1.302916,15.935171 -0.245985,2.701518 -0.578662,5.437434 -0.338523,8.146235 0.346325,0.879938 1.356941,0.695041 2.0457,0.383351 1.031658,-0.353498 2.169485,-0.11173 3.181812,-0.494871 0.711618,-0.697892 0.40075,-1.798861 0.543661,-2.700881 0.178267,-7.708167 -0.346693,-15.400785 -0.722217,-23.087608 -0.189989,-3.045092 -0.03407,-6.096073 -0.0863,-9.141747 0.01963,-0.894507 -0.821328,-1.545877 -1.679774,-1.414914 -1.757284,-0.220277 -3.216307,-1.441432 -4.131087,-2.917611 -0.806273,-1.107426 -1.358207,-2.405659 -2.199719,-3.489527 -0.224339,-0.261444 -0.577806,-0.358438 -0.91104,-0.322412 z"
       id="path9224"
       inkscape:connector-curvature="0"
       transform="translate(-82.836169,286.55766)" />
    <path
       style="fill:#56008c;fill-opacity:1;fill-rule:nonzero"
       d="m 26.501404,95.522712 c -1.165107,0.102564 -2.506506,0.2328 -3.373488,1.094292 -0.54286,0.908172 -0.155241,2.117127 -0.06513,3.127991 0.336308,1.712275 0.617665,3.489325 1.403373,5.061775 0.472625,0.77692 1.752934,0.5064 1.975999,-0.37638 0.8904,-2.43127 1.426053,-4.996867 1.749474,-7.562465 0.05851,-0.962255 -0.811158,-1.485795 -1.690229,-1.345213 z"
       id="path9226"
       inkscape:connector-curvature="0"
       transform="translate(-82.836169,286.55766)" />
    <path
       style="fill:#56008c;fill-opacity:1;fill-rule:nonzero"
       d="m 29.07334,96.000158 c -1.184596,0.222909 -1.092496,1.6568 -1.336754,2.562588 -0.584065,3.154184 -1.895315,6.154764 -2.075069,9.377054 -0.159231,2.02619 0.73224,4.11866 2.437788,5.25303 0.715741,0.42155 1.449745,1.18951 2.333263,0.9731 0.980862,-0.36863 0.689303,-1.60404 0.837474,-2.42348 0.147611,-2.57143 0.371759,-5.15434 0.593291,-7.70436 -0.005,-0.82886 -0.905234,-0.96787 -1.5563,-0.96337 -0.274733,-0.076 -0.876469,-0.28598 -0.341531,-0.5332 0.949095,-0.55798 2.036573,-1.2613 2.188585,-2.46739 0.315304,-1.821944 -1.01909,-3.729895 -2.826341,-4.077457 -0.0848,0.0012 -0.169604,0.0023 -0.254406,0.0035 z"
       id="path9228"
       inkscape:connector-curvature="0"
       transform="translate(-82.836169,286.55766)" />
    <path
       style="fill:#56008c;fill-opacity:1;fill-rule:nonzero"
       d="m 21.197222,98.230563 c -0.937283,0.459325 -1.307204,1.632377 -1.773869,2.516177 -1.266082,2.87888 -1.404636,6.21336 -0.529721,9.22133 0.469024,1.30783 1.104498,2.65606 2.17813,3.56865 1.003727,0.55469 1.741476,-0.58415 2.223435,-1.29294 0.900486,-1.19133 1.580694,-2.72121 1.111717,-4.22731 -0.848918,-2.88769 -1.589874,-5.82125 -1.707654,-8.82056 -0.05617,-0.71311 -0.808985,-1.27013 -1.502038,-0.965347 z"
       id="path9230"
       inkscape:connector-curvature="0"
       transform="translate(-82.836169,286.55766)" />
    <path
       style="fill:#56008c;fill-opacity:1;fill-rule:nonzero"
       d="m 24.47313,111.43526 c -0.929907,0.70922 -2.006618,1.35586 -2.564966,2.41162 -0.256746,1.07078 0.894247,1.70612 1.505068,2.39274 1.341056,1.24164 2.959206,2.54077 4.869011,2.55249 0.955246,-0.17819 2.33053,-0.30626 2.575421,-1.45673 0.07972,-1.13615 -1.063651,-1.80368 -1.756444,-2.53012 -1.158332,-1.01472 -2.485739,-1.87356 -3.312848,-3.19389 -0.336206,-0.39138 -0.882407,-0.42916 -1.315242,-0.17611 z"
       id="path9232"
       inkscape:connector-curvature="0"
       transform="translate(-82.836169,286.55766)" />
    <path
       style="fill:#56008c;fill-opacity:1;fill-rule:nonzero"
       d="m 82.817528,111.27843 c -1.223741,0.11217 -1.93283,1.29475 -2.819186,2.00494 -1.531807,1.4883 -3.039691,3.12418 -5.109207,3.86382 -3.538228,1.47239 -7.435312,1.69253 -11.235666,1.51249 -6.113823,-0.15966 -12.150485,-1.43655 -18.264928,-1.65538 -3.703353,-0.0293 -7.481217,-0.17353 -11.063814,0.93414 -0.915765,0.30857 -2.381296,0.41834 -2.485897,1.62734 0.08542,1.1539 1.455323,1.22335 2.298925,1.55487 6.879929,2.03876 14.156232,1.8332 21.255939,1.57432 7.324826,-0.28053 14.646492,-0.97869 21.987222,-0.63741 0.846542,-0.0178 1.092546,-0.87806 1.052472,-1.58219 0.199426,-1.63727 1.168216,-3.10994 2.544056,-4.01473 1.25699,-0.98448 2.803281,-1.56282 3.99625,-2.61713 0.647579,-0.87127 -0.255314,-1.79146 -0.974748,-2.23749 -0.342217,-0.24611 -0.759316,-0.36837 -1.181418,-0.32759 z"
       id="path9234"
       inkscape:connector-curvature="0"
       transform="translate(-82.836169,286.55766)" />
    <path
       style="fill:#56008c;fill-opacity:1;fill-rule:nonzero"
       d="m 86.518607,114.6101 c -3.618558,0.046 -6.688707,2.95012 -7.654256,6.32044 -0.144501,0.47535 -0.273578,0.95644 -0.368233,1.44416 -6.318056,0.0322 -12.633666,0.20882 -18.94415,0.51471 -8.06285,0.24774 -16.298082,0.52216 -24.115704,-1.72619 -1.326691,-0.26689 -2.626473,-0.86991 -3.990379,-0.92145 -0.660554,0.0449 -0.949754,0.74857 -1.077729,1.33486 -0.348531,1.01587 -0.916042,1.94997 -1.289453,2.94832 -0.146152,0.86792 0.74312,1.37004 1.4978,1.31634 13.673115,1.22644 27.243367,3.83183 40.994835,4.13467 2.602062,0.044 5.19331,0.23631 7.746264,0.71825 1.813158,0.28647 4.068297,0.19961 5.204095,-1.48541 1.119029,-1.46591 1.485631,-3.3654 2.613756,-4.81628 1.563388,-0.95622 3.378828,-1.4752 5.181654,-1.72224 2.919323,-0.26237 5.878734,-0.0586 8.718333,0.65491 6.36947,1.43422 12.45959,3.96419 18.87983,5.27559 0.98199,0.11034 1.96544,0.49943 2.95197,0.38846 0.84644,-0.29809 0.88336,-1.52126 0.10107,-1.92372 -1.25153,-0.73323 -2.5407,-1.5916 -3.30031,-2.85422 -0.88002,-1.86716 -0.4661,-3.99918 -0.7963,-5.9652 -0.42297,-1.01826 -1.72052,-0.52895 -2.57695,-0.5798 -5.93617,0.20723 -11.90113,0.77687 -17.829536,0.25107 -2.896385,-0.36368 -5.826245,-0.84685 -8.541754,-1.96206 -1.077293,-0.57229 -2.105636,-1.43668 -3.404853,-1.34521 z"
       id="path9236"
       inkscape:connector-curvature="0"
       transform="translate(-82.836169,286.55766)" />
    <path
       style="fill:#56008c;fill-opacity:1;fill-rule:nonzero"
       d="m 97.959633,113.9828 c -1.452466,0.0785 -2.954367,-0.002 -4.363231,0.39032 -0.928711,0.33624 -0.853494,1.7747 0.08713,2.04919 1.979575,0.59484 4.079224,0.78041 6.137099,0.95837 4.353843,0.14019 8.720013,-0.0132 13.047873,-0.37986 1.00052,-0.16567 1.09071,-1.6933 0.12546,-1.99691 -1.71641,-0.342 -3.48517,-0.24701 -5.22363,-0.46943 -3.26323,-0.28431 -6.53178,-0.58218 -9.810697,-0.55168 z"
       id="path9238"
       inkscape:connector-curvature="0"
       transform="translate(-82.836169,286.55766)" />
    <path
       style="fill:#56008c;fill-opacity:1;fill-rule:nonzero"
       d="m 117.97403,114.60313 c -1.20517,0.23795 -2.53231,0.0136 -3.65577,0.56806 -0.85678,0.54165 -0.3853,1.91398 0.57503,1.9516 1.19896,0.0833 2.46575,0.2715 3.63835,-0.0453 0.68356,-0.46791 0.95756,-1.74851 0.18819,-2.28965 -0.19564,-0.0732 -0.47302,-0.24176 -0.7458,-0.18471 z"
       id="path9240"
       inkscape:connector-curvature="0"
       transform="translate(-82.836169,286.55766)" />
    <path
       style="fill:#56008c;fill-opacity:1;fill-rule:nonzero"
       d="m 131.61784,112.28212 c -0.89017,0.68524 -0.4783,1.95923 -0.60611,2.92382 0.0285,1.34115 -0.27484,2.69066 -0.11894,4.02089 0.48346,0.84158 0.83606,1.92808 0.27548,2.82376 -0.61288,1.1336 -1.94996,1.54391 -3.04589,2.03873 -0.79922,0.1424 -1.71718,0.0312 -2.28965,-0.62033 -0.63233,-0.60882 -1.09361,-1.53373 -0.89216,-2.42208 0.57488,0.97652 0.75098,2.3665 1.97251,2.80195 1.21357,0.0318 1.60811,-1.35028 2.13979,-2.20601 0.42103,-0.65801 0.79717,-1.60881 0.0592,-2.14328 -2.24421,-1.19915 -4.84803,-1.57933 -7.36034,-1.77039 -0.83905,0.0328 -2.04506,-0.30747 -2.46527,0.63203 -0.13341,0.93055 0.13702,1.87941 0.21744,2.81813 0.3996,3.00529 2.78701,5.38091 5.51329,6.47515 1.93765,0.77536 4.18731,1.00456 6.17891,0.31365 1.82976,-1.02551 3.05111,-2.8961 3.84745,-4.78492 0.22106,-0.54302 0.26157,-1.21521 -0.11152,-1.70068 1.09375,-0.33504 0.75091,-1.58583 0.70398,-2.44648 -0.24495,-2.38665 -0.80345,-5.03667 -2.74619,-6.63894 -0.37839,-0.2993 -0.84017,-0.31539 -1.27203,-0.115 z"
       id="path9242"
       inkscape:connector-curvature="0"
       transform="translate(-82.836169,286.55766)" />
    <path
       style="fill:#56008c;fill-opacity:1;fill-rule:nonzero"
       d="m 119.04742,60.425195 c -0.82211,0.693484 -0.38514,1.894404 -0.53909,2.832469 -0.054,2.958461 -0.21343,5.906276 -0.74737,8.813492 -0.26402,1.739576 -0.1929,3.838345 1.32131,5.015863 1.42148,1.252555 3.42122,1.58018 4.88249,2.735731 1.31587,1.958798 1.85251,4.351537 1.90239,6.684204 0.16022,3.948587 -0.7598,7.822894 -1.87797,11.56229 -1.01769,3.556616 -2.22637,7.069206 -3.20971,10.644226 -0.19015,1.29501 1.71313,1.86905 1.41142,3.19226 -0.0753,1.2206 -1.31155,1.75266 -2.20949,2.30011 -0.6219,0.56169 -0.81218,1.59657 -0.53472,2.35929 0.57547,1.02658 1.99695,0.74013 2.98769,0.86746 2.13986,0.0799 4.27289,0.19823 6.35016,0.76358 0.827,0.27041 1.70683,-0.40134 1.66446,-1.27783 0.0901,-0.96959 0.32243,-1.96292 0.16168,-2.93206 -0.25949,-0.75176 -1.23437,-0.86977 -1.81569,-0.43214 -0.22891,-0.57263 -0.14231,-1.31376 0.48791,-1.58916 0.63087,-0.32835 1.56916,-0.52068 1.51597,-1.42537 -0.0686,-6.19407 -0.78157,-12.400492 -0.35931,-18.588573 0.33467,-3.176241 0.86784,-6.406152 2.07742,-9.36816 0.59292,-1.075347 1.47313,-2.139907 1.27552,-3.457128 0.0256,-2.942693 -2.02518,-5.506013 -4.55183,-6.810683 -0.9954,-0.53599 -2.06869,-0.922035 -3.18489,-1.100286 -0.0569,-3.268007 0.0683,-6.54649 -0.1565,-9.807714 0.0117,-0.898674 -0.91688,-1.281777 -1.69404,-1.128241 -1.61503,0.03982 -3.25211,-0.07993 -4.85322,0.06051 -0.10153,0.02862 -0.20306,0.05724 -0.30459,0.08586 z"
       id="path9244"
       inkscape:connector-curvature="0"
       transform="translate(-82.836169,286.55766)" />
    <path
       style="fill:#56008c;fill-opacity:1;fill-rule:nonzero"
       d="m 132.83759,85.545134 c -1.07126,0.377052 -0.98694,1.736932 -1.22763,2.647089 -0.75801,4.219982 -0.78405,8.528165 -0.47672,12.794327 0.12444,1.03448 -0.007,2.13451 0.31148,3.13052 0.4135,0.97915 1.98457,0.71639 2.1073,-0.31398 0.38142,-2.53427 0.48479,-5.108712 0.73952,-7.659782 0.15907,-3.047528 0.19434,-6.126904 -0.0286,-9.176291 -0.0162,-0.770246 -0.51867,-1.629439 -1.42537,-1.421883 z"
       id="path9246"
       inkscape:connector-curvature="0"
       transform="translate(-82.836169,286.55766)" />
    <path
       style="fill:#56008c;fill-opacity:1;fill-rule:nonzero"
       d="m 132.1615,106.70959 c -0.92614,0.22541 -0.90235,1.36637 -0.94095,2.14676 -0.063,0.96841 -0.34413,2.46021 0.92353,2.73225 0.86468,0.36868 1.86858,-0.43332 1.64144,-1.35218 -0.20393,-1.00217 -0.008,-2.14039 -0.48275,-3.05558 -0.19576,-0.40049 -0.72317,-0.59509 -1.14127,-0.47125 z"
       id="path9248"
       inkscape:connector-curvature="0"
       transform="translate(-82.836169,286.55766)" />
    <path
       style="fill:#56008c;fill-opacity:1;fill-rule:nonzero"
       d="m 131.1206,100.65845 c -0.31006,0.0195 -0.60534,0.19278 -0.77246,0.45484 -0.12131,0.18497 -0.1732,0.40995 -0.15903,0.62975 0.0169,0.45208 0.0226,0.9049 0.0594,1.35597 0.0365,0.436 0.10497,0.87149 0.2352,1.28994 0.16022,0.48188 0.52241,0.89076 0.97599,1.1175 0.0149,0.19493 0.0216,0.39033 0.0436,0.58449 0.0476,0.31477 0.25348,0.60041 0.53838,0.743 0.29277,0.1523 0.66109,0.14539 0.94734,-0.0192 0.27372,-0.15138 0.46461,-0.43821 0.50327,-0.74815 0.0224,-0.2002 0.0172,-0.40221 0.0261,-0.60324 -0.009,-0.0302 0.0209,-0.0375 0.0418,-0.0502 0.50396,-0.29277 0.87363,-0.81237 0.96813,-1.38924 0.067,-0.43789 0.12383,-0.87735 0.17807,-1.31699 0.0367,-0.3242 0.0762,-0.64797 0.10569,-0.97321 0.0236,-0.32283 -0.1201,-0.65081 -0.37478,-0.85098 -0.18244,-0.14861 -0.41927,-0.22321 -0.65409,-0.22331 -0.50293,-0.006 -1.00594,-0.002 -1.5089,-0.003 -0.37702,0.001 -0.75411,-0.002 -1.13108,0.002 -0.008,2.6e-4 -0.0151,5.2e-4 -0.0227,7.8e-4 z"
       id="path9250"
       inkscape:connector-curvature="0"
       transform="translate(-82.836169,286.55766)" />
    <path
       style="fill:#56008c;fill-opacity:1;fill-rule:nonzero"
       d="m 128.73811,31.443127 c -0.94121,0.07424 -2.50438,-0.125771 -2.64663,1.172994 -0.76845,5.709473 -0.43023,11.499828 -0.27107,17.240053 0.40364,6.769508 0.57756,13.549679 0.64564,20.330251 0.16788,1.317473 1.64114,0.790207 2.50863,1.237065 2.69855,0.804117 3.8002,3.672728 5.20455,5.840326 0.78641,1.230115 2.48258,0.315607 2.8142,-0.823067 0.83901,-2.283151 -1.97647,-3.45967 -3.05249,-5.02632 -1.50613,-1.543132 -2.68467,-3.391901 -3.20676,-5.491196 -1.2593,-3.966155 -0.98871,-8.199897 -0.79639,-12.295591 0.54152,-6.537586 1.70711,-13.047498 1.63008,-19.62141 -0.10125,-0.992663 0.0197,-2.693379 -1.38552,-2.629762 -0.48141,0.02222 -0.96283,0.04444 -1.44424,0.06666 z"
       id="path9252"
       inkscape:connector-curvature="0"
       transform="translate(-82.836169,286.55766)" />
    <path
       style="fill:#56008c;fill-opacity:1;fill-rule:nonzero"
       d="m 122.14865,30.072991 c -0.86197,1.875743 -0.48273,4.064076 -0.25993,6.055037 0.59607,2.989953 -0.25777,6.034194 -1.68192,8.661601 -0.74188,2.977174 -0.78174,6.087908 -1.13979,9.128762 -0.18209,1.874874 -0.27499,3.757434 -0.4127,5.627303 -1.24525,0.766176 -0.93887,2.513328 -1.11892,3.749998 -0.0998,3.336371 -0.47263,6.644632 -0.78843,9.961217 -0.19363,1.989187 0.66801,4.081362 2.46428,5.071473 1.31182,0.990953 3.19384,1.260187 4.21883,2.572701 1.66047,2.690937 1.42439,5.966548 1.33564,8.989667 -0.58951,5.107098 -2.44474,9.979906 -3.82786,14.95141 -0.33629,1.47971 -1.09074,2.92813 -1.09576,4.45227 0.227,0.92177 1.14574,1.5476 1.34056,2.43963 -0.0305,1.05657 -1.45646,1.19918 -1.9517,1.99114 -1.34059,1.19951 -1.10341,3.76521 0.70478,4.35683 2.91044,0.48639 5.93211,0.41863 8.82703,1.05964 1.50581,0.27336 2.66183,-1.08497 2.70084,-2.49877 0.0542,-1.30909 0.49652,-3.05643 -0.7245,-3.97241 -0.82198,-0.0635 0.1503,-0.75871 0.43864,-0.483 1.22803,0.96915 3.30037,0.20485 3.58306,-1.29128 -0.0839,-1.34042 -0.15254,-2.76161 -0.55693,-4.01676 0.22012,-0.48523 0.11348,-1.05306 0.64564,-1.36028 0.8238,-1.29642 0.9735,-2.98044 0.76393,-4.47512 -0.0886,-0.69601 -1.03144,-0.92575 -0.61607,-1.705277 0.34555,-4.272302 0.51461,-8.588349 0.14785,-12.863505 -0.17475,-1.057814 -1.20608,-1.962137 -2.30163,-1.813705 0.41372,-1.925713 2.01842,-3.48671 1.88764,-5.534756 0.0135,-3.58619 -2.63256,-6.687053 -5.84526,-8.008887 -0.60324,-0.261325 -1.21462,-0.520073 -1.85806,-0.660425 -0.12132,-3.183196 0.10335,-6.397365 -0.28093,-9.561379 -0.047,-0.792681 -1.10657,-1.040213 -0.88118,-1.867619 -0.38467,-8.914714 -0.92603,-17.90304 0.39818,-26.762303 -0.22387,-1.405211 -1.93732,-1.701053 -2.94727,-2.375559 -0.44961,-0.145144 -0.78146,-0.08844 -1.16806,0.182356 z"
       id="path9254"
       inkscape:connector-curvature="0"
       transform="translate(-82.836169,286.55766)" />
    <path
       style="fill:#56008c;fill-opacity:1;fill-rule:nonzero"
       d="m 58.673062,13.50214 c -2.552418,-0.09007 -3.908848,2.401861 -4.781641,4.422722 -0.464339,1.280793 -1.293365,2.419621 -2.683247,2.763365 -5.267696,2.083869 -10.985027,0.540176 -16.247107,-0.669122 -1.662841,0.02574 -1.477672,2.212354 -2.025956,3.338127 -0.51206,0.938559 -0.696021,2.739608 0.756049,2.722538 5.611921,0.341156 11.51903,0.167346 16.729403,2.519425 1.336761,1.021 3.086531,1.510586 4.69082,0.878222 3.373241,-0.939722 5.813119,-4.119472 6.321805,-7.513677 13.112726,0.230884 26.361168,-1.749607 39.373622,0.327591 3.64297,0.606038 7.2192,2.340268 10.9402,2.07478 1.27198,-0.594799 0.0962,-2.210104 0.57427,-3.266653 0.26664,-0.924879 0.26343,-2.446755 -1.03157,-2.446476 C 98.885706,17.47784 86.562695,15.436267 74.119905,14.582833 69.257574,14.34896 64.385045,14.185444 59.572194,13.50911 c -0.29926,-0.02147 -0.599517,-0.01632 -0.899132,-0.007 z"
       id="path9256"
       inkscape:connector-curvature="0"
       transform="translate(-82.836169,286.55766)" />
    <path
       style="fill:#56008c;fill-opacity:1;fill-rule:nonzero"
       d="m 88.27472,21.517659 c -8.597868,0.191578 -17.182799,0.884936 -25.789059,0.697002 -1.42336,0.199839 -0.760327,1.860538 -1.331273,2.774066 -0.862998,2.891264 -4.24557,3.614447 -6.168465,5.576013 -0.818356,1.672726 2.133929,3.460106 3.310758,1.923724 2.591337,-2.153272 4.839897,-4.999204 8.284297,-5.788492 7.167329,-2.193262 14.686193,-0.423495 21.958603,0.163689 6.427294,0.535958 13.254209,1.246278 19.363909,-1.245933 1.21637,-0.783556 -0.0727,-2.074674 -1.11641,-2.127554 -5.95261,-2.052245 -12.285479,-2.086223 -18.51236,-1.972515 z"
       id="path9258"
       inkscape:connector-curvature="0"
       transform="translate(-82.836169,286.55766)" />
    <path
       style="fill:#56008c;fill-opacity:1;fill-rule:nonzero"
       d="m 35.337448,26.898511 c -1.308759,0.126548 -3.402014,-0.371633 -3.882299,1.289453 -0.28441,1.739709 1.951942,1.784097 3.121627,1.874481 3.963889,0.320889 8.004204,0.473004 11.947548,-0.05531 1.375834,-0.505837 0.545124,-2.281036 -0.669122,-2.279196 C 42.436364,26.8939 38.837268,26.962862 35.337448,26.898511 z"
       id="path9260"
       inkscape:connector-curvature="0"
       transform="translate(-82.836169,286.55766)" />
    <path
       style="fill:#56008c;fill-opacity:1;fill-rule:nonzero"
       d="m 113.51949,19.020302 c -0.71184,0.631385 -0.57777,1.703025 -0.66912,2.575421 -0.0342,0.824755 0.29097,2.056431 1.34024,1.936952 1.07259,-0.251428 1.61645,-1.382984 2.24234,-2.191357 0.5118,-0.645174 0.89529,-1.780626 -0.0279,-2.279196 -0.85373,-0.269761 -1.81969,-0.239458 -2.68833,-0.09742 l -0.10734,0.03026 -0.0899,0.02535 z"
       id="path9262"
       inkscape:connector-curvature="0"
       transform="translate(-82.836169,286.55766)" />
    <path
       style="fill:#56008c;fill-opacity:1;fill-rule:nonzero"
       d="m 119.77856,19.278193 c -1.2554,0.403009 -2.00645,1.630786 -2.8653,2.553938 -0.73865,0.941928 -1.50811,1.85458 -2.48488,2.54672 -0.77289,0.838798 0.19505,1.842298 0.75694,2.507114 0.77648,0.723553 1.97735,0.45452 2.8821,0.153341 1.00801,-0.637594 0.65787,-2.006571 0.81549,-3.007562 -0.0864,-0.440837 0.65508,-0.895092 0.84686,-0.379866 0.4968,0.795917 1.8661,0.961778 2.25829,-0.01394 0.27504,-1.028669 0.29355,-2.140828 0.21258,-3.199238 -0.29866,-0.912319 -1.4185,-1.001624 -2.22692,-1.181417 l -0.11088,0.01188 -0.0843,0.009 z"
       id="path9264"
       inkscape:connector-curvature="0"
       transform="translate(-82.836169,286.55766)" />
    <path
       style="fill:#56008c;fill-opacity:1;fill-rule:nonzero"
       d="m 120.51738,25.606967 c -0.87891,0.359877 -1.38154,1.295083 -2.3001,1.617044 -0.7946,0.224539 -1.27537,1.25875 -0.61685,1.888875 0.7173,0.63249 1.41168,1.279398 2.15722,1.871449 0.84876,0.477229 1.73336,-0.302183 1.65916,-1.194445 0.0957,-1.150994 0.39967,-2.302082 0.32033,-3.458041 -0.17588,-0.488676 -0.68995,-0.864586 -1.21976,-0.724882 z"
       id="path9266"
       inkscape:connector-curvature="0"
       transform="translate(-82.836169,286.55766)" />
    <path
       style="fill:#56008c;fill-opacity:1;fill-rule:nonzero"
       d="m 123.98148,20.449155 c -0.91649,-0.09953 -1.23984,0.854526 -1.24415,1.592649 -0.0342,0.982979 -0.3914,2.029545 -0.0983,2.98402 0.36323,0.879904 1.36486,0.508774 2.07085,0.455683 0.37107,-0.03968 0.61737,0.131836 0.63775,0.515781 0.20169,0.640454 0.65974,1.381887 1.45325,1.198843 1.12248,-0.338657 1.13318,-1.739872 1.43143,-2.670492 0.21136,-0.835783 0.61741,-2.071309 -0.44077,-2.489452 -1.21319,-0.629075 -2.4916,-1.269037 -3.81003,-1.587032 z"
       id="path9268"
       inkscape:connector-curvature="0"
       transform="translate(-82.836169,286.55766)" />
    <path
       style="fill:#56008c;fill-opacity:1;fill-rule:nonzero"
       d="m 128.36214,24.735715 c -0.82906,0.702869 -0.89244,1.92031 -1.26433,2.884781 -0.15554,0.898757 -0.76298,1.920799 -0.23872,2.789544 0.68643,0.765557 1.86902,0.437822 2.76741,0.470854 0.97824,-0.1806 1.09594,-1.38548 1.21696,-2.207119 -0.18341,-1.257847 -0.46763,-2.567091 -1.12217,-3.669714 -0.32227,-0.427406 -0.89538,-0.496252 -1.35915,-0.268346 z"
       id="path9270"
       inkscape:connector-curvature="0"
       transform="translate(-82.836169,286.55766)" />
    <path
       style="fill:#56008c;fill-opacity:1;fill-rule:nonzero"
       d="m 123.71314,19.480323 c -1.197,0.05993 -1.86541,1.284027 -1.9063,2.366321 -0.0992,1.315516 -0.55669,2.825766 0.22652,4.014729 0.57701,0.757194 1.62136,0.720039 2.47436,0.672607 -0.75209,0.129826 -1.68949,0.705318 -1.36264,1.596133 0.41993,1.040225 1.33736,1.925509 2.39071,2.303591 0.49571,-0.07144 0.41445,0.643015 0.83292,0.818977 1.06618,0.871611 2.58009,0.724073 3.837,0.456536 1.39844,-0.639247 1.68935,-2.466778 1.48112,-3.833509 -0.28606,-1.33953 -0.60151,-2.790631 -1.56128,-3.819569 -0.28898,-0.300678 -0.9447,-0.189564 -0.70886,-0.749138 0.10047,-0.960204 -0.48091,-1.862818 -1.37543,-2.214375 -1.35724,-0.671216 -2.75822,-1.439426 -4.27236,-1.615788 l -0.0558,0.0035 z"
       id="path9272"
       inkscape:connector-curvature="0"
       transform="translate(-82.836169,286.55766)" />
    <path
       style="fill:#56008c;fill-opacity:1;fill-rule:nonzero"
       d="m 20.322016,36.278983 c -0.986776,0.799528 -0.429105,2.324469 -0.561907,3.449907 0.166848,1.33651 -0.180874,2.899581 0.675264,4.036554 0.714386,0.752689 1.976044,0.03758 2.015775,-0.936424 0.275512,-1.714328 0.75344,-3.463845 0.591425,-5.204544 -0.293764,-1.024269 -1.754345,-1.674538 -2.720557,-1.345493 z"
       id="path9274"
       inkscape:connector-curvature="0"
       transform="translate(-82.836169,286.55766)" />
    <path
       style="fill:#56008c;fill-opacity:1;fill-rule:nonzero"
       d="m 21.756223,30.625941 c -1.39416,0.0016 -1.83138,1.550001 -1.794963,2.690614 -0.228608,0.975694 0.0018,2.056512 1.070467,2.38086 0.67204,0.659997 2.129127,0.740582 2.217845,-0.443569 -0.0576,-1.344173 0.268298,-2.784322 -0.216856,-4.066051 -0.260985,-0.441748 -0.786984,-0.614366 -1.276493,-0.561854 z"
       id="path9276"
       inkscape:connector-curvature="0"
       transform="translate(-82.836169,286.55766)" />
    <path
       style="fill:#56008c;fill-opacity:1;fill-rule:nonzero"
       d="m 24.082497,17.092155 c -0.901932,0.963976 -0.462868,2.46767 -0.601283,3.666838 0.06709,1.79822 -0.04425,3.663626 0.393223,5.402086 0.791397,0.953469 2.24338,0.249703 3.331868,0.365325 1.509423,-0.202075 3.153208,0.0817 4.57458,-0.538224 0.867835,-0.836134 0.79526,-2.232578 1.265837,-3.295992 0.156143,-1.050829 1.187826,-2.471827 0.02051,-3.263903 -2.767412,-0.905123 -5.567467,-1.822833 -8.393313,-2.528344 -0.197142,0.06407 -0.394284,0.128143 -0.591425,0.192214 z"
       id="path9278"
       inkscape:connector-curvature="0"
       transform="translate(-82.836169,286.55766)" />
    <path
       style="fill:#56008c;fill-opacity:1;fill-rule:nonzero"
       d="m 20.556417,16.009952 c -0.597068,0.231754 -0.764372,0.968745 -0.529722,1.519464 0.497176,1.68662 0.608812,3.451768 0.679577,5.201374 0.03438,0.744666 0.94174,1.266072 1.582744,0.849378 0.687436,-0.419707 0.587326,-1.332098 0.665086,-2.022083 0.07942,-1.474567 0.201016,-2.954258 0.137712,-4.430757 -0.05332,-0.577839 -0.591921,-0.913928 -1.143137,-0.998886 -0.459158,-0.0991 -0.925404,-0.279184 -1.39226,-0.11849 z"
       id="path9280"
       inkscape:connector-curvature="0"
       transform="translate(-82.836169,286.55766)" />
    <path
       style="fill:#56008c;fill-opacity:1;fill-rule:nonzero"
       d="m 21.533571,27.037221 c -0.458295,-0.0096 -0.899625,0.315803 -1.004587,0.765539 -0.0627,0.311542 -0.07118,0.634683 -0.101141,0.951398 -0.02816,0.519964 0.419562,1.000864 0.93886,1.018285 0.303321,-0.0029 0.601955,-0.08295 0.899989,-0.131718 0.460191,-0.09827 0.804203,-0.54049 0.790416,-1.006039 -0.01803,-0.346063 0.0082,-0.72327 -0.152826,-1.035038 -0.171812,-0.338275 -0.554565,-0.54643 -0.934535,-0.54949 -0.14511,-0.01021 -0.290704,-0.01554 -0.436176,-0.01294 z"
       id="path9282"
       inkscape:connector-curvature="0"
       transform="translate(-82.836169,286.55766)" />
    <path
       style="fill:#56008c;fill-opacity:1;fill-rule:nonzero"
       d="m 21.558214,23.178785 c -0.456087,0.08192 -0.810687,0.500922 -0.830575,0.961637 -0.01074,0.515856 -0.04612,1.031794 -0.06378,1.546958 1.54e-4,0.514321 0.460445,0.964692 0.972768,0.966667 0.348996,0.03017 0.73094,-0.05194 0.964561,-0.331527 0.253305,-0.257994 0.283967,-0.638495 0.251684,-0.980659 -0.03959,-0.474263 -0.03371,-0.956166 -0.131205,-1.423372 -0.118874,-0.48136 -0.625835,-0.825059 -1.117297,-0.743885 -0.01538,0.0014 -0.03077,0.0028 -0.04615,0.0042 z"
       id="path9284"
       inkscape:connector-curvature="0"
       transform="translate(-82.836169,286.55766)" />
    <path
       style="fill:#56008c;fill-opacity:1;fill-rule:nonzero"
       d="m 24.632394,27.218961 c -0.457935,0.09279 -0.806985,0.530894 -0.794112,0.99803 -0.02686,0.347327 0.0675,0.722825 0.347906,0.949691 0.2458,0.229933 0.598662,0.269999 0.920459,0.238583 0.388427,-0.026 0.795782,0.01037 1.167569,-0.106458 0.434211,-0.155007 0.723534,-0.639638 0.641265,-1.098422 -0.06311,-0.441679 -0.45012,-0.793038 -0.887692,-0.846505 -0.408541,-0.06444 -0.819827,-0.127872 -1.232001,-0.154174 -0.05447,0.0064 -0.108929,0.01284 -0.163394,0.01926 z"
       id="path9286"
       inkscape:connector-curvature="0"
       transform="translate(-82.836169,286.55766)" />
    <path
       style="fill:#56008c;fill-opacity:1;fill-rule:nonzero"
       d="m 24.766697,26.222778 c -0.707746,-0.01736 -1.366291,0.436799 -1.688027,1.052861 -0.266972,0.489565 -0.280262,1.078579 -0.171267,1.614099 0.166747,0.657687 0.672709,1.232282 1.333172,1.420037 0.450767,0.14728 0.932984,0.07691 1.397746,0.0691 0.463042,-0.01678 0.945997,-0.06977 1.342321,-0.331716 0.253327,-0.162951 0.472259,-0.380863 0.634138,-0.634996 0.816857,0.02548 1.632895,0.104333 2.450104,0.138615 0.409379,0.01351 0.828382,-0.20941 0.992281,-0.594259 0.09956,-0.272425 0.212857,-0.554037 0.214666,-0.848492 -0.0017,-0.482976 -0.397579,-0.921792 -0.878375,-0.970955 -0.375462,-0.02037 -0.752163,0.03652 -1.127918,0.04987 -0.553623,0.0325 -1.113022,0.08025 -1.663079,0.103482 -0.300242,-0.48718 -0.81861,-0.819915 -1.382307,-0.907808 -0.479731,-0.08261 -0.964699,-0.161325 -1.453455,-0.159839 z"
       id="path9288"
       inkscape:connector-curvature="0"
       transform="translate(-82.836169,286.55766)" />
    <path
       style="fill:#56008c;fill-opacity:1;fill-rule:nonzero"
       d="m 123.80094,15.695738 c -0.57668,0.179456 -0.77703,0.80458 -0.73474,1.355123 0.0122,0.598194 -0.15271,1.191499 -0.0482,1.777796 0.21929,0.708029 1.05435,0.716536 1.61918,0.985427 0.84012,0.290797 1.60534,0.766521 2.43623,1.086514 0.65762,0.191405 1.3866,-0.405101 1.27756,-1.091485 -0.38888,-1.650765 -1.70339,-2.931789 -3.15946,-3.716084 -0.43664,-0.216026 -0.87878,-0.532948 -1.39052,-0.397291 z"
       id="path9290"
       inkscape:connector-curvature="0"
       transform="translate(-82.836169,286.55766)" />
    <path
       style="fill:#56008c;fill-opacity:1;fill-rule:nonzero"
       d="m 119.95349,13.883534 c -0.52947,0.295377 -0.56182,0.942464 -0.4757,1.472416 0.0523,0.84947 -0.17138,1.667606 -0.27183,2.503978 -0.007,0.625297 0.58509,1.057754 1.17412,1.053271 0.59878,0.04455 1.34675,0.22458 1.77245,-0.338844 0.44195,-0.627121 0.25842,-1.454115 0.41021,-2.166925 0.0159,-0.613311 0.36378,-1.298166 -0.0865,-1.837989 -0.45233,-0.501006 -1.17881,-0.578024 -1.79094,-0.77826 -0.25995,-0.04148 -0.49008,-0.01196 -0.73185,0.09235 z"
       id="path9292"
       inkscape:connector-curvature="0"
       transform="translate(-82.836169,286.55766)" />
    <path
       style="fill:#56008c;fill-opacity:1;fill-rule:nonzero"
       d="m 117.6743,13.972402 c -1.39547,0.494414 -2.56541,1.53736 -3.37466,2.762635 -0.38663,0.613765 0.0729,1.483276 0.78774,1.541601 0.78141,0.115122 1.56869,0.211497 2.34994,0.302944 0.70984,-0.0011 1.10474,-0.690262 1.24937,-1.299908 0.23001,-0.853477 0.42664,-1.772404 0.23964,-2.648648 -0.1505,-0.5275 -0.73692,-0.81002 -1.25203,-0.658624 z"
       id="path9294"
       inkscape:connector-curvature="0"
       transform="translate(-82.836169,286.55766)" />
    <path
       d="m -61.092492,310.39992 c -0.12,6.1 -1.625,12.94625 -0.6,20.09125 1.64125,-7.02875 1.13375,-11.96125 0.6,-20.09125 z m 5.0975,35.985 c -4.705,-0.19375 -5.9275,-3.8675 -7.79625,-6.8975 -2.1775,1.4725 -0.1,2.55 0.89875,3.59875 1.14375,1.20125 2.61625,2.6025 3.29875,3.8975 6.49,12.32875 -3.09,30.25375 2.1,44.0825 4.70875,-12.3925 0.60375,-30.76625 1.49875,-44.68125 z m 11.695,43.78125 c -0.79625,0.002 -1.7125,-0.11375 -2.09875,0.3 -0.18625,1.015 0.6625,3.25125 -1.5,3.5975 -1.32625,0.42875 -0.78375,-1.01375 -1.79875,-0.89875 -0.21,2.68875 -0.16,5.63875 -0.59875,8.09625 6.37375,2.75625 10.345,-6.85 5.99625,-11.095 z m -6.2975,13.79375 c -0.22,7.54 -7.21375,16.55375 -14.3925,10.49625 -0.975,-3.58625 0.4125,-6.295 1.79875,-8.39625 2.1825,-0.37375 2.91,-1.13 4.7975,-0.6 0.75375,0.7425 2.06,3.45875 0.59875,4.4975 -0.34875,-0.0487 -0.5325,0.0662 -0.59875,0.3 -1.73375,0.235 -1.64875,-1.35 -2.1,-2.39875 -1.7825,0.71625 -2.2825,2.715 -2.0975,5.39875 6.72625,2.66 8.245,-4.89875 9.59375,-9.59625 -1.1925,-2.005 -3.705,-2.69125 -4.7975,-4.79875 -3.04625,1.855 -4.03375,5.12625 -6.89625,6.5975 -10.865,5.58625 -24.37125,-5.8575 -14.99375,-15.29375 3.90625,-1.53 9.1125,2.1725 5.69625,5.0975 -2.305,-0.5125 -1.215,-2.7175 -3.5975,-2.69875 -1.70625,0.015 -2.45375,1.555 -2.69875,2.69875 -1.66625,7.79 7.79625,10.5775 13.49375,8.3975 2.06375,-0.79 7.19125,-5.01875 7.4975,-7.7975 0.10875,-0.99 -0.85375,-3.07375 -1.2,-4.7975 -2.4625,-12.30875 1.305,-23.44375 0.30125,-35.685 -0.57,-6.9225 -4.1475,-10.37125 -8.69625,-13.795 0.37375,-2.2625 4.1475,-2.69875 4.7975,-5.39625 0.24125,-1.00625 -0.21875,-2.2125 -0.30125,-3.59875 -0.55,-9.39625 2.15875,-20.34125 -0.5975,-29.38875 -3.02125,0.1775 -2.02375,4.37625 -5.39875,4.1975 -1.0775,-1.30125 2.6075,-6.635 4.4975,-6.89625 3.9425,-0.545 4.73625,4.6175 4.79875,9.29625 1.0125,-5.74375 -1.07625,-18.10375 4.7975,-18.5925 2.60625,-0.2175 5.03875,3.23625 3.2975,5.39875 -2.07875,0.18 -1.55375,-2.24375 -2.6975,-3 -5.04,6.18625 -1.17125,20.69 -2.4,32.08625 -0.26375,2.46 -1.05375,5.98 -1.7975,8.0975 -0.405,1.1525 -1.44125,1.96875 -1.5,2.99875 -0.26625,4.605 4.455,7.45875 7.7975,7.49625 -0.5025,14.56875 2.50875,31.155 -1.20125,44.0825 -1.445,5.04125 -2.945,9.09625 2.10125,11.395 0.70375,-15.52625 3.7575,-28.65125 4.49625,-44.38125 0.12625,-2.6775 0.07,-5.025 0.3,-7.79625 0.19625,-2.335 1.21375,-4.795 0.30125,-6.59875 -1.0225,-2.0125 -4.73625,-2.2425 -5.9975,-3.8975 -7.1375,-12.31125 7.68125,-30.56375 4.1975,-42.8825 -0.69875,-2.47125 -3.89625,-4.85375 -7.1975,-5.0975 -2.33,-0.1725 -7.4375,0.8225 -7.49625,3.2975 -0.05375,2.20375 2.32,1.02625 1.5,3.3 -4.14875,2.125 -5.065,-4.28625 -2.70125,-6.8975 4.29125,-4.73625 16.15,-1.1525 17.99375,2.99875 1.105,2.4875 0.825,6.15625 0.59875,8.69625 -0.87875,9.94 -7.14625,19.93 -5.995,29.9875 0.135,1.19375 0.46625,2.9675 1.19875,4.1975 1.97125,3.31625 6.225,2.01 6.89625,6.8975 0.34875,2.53875 -0.4275,6.01375 -0.59875,8.99625 -0.675,11.67625 -2.64125,26.82375 -4.19875,39.58375 1.165,-2.6425 7.28875,-3.93875 8.99625,0.3 2.5775,6.40375 -2.38,15.6225 -10.19625,13.49375"
       style="fill:#231f20;fill-opacity:1;fill-rule:evenodd;stroke:none"
       id="path3378"
       inkscape:connector-curvature="0" />
    <path
       d="m 30.493761,402.50242 c -6.1,-0.11875 -12.94625,-1.62375 -20.091253,-0.59875 7.028753,1.64 11.961253,1.1325 20.091253,0.59875 z m -35.9850031,5.0975 c 0.195,-4.70375 3.8675,-5.9275 6.8975,-7.79625 -1.47250002,-2.17625 -2.55,-0.1 -3.59875,0.9 -1.20125,1.14375 -2.6025,2.61625 -3.8975,3.29875 -12.3287499,6.49 -30.2537499,-3.09 -44.0824999,2.09875 12.3925,4.71 30.76625,0.605 44.6812499,1.49875 z m -43.7812499,11.69625 c -0.0025,-0.7975 0.11375,-1.7125 -0.3,-2.1 -1.015,-0.185 -3.25125,0.6625 -3.5975,-1.49875 -0.42875,-1.3275 1.01375,-0.785 0.89875,-1.79875 -2.68875,-0.21 -5.63875,-0.16 -8.09625,-0.6 -2.75625,6.375 6.85,10.345 11.095,5.9975 z m -13.79375,-6.2975 c -7.54,-0.22125 -16.5525,-7.215 -10.49625,-14.39375 3.58625,-0.97375 6.295,0.4125 8.39625,1.8 0.37375,2.1825 1.13,2.91 0.6,4.7975 -0.7425,0.7525 -3.45875,2.06 -4.4975,0.59875 0.04875,-0.34875 -0.06625,-0.53375 -0.3,-0.59875 -0.235,-1.73375 1.35,-1.65 2.39875,-2.1 -0.71625,-1.78375 -2.715,-2.2825 -5.39875,-2.09875 -2.66,6.7275 4.89875,8.24625 9.59625,9.595 2.005,-1.1925 2.69125,-3.70625 4.79875,-4.7975 -1.855,-3.04625 -5.12625,-4.035 -6.5975,-6.8975 -5.58625,-10.865 5.8575,-24.37125 15.29375,-14.99375 1.53,3.90625 -2.1725,9.1125 -5.0975,5.6975 0.5125,-2.30625 2.71875,-1.21625 2.69875,-3.5975 -0.015,-1.70625 -1.555,-2.455 -2.69875,-2.69875 -7.79,-1.66625 -10.5775,7.795 -8.3975,13.49375 0.79,2.0625 5.01875,7.19125 7.7975,7.4975 0.99,0.10875 3.07375,-0.855 4.7975,-1.2 12.30875,-2.46375 23.44375,1.305 35.685,0.3 6.9224999,-0.56875 10.3712499,-4.14625 13.79499988,-8.69625 2.26250002,0.375 2.69875002,4.1475 5.39750002,4.79875 1.005,0.24 2.21125,-0.22 3.5975,-0.30125 9.3962531,-0.55125 20.3412531,2.1575 29.3887531,-0.59875 -0.1775,-3.02125 -4.37625,-2.0225 -4.1975,-5.3975 1.30125,-1.0775 6.635,2.6075 6.89625,4.49625 0.545,3.94375 -4.6175,4.7375 -9.29625,4.79875 5.745,1.01375 18.10375,-1.075 18.5925,4.7975 0.2175,2.60625 -3.23625,5.03875 -5.3975,3.29875 -0.18125,-2.07875 2.2425,-1.55375 2.99875,-2.6975 -6.18625,-5.04125 -20.69,-1.1725 -32.086253,-2.4 -2.46,-0.26375 -5.9800001,-1.05375 -8.0975001,-1.79875 -1.15125,-0.405 -1.96875,-1.44 -2.99875,-1.5 -4.60500002,-0.26625 -7.45875,4.45625 -7.49625,7.7975 -14.5687499,-0.5025 -31.1549999,2.50875 -44.0824999,-1.20125 -5.04125,-1.445 -9.09625,-2.94375 -11.395,2.10125 15.52625,0.705 28.65125,3.75875 44.38125,4.4975 2.6775,0.125 5.0262499,0.0687 7.7962499,0.3 2.335,0.195 4.795,1.21375 6.59874998,0.3 2.01250002,-1.02125 2.24375002,-4.73625 3.89750002,-5.9975 12.3112501,-7.1375 30.5637531,7.6825 42.8825031,4.19875 2.47125,-0.7 4.85375,-3.89625 5.09875,-7.1975 0.17125,-2.33 -0.82375,-7.4375 -3.29875,-7.49625 -2.20375,-0.0537 -1.02625,2.31875 -3.3,1.49875 -2.125,-4.1475 4.28625,-5.065 6.8975,-2.7 4.73625,4.29125 1.1525,16.15 -2.99875,17.9925 -2.4875,1.105 -6.155,0.82625 -8.69625,0.6 -9.94,-0.87875 -19.93,-7.1475 -29.987503,-5.99625 -1.1937501,0.13625 -2.9675001,0.46625 -4.1975001,1.19875 -3.31625,1.97125 -2.01,6.22625 -6.89750002,6.8975 -2.53874998,0.34875 -6.01374998,-0.4275 -8.99624998,-0.6 -11.6762499,-0.675 -26.8237499,-2.64 -39.5837499,-4.1975 2.6425,1.16375 3.93875,7.28875 -0.3,8.995 -6.4025,2.57875 -15.6225,-2.37875 -13.49375,-10.195"
       style="fill:#231f20;fill-opacity:1;fill-rule:evenodd;stroke:none"
       id="path3384"
       inkscape:connector-curvature="0" />
    <path
       d="m 49.663761,392.60242 c 0.12,-6.09875 1.625,-12.94625 0.6,-20.09125 -1.64125,7.02875 -1.1325,11.9625 -0.6,20.09125 z m -5.0975,-35.985 c 4.705,0.195 5.9275,3.8675 7.79625,6.8975 2.1775,-1.4725 0.10125,-2.55 -0.89875,-3.59875 -1.14375,-1.20125 -2.61625,-2.6025 -3.29875,-3.8975 -6.49,-12.3275 3.09,-30.25375 -2.1,-44.0825 -4.70875,12.3925 -0.60375,30.76625 -1.49875,44.68125 z m -11.695,-43.78125 c 0.79625,-0.002 1.7125,0.11375 2.09875,-0.3 0.18625,-1.015 -0.6625,-3.25125 1.5,-3.5975 1.32625,-0.42875 0.785,1.01375 1.79875,0.9 0.21,-2.69 0.16,-5.64 0.6,-8.0975 -6.375,-2.75625 -10.34625,6.85 -5.9975,11.095 z m 6.2975,-13.79375 c 0.22125,-7.53875 7.21375,-16.5525 14.3925,-10.49625 0.975,3.58625 -0.4125,6.295 -1.79875,8.39625 -2.1825,0.37375 -2.91,1.13 -4.7975,0.60125 -0.7525,-0.74375 -2.06,-3.46 -0.59875,-4.49875 0.34875,0.0487 0.5325,-0.0662 0.59875,-0.3 1.73375,-0.235 1.64875,1.35 2.1,2.39875 1.78375,-0.71625 2.2825,-2.715 2.09875,-5.39875 -6.7275,-2.66 -8.24625,4.89875 -9.595,9.59625 1.1925,2.00625 3.70625,2.69125 4.7975,4.79875 3.04625,-1.85375 4.03375,-5.12625 6.89625,-6.59625 10.86625,-5.5875 24.37125,5.85625 14.99375,15.2925 -3.90625,1.53125 -9.1125,-2.1725 -5.69625,-5.0975 2.305,0.5125 1.215,2.71875 3.5975,2.69875 1.70625,-0.015 2.45375,-1.555 2.69875,-2.69875 1.66625,-7.79 -7.79625,-10.5775 -13.49375,-8.3975 -2.06375,0.79 -7.19125,5.01875 -7.4975,7.7975 -0.10875,0.99 0.85375,3.07375 1.2,4.7975 2.4625,12.30875 -1.305,23.44375 -0.3,35.685 0.56875,6.9225 4.14625,10.37125 8.69625,13.795 -0.375,2.2625 -4.14875,2.69875 -4.79875,5.3975 -0.24125,1.005 0.22,2.21125 0.30125,3.5975 0.55,9.39625 -2.15875,20.34125 0.5975,29.38875 3.02125,-0.1775 2.02375,-4.37625 5.39875,-4.1975 1.0775,1.30125 -2.6075,6.635 -4.4975,6.89625 -3.9425,0.545 -4.73625,-4.6175 -4.79875,-9.29625 -1.0125,5.745 1.07625,18.10375 -4.7975,18.5925 -2.60625,0.2175 -5.03875,-3.23625 -3.2975,-5.3975 2.07875,-0.18125 1.55375,2.2425 2.6975,2.99875 5.04,-6.18625 1.17125,-20.69 2.4,-32.08625 0.26375,-2.46 1.05375,-5.98 1.7975,-8.09625 0.40625,-1.1525 1.44125,-1.97 1.50125,-3 0.265,-4.605 -4.45625,-7.45875 -7.79875,-7.49625 0.50375,-14.56875 -2.50875,-31.155 1.20125,-44.0825 1.445,-5.04125 2.945,-9.09625 -2.1,-11.395 -0.705,15.52625 -3.75875,28.65125 -4.4975,44.38125 -0.12625,2.6775 -0.07,5.02625 -0.3,7.79625 -0.19625,2.33625 -1.21375,4.795 -0.30125,6.59875 1.0225,2.0125 4.73625,2.24375 5.9975,3.8975 7.1375,12.31125 -7.68125,30.56375 -4.1975,42.8825 0.69875,2.47125 3.89625,4.85375 7.1975,5.09875 2.33,0.17125 7.4375,-0.82375 7.49625,-3.29875 0.0537,-2.20375 -2.32,-1.02625 -1.49875,-3.3 4.1475,-2.125 5.06375,4.28625 2.7,6.8975 -4.29125,4.73625 -16.15,1.1525 -17.99375,-2.99875 -1.105,-2.4875 -0.825,-6.155 -0.59875,-8.69625 0.87875,-9.94 7.14625,-19.93 5.99625,-29.9875 -0.13625,-1.19375 -0.4675,-2.9675 -1.19875,-4.1975 -1.9725,-3.31625 -6.22625,-2.01 -6.8975,-6.8975 -0.34875,-2.53875 0.4275,-6.01375 0.59875,-8.99625 0.675,-11.67625 2.64125,-26.82375 4.19875,-39.58375 -1.165,2.6425 -7.28875,3.93875 -8.995,-0.3 -2.57875,-6.4025 2.37875,-15.6225 10.195,-13.49375"
       style="fill:#231f20;fill-opacity:1;fill-rule:evenodd;stroke:none"
       id="path3382"
       inkscape:connector-curvature="0" />
    <path
       d="m -56.198742,314.92867 c 6.1,0.11875 12.94625,1.625 20.09125,0.59875 -7.02875,-1.64 -11.96125,-1.1325 -20.09125,-0.59875 z m 35.985,-5.0975 c -0.19375,4.70375 -3.8675,5.9275 -6.8975,7.79625 1.4725,2.17625 2.55,0.1 3.59875,-0.9 1.20125,-1.14375 2.6025,-2.61625 3.8975,-3.2975 12.3287499,-6.49125 30.255,3.08875 44.082503,-2.1 -12.392503,-4.71 -30.7662531,-0.605 -44.681253,-1.49875 z m 43.781253,-11.69625 c 0.003,0.7975 -0.1125,1.7125 0.30125,2.1 1.01375,0.185 3.25,-0.6625 3.59625,1.49875 0.42875,1.3275 -1.01375,0.785 -0.89875,1.8 2.68875,0.21 5.63875,0.15875 8.09625,0.59875 2.75625,-6.375 -6.85,-10.345 -11.095,-5.9975 z m 13.79375,6.2975 c 7.54,0.22125 16.55375,7.215 10.49625,14.39375 -3.58625,0.97375 -6.295,-0.4125 -8.39625,-1.8 -0.37375,-2.1825 -1.13,-2.91 -0.6,-4.79625 0.7425,-0.75375 3.45875,-2.06125 4.4975,-0.6 -0.0487,0.34875 0.0662,0.53375 0.30125,0.6 0.23375,1.7325 -1.35125,1.64875 -2.39875,2.09875 0.715,1.78375 2.715,2.2825 5.3975,2.09875 2.66,-6.7275 -4.89875,-8.24625 -9.59625,-9.595 -2.005,1.1925 -2.69125,3.70625 -4.79875,4.7975 1.855,3.0475 5.12625,4.035 6.5975,6.8975 5.58625,10.865 -5.8575,24.37125 -15.29375,14.99375 -1.53,-3.90625 2.17375,-9.1125 5.0975,-5.6975 -0.5125,2.30625 -2.7175,1.21625 -2.69875,3.5975 0.015,1.70625 1.555,2.455 2.69875,2.69875 7.79,1.66625 10.5775,-7.795 8.3975,-13.49375 -0.79,-2.0625 -5.0175,-7.19125 -7.7975,-7.4975 -0.99,-0.10875 -3.07375,0.855 -4.7975,1.2 -12.308753,2.46375 -23.4437531,-1.305 -35.685003,-0.3 -6.9225,0.56875 -10.37125,4.14625 -13.795,8.69625 -2.26125,-0.375 -2.69875,-4.1475 -5.39625,-4.79875 -1.00625,-0.24 -2.2125,0.22 -3.59875,0.30125 -9.39625,0.55125 -20.34125,-2.1575 -29.38875,0.59875 0.17875,3.02125 4.37625,2.0225 4.1975,5.3975 -1.30125,1.07875 -6.635,-2.6075 -6.89625,-4.49625 -0.545,-3.94375 4.6175,-4.73625 9.29625,-4.79875 -5.74375,-1.01375 -18.10375,1.075 -18.5925,-4.7975 -0.21625,-2.60625 3.23625,-5.03875 5.39875,-3.29875 0.18,2.07875 -2.24375,1.55375 -3,2.6975 6.1875,5.04125 20.69,1.1725 32.08625,2.4 2.46,0.26375 5.98,1.05375 8.0975,1.79875 1.1525,0.405 1.96875,1.44 2.99875,1.5 4.605,0.26625 7.45875,-4.455 7.49625,-7.7975 14.5699999,0.5025 31.1549999,-2.50875 44.082503,1.20125 5.04125,1.445 9.09625,2.94375 11.395,-2.10125 -15.52625,-0.70375 -28.6512531,-3.75875 -44.381253,-4.4975 -2.67625,-0.125 -5.025,-0.0687 -7.79625,-0.3 -2.335,-0.195 -4.795,-1.21375 -6.5975,-0.3 -2.01375,1.02125 -2.24375,4.73625 -3.89875,5.9975 -12.31125,7.1375 -30.56375,-7.6825 -42.8825,-4.19875 -2.47125,0.7 -4.85375,3.8975 -5.0975,7.1975 -0.1725,2.33 0.8225,7.4375 3.2975,7.49625 2.20375,0.0537 1.0275,-2.31875 3.3,-1.49875 2.125,4.1475 -4.28625,5.065 -6.8975,2.7 -4.73625,-4.29 -1.15125,-16.15 2.99875,-17.9925 2.4875,-1.105 6.15625,-0.82625 8.69625,-0.6 9.94,0.87875 19.93,7.1475 29.9875,5.99625 1.19375,-0.135 2.9675,-0.46625 4.1975,-1.19875 3.31625,-1.97125 2.01,-6.225 6.8975,-6.8975 2.53875,-0.34875 6.015,0.4275 8.99625,0.6 11.6762499,0.675 26.82375,2.64 39.583753,4.1975 -2.6425,-1.16375 -3.93875,-7.28875 0.30125,-8.995 6.4025,-2.5775 15.6225,2.37875 13.4925,10.195"
       style="fill:#231f20;fill-opacity:1;fill-rule:evenodd;stroke:none"
       id="path3380"
       inkscape:connector-curvature="0" />
  </g>
</svg>
