<?xml version="1.0" encoding="UTF-8" standalone="no"?>
<!-- Created with Inkscape (http://www.inkscape.org/) -->

<svg
   xmlns:dc="http://purl.org/dc/elements/1.1/"
   xmlns:cc="http://creativecommons.org/ns#"
   xmlns:rdf="http://www.w3.org/1999/02/22-rdf-syntax-ns#"
   xmlns:svg="http://www.w3.org/2000/svg"
   xmlns="http://www.w3.org/2000/svg"
   xmlns:sodipodi="http://sodipodi.sourceforge.net/DTD/sodipodi-0.dtd"
   xmlns:inkscape="http://www.inkscape.org/namespaces/inkscape"
   width="154.24377"
   height="137.32332"
   id="svg4603"
   version="1.1"
   inkscape:version="0.48.2 r9819"
   sodipodi:docname="New document 25">
  <defs
     id="defs4605" />
  <sodipodi:namedview
     id="base"
     pagecolor="#ffffff"
     bordercolor="#666666"
     borderopacity="1.0"
     inkscape:pageopacity="0.0"
     inkscape:pageshadow="2"
     inkscape:zoom="3.1703064"
     inkscape:cx="77.121883"
     inkscape:cy="68.661655"
     inkscape:document-units="px"
     inkscape:current-layer="layer1"
     showgrid="false"
     fit-margin-top="0"
     fit-margin-left="0"
     fit-margin-right="0"
     fit-margin-bottom="0"
     inkscape:window-width="650"
     inkscape:window-height="749"
     inkscape:window-x="20"
     inkscape:window-y="20"
     inkscape:window-maximized="0" />
  <metadata
     id="metadata4608">
    <rdf:RDF>
      <cc:Work
         rdf:about="">
        <dc:format>image/svg+xml</dc:format>
        <dc:type
           rdf:resource="http://purl.org/dc/dcmitype/StillImage" />
        <dc:title></dc:title>
      </cc:Work>
    </rdf:RDF>
  </metadata>
  <g
     inkscape:label="Layer 1"
     inkscape:groupmode="layer"
     id="layer1"
     transform="translate(82.836169,-286.55766)">
    <path
       d="m -61.092492,310.39992 c -0.12,6.1 -1.625,12.94625 -0.6,20.09125 1.64125,-7.02875 1.13375,-11.96125 0.6,-20.09125 z m 5.0975,35.985 c -4.705,-0.19375 -5.9275,-3.8675 -7.79625,-6.8975 -2.1775,1.4725 -0.1,2.55 0.89875,3.59875 1.14375,1.20125 2.61625,2.6025 3.29875,3.8975 6.49,12.32875 -3.09,30.25375 2.1,44.0825 4.70875,-12.3925 0.60375,-30.76625 1.49875,-44.68125 z m 11.695,43.78125 c -0.79625,0.002 -1.7125,-0.11375 -2.09875,0.3 -0.18625,1.015 0.6625,3.25125 -1.5,3.5975 -1.32625,0.42875 -0.78375,-1.01375 -1.79875,-0.89875 -0.21,2.68875 -0.16,5.63875 -0.59875,8.09625 6.37375,2.75625 10.345,-6.85 5.99625,-11.095 z m -6.2975,13.79375 c -0.22,7.54 -7.21375,16.55375 -14.3925,10.49625 -0.975,-3.58625 0.4125,-6.295 1.79875,-8.39625 2.1825,-0.37375 2.91,-1.13 4.7975,-0.6 0.75375,0.7425 2.06,3.45875 0.59875,4.4975 -0.34875,-0.0487 -0.5325,0.0662 -0.59875,0.3 -1.73375,0.235 -1.64875,-1.35 -2.1,-2.39875 -1.7825,0.71625 -2.2825,2.715 -2.0975,5.39875 6.72625,2.66 8.245,-4.89875 9.59375,-9.59625 -1.1925,-2.005 -3.705,-2.69125 -4.7975,-4.79875 -3.04625,1.855 -4.03375,5.12625 -6.89625,6.5975 -10.865,5.58625 -24.37125,-5.8575 -14.99375,-15.29375 3.90625,-1.53 9.1125,2.1725 5.69625,5.0975 -2.305,-0.5125 -1.215,-2.7175 -3.5975,-2.69875 -1.70625,0.015 -2.45375,1.555 -2.69875,2.69875 -1.66625,7.79 7.79625,10.5775 13.49375,8.3975 2.06375,-0.79 7.19125,-5.01875 7.4975,-7.7975 0.10875,-0.99 -0.85375,-3.07375 -1.2,-4.7975 -2.4625,-12.30875 1.305,-23.44375 0.30125,-35.685 -0.57,-6.9225 -4.1475,-10.37125 -8.69625,-13.795 0.37375,-2.2625 4.1475,-2.69875 4.7975,-5.39625 0.24125,-1.00625 -0.21875,-2.2125 -0.30125,-3.59875 -0.55,-9.39625 2.15875,-20.34125 -0.5975,-29.38875 -3.02125,0.1775 -2.02375,4.37625 -5.39875,4.1975 -1.0775,-1.30125 2.6075,-6.635 4.4975,-6.89625 3.9425,-0.545 4.73625,4.6175 4.79875,9.29625 1.0125,-5.74375 -1.07625,-18.10375 4.7975,-18.5925 2.60625,-0.2175 5.03875,3.23625 3.2975,5.39875 -2.07875,0.18 -1.55375,-2.24375 -2.6975,-3 -5.04,6.18625 -1.17125,20.69 -2.4,32.08625 -0.26375,2.46 -1.05375,5.98 -1.7975,8.0975 -0.405,1.1525 -1.44125,1.96875 -1.5,2.99875 -0.26625,4.605 4.455,7.45875 7.7975,7.49625 -0.5025,14.56875 2.50875,31.155 -1.20125,44.0825 -1.445,5.04125 -2.945,9.09625 2.10125,11.395 0.70375,-15.52625 3.7575,-28.65125 4.49625,-44.38125 0.12625,-2.6775 0.07,-5.025 0.3,-7.79625 0.19625,-2.335 1.21375,-4.795 0.30125,-6.59875 -1.0225,-2.0125 -4.73625,-2.2425 -5.9975,-3.8975 -7.1375,-12.31125 7.68125,-30.56375 4.1975,-42.8825 -0.69875,-2.47125 -3.89625,-4.85375 -7.1975,-5.0975 -2.33,-0.1725 -7.4375,0.8225 -7.49625,3.2975 -0.05375,2.20375 2.32,1.02625 1.5,3.3 -4.14875,2.125 -5.065,-4.28625 -2.70125,-6.8975 4.29125,-4.73625 16.15,-1.1525 17.99375,2.99875 1.105,2.4875 0.825,6.15625 0.59875,8.69625 -0.87875,9.94 -7.14625,19.93 -5.995,29.9875 0.135,1.19375 0.46625,2.9675 1.19875,4.1975 1.97125,3.31625 6.225,2.01 6.89625,6.8975 0.34875,2.53875 -0.4275,6.01375 -0.59875,8.99625 -0.675,11.67625 -2.64125,26.82375 -4.19875,39.58375 1.165,-2.6425 7.28875,-3.93875 8.99625,0.3 2.5775,6.40375 -2.38,15.6225 -10.19625,13.49375"
       style="fill:#231f20;fill-opacity:1;fill-rule:evenodd;stroke:none"
       id="path3378"
       inkscape:connector-curvature="0" />
    <path
       d="m -56.198742,314.92867 c 6.1,0.11875 12.94625,1.625 20.09125,0.59875 -7.02875,-1.64 -11.96125,-1.1325 -20.09125,-0.59875 z m 35.985,-5.0975 c -0.19375,4.70375 -3.8675,5.9275 -6.8975,7.79625 1.4725,2.17625 2.55,0.1 3.59875,-0.9 1.20125,-1.14375 2.6025,-2.61625 3.8975,-3.2975 12.3287499,-6.49125 30.255,3.08875 44.082503,-2.1 -12.392503,-4.71 -30.7662531,-0.605 -44.681253,-1.49875 z m 43.781253,-11.69625 c 0.003,0.7975 -0.1125,1.7125 0.30125,2.1 1.01375,0.185 3.25,-0.6625 3.59625,1.49875 0.42875,1.3275 -1.01375,0.785 -0.89875,1.8 2.68875,0.21 5.63875,0.15875 8.09625,0.59875 2.75625,-6.375 -6.85,-10.345 -11.095,-5.9975 z m 13.79375,6.2975 c 7.54,0.22125 16.55375,7.215 10.49625,14.39375 -3.58625,0.97375 -6.295,-0.4125 -8.39625,-1.8 -0.37375,-2.1825 -1.13,-2.91 -0.6,-4.79625 0.7425,-0.75375 3.45875,-2.06125 4.4975,-0.6 -0.0487,0.34875 0.0662,0.53375 0.30125,0.6 0.23375,1.7325 -1.35125,1.64875 -2.39875,2.09875 0.715,1.78375 2.715,2.2825 5.3975,2.09875 2.66,-6.7275 -4.89875,-8.24625 -9.59625,-9.595 -2.005,1.1925 -2.69125,3.70625 -4.79875,4.7975 1.855,3.0475 5.12625,4.035 6.5975,6.8975 5.58625,10.865 -5.8575,24.37125 -15.29375,14.99375 -1.53,-3.90625 2.17375,-9.1125 5.0975,-5.6975 -0.5125,2.30625 -2.7175,1.21625 -2.69875,3.5975 0.015,1.70625 1.555,2.455 2.69875,2.69875 7.79,1.66625 10.5775,-7.795 8.3975,-13.49375 -0.79,-2.0625 -5.0175,-7.19125 -7.7975,-7.4975 -0.99,-0.10875 -3.07375,0.855 -4.7975,1.2 -12.308753,2.46375 -23.4437531,-1.305 -35.685003,-0.3 -6.9225,0.56875 -10.37125,4.14625 -13.795,8.69625 -2.26125,-0.375 -2.69875,-4.1475 -5.39625,-4.79875 -1.00625,-0.24 -2.2125,0.22 -3.59875,0.30125 -9.39625,0.55125 -20.34125,-2.1575 -29.38875,0.59875 0.17875,3.02125 4.37625,2.0225 4.1975,5.3975 -1.30125,1.07875 -6.635,-2.6075 -6.89625,-4.49625 -0.545,-3.94375 4.6175,-4.73625 9.29625,-4.79875 -5.74375,-1.01375 -18.10375,1.075 -18.5925,-4.7975 -0.21625,-2.60625 3.23625,-5.03875 5.39875,-3.29875 0.18,2.07875 -2.24375,1.55375 -3,2.6975 6.1875,5.04125 20.69,1.1725 32.08625,2.4 2.46,0.26375 5.98,1.05375 8.0975,1.79875 1.1525,0.405 1.96875,1.44 2.99875,1.5 4.605,0.26625 7.45875,-4.455 7.49625,-7.7975 14.5699999,0.5025 31.1549999,-2.50875 44.082503,1.20125 5.04125,1.445 9.09625,2.94375 11.395,-2.10125 -15.52625,-0.70375 -28.6512531,-3.75875 -44.381253,-4.4975 -2.67625,-0.125 -5.025,-0.0687 -7.79625,-0.3 -2.335,-0.195 -4.795,-1.21375 -6.5975,-0.3 -2.01375,1.02125 -2.24375,4.73625 -3.89875,5.9975 -12.31125,7.1375 -30.56375,-7.6825 -42.8825,-4.19875 -2.47125,0.7 -4.85375,3.8975 -5.0975,7.1975 -0.1725,2.33 0.8225,7.4375 3.2975,7.49625 2.20375,0.0537 1.0275,-2.31875 3.3,-1.49875 2.125,4.1475 -4.28625,5.065 -6.8975,2.7 -4.73625,-4.29 -1.15125,-16.15 2.99875,-17.9925 2.4875,-1.105 6.15625,-0.82625 8.69625,-0.6 9.94,0.87875 19.93,7.1475 29.9875,5.99625 1.19375,-0.135 2.9675,-0.46625 4.1975,-1.19875 3.31625,-1.97125 2.01,-6.225 6.8975,-6.8975 2.53875,-0.34875 6.015,0.4275 8.99625,0.6 11.6762499,0.675 26.82375,2.64 39.583753,4.1975 -2.6425,-1.16375 -3.93875,-7.28875 0.30125,-8.995 6.4025,-2.5775 15.6225,2.37875 13.4925,10.195"
       style="fill:#231f20;fill-opacity:1;fill-rule:evenodd;stroke:none"
       id="path3380"
       inkscape:connector-curvature="0" />
    <path
       d="m 49.663761,392.60242 c 0.12,-6.09875 1.625,-12.94625 0.6,-20.09125 -1.64125,7.02875 -1.1325,11.9625 -0.6,20.09125 z m -5.0975,-35.985 c 4.705,0.195 5.9275,3.8675 7.79625,6.8975 2.1775,-1.4725 0.10125,-2.55 -0.89875,-3.59875 -1.14375,-1.20125 -2.61625,-2.6025 -3.29875,-3.8975 -6.49,-12.3275 3.09,-30.25375 -2.1,-44.0825 -4.70875,12.3925 -0.60375,30.76625 -1.49875,44.68125 z m -11.695,-43.78125 c 0.79625,-0.002 1.7125,0.11375 2.09875,-0.3 0.18625,-1.015 -0.6625,-3.25125 1.5,-3.5975 1.32625,-0.42875 0.785,1.01375 1.79875,0.9 0.21,-2.69 0.16,-5.64 0.6,-8.0975 -6.375,-2.75625 -10.34625,6.85 -5.9975,11.095 z m 6.2975,-13.79375 c 0.22125,-7.53875 7.21375,-16.5525 14.3925,-10.49625 0.975,3.58625 -0.4125,6.295 -1.79875,8.39625 -2.1825,0.37375 -2.91,1.13 -4.7975,0.60125 -0.7525,-0.74375 -2.06,-3.46 -0.59875,-4.49875 0.34875,0.0487 0.5325,-0.0662 0.59875,-0.3 1.73375,-0.235 1.64875,1.35 2.1,2.39875 1.78375,-0.71625 2.2825,-2.715 2.09875,-5.39875 -6.7275,-2.66 -8.24625,4.89875 -9.595,9.59625 1.1925,2.00625 3.70625,2.69125 4.7975,4.79875 3.04625,-1.85375 4.03375,-5.12625 6.89625,-6.59625 10.86625,-5.5875 24.37125,5.85625 14.99375,15.2925 -3.90625,1.53125 -9.1125,-2.1725 -5.69625,-5.0975 2.305,0.5125 1.215,2.71875 3.5975,2.69875 1.70625,-0.015 2.45375,-1.555 2.69875,-2.69875 1.66625,-7.79 -7.79625,-10.5775 -13.49375,-8.3975 -2.06375,0.79 -7.19125,5.01875 -7.4975,7.7975 -0.10875,0.99 0.85375,3.07375 1.2,4.7975 2.4625,12.30875 -1.305,23.44375 -0.3,35.685 0.56875,6.9225 4.14625,10.37125 8.69625,13.795 -0.375,2.2625 -4.14875,2.69875 -4.79875,5.3975 -0.24125,1.005 0.22,2.21125 0.30125,3.5975 0.55,9.39625 -2.15875,20.34125 0.5975,29.38875 3.02125,-0.1775 2.02375,-4.37625 5.39875,-4.1975 1.0775,1.30125 -2.6075,6.635 -4.4975,6.89625 -3.9425,0.545 -4.73625,-4.6175 -4.79875,-9.29625 -1.0125,5.745 1.07625,18.10375 -4.7975,18.5925 -2.60625,0.2175 -5.03875,-3.23625 -3.2975,-5.3975 2.07875,-0.18125 1.55375,2.2425 2.6975,2.99875 5.04,-6.18625 1.17125,-20.69 2.4,-32.08625 0.26375,-2.46 1.05375,-5.98 1.7975,-8.09625 0.40625,-1.1525 1.44125,-1.97 1.50125,-3 0.265,-4.605 -4.45625,-7.45875 -7.79875,-7.49625 0.50375,-14.56875 -2.50875,-31.155 1.20125,-44.0825 1.445,-5.04125 2.945,-9.09625 -2.1,-11.395 -0.705,15.52625 -3.75875,28.65125 -4.4975,44.38125 -0.12625,2.6775 -0.07,5.02625 -0.3,7.79625 -0.19625,2.33625 -1.21375,4.795 -0.30125,6.59875 1.0225,2.0125 4.73625,2.24375 5.9975,3.8975 7.1375,12.31125 -7.68125,30.56375 -4.1975,42.8825 0.69875,2.47125 3.89625,4.85375 7.1975,5.09875 2.33,0.17125 7.4375,-0.82375 7.49625,-3.29875 0.0537,-2.20375 -2.32,-1.02625 -1.49875,-3.3 4.1475,-2.125 5.06375,4.28625 2.7,6.8975 -4.29125,4.73625 -16.15,1.1525 -17.99375,-2.99875 -1.105,-2.4875 -0.825,-6.155 -0.59875,-8.69625 0.87875,-9.94 7.14625,-19.93 5.99625,-29.9875 -0.13625,-1.19375 -0.4675,-2.9675 -1.19875,-4.1975 -1.9725,-3.31625 -6.22625,-2.01 -6.8975,-6.8975 -0.34875,-2.53875 0.4275,-6.01375 0.59875,-8.99625 0.675,-11.67625 2.64125,-26.82375 4.19875,-39.58375 -1.165,2.6425 -7.28875,3.93875 -8.995,-0.3 -2.57875,-6.4025 2.37875,-15.6225 10.195,-13.49375"
       style="fill:#231f20;fill-opacity:1;fill-rule:evenodd;stroke:none"
       id="path3382"
       inkscape:connector-curvature="0" />
    <path
       d="m 30.493761,402.50242 c -6.1,-0.11875 -12.94625,-1.62375 -20.091253,-0.59875 7.028753,1.64 11.961253,1.1325 20.091253,0.59875 z m -35.9850031,5.0975 c 0.195,-4.70375 3.8675,-5.9275 6.8975,-7.79625 -1.47250002,-2.17625 -2.55,-0.1 -3.59875,0.9 -1.20125,1.14375 -2.6025,2.61625 -3.8975,3.29875 -12.3287499,6.49 -30.2537499,-3.09 -44.0824999,2.09875 12.3925,4.71 30.76625,0.605 44.6812499,1.49875 z m -43.7812499,11.69625 c -0.0025,-0.7975 0.11375,-1.7125 -0.3,-2.1 -1.015,-0.185 -3.25125,0.6625 -3.5975,-1.49875 -0.42875,-1.3275 1.01375,-0.785 0.89875,-1.79875 -2.68875,-0.21 -5.63875,-0.16 -8.09625,-0.6 -2.75625,6.375 6.85,10.345 11.095,5.9975 z m -13.79375,-6.2975 c -7.54,-0.22125 -16.5525,-7.215 -10.49625,-14.39375 3.58625,-0.97375 6.295,0.4125 8.39625,1.8 0.37375,2.1825 1.13,2.91 0.6,4.7975 -0.7425,0.7525 -3.45875,2.06 -4.4975,0.59875 0.04875,-0.34875 -0.06625,-0.53375 -0.3,-0.59875 -0.235,-1.73375 1.35,-1.65 2.39875,-2.1 -0.71625,-1.78375 -2.715,-2.2825 -5.39875,-2.09875 -2.66,6.7275 4.89875,8.24625 9.59625,9.595 2.005,-1.1925 2.69125,-3.70625 4.79875,-4.7975 -1.855,-3.04625 -5.12625,-4.035 -6.5975,-6.8975 -5.58625,-10.865 5.8575,-24.37125 15.29375,-14.99375 1.53,3.90625 -2.1725,9.1125 -5.0975,5.6975 0.5125,-2.30625 2.71875,-1.21625 2.69875,-3.5975 -0.015,-1.70625 -1.555,-2.455 -2.69875,-2.69875 -7.79,-1.66625 -10.5775,7.795 -8.3975,13.49375 0.79,2.0625 5.01875,7.19125 7.7975,7.4975 0.99,0.10875 3.07375,-0.855 4.7975,-1.2 12.30875,-2.46375 23.44375,1.305 35.685,0.3 6.9224999,-0.56875 10.3712499,-4.14625 13.79499988,-8.69625 2.26250002,0.375 2.69875002,4.1475 5.39750002,4.79875 1.005,0.24 2.21125,-0.22 3.5975,-0.30125 9.3962531,-0.55125 20.3412531,2.1575 29.3887531,-0.59875 -0.1775,-3.02125 -4.37625,-2.0225 -4.1975,-5.3975 1.30125,-1.0775 6.635,2.6075 6.89625,4.49625 0.545,3.94375 -4.6175,4.7375 -9.29625,4.79875 5.745,1.01375 18.10375,-1.075 18.5925,4.7975 0.2175,2.60625 -3.23625,5.03875 -5.3975,3.29875 -0.18125,-2.07875 2.2425,-1.55375 2.99875,-2.6975 -6.18625,-5.04125 -20.69,-1.1725 -32.086253,-2.4 -2.46,-0.26375 -5.9800001,-1.05375 -8.0975001,-1.79875 -1.15125,-0.405 -1.96875,-1.44 -2.99875,-1.5 -4.60500002,-0.26625 -7.45875,4.45625 -7.49625,7.7975 -14.5687499,-0.5025 -31.1549999,2.50875 -44.0824999,-1.20125 -5.04125,-1.445 -9.09625,-2.94375 -11.395,2.10125 15.52625,0.705 28.65125,3.75875 44.38125,4.4975 2.6775,0.125 5.0262499,0.0687 7.7962499,0.3 2.335,0.195 4.795,1.21375 6.59874998,0.3 2.01250002,-1.02125 2.24375002,-4.73625 3.89750002,-5.9975 12.3112501,-7.1375 30.5637531,7.6825 42.8825031,4.19875 2.47125,-0.7 4.85375,-3.89625 5.09875,-7.1975 0.17125,-2.33 -0.82375,-7.4375 -3.29875,-7.49625 -2.20375,-0.0537 -1.02625,2.31875 -3.3,1.49875 -2.125,-4.1475 4.28625,-5.065 6.8975,-2.7 4.73625,4.29125 1.1525,16.15 -2.99875,17.9925 -2.4875,1.105 -6.155,0.82625 -8.69625,0.6 -9.94,-0.87875 -19.93,-7.1475 -29.987503,-5.99625 -1.1937501,0.13625 -2.9675001,0.46625 -4.1975001,1.19875 -3.31625,1.97125 -2.01,6.22625 -6.89750002,6.8975 -2.53874998,0.34875 -6.01374998,-0.4275 -8.99624998,-0.6 -11.6762499,-0.675 -26.8237499,-2.64 -39.5837499,-4.1975 2.6425,1.16375 3.93875,7.28875 -0.3,8.995 -6.4025,2.57875 -15.6225,-2.37875 -13.49375,-10.195"
       style="fill:#231f20;fill-opacity:1;fill-rule:evenodd;stroke:none"
       id="path3384"
       inkscape:connector-curvature="0" />
  </g>
</svg>
