<?xml version="1.0" encoding="UTF-8" standalone="no"?>
<!-- Created with Inkscape (http://www.inkscape.org/) -->

<svg
   xmlns:dc="http://purl.org/dc/elements/1.1/"
   xmlns:cc="http://creativecommons.org/ns#"
   xmlns:rdf="http://www.w3.org/1999/02/22-rdf-syntax-ns#"
   xmlns:svg="http://www.w3.org/2000/svg"
   xmlns="http://www.w3.org/2000/svg"
   xmlns:sodipodi="http://sodipodi.sourceforge.net/DTD/sodipodi-0.dtd"
   xmlns:inkscape="http://www.inkscape.org/namespaces/inkscape"
   width="158.9296"
   height="161.35097"
   id="svg5127"
   version="1.1"
   inkscape:version="0.48.2 r9819"
   sodipodi:docname="photos_hover.svg">
  <defs
     id="defs5129" />
  <sodipodi:namedview
     id="base"
     pagecolor="#ffffff"
     bordercolor="#666666"
     borderopacity="1.0"
     inkscape:pageopacity="0.0"
     inkscape:pageshadow="2"
     inkscape:zoom="2.8"
     inkscape:cx="77.891195"
     inkscape:cy="80.675486"
     inkscape:document-units="px"
     inkscape:current-layer="layer1"
     showgrid="false"
     fit-margin-top="0"
     fit-margin-left="0"
     fit-margin-right="0"
     fit-margin-bottom="0"
     inkscape:window-width="1432"
     inkscape:window-height="813"
     inkscape:window-x="20"
     inkscape:window-y="20"
     inkscape:window-maximized="0" />
  <metadata
     id="metadata5132">
    <rdf:RDF>
      <cc:Work
         rdf:about="">
        <dc:format>image/svg+xml</dc:format>
        <dc:type
           rdf:resource="http://purl.org/dc/dcmitype/StillImage" />
        <dc:title />
      </cc:Work>
    </rdf:RDF>
  </metadata>
  <g
     inkscape:label="Layer 1"
     inkscape:groupmode="layer"
     id="layer1"
     transform="translate(28.036223,-308.82955)">
    <path
       sodipodi:type="arc"
       style="fill:#56008c;fill-opacity:0.39607843;fill-rule:nonzero"
       id="path9875"
       sodipodi:cx="87.321426"
       sodipodi:cy="104.56525"
       sodipodi:rx="45.17857"
       sodipodi:ry="58.57143"
       d="m 132.5,104.56525 a 45.17857,58.57143 0 1 1 -90.357143,0 45.17857,58.57143 0 1 1 90.357143,0 z"
       transform="matrix(1.4545454,0,0,1.2347561,-76.120125,263.14246)" />
    <path
       d="m 126.80306,403.82061 c 0.41375,-2.7325 1.305,-1.61 1.49875,-3.59875 0.30125,-3.11875 -1.66,-7.33 -4.19875,-7.79625 -5.39625,-0.99125 -9.795,4.0425 -16.19375,3.29875 -3.06875,-0.3575 -7.36125,-2.5675 -8.995003,-5.09875 -3.0875,-4.7825 0.36875,-13.94375 5.396253,-15.5925 3.3125,-1.085 7.44125,-0.54125 9.2975,2.0975 2.9025,4.13125 0.67,9.57375 -2.69875,10.1975 -2.93125,0.54125 -7.02125,-1.545 -6.59875,-4.79875 0.42125,-3.225 4.63625,-2.9875 5.99875,-2.09875 0.34,2.13875 -2.9375,0.66 -3.29875,2.09875 0.0425,1.7575 1.66875,1.93 2.69875,2.69875 4.90625,-2.74625 1.6225,-9.43125 -3.59875,-8.39625 -2.81375,0.55875 -5.07375,3.885 -5.3975,4.7975 -2.320003,6.54375 2.9375,11.51 8.09625,11.99625 6.915,0.65 13.06625,-6.67375 18.8925,-2.1 2.86625,2.25125 5.83625,13.665 -0.89875,12.295"
       style="fill:#231f20;fill-opacity:1;fill-rule:evenodd;stroke:none"
       id="path3082"
       inkscape:connector-curvature="0" />
    <path
       d="m 92.915557,441.90562 c -2.12125,-0.7925 -1.805,-3.8425 -1.49875,-5.69875 0.775,-4.6975 4.5075,-9.28875 11.095003,-8.69625 4.40125,0.3975 8.84,4.4275 14.09375,3.89875 3.94625,-0.39625 9.7175,-3.70125 8.3975,-9.89625 -1.51625,-7.11625 -15.89,-2.28375 -7.79625,3.29875 2.69,-0.4625 1.74875,-2.41375 2.39875,-3.8975 0.94875,-0.4125 1.00125,-0.0663 2.09875,0 2.24875,5.575 -7.1025,7.925 -9.29625,2.9975 -2.21875,-10.58 13.745,-9.91375 14.99375,-3.59875 1.85375,9.37875 -6.9625,14.93375 -15.89375,12.89625 -4.62375,-1.05625 -8.50125,-5.33 -14.093753,-3 -2.48125,1.035 -3.68625,3.96 -3.8975,6.5975 -0.1375,1.70875 1.1,3.9125 -0.60125,5.09875"
       style="fill:#231f20;fill-opacity:1;fill-rule:evenodd;stroke:none"
       id="path3084"
       inkscape:connector-curvature="0" />
    <path
       d="m 120.50431,405.62061 c -1.34625,1.00875 -3.56125,-0.51 -4.7975,0.3 -0.91875,1.63 0.23,3.48501 1.2,4.19751 6.70875,1.2375 7.72875,-7.84251 4.1975,-10.79626 -4.41,-1.02875 -7.96,0.63625 -10.49625,2.4 -3.35625,4.10875 -5.16875,14.11126 -2.3975,20.39126 0.78875,1.79 2.56125,2.33875 2.09875,4.1975 -4.03125,0.935 -5.3225,-4.76375 -5.6975,-7.49625 -1.26875,-9.21375 2.2425,-20.24001 10.795,-21.59001 2.915,-0.46 6.5375,-0.495 8.39625,1.19875 4.77625,4.34875 0.68625,15.63251 -7.1975,14.09376 -1.6575,-0.32375 -5.025,-2.96375 -3.8975,-6.59626 0.76875,-2.4775 7.26375,-3.585 7.79625,-0.3"
       style="fill:#231f20;fill-opacity:1;fill-rule:evenodd;stroke:none"
       id="path3086"
       inkscape:connector-curvature="0" />
    <path
       d="m 118.10681,385.52811 c -0.45875,-1.6575 1.33,-1.0675 1.1975,-2.39875 1.865,-17.7925 -19.28,-19.29125 -22.188753,-32.0875 -0.66375,-2.915 1.42875,-7.535 3.597503,-8.69625 6.79125,-3.63375 16.39375,2.19 16.49375,8.69625 0.0238,1.64125 -0.74,5.1125 -3,5.99875 -2.84,1.1125 -7.2975,-0.98875 -7.49625,-3.89875 -0.22375,-3.2775 4.6425,-5.835 6.29625,-2.1 -0.5575,1.50625 -1.96,0.4525 -3.5975,0.60125 -0.3725,2.765 2.33375,3.93875 4.19875,2.6975 4.0725,-5.3275 -5.3925,-13.69375 -11.69625,-9.895 -6.615003,3.98625 1.72,13.0225 5.69875,16.19375 5.69875,4.54125 10.145,6.46 12.89375,14.39375 1.2925,3.725 3.76375,11.0425 -2.3975,10.495"
       style="fill:#231f20;fill-opacity:1;fill-rule:evenodd;stroke:none"
       id="path3088"
       inkscape:connector-curvature="0" />
    <path
       d="m 69.225561,450.30187 c -3.17,5.1225 -1.08375,12.36875 3.598746,14.09375 9.65125,3.555 14.365,-12.93125 2.1,-11.395 -2.966246,1.82125 -1.95625,7.0975 1.2,7.1975 2.23625,0.07 4.33375,-2.81 2.69875,-5.69875 4.525,1.85 0.53375,7.185 -2.1,7.4975 -6.643746,0.78625 -7.427496,-9.11625 -1.49875,-10.79625 9.63375,-2.915 12.36375,11.68375 3.8975,14.99375 -9.252496,3.61875 -17.884996,-7.71125 -12.593746,-15.8925 2.18625,-3.3825 12.723746,-5.98375 18.292496,-3.29875 4.61875,2.2275 13.46,12.24375 20.991253,8.39625 2.7925,-1.4275 4.87375,-9.41 1.79875,-13.49375 -1.4075,-1.87 -6.75375,-2.56875 -7.796253,-2.1 -3.245,1.45875 -2.89625,6.64125 -0.30125,9.29625 5.653753,0.37625 3.527503,-4.25625 0,-3.89875 0.0888,-3.15875 5.871253,-1.5575 6.298753,0.9 0.65875,3.79375 -3.0175,6.0475 -6.298753,5.39875 -6.3175,-1.25125 -5.71125,-12.8625 0.600003,-14.095 14.475,-2.82625 14.135,19.155 4.1975,20.69125 -5.125003,0.7925 -10.032503,-1.91125 -13.793753,-4.1975 -2.48375,-1.51 -4.80375,-4.23875 -7.49625,-5.09875 -4.49375,-1.43375 -8.775,-0.7925 -13.794996,1.5"
       style="fill:#231f20;fill-opacity:1;fill-rule:evenodd;stroke:none"
       id="path3090"
       inkscape:connector-curvature="0" />
    <path
       d="m 94.415557,334.84936 c 1.2025,-0.575 2.605,0.0937 3.59875,0.6 0.3325,1.53125 -1.285,1.11375 -1.79875,1.79875 1.305,1.905 4.493753,0.29875 5.097503,-0.59875 2.3175,-3.44375 -1.642503,-7.4225 -4.498753,-8.3975 -6.575,-0.1875 -8.17625,7.52875 -8.69625,13.495 -0.82125,9.4275 5.125,20.75 10.49625,24.88875 1.783753,1.375 4.037503,1.27875 4.497503,3.3 -2.98,1.2875 -6.307503,-1.515 -8.096253,-3.3 -4.73625,-4.72125 -10.2225,-15.68625 -9.29625,-24.88875 0.63625,-6.3225 2.96375,-15.88 10.49625,-15.59375 2.09875,0.08 6.450003,2.47 7.496253,4.19875 1.98,3.27125 0.015,8.42 -2.69875,9.595 -4.065003,1.76375 -9.422503,-0.33 -6.597503,-5.0975"
       style="fill:#231f20;fill-opacity:1;fill-rule:evenodd;stroke:none"
       id="path3092"
       inkscape:connector-curvature="0" />
    <path
       d="m 29.043061,324.35436 c -0.86875,1.845 -0.6625,5.73625 1.19875,6.5975 0.5375,-2.3875 0.43125,-5.51625 -1.19875,-6.5975 z m 11.095,-1.8 c -5.8975,1.41125 -2.4875,9.8225 1.8,10.49625 3.11,-2.585 2.5075,-9.6825 -1.8,-10.49625 z m 41.682496,-2.39875 c -5.09375,-7.00125 -18.409996,-6.49875 -19.492496,3.59875 -0.83375,7.78375 5.3425,16.76 14.994996,14.39375 2.39,-0.58625 5.17375,-4.16875 5.3975,-6.5975 0.235,-2.55125 -2.7425,-7.1975 -6.59625,-5.6975 -2.05875,0.80125 -2.09375,5.05875 -0.60125,6.8975 1.295,0.0962 0.31875,-2.08 1.5,-2.09875 1.98125,1.25 1.08,3.73 -0.3,4.1975 -4.58,1.55 -6.488746,-5.9625 -3.59875,-9.595 3.3825,-4.25125 11.94875,0.23 12.295,5.3975 0.265,3.9375 -3.81,8.29125 -6.59625,9.295 -8.912496,3.215 -19.594996,-3.66 -19.193746,-14.3925 -1.8875,5.06625 -5.86625,9.51375 -12.59375,10.495 -1.49125,0.2175 -3.19875,-0.3975 -4.79875,-0.3 -4.14875,0.25375 -8.5475,2.48625 -11.395,-0.3 -3.11125,4.08125 -6.50625,8.48625 -12.295,7.7975 -5.105,-0.60875 -10.0750004,-7.075 -9.5962504,-12.295 0.27875,-3.0275 3.3637504,-7.35 6.8975004,-7.4975 5.58,-0.23375 8.34625,6.48 4.4975,10.79625 -2.32,1.5275 -6.62625,0.68375 -5.69625,-2.4 1.5425,-0.8575 2.7,0.2275 3.59875,0.9 4.62125,-6.56125 -6.42125,-9.52125 -6.8975,-1.79875 -0.23,3.74 4.15875,9.97125 8.39625,10.195 4.21375,0.2225 6.71875,-3.43875 8.99625,-6.89625 -2.54125,-2.80375 -4.335,-10.45375 0.3,-12.295 4.34,0.55125 4.66125,7.67875 2.69875,11.095 1.37125,1.56375 4.5675,2.29375 6.89625,1.2 -6.02625,-3.01 -5.0775,-14.73 2.69875,-13.495 5.06875,0.80375 6.605,8.96375 3,13.195 7.34875,-0.31 12.0475,-4.32125 12.595,-10.49625 1.32,-0.1225 2.4775,-0.08 2.09875,1.49875 1.315,-6.3775 4.97875,-11.36875 11.695,-11.99375 6.891246,-0.6425 11.777496,3.76375 14.993746,8.095 -0.58125,3.26875 -3.19375,1.1375 -3.89875,-0.89875"
       style="fill:#231f20;fill-opacity:1;fill-rule:evenodd;stroke:none"
       id="path3094"
       inkscape:connector-curvature="0" />
    <path
       d="m 55.133061,457.49812 c -5.81,-5.655 -11.81625,7.7125 -3.3,8.0975 0.1575,-1.6425 1.30125,-2.29875 1.5,-3.89875 -1.32125,-0.39625 -2.5775,0.99625 -2.99875,-0.3 1.105,-2.95375 5.69,-1.05125 5.6975,1.5 0.54625,-2.23125 0.07625,-3.55875 -0.89875,-5.39875 z m -29.68875,-5.99625 c -1.305,0.61 -2.395,2.8425 -4.19875,1.19875 -0.74375,-4.59 6.3225,-4.015 7.7975,-0.9 1.49125,11.8325 -12.76375,8.8475 -14.69375,2.4 -1.62,-5.4125 3.40625,-10.7625 8.09625,-11.09625 3.06875,-0.21875 9.255,1.85 11.395,3.29875 2.21625,1.5 5.15625,5.39875 5.6975,8.39625 0.34625,1.91625 -0.83,4.27 -0.29875,6.8975 0.65,3.22625 8.1,7.58375 12.295,5.9975 -7.59875,0.2375 -9.64125,-11.31875 -2.4,-13.195 6.21875,-1.61125 12.49625,5.40625 9.29625,11.09625 -4.1925,7.45625 -14.35125,4.60625 -19.49125,0 -0.80375,-0.72 -2.4525,-2.68375 -2.7,-3.89875 -0.5475,-2.7075 0.52125,-5.86875 0,-7.79625 -0.8275,-3.0625 -3.21875,-5.36875 -4.7975,-6.29875 -5.25125,-3.0875 -15.89875,-2.88125 -14.09375,5.9975 1.2375,6.08875 12.22375,4.28875 8.09625,-2.0975"
       style="fill:#231f20;fill-opacity:1;fill-rule:evenodd;stroke:none"
       id="path3096"
       inkscape:connector-curvature="0" />
    <path
       d="m 56.031811,462.89687 c -0.0075,-2.55125 -4.5925,-4.45375 -5.6975,-1.5 0.42125,1.29625 1.6775,-0.0962 2.99875,0.3 -0.19875,1.6 -1.3425,2.25625 -1.5,3.89875 -8.51625,-0.385 -2.51,-13.7525 3.3,-8.0975 0.975,1.84 1.445,3.1675 0.89875,5.39875"
       style="fill:#231f20;fill-opacity:1;fill-rule:evenodd;stroke:none"
       id="path3098"
       inkscape:connector-curvature="0" />
    <path
       d="m 50.933061,326.15311 c 1.975,-6.7925 -1.00375,-13.74375 -7.79625,-14.99375 -4.34375,-0.8 -12.5425,0.9 -11.695,4.7975 0.4025,1.85 2.7725,2.25375 4.7975,1.2 0.92875,-1.43375 -1.715,-1.075 -0.59875,-2.69875 1.39875,-1.4375 3.46375,0.36625 3.59875,1.49875 0.47,3.975 -7.8,5.09625 -10.19625,1.49875 -1.76875,-9.48 15.5925,-11.095 21.59125,-5.0975 2.47375,2.47625 6.8475,13.99375 0.29875,13.795"
       style="fill:#231f20;fill-opacity:1;fill-rule:evenodd;stroke:none"
       id="path3100"
       inkscape:connector-curvature="0" />
    <path
       d="m 41.938061,333.05061 c -4.2875,-0.67375 -7.6975,-9.085 -1.8,-10.49625 4.3075,0.81375 4.91,7.91125 1.8,10.49625"
       style="fill:#231f20;fill-opacity:1;fill-rule:evenodd;stroke:none"
       id="path3102"
       inkscape:connector-curvature="0" />
    <path
       d="m 30.241811,330.95186 c -1.86125,-0.86125 -2.0675,-4.7525 -1.19875,-6.5975 1.63,1.08125 1.73625,4.21 1.19875,6.5975"
       style="fill:#231f20;fill-opacity:1;fill-rule:evenodd;stroke:none"
       id="path3104"
       inkscape:connector-curvature="0" />
    <path
       d="m 24.544311,321.95561 c -0.2325,0.26625 -0.3225,0.67625 -0.29875,1.19875 -2.98375,0.18125 -2.86125,-2.43375 -5.69875,-2.6975 -8.07125,-0.755 -17.4050004,11.3125 -17.69125038,18.89125 -0.14,3.67 1.62624998,7.8 3.29749998,10.495 1.395,2.24875 4.72625,6.60125 9.5962504,5.39875 5.7725,-1.4275 1.3975,-11.5525 -3.59875,-8.0975 -0.4725004,2.1725 1.93625,1.4625 2.39875,2.69875 -1.79375,3.4 -6.2725004,-0.2725 -4.7975004,-3.89875 8.2725004,-7.89125 16.3887504,8.18625 7.1962504,11.395 -1.995,0.6975 -6.2125004,-0.02 -7.7962504,-0.89875 -4.6875,-2.6025 -9.61875,-11.00875 -8.995,-17.3925 0.4675,-4.79375 4.41875,-10.095 7.195,-13.79375 4.3875,-5.8425 14.3250004,-10.40375 19.1925004,-3.29875"
       style="fill:#231f20;fill-opacity:1;fill-rule:evenodd;stroke:none"
       id="path3106"
       inkscape:connector-curvature="0" />
    <path
       d="m 9.2518106,433.80812 c 0.8712504,1.4975 -2.76375,0.74375 -2.7,2.39875 0.4875,2.69375 5.4175004,3.4825 6.2975004,0.6 0.81125,-2.65625 -1.305,-5.8375 -1.79875,-6.29625 -7.1300004,-6.61625 -15.8087504,7.97375 -9.2962504,13.19375 0.8425,0.675 4.19875,2.14125 5.9975,1.8 2.03,-0.3875 0.51875,-1.915 3.5987504,-2.1 2.42125,6.20875 -7.8700004,4.24875 -10.79625038,2.39875 -9.35000002,-5.9125 -0.0125,-25.47625 11.69625038,-17.3925 3.98,2.7475 5.37625,11.8175 -0.9,12.595 -3.1000004,0.38375 -7.8675004,-1.505 -7.7975004,-4.79875 0.05875,-2.76 4.17375,-4.82 5.69875,-2.39875"
       style="fill:#231f20;fill-opacity:1;fill-rule:evenodd;stroke:none"
       id="path3108"
       inkscape:connector-curvature="0" />
    <path
       d="m -9.3419394,356.14061 c 0.94125,-1.22125 3.12875,-1.4025 2.7,-3.89875 -0.15875,-0.92125 -0.76,-1.72625 -2.1,-2.0975 -2.8899996,2.83125 -3.3587496,7.11125 -0.29875,10.495 2.17375,2.4025 9.86500002,3.3175 10.495,0.29875 0.4775,-2.29125 -2.10374998,-1.52375 -2.09874998,-3.8975 3.09499998,-2.59375 5.99374998,2.36375 4.19749998,5.6975 -6.26375,5.25375 -16.0024996,1.3775 -17.0924996,-5.9975 -0.43625,-2.94875 1.195,-8.49625 3.8987496,-8.99625 8.03,-1.485 5.5825,14.17875 0.29875,8.39625"
       style="fill:#231f20;fill-opacity:1;fill-rule:evenodd;stroke:none"
       id="path3110"
       inkscape:connector-curvature="0" />
    <path
       d="m -4.2431894,416.11562 c -0.30875,2.19625 -3.46125,0.0737 -4.19875,2.1 0.44375,4.08625 4.6725,5.335 6.8975,4.4975 5.205,-1.96125 2.57625,-12.01375 -1.8,-12.595 -3.08875,-0.41125 -7.3499996,2.385 -8.6962496,4.19875 -5.895,7.94125 0.50125,25.94125 6.5987496,29.6875 2.0025,0.31 3.3225,0.0263 4.49750002,1.5 -2.28875002,2.06625 -5.59125002,0.59 -7.19750002,-0.60125 -7.2199996,-5.3525 -12.5099996,-23.55375 -6.2974996,-31.785 1.91125,-2.5325 8.0837496,-6.08126 11.9949996,-5.39876 6.73625,1.17501 8.945,14.72001 2.69875002,17.09251 -4.26875002,1.6225 -14.02499962,-2.83 -11.39499962,-8.0975 0.9575,-1.915 5.2462496,-2.65 6.8974996,-0.59875"
       style="fill:#231f20;fill-opacity:1;fill-rule:evenodd;stroke:none"
       id="path3112"
       inkscape:connector-curvature="0" />
    <path
       d="m -13.539439,406.81936 c -0.815,0.92125 -2.7325,1.7125 -3.89875,0.6 -0.30125,-1.50125 1.34375,-1.055 1.5,-2.1 -0.22125,-0.87875 -0.90875,-1.28875 -1.5,-1.79875 -3.1425,1.1675 -1.87,6.24751 0.6,6.59751 5.76875,0.81625 4.6675,-9.59626 -0.3,-10.49501 -4.16875,-0.75625 -5.0925,2.70375 -8.99625,1.2 0.40375,-1.91625 4.5675,-2.98375 6.5975,-3.3 10.6637496,-1.65875 12.3999996,14.22751 3.59875,14.99376 -10.4475,0.91125 -5.1325,-18.20251 2.39875,-8.69626 0,1 0,2 0,2.99875"
       style="fill:#231f20;fill-opacity:1;fill-rule:evenodd;stroke:none"
       id="path3114"
       inkscape:connector-curvature="0" />
    <path
       d="m 8.3518106,366.33686 c 1.6712504,3.0025 -4.38,6.77375 -5.69875,2.99875 0.435,-1.30875 1.82125,-1.1575 2.69875,-0.6 -0.63625,-1.4625 -1.645,-2.55125 -3.5975,-2.69875 -2.50249998,4.22125 3.27875,7.74875 3.5975,12.595 0.3925,5.91875 -3.81375,10.68875 -8.995,12.59375 2.495,1.2975 4.68625,1.2525 6.29625,3.3 3.1275,3.97 0.14625,10.4725 -4.49625,10.195 -1.66125,-0.0987 -5.62375,-2.36625 -5.69875,-4.49875 -0.07,-1.96375 3.35,-4.5 5.0975,-2.39875 0.1625,1.66125 -2.05375,0.94375 -2.09875,2.39875 1.765,0.0337 1.26125,2.3375 2.7,2.69875 5.79875,-2.15875 2.03250002,-9.41125 -2.7,-9.295 -2.695,0.0663 -5.1475,3.165 -8.9962496,3.2975 -15.8,0.5475 -17.83875,-17.37125 -10.195,-26.9875 5.3725,-6.76 21.2924996,-6.11625 20.0912496,6.2975 -0.75,7.74125 -15.4537496,8.57875 -14.0937496,-0.60125 1.5725,-1.585 7.17,-3.645 7.1975,0.60125 -1.28875,0.97875 -2.21,0.0825 -3.59875,-0.3 -3.08125,4.2975 6.5799996,5.05875 7.4962496,0.89875 0.81875,-3.72125 -2.10875,-7.545 -3.8974996,-8.3975 -8.78375,-4.18 -15.105,6.7875 -15.295,13.195 -0.24125,8.1975 5.73875,13.9625 13.495,12.89625 3.1299996,-0.43125 2.8774996,-1.8425 7.1962496,-3 0.85375,-1.1475 -1.855,-0.80375 -1.19875,-2.69875 0.98625,-0.7675 2.01125,0.43 2.9975,0.6 3.70375002,-3.00375 6.6225,-5.33875 5.9975,-11.09625 -0.50375,-4.66 -5.4375,-7.745 -4.1975,-11.695 1.19500002,-3.8025 6.8,-1.83875 9.89625,-0.29875"
       style="fill:#231f20;fill-opacity:1;fill-rule:evenodd;stroke:none"
       id="path3116"
       inkscape:connector-curvature="0" />
  </g>
</svg>
