<?xml version="1.0" encoding="UTF-8" standalone="no"?>
<!-- Created with Inkscape (http://www.inkscape.org/) -->

<svg
   xmlns:dc="http://purl.org/dc/elements/1.1/"
   xmlns:cc="http://creativecommons.org/ns#"
   xmlns:rdf="http://www.w3.org/1999/02/22-rdf-syntax-ns#"
   xmlns:svg="http://www.w3.org/2000/svg"
   xmlns="http://www.w3.org/2000/svg"
   xmlns:sodipodi="http://sodipodi.sourceforge.net/DTD/sodipodi-0.dtd"
   xmlns:inkscape="http://www.inkscape.org/namespaces/inkscape"
   width="165.54759"
   height="161.17072"
   id="svg4635"
   version="1.1"
   inkscape:version="0.48.2 r9819"
   sodipodi:docname="picture_frame.svg">
  <defs
     id="defs4637" />
  <sodipodi:namedview
     id="base"
     pagecolor="#ffffff"
     bordercolor="#666666"
     borderopacity="1.0"
     inkscape:pageopacity="0.0"
     inkscape:pageshadow="2"
     inkscape:zoom="2.8"
     inkscape:cx="78.562175"
     inkscape:cy="83.4425"
     inkscape:document-units="px"
     inkscape:current-layer="layer1"
     showgrid="false"
     fit-margin-top="0"
     fit-margin-left="0"
     fit-margin-right="0"
     fit-margin-bottom="0"
     inkscape:window-width="1246"
     inkscape:window-height="796"
     inkscape:window-x="250"
     inkscape:window-y="47"
     inkscape:window-maximized="0">
    <inkscape:grid
       type="xygrid"
       id="grid12033" />
  </sodipodi:namedview>
  <metadata
     id="metadata4640">
    <rdf:RDF>
      <cc:Work
         rdf:about="">
        <dc:format>image/svg+xml</dc:format>
        <dc:type
           rdf:resource="http://purl.org/dc/dcmitype/StillImage" />
        <dc:title />
      </cc:Work>
    </rdf:RDF>
  </metadata>
  <g
     inkscape:label="Layer 1"
     inkscape:groupmode="layer"
     id="layer1"
     transform="translate(25.630937,-340.34825)">
    <path
       style="fill:#ffffff;fill-opacity:1;fill-rule:nonzero"
       d="m 134.19834,5.1300005 c -9.31104,0.072543 -18.65073,0.6520705 -27.79018,2.2098215 -2.46491,0.1480479 -5.13751,-0.1929447 -7.232145,1.3392857 -4.514661,0.903195 -9.154968,1.142156 -13.657365,2.2251383 -2.948068,0.207054 -5.990789,0.231416 -8.842635,1.02263 -4.764754,0.129093 -9.533211,0.318547 -14.185268,1.473214 -1.484897,0.291526 -3.267168,0.527944 -4.508929,-0.267857 -4.104343,1.199649 -8.194332,2.838242 -12.566964,2.890625 -2.67944,0.436989 -5.153604,-0.63913 -7.856799,-0.435119 -8.374291,-0.110035 -16.849914,-0.602266 -25.145433,0.535565 -0.84098,-0.03176 -3.2089792,-0.202693 -2.321429,1.25 2.185433,2.686307 4.373747,5.566003 7.220982,7.555804 4.426205,0.795302 8.842785,-1.117085 13.174155,-1.832616 8.932002,-2.158299 18.088877,-3.54682 27.294185,-2.703852 10.855092,0.696502 21.7736,1.319034 32.604603,-0.08432 11.899072,-1.507107 23.909912,-1.684793 35.876332,-1.028735 5.22943,0.08501 10.56711,0.737677 15.72706,0.493277 3.2963,-4.087576 6.81691,-8.327745 8.50447,-13.3482146 -0.61279,-1.5407038 -3.00162,-0.7553592 -4.30804,-1.1049107 -3.99348,-0.1639332 -7.98981,-0.2387104 -11.9866,-0.1897322 z"
       id="path12035"
       inkscape:connector-curvature="0"
       transform="translate(-25.630937,340.34825)" />
    <path
       style="fill:#ffffff;fill-opacity:1;fill-rule:nonzero"
       d="m 152.0153,6.7483041 c -1.66502,1.7557648 -2.18797,4.3950519 -3.8058,6.2723219 -1.67517,2.531577 -3.91913,4.799336 -5.07813,7.611607 0.23693,1.252635 2.25236,-0.0096 2.1317,1.5625 1.44381,10.253337 1.88884,20.68321 2.72006,31.024185 1.19651,16.560208 0.88514,33.169833 0.25551,49.745502 -0.0723,10.57229 -0.52762,21.30703 0.91489,31.75672 2.35652,-0.0257 4.17678,-0.006 3.15195,2.9535 -0.3778,2.15364 -0.47602,4.34536 1.82129,5.41238 1.52832,1.01856 2.80173,3.181 4.79701,3.11441 1.16787,-1.14199 -0.12375,-3.09489 0.24554,-4.53125 -0.68293,-10.11664 0.0842,-20.38836 -1.6633,-30.38423 -1.74526,-7.6796 -3.45429,-15.406674 -3.1729,-23.332271 -0.33294,-22.646111 3.52381,-45.305107 1.27911,-67.910549 -0.66232,-4.389466 -1.46979,-9.006425 -3.02773,-13.0716116 -0.20304,-0.010182 -0.33362,-0.3610312 -0.5692,-0.2232143 z"
       id="path12545"
       inkscape:connector-curvature="0"
       transform="translate(-25.630937,340.34825)" />
    <path
       style="fill:#ffffff;fill-opacity:1;fill-rule:nonzero"
       d="m 149.02423,142.60768 c -7.02608,0.43564 -14.05242,0.97172 -21.09375,1.00446 -0.95723,-0.31953 -2.23523,0.99802 -0.90402,1.46206 7.79848,2.94403 15.83654,5.85906 24.19643,6.72991 2.87438,0.12579 5.94479,0.39764 8.66071,-0.58036 -0.64755,-1.92294 -2.58273,-3.45276 -3.93272,-5.05447 -1.88874,-1.76852 -4.04529,-4.09604 -6.92665,-3.5616 z"
       id="path12547"
       inkscape:connector-curvature="0"
       transform="translate(-25.630937,340.34825)" />
    <path
       style="fill:#ffffff;fill-opacity:1;fill-rule:nonzero"
       d="m 53.298782,142.9983 c -9.898287,0.21311 -19.866507,-0.11578 -29.709821,0.99331 -2.660529,0.87508 -4.983083,3.47436 -5.334821,6.23884 0.942578,1.73955 3.472052,1.47705 5.15625,1.94196 10.570339,0.85433 20.536556,-4.33528 31.082353,-4.025 15.685736,-0.49607 31.410897,0.19236 47.076127,-0.7183 3.76461,-0.73875 7.73569,-1.18277 11.22768,-2.79018 0.55563,-1.52714 -1.90277,-1.02129 -2.73423,-1.08369 -9.37339,0.0982 -18.827962,1.95102 -28.125145,0.16851 -9.459896,-1.1979 -19.113235,-0.56597 -28.638393,-0.72545 z"
       id="path12549"
       inkscape:connector-curvature="0"
       transform="translate(-25.630937,340.34825)" />
    <path
       style="fill:#ffffff;fill-opacity:1;fill-rule:nonzero"
       d="m 3.0309252,12.46259 c -0.9990657,1.122055 0.2315341,3.039917 0.084409,4.438314 2.0241726,11.474449 2.9190831,23.061895 3.8027255,34.673822 1.6311435,18.573346 3.2737231,37.146421 4.7799011,55.729384 0.690406,6.99079 2.632586,14.06266 1.199036,21.07366 -0.842027,5.3138 -0.354661,10.70188 0.502232,15.94866 0.260514,2.04809 0.154575,4.11356 -0.133929,6.10491 0.925373,1.34902 2.284354,-0.81395 3.002232,-1.41741 2.376067,-2.68988 6.754738,-5.18186 5.852304,-9.39356 -0.07075,-1.07294 -0.514474,-2.58562 0.129839,-3.47474 1.664435,-0.62388 4.888696,-0.0584 4.910715,-2.65625 0.16467,-4.37821 -1.153266,-8.6107 -1.517858,-12.90179 0.02421,-5.02571 0.02585,-10.07063 -1.223808,-14.97206 -0.443269,-4.22554 -1.681211,-8.325515 -2.358781,-12.472136 0.09746,-3.407047 -0.815046,-6.751393 -0.792411,-10.111608 0.481553,-1.713078 0.507645,-4.141453 -0.915178,-5.379464 -1.673294,-0.184386 -0.942469,-2.5932 -1.369854,-3.669429 -0.983598,-11.320785 -1.531555,-22.6814 -2.246218,-34.020303 0.142965,-1.423842 0.96162,-2.737718 0.78125,-4.296875 -0.08612,-2.279417 0.579791,-4.898154 -0.46875,-6.986607 -0.520971,-0.652477 -2.598224,-0.381562 -0.959821,-0.792411 1.910976,-0.940789 -0.206403,-3.030828 -1.099203,-3.925353 C 11.208651,20.166242 7.2284445,16.519184 3.5778002,12.574197 3.4240215,12.46064 3.2177363,12.405288 3.0309252,12.46259 z"
       id="path12551"
       inkscape:connector-curvature="0"
       transform="translate(-25.630937,340.34825)" />
    <path
       d="m -19.334687,376.09816 c 1.4525,23.3625 4.42125,45.8 5.69875,68.675 0.35625,6.3875 1.78,11.0375 2.09875,16.4875 0.30125,5.15 -1.48375,10.3 -1.2,15.3 0.2875,5.025 2.365,9.45 0.9,14.0875 -0.01375,0.325 0.1425,0.7625 0.3,0.3 1.8537501,-3.3875 6.5587501,-5 7.4962501,-8.6875 0.55875,-2.2 -0.94,-3.525 -0.29875,-6 1.30125,-1 4.09500002,-0.5 5.39625,-1.5 -0.33249998,-3.3375 -0.32499998,-6.325 -0.89874998,-9.6 -0.16125,-0.9125 -0.82,-1.5875 -0.90125,-2.4 -0.26625002,-2.7125 0.34,-5.25 0.3,-7.7875 -0.055,-3.6875 -1.52000002,-7.6375 -1.79875002,-11.4 -0.25875,-3.5125 -0.97875,-5.7125 -2.0975,-9.3 0.36125,-3.5125 -0.1975,-7.125 -0.9,-10.4875 0.94,-1.15 0.36875,-3.275 0.3,-4.8 -0.6525,-0.9 -1.51125,-0.7 -1.8,-0.6 -1.9475,-11.975 -1.29375,-23.95 -2.9975,-38.6875 0.0075,-1.0875 1.56,-0.6375 1.19875,-2.1 -1.44,-3.15 1.07125,-4.8125 -0.3,-8.1 -0.49375,-1.05 -2.6275001,0.425 -2.9987501,-1.1875 0.6625,-0.7375 2.7962501,-0.0125 2.6975001,-1.5 -4.0962501,-5.1 -9.9575001,-8.4375 -13.4925001,-14.1 0.94875,7.5375 2.8,15.3875 3.2975,23.3875 z m 83.06625,109.4625 c -4.21625,-0.025 -8.79625,-1.275 -13.195,-1.5 -13.165,-0.6875 -27.58875,-0.6 -40.18375,0.2875 -4.6337499,0.3375 -10.64124988,-0.4875 -13.4937499,0.9125 -1.38125,0.6625 -4.2725,4.9875 -3.89875,5.3875 9.9125,4.125 19.5462499,-1.3875 29.0874999,-2.4 23.3225,-2.4625 45.9425,2.6125 65.0725,-3.5875 -7.93375,-0.3625 -16.28625,0.925 -23.38875,0.9 z m 53.376247,-50.9875 c 0.15875,-1.425 1.12125,-2.75 1.20125,-4.2 0.18375,-3.325 -0.84875,-6.6625 -0.6,-10.1875 0.1275,-1.8375 0.9575,-3.7 0.89875,-5.7 -0.0738,-2.5375 -0.7225,-5.525 -0.89875,-8.4 -0.34,-5.575 0.0613,-8.25 0,-13.1875 -0.0312,-2.425 -0.8425,-4.8 -0.90125,-7.2 -0.0437,-1.8625 0.83,-3.7625 0.60125,-5.7 -0.16125,-1.3625 -1.0825,-2.5625 -1.19875,-3.9 -0.3,-3.3625 0.78625,-6.8375 -0.90125,-9.8875 -4.42125,0.25 -6.775,-0.25 -10.495,1.1875 -7.917497,-0.125 -14.658747,0.225 -21.589997,0.3 -14.375,0.1875 -29.01125,3.3875 -43.78125,2.7 -4.23125,-0.1875 -8.3475,-1.0875 -12.295,-1.2 -9.2775,-0.25 -17.0975,1.8625 -25.7912499,3 -1.17499998,-1.2625 -1.31124998,-1.6625 -4.19625,-1.8 2.31625002,16.95 2.80000002,35.7 4.79625,53.0875 2.14625,18.6875 1.46,33.225 3.29875,51.575 15.7524999,-0.025 30.1224999,-1.5625 47.3799999,-0.3 5.8475,0.425 11.2825,1.175 17.99375,0.9 14.885,-0.625 29.554997,-0.675 43.481247,-0.3 -0.57875,-10.3375 -1.20125,-23.15 0,-33.2875 0.8475,-1.3375 1.51125,1.7625 1.8,0 1.89625,-2.2625 0.9325,-5.075 1.1975,-7.5 z m 6.3,-88.1625 c -15.50875,-0.825 -30.516247,-0.5 -43.183747,2.1 -1.3725,0.2875 -3.0625,-0.3125 -4.4975,0 -0.59375,0.125 -1.2425,1.025 -1.79875,1.2 -2.47375,0.7875 -5.27125,0.4625 -8.09875,0.9 -3.635,0.5625 -7.315,2.5 -11.69375,1.2 -2.49625,2.2375 -6.64125,0.775 -10.19625,1.2 -3.76125,0.45 -7.71,2.325 -11.69375,1.5 -0.09,-0.5875 0.4025,-0.6 0.5975,-0.9 -5.03875,2.475 -9.47,3.7125 -17.09125,3.6 -0.035,-0.3125 1.29375,-0.6125 0.3,-0.9 -0.58125,0.6375 -6.7649999,0.3 -4.5,0 -6.1012499,0.925 -18.4449999,-1.5 -24.8875,1.2 -0.35625,-0.55 -1.565,-0.2375 -2.1,-0.6 2.195,1.7125 4.695,7.3875 8.0962501,8.1 1.91625,0.3875 6.17375,-0.8625 8.99625,-1.5 8.7649999,-1.975 17.6862499,-4.35 27.8887499,-3.6 9.32375,0.675 17.75875,1.3 26.68875,0.9 7.495,-0.35 14.97125,-1.7625 22.79125,-2.1 12.7025,-0.5625 25.289997,0.6875 36.884997,0.9 3.28125,-3.9125 6.77875,-7.625 8.395,-13.2 -0.3,0 -0.6,0 -0.8975,0 z m 8.395,107.9625 c -0.5875,-4.025 -1.955,-8.025 -2.7,-12.3 -1.61125,-9.25 -1.3425,-18.3375 -0.89875,-27.8875 1.09875,-23.6125 4.8225,-46.85 -1.79875,-67.175 -1.38625,6.1125 -5.9175,9.075 -8.39625,14.1 1.20375,-0.1125 2.1925,0 2.3975,0.9 1.2425,11.525 1.885,23.9875 3.00125,36.875 2.12875,24.65 -2.39375,52.5125 0.5975,75.875 1.13,0.1125 2.71,-0.875 3.59875,0 -0.27125,2.275 -0.27625,5.2125 -0.59875,6.6 1.905,1.1625 4.94625,5.15 6.2975,4.7875 -1.74875,-10.45 -0.0563,-21.9125 -1.5,-31.775 z m 1.8,36.875 c -1.02125,-1.575 -6.10375,-7.075 -7.4975,-7.4875 -2.4875,-0.75 -9.075,0.4125 -13.19375,0.5875 -5.5425,0.2625 -10.64875,0.525 -14.394997,0 10.977497,2.5125 22.351247,9.125 35.086247,6.9 z m 5.99625,4.5 c -2.03875,-0.5625 -2.8375,-2.3625 -5.0975,-2.7 -1.4825,2.425 -2.295,5.5 -4.1975,7.5 -14.9025,1.4 -25.46375,-8.325 -42.282497,-7.2 -8.755,0.5875 -17.56375,3.5125 -26.69,3.9 -9.3425,0.4 -18.945,-1.725 -28.1875,-1.2 -10.36125,0.5875 -21.2575,2 -30.2887499,5.4 -4.65375,0.425 -11.345,-1.1375 -15.8937501,-2.7 -0.05375,-4.6375 -3.84,-5.725 -4.19625,-10.2 -0.335,-4.1875 0.46875,-8.3875 0.3,-12.5875 -0.08,-1.9875 -0.58875,-3.925 -0.6,-6 -0.0375,-5.8375 1.91875,-11.55 1.49875,-17.3875 -0.5525,-7.7125 -2.16125,-15.3625 -2.1,-23.1 0.14875,-18.6375 -2.94125,-36.75 -4.19625,-54.275 -0.7225,-10.0875 -1.20625,-17.7 -3.29875,-26.6875 6.32125,-0.4375 13.1275,2.5875 19.7900001,2.7 3.965,0.0625 8.245,-0.8625 12.595,-1.5 13.1762499,-1.925 26.7649999,-2.675 40.7837499,-3.3 20.865,-0.9125 40.9325,-6.725 60.573747,-6 6.73375,0.25 12.97375,1.6625 19.4925,1.8 0.86125,1.7375 1.72625,3.475 2.7,5.1 -1.59125,2.6 0.67375,8.375 1.49875,13.8 1.31375,8.6375 2.13875,16.1625 1.8,26.0875 -0.0762,1.65 0.56375,-0.9375 0.89875,0.3 0.2675,7.425 0.0238,19.9625 0.3,29.9875 0.14375,5.1875 -0.79625,10.3875 -0.60125,15.5875 0.325,8.525 2.65375,16.9375 4.2,25.1875 1.59375,8.5125 1.17625,17.7 1.49875,26.0875 0.1225,3.1375 -0.44,7.5375 -0.3,11.4"
       style="fill:#231f20;fill-opacity:1;fill-rule:evenodd;stroke:none"
       id="path3494"
       inkscape:connector-curvature="0" />
  </g>
</svg>
