<?xml version="1.0" encoding="UTF-8" standalone="no"?>
<!-- Created with Inkscape (http://www.inkscape.org/) -->

<svg
   xmlns:dc="http://purl.org/dc/elements/1.1/"
   xmlns:cc="http://creativecommons.org/ns#"
   xmlns:rdf="http://www.w3.org/1999/02/22-rdf-syntax-ns#"
   xmlns:svg="http://www.w3.org/2000/svg"
   xmlns="http://www.w3.org/2000/svg"
   xmlns:sodipodi="http://sodipodi.sourceforge.net/DTD/sodipodi-0.dtd"
   xmlns:inkscape="http://www.inkscape.org/namespaces/inkscape"
   width="149.67787"
   height="151.94354"
   id="svg5209"
   version="1.1"
   inkscape:version="0.48.2 r9819"
   sodipodi:docname="rsvp_hover.svg">
  <defs
     id="defs5211" />
  <sodipodi:namedview
     id="base"
     pagecolor="#ffffff"
     bordercolor="#666666"
     borderopacity="1.0"
     inkscape:pageopacity="0.0"
     inkscape:pageshadow="2"
     inkscape:zoom="5.6"
     inkscape:cx="77.062353"
     inkscape:cy="101.4758"
     inkscape:document-units="px"
     inkscape:current-layer="layer1"
     showgrid="false"
     fit-margin-top="0"
     fit-margin-left="0"
     fit-margin-right="0"
     fit-margin-bottom="0"
     inkscape:window-width="1343"
     inkscape:window-height="861"
     inkscape:window-x="160"
     inkscape:window-y="64"
     inkscape:window-maximized="0" />
  <metadata
     id="metadata5214">
    <rdf:RDF>
      <cc:Work
         rdf:about="">
        <dc:format>image/svg+xml</dc:format>
        <dc:type
           rdf:resource="http://purl.org/dc/dcmitype/StillImage" />
        <dc:title />
      </cc:Work>
    </rdf:RDF>
  </metadata>
  <g
     inkscape:label="Layer 1"
     inkscape:groupmode="layer"
     id="layer1"
     transform="translate(60.553221,-353.53327)">
    <path
       style="fill:#ffffff;fill-opacity:1;fill-rule:nonzero"
       d="m 51.638799,366.94253 c -10.6726,2.03532 -18.29201,14.18494 -30.044638,11.875 -3.12,-0.29681 -7.623081,-2.84226 -9.553572,0.9375 -5.2202801,3.20128 -12.03432707,1.39279 -17.7008921,0.49107 -7.2711389,-1.27319 -11.2656099,-8.56876 -17.9241079,-10.80357 -2.070557,1.21361 1.070192,3.815 1.540179,5.29018 1.458692,2.68262 1.860506,7.4492 -2.34375,7.85714 -1.773566,0.49459 -4.207941,2.01664 -5.401786,0.29018 -1.424854,-0.19066 -6.228452,-1.23093 -5.133928,1.54018 3.586005,3.28615 2.820139,9.90278 -1.049107,12.56696 -2.68636,0.004 1.451779,-0.43602 1.629464,-2.05357 2.907944,-3.72438 1.198531,-10.38648 -4.0625,-10.44643 -5.439085,-1.25218 -10.00291,4.25474 -8.571429,9.39732 3.021331,10.16004 14.246075,17.95722 11.607143,29.50893 -0.42873,2.95255 -2.519429,7.15091 1.049107,8.92857 3.220022,5.2638 1.378347,12.12229 0.46875,17.83482 -1.45193,7.17915 -8.629009,11.28276 -10.825893,17.96875 1.244172,2.43827 3.345971,-1.30368 4.84375,-1.65178 2.685135,-0.80203 7.478502,-2.76415 7.963158,1.40787 2.624656,3.48293 0.153304,7.68859 0.675235,11.44927 1.777277,0.9333 2.892002,-2.16062 4.955357,-1.67411 3.209852,-0.28748 9.59784,1.27183 7.700893,5.8259 0.209213,4.69987 -7.81317,5.20083 -8.415178,0.87053 -0.01266,-2.33714 4.348595,-2.31486 4.196428,-1.25 -3.382443,0.91779 -0.07829,4.44015 1.986607,2.63393 2.152505,-1.40866 3.67005,-5.14746 0.446429,-6.38393 -4.101763,-3.43289 -11.351236,-0.24053 -10.602679,5.3125 -0.0082,4.95078 5.116156,8.53546 9.866072,6.89732 9.824068,-2.28837 16.8634899,-13.02838 27.7455359,-11.51785 3.114867,-0.0961 7.7710041,3.29826 9.7991071,-0.40179 6.623564,-4.46659 15.804285,-1.96084 22.589286,0.89286 5.706469,2.40972 9.455189,8.89183 15.870534,9.66518 1.69065,-1.8465 -2.414465,-3.18405 -3.058035,-4.73215 -2.76455,-2.74792 -2.54837,-8.46968 1.852675,-9.26339 3.24491,-1.29983 6.71779,-0.22964 9.93303,0.13393 1.3928,-1.98229 -2.78425,-3.43934 -2.38839,-5.78125 -0.31648,-2.84933 0.4109,-7.23787 3.48214,-8.16964 -0.36849,0.24386 -2.6241,2.21872 -2.63392,3.77232 -1.58633,3.95266 0.85594,9.05163 5.51339,8.59375 4.94691,0.20575 9.59873,-4.74457 7.63393,-9.73215 -2.69458,-10.07734 -13.65452,-17.66681 -11.38393,-28.97321 0.42121,-3.20152 2.06106,-7.30548 -1.20536,-9.55357 -3.71284,-7.41208 -1.32384,-16.62665 2.38839,-23.52678 2.33155,-4.40654 7.58025,-7.46747 8.30358,-12.58929 -1.5904,-2.60774 -3.46193,2.0943 -5.17858,2.45536 -2.98035,1.65409 -7.45164,1.33713 -8.39285,-2.5 -1.54281,-3.15058 1.1262,-7.53797 -1.16072,-10.17857 -1.3452,0.14259 -1.98633,2.11413 -3.75,1.40625 -2.648195,-0.36156 -6.326005,-0.99388 -7.611595,-3.59375 0.1,-2.3339 0.58462,1.60242 2.05357,1.6741 3.653315,3.00942 10.242655,1.43172 10.558025,-3.75 0.94637,-4.9733 -3.22911,-9.5159 -8.258925,-8.95089 z m 0.55804,4.91071 c 2.426335,-0.81183 5.340135,2.29104 3.124995,4.12947 -1.31794,1.11686 -5.645105,0.46079 -2.32143,-1.02679 1.60314,-2.34951 -3.009205,-3.06899 -3.906245,-1.07143 -1.08741,0.88559 -1.70287,3.4462 -1.31696,0.73661 0.23449,-1.97459 2.61842,-2.77517 4.41964,-2.76786 z m -91.830357,16.42857 c 2.173152,-0.2744 2.830776,3.98541 1.383929,4.28572 -1.362771,-2.00109 -4.249053,-0.22061 -2.723214,1.76339 0.681893,1.5586 4.630017,2.98698 0.714285,1.85268 -2.911454,-0.87141 -2.978372,-7.8747 0.625,-7.90179 z m 106.941962,74.35268 c 4.95599,-0.20538 4.8,7.94407 0.40178,8.21429 -1.93899,-0.24645 -2.46448,-4.25802 -0.9375,-4.46429 -0.40618,3.02739 3.78428,1.66614 2.92411,-0.69196 -0.0121,-1.29565 -2.4726,-3.04398 -2.38839,-3.05804 z"
       id="path12596"
       inkscape:connector-curvature="0" />
    <path
       style="fill:#56008c;fill-opacity:0.39607843;fill-rule:nonzero"
       d="m 112.75543,12.974443 c -4.82495,0.113523 -8.63804,3.503349 -12.50558,5.959822 -3.906747,2.550332 -7.94759,5.508115 -12.656247,6.194196 -3.294094,0.208726 -6.602875,0.02371 -9.766371,-0.939082 -1.246693,-0.149907 -2.946923,-1.319072 -3.894343,0.06297 -1.45165,2.773679 -4.835388,3.757596 -7.76785,3.6072 -3.23708,0.09349 -6.456748,-0.03713 -9.554245,-0.94203 -3.685371,-0.8813 -7.441027,-2.135566 -10.224339,-4.851533 -3.337829,-2.752616 -6.41157,-6.492032 -10.918968,-7.210959 -0.930736,-0.216478 -2.442664,-0.199265 -2.511161,1.071429 0.278195,1.433056 2.101325,1.541556 3.060909,2.37676 2.72552,1.725421 3.660916,5.26381 3.250475,8.304044 -1.4864,2.379401 -4.549991,3.050199 -7.165178,3.035714 -2.175913,0.129154 -4.278029,-0.39102 -6.222099,-1.311384 -1.090418,-0.57471 -2.148776,0.831202 -1.41183,1.763393 0.239847,0.499629 0.875472,1.212068 1.037947,1.467634 -3.095243,-2.08455 -7.611767,-1.414557 -10.279018,1.082589 -1.578545,1.548657 -2.440927,3.76277 -2.167599,5.976534 -0.142129,3.997457 2.471378,7.342304 4.550411,10.519002 3.149839,4.788819 6.943367,9.561173 7.645089,15.424107 0.414244,3.971909 -0.8963,7.817582 -1.752232,11.640625 -0.0255,1.385671 1.731959,1.427213 2.33817,2.449777 2.237677,2.436653 2.197513,5.993828 2.137277,9.118303 -0.329856,4.505459 -1.233031,9.041359 -3.097098,13.16406 -2.43563,4.76075 -7.313601,7.8235 -9.419643,12.7846 -0.398763,1.36272 -0.995216,2.90916 -0.496652,4.30804 0.653494,1.01357 1.948938,0.27215 2.237723,-0.64732 0.969845,-2.24476 2.658704,-4.37058 5.138517,-4.96988 1.422391,-0.30968 2.982595,-0.71606 4.415055,-0.2924 2.780118,2.03295 3.044171,5.78757 2.834821,8.94531 0.0038,1.72062 -0.908459,3.21712 -1.372768,4.81027 -0.157888,1.18321 1.470946,1.56582 2.092634,0.6529 0.466536,-0.40233 -0.444227,0.6574 -0.502232,0.97098 -1.256912,3.32394 -0.467458,7.6619 2.444196,9.87724 2.266832,1.73354 5.306899,1.98717 7.974331,1.16071 3.806037,-1.05053 6.847769,-3.74301 10.141219,-5.79336 4.539847,-3.09662 9.601725,-6.34429 15.310456,-6.11537 3.222518,0.0298 6.272836,1.26423 9.447878,1.6911 1.420606,-0.0785 1.632341,-1.90948 2.762277,-2.53349 3.211106,-2.21945 7.372898,-2.01249 11.085152,-1.62219 5.073445,0.77443 10.429271,1.80713 14.372436,5.30523 3.36692,2.67189 6.32516,6.27552 10.625,7.4442 1.135,0.17238 2.58593,0.44431 3.5067,-0.31837 0.77737,-1.16589 -0.7758,-1.72064 -1.63728,-2.07003 -2.69014,-1.17498 -4.76016,-3.73288 -4.92187,-6.70759 -0.093,-1.16215 -0.33133,-2.56958 0.74776,-3.36495 2.75873,-2.56061 6.91907,-2.44864 10.37389,-1.70759 1.01487,0.19377 2.43778,1.31729 3.16126,0.0361 0.38506,-0.91679 -0.57286,-1.58394 -1.02957,-2.25149 4.12934,2.67192 10.72225,0.70296 12.15402,-4.17411 1.31061,-4.27492 -0.96103,-8.57454 -3.29728,-12.0287 -3.38371,-5.255659 -7.67982,-10.271381 -8.59446,-16.665497 -0.4851,-3.678393 0.73221,-7.269623 1.47322,-10.842634 0.53359,-0.97093 0.0738,-2.173076 -0.98773,-2.50558 -2.57985,-1.661211 -3.08252,-4.962829 -3.29799,-7.756696 0.0543,-5.249009 1.01924,-10.516334 3.13616,-15.329242 2.45259,-4.963146 7.66456,-8.066716 9.6038,-13.331473 0.28604,-1.292405 1.01986,-2.869461 0.21205,-4.090402 -0.94689,-0.840034 -1.92612,0.295024 -2.24888,1.160715 -1.09934,2.709135 -3.65818,4.75678 -6.57366,5.039062 -1.26394,0.143859 -2.86555,0.391754 -3.67538,-0.862877 -2.3376,-2.548448 -2.18109,-6.3163 -1.81012,-9.544489 0.0189,-1.129822 1.04841,-2.045402 0.8259,-3.164062 -0.18088,-0.704103 -1.22026,-0.814919 -1.5904,-0.569197 1.79163,-1.925121 1.59014,-4.754994 1.17187,-7.154018 -0.78695,-3.609863 -4.31168,-5.936344 -7.91853,-5.736607 z m -0.45759,5.357143 c 1.69194,-0.05484 4.00463,0.781025 4.18527,2.723214 -0.15232,1.750344 -2.70337,2.583931 -4.00111,1.529018 1.20932,0.05794 2.37011,-1.06569 1.81919,-2.282366 -0.70739,-1.942621 -3.37209,-1.933108 -4.6596,-0.602679 -0.29201,0.09288 -1.09676,1.367929 -0.89843,0.797992 0.57099,-1.400434 2.08328,-2.193499 3.55468,-2.165179 z m 5.50224,8.889509 c -0.59199,0.422403 -1.54879,0.680042 -2.09822,0.686384 0.72226,-0.112038 1.49479,-0.376327 2.09822,-0.686384 z m -90.496655,6.422991 c 0.310182,0.425357 0.473975,0.93508 0.496651,1.462054 -0.0824,-0.483966 -0.353408,-1.14794 -0.496651,-1.462054 z m -6.233259,1.322545 c 1.689005,0.005 2.365934,2.275932 1.746651,3.60491 -0.193596,0.511831 -0.295697,0.332515 -0.32366,-0.139509 -0.110227,-1.322316 -1.783687,-2.039571 -2.745536,-1.065848 -1.942452,1.407261 -0.731241,4.201843 0.9375,5.279018 -1.89348,-0.579096 -2.642835,-2.8198 -2.265625,-4.626116 0.173862,-1.345214 1.071476,-3.135227 2.65067,-3.052455 z M 128.99985,109.41976 c 2.09209,0.60861 2.68976,3.17643 2.17076,5.06696 -0.25833,1.37346 -1.49641,3.1267 -3.08594,2.53906 -1.43883,-0.5666 -1.90886,-2.74971 -1.00446,-3.83928 -0.0691,1.26787 1.32624,2.52189 2.5,1.70201 1.18456,-0.68657 1.92175,-2.25669 1.04353,-3.47657 -0.37656,-0.76213 -1.02187,-1.52965 -1.62389,-1.99218 z m -7.10937,7.47767 c 0.0139,0.37718 0.46868,1.40911 0.40178,1.36719 -0.30396,-0.44036 -0.41389,-0.97376 -0.4241,-1.50111 l 0.0223,0.13392 z m -88.069198,7.28795 c -0.439159,0.0725 -1.16055,0.3893 -1.361607,0.47433 0.459175,-0.32922 1.028275,-0.4482 1.579241,-0.52455 l -0.173999,0.0401 -0.04364,0.0101 z m 2.689732,4.70982 c 0.407477,-0.0673 1.281461,0.25431 1.272321,0.50223 -1.407039,-0.1968 -2.552627,1.4899 -1.623884,2.65625 1.127424,1.81111 3.766765,1.12305 4.960938,-0.25111 0.570318,-0.7553 0.222903,0.0366 -0.06696,0.40736 -1.703263,2.06948 -5.401975,1.86563 -6.958706,-0.25669 -0.863234,-1.18056 0.170811,-2.71026 1.462054,-2.92411 0.311364,-0.0843 0.631441,-0.13827 0.954241,-0.13393 z"
       id="path8647"
       inkscape:connector-curvature="0"
       transform="translate(-60.553221,353.53327)" />
    <path
       style="fill:#56008c;fill-opacity:0.39607843;fill-rule:nonzero"
       d="m 31.678425,17.689845 c -2.356485,0.07211 -3.745766,2.370917 -4.059223,4.477404 -0.136391,0.512884 -0.166932,1.204811 -0.170688,1.638667 -0.96163,-0.792654 -2.333008,0.100912 -2.243304,1.272322 -0.205289,2.002284 1.127076,3.82513 2.946429,4.559152 2.1963,1.124444 4.853813,1.014792 7.170759,0.340401 2.617162,-1.128777 4.054822,-4.281768 3.069196,-6.969866 -0.870254,-2.85757 -3.613522,-5.398663 -6.713169,-5.31808 z m 0.407366,3.493303 c 0.455875,0.02826 0.647243,0.114617 0.06696,0.03348 -0.326655,0.01563 -0.39524,-0.01469 -0.06696,-0.03348 z m 1.316964,0.558036 c 0.38899,0.361689 0.865692,0.917202 0.357143,1.417411 -0.484157,0.868392 -0.255301,0.437371 -0.08371,-0.273438 0.134555,-0.372932 -0.209741,-1.113955 -0.273437,-1.143973 z m -0.758929,3.080357 c -0.273542,0.318168 -0.636439,0.596769 -1.065848,0.641741 0.393254,-0.119099 0.786258,-0.409345 1.065848,-0.641741 z"
       id="path8649"
       inkscape:connector-curvature="0"
       transform="translate(-60.553221,353.53327)" />
    <path
       style="fill:#56008c;fill-opacity:0.39607843;fill-rule:nonzero"
       d="m 123.82686,25.88739 c -2.89847,0.284649 -4.39999,3.411143 -4.58705,6.021205 -0.28272,2.616746 0.52093,5.717678 3.10268,6.914062 3.31374,1.686206 7.39136,-0.534302 8.96763,-3.621651 1.11227,-1.919686 0.92612,-4.830522 -1.23326,-5.93192 -1.28975,-0.769286 -2.85905,-1.175857 -4.35268,-0.920759 0.67246,-0.744701 0.60571,-2.209061 -0.58593,-2.321428 -0.4272,-0.109845 -0.87025,-0.165587 -1.31139,-0.139509 z m 0.3404,6.216517 c 0.009,0.29773 0.73381,1.341392 0.21206,0.585938 -0.11525,-0.175949 -0.17677,-0.390022 -0.21206,-0.585938 z m 4.3192,0.552456 c 0.0165,0.394888 -0.0101,0.14749 0,0 z m -2.76786,1.328125 c 0.5842,0.344627 1.55643,0.526529 2.04799,0.251116 -0.46243,0.479213 -1.06493,0.52371 -1.57924,0.05022 -0.0856,-0.04907 -0.60823,-0.362636 -0.46875,-0.301339 z"
       id="path8651"
       inkscape:connector-curvature="0"
       transform="translate(-60.553221,353.53327)" />
    <path
       style="fill:#56008c;fill-opacity:0.39607843;fill-rule:nonzero"
       d="m 24.641594,112.63962 c -3.491031,0.21022 -6.72632,3.16614 -6.981027,6.69643 -0.08794,2.5493 2.427085,4.31709 4.781723,4.4013 0.383856,0.17205 1.483321,-0.17349 1.410739,0.13342 -0.708916,0.94439 -0.007,2.35361 1.17919,2.28448 2.937977,0.32963 4.999451,-2.59671 5.329241,-5.21764 0.425204,-2.60411 0.01464,-5.716 -2.35491,-7.2991 -0.977353,-0.69662 -2.154745,-1.10078 -3.364956,-0.99889 z m -1.573661,4.88839 c 0.290338,0.13203 1.57648,0.90351 0.714286,0.44085 -0.421529,-0.42853 -1.804554,-0.22076 -1.763393,-0.23995 0.330668,-0.20834 0.682234,-0.58706 1.049107,-0.2009 z m 1.40625,0.86496 c 0.488542,0.24984 1.009074,1.14829 0.982143,1.36719 -0.155045,-0.50818 -0.724072,-1.19716 -0.982143,-1.36719 z m -3.270089,0.73103 c 0.0043,0.47891 -0.02479,0.21057 0,0 z"
       id="path8653"
       inkscape:connector-curvature="0"
       transform="translate(-60.553221,353.53327)" />
    <path
       style="fill:#56008c;fill-opacity:0.39607843;fill-rule:nonzero"
       d="m 117.81124,121.40078 c -2.83884,-0.0272 -5.92803,1.84577 -6.22768,4.86607 -0.4354,3.45349 2.16353,6.84779 5.40178,7.82925 2.15045,0.70574 4.52837,-0.63145 5.2009,-2.73438 0.35808,-1.05267 0.71779,-2.2195 0.46875,-3.33147 0.9466,0.78366 2.41961,0.0471 2.37723,-1.17746 0.18574,-2.19693 -1.40737,-4.15053 -3.45982,-4.7712 -1.20073,-0.45039 -2.47089,-0.71011 -3.76116,-0.68081 z m 1.03794,5 c -0.42853,0.14117 -0.79346,0.27189 -0.20089,0.0391 0.0277,-0.011 0.30605,-0.0679 0.20089,-0.0391 z m -1.99218,1.74665 c -0.24876,0.59882 -0.45252,1.30686 -0.16183,1.91407 -0.46978,-0.4227 -0.63286,-1.06493 -0.0781,-1.55134 0.0257,-0.0304 0.29815,-0.50496 0.23996,-0.36273 z m 0.84263,2.55581 c 0.29936,0.002 1.11513,0.13984 0.37388,0.0949 -0.0812,4.1e-4 -0.43918,-0.0998 -0.37388,-0.0949 z"
       id="path8655"
       inkscape:connector-curvature="0"
       transform="translate(-60.553221,353.53327)" />
    <path
       d="m -32.415175,468.60501 c -5.61125,-5.61225 -15.47875,7.16262 -4.49875,7.79975 1.65375,-1.32463 1.265,-4.04975 -1.19875,-4.19963 -0.885,0.64988 0.77375,2.11225 -0.60125,2.39988 -3.3425,-0.41263 -1.4025,-5.07525 1.2,-4.80025 1.79625,1.05025 3.43875,1.688 3.59875,3.90037 0.1575,2.1875 -1.86125,3.41263 -2.09875,4.79975 4.8225,1.41263 6.35625,-7.13762 3.59875,-9.89987 z m -3.59875,-32.0875 c -0.54125,1.7625 -2.65375,3.5375 -2.39875,5.1 0.8375,-1.3 2.9175,-4.4125 2.39875,-5.1 z m -7.49625,-2.1 c 1.96625,0.075 3.03,-0.7625 4.1975,-1.4875 -1.8925,0 -3.995,-0.2 -4.1975,1.4875 z m 4.4975,-5.0875 c -0.40375,-2.1 -2.5825,-2.425 -4.4975,-3 1.25,1.25 2.64,2.35 4.4975,3 z m 0.6,-6.6 c -0.23625,-2.5625 -0.4975,-5.1 -2.09875,-6.3 -1.48375,2.05 1.31875,4.55 2.09875,6.3 z m 2.99875,-24.5875 c -2.4825,-1.4625 -4.02125,0.025 -5.9975,-1.5 -3.68875,-2.85 -1.63125,-9.55 2.09875,-9.3 2.885,0.2 4.26875,4.9875 1.2,6.6 -1.75375,0.35 -0.045,-2.7625 -1.8,-2.4 -2.895,1.5875 2.0525,6.2125 4.19875,4.2 3.02,-2.8375 3.72375,-11.35 -4.19875,-10.8 -5.42375,0.3875 -7.945,4.9625 -5.99625,10.5 2.19625,6.2375 10.495,13.175 11.69375,22.4875 0.47,3.65 -0.62,7.35 -1.79875,12 7.225,3.0375 4.38,17.425 1.79875,23.9875 -2.65625,6.75 -11.16875,10.46237 -10.495,17.6875 1.40625,-4.58738 4.4625,-7.52488 10.795,-7.20025 4.62,1.95025 5.3475,10.85012 2.39875,15.30037 -8.78625,5.125 -17.0325,-2.46237 -15.89375,-11.70025 0.755,-6.10012 7.69,-8.89987 10.49625,-15.28762 1.77875,-4.04975 2.17375,-7.97475 2.69875,-13.49975 -1.36375,2.0375 -2.4025,4.4 -4.49875,5.7 -3.57,0.275 -4.79,-4.6 -2.6975,-7.2 -0.8175,-0.5125 -2.1425,0.525 -3.59875,0.3 -0.90875,-0.6875 -1.82375,-1.375 -1.79875,-2.9875 -1.72,0.3875 -2.00375,-1.0625 -3.3,-1.8 -0.49625,0.4 0.255,1.75 -0.6,2.4 -1.6925,0.775 -4.03625,-1.3125 -3.2975,-3 -1.24125,-0.05 -0.47,1.925 -2.1,1.4875 -1.38125,0.2875 -0.575,-1.6125 -1.19875,-2.0875 -0.91125,0.4 -1.46625,1.325 -2.69875,0.6 0.28375,-2.8875 -1.09125,-3.8 -0.30125,-6.6 1.745,0.4375 2.08,-0.525 2.7,-1.2 0.9425,-0.15 1.225,0.375 1.49875,0.9 1.02,-1.85 2.1175,-1.8 4.49875,-2.1 0.845,0.9625 0.4975,2.15 0.89875,3 1.26,-0.2875 -0.09125,-1.625 0.9,-2.4 1.22875,-0.3 1.56625,-0.325 2.1,0.6 -0.18875,-3.025 3.11,-4.0375 5.9975,-3 -1.7575,-2.2125 -3.74125,-10.9625 2.9975,-8.1 -3.27125,-9.4875 -13.73125,-15.15 -9.895,-28.1875 3.16625,-2.575 8.16875,-5.7375 13.195,-3 0.5275,2.125 2.915,2.775 3.59875,5.1 1.0925,3.7375 -1.31375,8.2875 -3.59875,10.5"
       style="fill:#231f20;fill-opacity:1;fill-rule:evenodd;stroke:none"
       id="path3356"
       inkscape:connector-curvature="0" />
    <path
       d="m -24.275175,381.66751 c 5.61125,-5.6125 -7.16125,-15.475 -7.7975,-4.5 1.3325,1.65 4.0475,1.2625 4.19875,-1.2 -0.65375,-0.8875 -2.11125,0.775 -2.39875,-0.6 0.4175,-3.3375 5.07625,-1.4 4.79875,1.2 -1.0425,1.8 -1.6875,3.4375 -3.89875,3.6 -2.1825,0.1625 -3.41125,-1.8625 -4.79875,-2.1 -1.40875,4.825 7.13875,6.35 9.89625,3.6 z m 32.0874999,-3.6 c -1.76375,-0.5375 -3.5375,-2.65 -5.09875,-2.4 1.305,0.8375 4.41875,2.9125 5.09875,2.4 z m 2.0975,-7.5 c -0.06625,1.975 0.7687501,3.0375 1.5000001,4.2 -0.0063,-1.8875 0.1975,-4 -1.5000001,-4.2 z m 5.0975001,4.5 c 2.09625,-0.4 2.41625,-2.575 3,-4.5 -1.24875,1.25 -2.3575,2.65 -3,4.5 z m 6.59875,0.6 c 2.56375,-0.2375 5.10125,-0.5 6.2975,-2.1 -2.055,-1.475 -4.55375,1.325 -6.2975,2.1 z m 24.590004,3 c 1.455,-2.4875 -0.025,-4.025 1.49875,-6 2.84125,-3.6875 9.55125,-1.625 9.295,2.1 -0.1975,2.8875 -4.985,4.275 -6.59625,1.2 -0.355,-1.75 2.75375,-0.0375 2.39875,-1.8 -1.5875,-2.8875 -6.21625,2.05 -4.1975,4.2 2.83875,3.025 11.34875,3.725 10.795,-4.2 -0.37875,-5.425 -4.96125,-7.9375 -10.495,-6 -6.24375,2.2 -13.182504,10.5 -22.491254,11.7 -3.65125,0.475 -7.34625,-0.625 -11.995,-1.8 -3.0425,7.225 -17.4312501,4.375 -23.9900001,1.8 -6.7512499,-2.65 -10.4674999,-11.175 -17.6924999,-10.5 4.59125,1.4125 7.5325,4.4625 7.19625,10.8 -1.9425,4.625 -10.84125,5.35 -15.2925,2.4 -5.1275,-8.7875 2.46,-17.0375 11.69375,-15.9 6.1125,0.7625 8.90125,7.7 15.2949999,10.5 4.05,1.775 7.97499997,2.175 13.49375,2.7 -2.03375,-1.3625 -4.39375003,-2.4 -5.69750003,-4.5 -0.2775,-3.5625 4.60625003,-4.7875 7.19750003,-2.7 0.52375,-0.8125 -0.5175,-2.1375 -0.30125,-3.6 0.69125,-0.9 1.37625,-1.825 3,-1.8 -0.3925,-1.7125 1.0512501,-2 1.7987501,-3.2875 -0.4075,-0.5 -1.7600001,0.25 -2.4000001,-0.6125 -0.7775,-1.6875 1.3112501,-4.025 3.0000001,-3.2875 0.04125,-1.25 -1.9287501,-0.475 -1.49875,-2.1 -0.2825001,-1.3875 1.6225,-0.575 2.0975,-1.2 -0.3975,-0.9125 -1.33,-1.4625 -0.59875,-2.7 2.88625,0.2875 3.8,-1.0875 6.5975,-0.3 -0.445,1.7375 0.51875,2.075 1.19875,2.7 0.1425,0.9375 -0.37375,1.225 -0.9,1.5 1.84625,1.0125 1.80125,2.1125 2.1,4.5 -0.965,0.8375 -2.1575,0.4875 -2.99875,0.8875 0.28125,1.2625 1.62,-0.0875 2.39875,0.9125 0.29625,1.225 0.32,1.5625 -0.6,2.1 3.0225,-0.2 4.04,3.1 3,5.9875 2.21,-1.75 10.965,-3.7375 8.09625,3 9.487504,-3.275 15.150004,-13.725 28.187504,-9.9 2.575,3.175 5.74125,8.175 2.99875,13.2 -2.1225,0.525 -2.77,2.9125 -5.0975,3.6 -3.73,1.0875 -8.28875,-1.3125 -10.495,-3.6"
       style="fill:#231f20;fill-opacity:1;fill-rule:evenodd;stroke:none"
       id="path3350"
       inkscape:connector-curvature="0" />
    <path
       d="m 60.988579,390.50501 c 5.61,5.6125 15.4775,-7.1625 4.4975,-7.7875 -1.65375,1.325 -1.26375,4.0375 1.19875,4.1875 0.885,-0.65 -0.77375,-2.1 0.60125,-2.4 3.34375,0.425 1.4025,5.0875 -1.2,4.8 -1.79625,-1.0375 -3.43875,-1.6875 -3.59875,-3.9 -0.1575,-2.175 1.86125,-3.4 2.1,-4.7875 -4.82375,-1.4125 -6.35625,7.1375 -3.59875,9.8875 z m 3.59875,32.0875 c 0.54,-1.7625 2.65375,-3.5375 2.39875,-5.1 -0.8375,1.3125 -2.9175,4.425 -2.39875,5.1 z m 7.49625,2.1 c -1.9675,-0.0625 -3.03125,0.7625 -4.19875,1.5 1.8925,-0.0125 3.99625,0.2 4.19875,-1.5 z m -4.49875,5.1 c 0.40375,2.1 2.5825,2.4125 4.49875,3 -1.25,-1.25 -2.64125,-2.3625 -4.49875,-3 z m -0.59875,6.6 c 0.235,2.5625 0.49625,5.1 2.0975,6.3 1.48375,-2.0625 -1.3175,-4.5625 -2.0975,-6.3 z m -3,24.5875 c 2.4825,1.45025 4.02125,-0.0249 5.9975,1.5 3.68875,2.83737 1.6325,9.54975 -2.09875,9.29975 -2.88375,-0.19963 -4.26875,-4.98725 -1.2,-6.5995 1.755,-0.36288 0.045,2.7495 1.8,2.39987 2.895,-1.58737 -2.0525,-6.22512 -4.19875,-4.20025 -3.02,2.83738 -3.72375,11.35013 4.19875,10.79988 5.425,-0.38725 7.945,-4.97463 5.9975,-10.4995 -2.1975,-6.25 -10.49625,-13.1875 -11.695,-22.50025 -0.47,-3.65 0.62,-7.3375 1.8,-11.9875 -7.22625,-3.0375 -4.38125,-17.4375 -1.8,-23.9875 2.65625,-6.75 11.16875,-10.475 10.49625,-17.7 -1.40625,4.6 -4.46375,7.5375 -10.79625,7.2 -4.61875,-1.9375 -5.34625,-10.8375 -2.39875,-15.2875 8.78625,-5.125 17.0325,2.4625 15.89375,11.6875 -0.755,6.1125 -7.69,8.9 -10.49625,15.3 -1.77875,4.05 -2.17375,7.975 -2.69875,13.4875 1.36375,-2.0375 2.4025,-4.3875 4.49875,-5.7 3.57,-0.275 4.79,4.6125 2.6975,7.2 0.8175,0.525 2.1425,-0.5125 3.59875,-0.3 0.90875,0.7 1.82375,1.375 1.79875,3 1.72,-0.3875 2.00375,1.05 3.3,1.8 0.495,-0.4125 -0.255,-1.7625 0.59875,-2.4 1.69375,-0.775 4.0375,1.3125 3.29875,3 1.24,0.0375 0.47,-1.925 2.1,-1.5 1.38,-0.275 0.575,1.625 1.19875,2.1 0.91,-0.4 1.46625,-1.3375 2.69875,-0.6 -0.285,2.8875 1.09125,3.8 0.3,6.6 -1.74375,-0.45 -2.07875,0.5125 -2.69875,1.2 -0.9425,0.1375 -1.225,-0.375 -1.49875,-0.9 -1.02125,1.85 -2.11875,1.8 -4.49875,2.1 -0.84625,-0.975 -0.4975,-2.1625 -0.9,-3 -1.2575,0.275 0.0925,1.6125 -0.89875,2.4 -1.22875,0.2875 -1.56625,0.3125 -2.1,-0.6 0.18875,3.025 -3.11,4.0375 -5.9975,3 1.7575,2.2125 3.74125,10.96237 -2.9975,8.0875 3.27125,9.48775 13.73125,15.1625 9.895,28.18737 -3.165,2.58738 -8.1675,5.75 -13.195,3 -0.5275,-2.11225 -2.915,-2.76212 -3.59875,-5.08737 -1.0925,-3.73725 1.31375,-8.29975 3.59875,-10.5"
       style="fill:#231f20;fill-opacity:1;fill-rule:evenodd;stroke:none"
       id="path3354"
       inkscape:connector-curvature="0" />
    <path
       d="m 53.406079,477.34226 c -5.61125,5.61287 7.16125,15.47512 7.7975,4.5 -1.3325,-1.662 -4.0475,-1.26213 -4.19875,1.20025 0.65375,0.875 2.11125,-0.77488 2.39875,0.60012 -0.4175,3.33738 -5.07625,1.39988 -4.79875,-1.20025 1.0425,-1.79975 1.6875,-3.4375 3.89875,-3.60012 2.18125,-0.162 3.41125,1.86287 4.79875,2.10012 1.40875,-4.82462 -7.13875,-6.36225 -9.89625,-3.60012 z m -32.087504,3.60012 c 1.7625,0.53763 3.5375,2.64988 5.09875,2.39988 -1.30625,-0.83738 -4.41875,-2.92475 -5.09875,-2.39988 z m -2.0975,7.48738 c 0.06625,-1.9625 -0.76875,-3.025 -1.5,-4.187 0.0062,1.88712 -0.1975,3.98725 1.5,4.187 z m -5.09875,-4.48738 c -2.095,0.39988 -2.415,2.57525 -2.99875,4.48738 1.24875,-1.25 2.3575,-2.63725 2.99875,-4.48738 z m -6.5975001,-0.60012 c -2.56375,0.22512 -5.10125,0.48787 -6.2975,2.10012 2.055,1.47513 4.55375,-1.32462 6.2975,-2.10012 z m -24.5887499,-3 c -1.455,2.47512 0.02375,4.01275 -1.49875,5.98787 -2.8425,3.69963 -9.5525,1.63713 -9.29625,-2.08737 0.1975,-2.88775 4.985,-4.2755 6.59625,-1.20025 0.35625,1.75 -2.75375,0.0376 -2.39875,1.79975 1.5875,2.88775 6.21625,-2.0625 4.19875,-4.19963 -2.84,-3.02537 -11.34875,-3.72512 -10.79625,4.19963 0.38,5.42537 4.9625,7.9375 10.49625,5.98787 6.24375,-2.1875 13.1812499,-10.48787 22.4899999,-11.6875 3.65125,-0.47512 7.3462501,0.61225 11.9950001,1.79975 3.0425,-7.22512 17.43125,-4.38762 23.99,-1.79975 6.751254,2.64988 10.467504,11.16213 17.692504,10.48725 -4.59125,-1.39987 -7.5325,-4.46237 -7.19625,-10.78762 1.9425,-4.625 10.84125,-5.3495 15.2925,-2.39988 5.1275,8.78763 -2.46125,17.02488 -11.69375,15.88775 -6.1125,-0.75 -8.90125,-7.6875 -15.295004,-10.48787 -4.05,-1.787 -7.975,-2.17475 -13.495,-2.69963 2.035,1.36225 4.395,2.39988 5.69875,4.5 0.2775,3.5625 -4.60625,4.78713 -7.1975,2.6875 -0.52375,0.82463 0.5175,2.14988 0.30125,3.60013 -0.69125,0.912 -1.37625,1.82462 -3,1.79975 0.3925,1.72512 -1.05125,2.01225 -1.79875,3.29975 0.4075,0.5 1.76,-0.25 2.4,0.60012 0.7775,1.70025 -1.31125,4.03763 -3,3.30038 -0.04125,1.23725 1.92875,0.4745 1.49875,2.0995 0.2825,1.38775 -1.6225,0.57525 -2.0975,1.20025 0.3975,0.91262 1.33,1.46237 0.59875,2.70025 -2.88625,-0.28763 -3.8,1.08737 -6.5975,0.29975 0.445,-1.75 -0.51875,-2.07525 -1.1987501,-2.70025 -0.1425,-0.9375 0.37375,-1.2245 0.9000001,-1.5 -1.8462501,-1.02488 -1.8012501,-2.11225 -2.1000001,-4.5 0.965,-0.83738 2.1562501,-0.5 2.9987501,-0.89988 -0.28125,-1.25 -1.6200001,0.10013 -2.3987501,-0.89987 -0.29625,-1.22513 -0.32,-1.5625 0.6,-2.10013 -3.0225,0.1875 -4.04,-3.11225 -3,-5.98725 -2.21,1.75 -10.965,3.73725 -8.09625,-3 -9.4862499,3.26213 -15.1499999,13.72513 -28.1862499,9.88713 -2.57625,-3.162 -5.74125,-8.162 -3,-13.1875 2.1225,-0.52488 2.77,-2.912 5.0975,-3.5995 3.73125,-1.10013 8.28875,1.3125 10.49625,3.5995"
       style="fill:#231f20;fill-opacity:1;fill-rule:evenodd;stroke:none"
       id="path3352"
       inkscape:connector-curvature="0" />
  </g>
</svg>
