<?xml version="1.0" encoding="UTF-8" standalone="no"?>
<!-- Created with Inkscape (http://www.inkscape.org/) -->

<svg
   xmlns:dc="http://purl.org/dc/elements/1.1/"
   xmlns:cc="http://creativecommons.org/ns#"
   xmlns:rdf="http://www.w3.org/1999/02/22-rdf-syntax-ns#"
   xmlns:svg="http://www.w3.org/2000/svg"
   xmlns="http://www.w3.org/2000/svg"
   xmlns:sodipodi="http://sodipodi.sourceforge.net/DTD/sodipodi-0.dtd"
   xmlns:inkscape="http://www.inkscape.org/namespaces/inkscape"
   width="149.67787"
   height="151.94354"
   id="svg5209"
   version="1.1"
   inkscape:version="0.48.2 r9819"
   sodipodi:docname="rsvp.svg">
  <defs
     id="defs5211" />
  <sodipodi:namedview
     id="base"
     pagecolor="#ffffff"
     bordercolor="#666666"
     borderopacity="1.0"
     inkscape:pageopacity="0.0"
     inkscape:pageshadow="2"
     inkscape:zoom="1.4"
     inkscape:cx="216.69649"
     inkscape:cy="58.828919"
     inkscape:document-units="px"
     inkscape:current-layer="layer1"
     showgrid="false"
     fit-margin-top="0"
     fit-margin-left="0"
     fit-margin-right="0"
     fit-margin-bottom="0"
     inkscape:window-width="1054"
     inkscape:window-height="881"
     inkscape:window-x="20"
     inkscape:window-y="20"
     inkscape:window-maximized="0" />
  <metadata
     id="metadata5214">
    <rdf:RDF>
      <cc:Work
         rdf:about="">
        <dc:format>image/svg+xml</dc:format>
        <dc:type
           rdf:resource="http://purl.org/dc/dcmitype/StillImage" />
        <dc:title />
      </cc:Work>
    </rdf:RDF>
  </metadata>
  <g
     inkscape:label="Layer 1"
     inkscape:groupmode="layer"
     id="layer1"
     transform="translate(60.553221,-353.53327)">
    <path
       style="fill:#ffffff;fill-opacity:1;fill-rule:nonzero"
       d="m 112.19202,13.409266 c -10.6726,2.035321 -18.29201,14.184936 -30.044638,11.875 -3.12,-0.296812 -7.623081,-2.842259 -9.553572,0.9375 -5.22028,3.201278 -12.034327,1.392794 -17.700892,0.491072 -7.271139,-1.273191 -11.26561,-8.568758 -17.924108,-10.803572 -2.070557,1.213611 1.070192,3.815004 1.540179,5.290179 1.458692,2.682624 1.860506,7.449197 -2.34375,7.857143 -1.773566,0.494589 -4.207941,2.016642 -5.401786,0.290178 -1.424854,-0.190659 -6.228452,-1.230927 -5.133928,1.540179 3.586005,3.28615 2.820139,9.902781 -1.049107,12.566964 -2.68636,0.0039 1.451779,-0.436025 1.629464,-2.053571 2.907944,-3.724383 1.198531,-10.386481 -4.0625,-10.446429 -5.439085,-1.252181 -10.00291,4.254735 -8.571429,9.397322 3.021331,10.160036 14.246075,17.957214 11.607143,29.508928 -0.42873,2.95255 -2.519429,7.150905 1.049107,8.928572 3.220022,5.263793 1.378347,12.122286 0.46875,17.834821 -1.45193,7.179148 -8.629009,11.282758 -10.825893,17.968748 1.244172,2.43827 3.345971,-1.30368 4.84375,-1.65178 2.685135,-0.80203 7.478502,-2.76415 7.963158,1.40787 2.624656,3.48293 0.153304,7.68859 0.675235,11.44927 1.777277,0.9333 2.892002,-2.16062 4.955357,-1.67411 3.209852,-0.28748 9.59784,1.27183 7.700893,5.8259 0.209213,4.69987 -7.81317,5.20083 -8.415178,0.87053 -0.01266,-2.33714 4.348595,-2.31486 4.196428,-1.25 -3.382443,0.91779 -0.07829,4.44015 1.986607,2.63393 2.152505,-1.40866 3.67005,-5.14746 0.446429,-6.38393 -4.101763,-3.43289 -11.351236,-0.24053 -10.602679,5.3125 -0.0082,4.95078 5.116156,8.53546 9.866072,6.89732 9.824068,-2.28837 16.86349,-13.02838 27.745536,-11.51785 3.114867,-0.0961 7.771004,3.29826 9.799107,-0.40179 6.623564,-4.46659 15.804285,-1.96084 22.589286,0.89286 5.706469,2.40972 9.455189,8.89183 15.870539,9.66518 1.69065,-1.8465 -2.41447,-3.18405 -3.05804,-4.73215 -2.76455,-2.74792 -2.54837,-8.46968 1.85268,-9.26339 3.24491,-1.29983 6.71779,-0.22964 9.93303,0.13393 1.3928,-1.98229 -2.78425,-3.43934 -2.38839,-5.78125 -0.31648,-2.84933 0.4109,-7.23787 3.48214,-8.16964 -0.36849,0.24386 -2.6241,2.21872 -2.63392,3.77232 -1.58633,3.95266 0.85594,9.05163 5.51339,8.59375 4.94691,0.20575 9.59873,-4.74457 7.63393,-9.73215 -2.69458,-10.07734 -13.65452,-17.666811 -11.38393,-28.973211 0.42121,-3.201523 2.06106,-7.30548 -1.20536,-9.553571 -3.71284,-7.412084 -1.32384,-16.62665 2.38839,-23.526786 2.33155,-4.406536 7.58025,-7.467468 8.30358,-12.589286 -1.5904,-2.607742 -3.46193,2.094298 -5.17858,2.455358 -2.98035,1.65409 -7.45164,1.337131 -8.39285,-2.5 -1.54281,-3.150581 1.1262,-7.537965 -1.16072,-10.178572 -1.3452,0.142596 -1.98633,2.114136 -3.75,1.40625 -2.6482,-0.361557 -6.32601,-0.99388 -7.6116,-3.59375 0.1,-2.3339 0.58462,1.602428 2.05357,1.674107 3.65332,3.009418 10.24266,1.431721 10.55803,-3.75 0.94637,-4.973304 -3.22911,-9.515902 -8.25893,-8.950893 z m 0.55804,4.910715 c 2.42634,-0.811839 5.34014,2.29104 3.125,4.129464 -1.31794,1.116861 -5.64511,0.460789 -2.32143,-1.026786 1.60314,-2.349508 -3.00921,-3.068994 -3.90625,-1.071428 -1.08741,0.885583 -1.70287,3.446193 -1.31696,0.736607 0.23449,-1.974592 2.61842,-2.775171 4.41964,-2.767857 z M 20.919703,34.748552 c 2.173152,-0.274406 2.830776,3.985402 1.383929,4.285714 -1.362771,-2.00109 -4.249053,-0.220614 -2.723214,1.763393 0.681893,1.558599 4.630017,2.986977 0.714285,1.852679 -2.911454,-0.871415 -2.978372,-7.874704 0.625,-7.901786 z M 127.86167,109.10123 c 4.95599,-0.20538 4.8,7.94407 0.40178,8.21429 -1.93899,-0.24645 -2.46448,-4.25802 -0.9375,-4.46429 -0.40618,3.02739 3.78428,1.66614 2.92411,-0.69196 -0.0121,-1.29565 -2.4726,-3.04398 -2.38839,-3.05804 z"
       id="path12596"
       inkscape:connector-curvature="0"
       transform="translate(-60.553221,353.53327)" />
    <path
       d="m -24.275175,381.66751 c 5.61125,-5.6125 -7.16125,-15.475 -7.7975,-4.5 1.3325,1.65 4.0475,1.2625 4.19875,-1.2 -0.65375,-0.8875 -2.11125,0.775 -2.39875,-0.6 0.4175,-3.3375 5.07625,-1.4 4.79875,1.2 -1.0425,1.8 -1.6875,3.4375 -3.89875,3.6 -2.1825,0.1625 -3.41125,-1.8625 -4.79875,-2.1 -1.40875,4.825 7.13875,6.35 9.89625,3.6 z m 32.0874999,-3.6 c -1.76375,-0.5375 -3.5375,-2.65 -5.09875,-2.4 1.305,0.8375 4.41875,2.9125 5.09875,2.4 z m 2.0975,-7.5 c -0.06625,1.975 0.7687501,3.0375 1.5000001,4.2 -0.0063,-1.8875 0.1975,-4 -1.5000001,-4.2 z m 5.0975001,4.5 c 2.09625,-0.4 2.41625,-2.575 3,-4.5 -1.24875,1.25 -2.3575,2.65 -3,4.5 z m 6.59875,0.6 c 2.56375,-0.2375 5.10125,-0.5 6.2975,-2.1 -2.055,-1.475 -4.55375,1.325 -6.2975,2.1 z m 24.590004,3 c 1.455,-2.4875 -0.025,-4.025 1.49875,-6 2.84125,-3.6875 9.55125,-1.625 9.295,2.1 -0.1975,2.8875 -4.985,4.275 -6.59625,1.2 -0.355,-1.75 2.75375,-0.0375 2.39875,-1.8 -1.5875,-2.8875 -6.21625,2.05 -4.1975,4.2 2.83875,3.025 11.34875,3.725 10.795,-4.2 -0.37875,-5.425 -4.96125,-7.9375 -10.495,-6 -6.24375,2.2 -13.182504,10.5 -22.491254,11.7 -3.65125,0.475 -7.34625,-0.625 -11.995,-1.8 -3.0425,7.225 -17.4312501,4.375 -23.9900001,1.8 -6.7512499,-2.65 -10.4674999,-11.175 -17.6924999,-10.5 4.59125,1.4125 7.5325,4.4625 7.19625,10.8 -1.9425,4.625 -10.84125,5.35 -15.2925,2.4 -5.1275,-8.7875 2.46,-17.0375 11.69375,-15.9 6.1125,0.7625 8.90125,7.7 15.2949999,10.5 4.05,1.775 7.97499997,2.175 13.49375,2.7 -2.03375,-1.3625 -4.39375003,-2.4 -5.69750003,-4.5 -0.2775,-3.5625 4.60625003,-4.7875 7.19750003,-2.7 0.52375,-0.8125 -0.5175,-2.1375 -0.30125,-3.6 0.69125,-0.9 1.37625,-1.825 3,-1.8 -0.3925,-1.7125 1.0512501,-2 1.7987501,-3.2875 -0.4075,-0.5 -1.7600001,0.25 -2.4000001,-0.6125 -0.7775,-1.6875 1.3112501,-4.025 3.0000001,-3.2875 0.04125,-1.25 -1.9287501,-0.475 -1.49875,-2.1 -0.2825001,-1.3875 1.6225,-0.575 2.0975,-1.2 -0.3975,-0.9125 -1.33,-1.4625 -0.59875,-2.7 2.88625,0.2875 3.8,-1.0875 6.5975,-0.3 -0.445,1.7375 0.51875,2.075 1.19875,2.7 0.1425,0.9375 -0.37375,1.225 -0.9,1.5 1.84625,1.0125 1.80125,2.1125 2.1,4.5 -0.965,0.8375 -2.1575,0.4875 -2.99875,0.8875 0.28125,1.2625 1.62,-0.0875 2.39875,0.9125 0.29625,1.225 0.32,1.5625 -0.6,2.1 3.0225,-0.2 4.04,3.1 3,5.9875 2.21,-1.75 10.965,-3.7375 8.09625,3 9.487504,-3.275 15.150004,-13.725 28.187504,-9.9 2.575,3.175 5.74125,8.175 2.99875,13.2 -2.1225,0.525 -2.77,2.9125 -5.0975,3.6 -3.73,1.0875 -8.28875,-1.3125 -10.495,-3.6"
       style="fill:#231f20;fill-opacity:1;fill-rule:evenodd;stroke:none"
       id="path3350"
       inkscape:connector-curvature="0" />
    <path
       d="m -32.415175,468.60501 c -5.61125,-5.61225 -15.47875,7.16262 -4.49875,7.79975 1.65375,-1.32463 1.265,-4.04975 -1.19875,-4.19963 -0.885,0.64988 0.77375,2.11225 -0.60125,2.39988 -3.3425,-0.41263 -1.4025,-5.07525 1.2,-4.80025 1.79625,1.05025 3.43875,1.688 3.59875,3.90037 0.1575,2.1875 -1.86125,3.41263 -2.09875,4.79975 4.8225,1.41263 6.35625,-7.13762 3.59875,-9.89987 z m -3.59875,-32.0875 c -0.54125,1.7625 -2.65375,3.5375 -2.39875,5.1 0.8375,-1.3 2.9175,-4.4125 2.39875,-5.1 z m -7.49625,-2.1 c 1.96625,0.075 3.03,-0.7625 4.1975,-1.4875 -1.8925,0 -3.995,-0.2 -4.1975,1.4875 z m 4.4975,-5.0875 c -0.40375,-2.1 -2.5825,-2.425 -4.4975,-3 1.25,1.25 2.64,2.35 4.4975,3 z m 0.6,-6.6 c -0.23625,-2.5625 -0.4975,-5.1 -2.09875,-6.3 -1.48375,2.05 1.31875,4.55 2.09875,6.3 z m 2.99875,-24.5875 c -2.4825,-1.4625 -4.02125,0.025 -5.9975,-1.5 -3.68875,-2.85 -1.63125,-9.55 2.09875,-9.3 2.885,0.2 4.26875,4.9875 1.2,6.6 -1.75375,0.35 -0.045,-2.7625 -1.8,-2.4 -2.895,1.5875 2.0525,6.2125 4.19875,4.2 3.02,-2.8375 3.72375,-11.35 -4.19875,-10.8 -5.42375,0.3875 -7.945,4.9625 -5.99625,10.5 2.19625,6.2375 10.495,13.175 11.69375,22.4875 0.47,3.65 -0.62,7.35 -1.79875,12 7.225,3.0375 4.38,17.425 1.79875,23.9875 -2.65625,6.75 -11.16875,10.46237 -10.495,17.6875 1.40625,-4.58738 4.4625,-7.52488 10.795,-7.20025 4.62,1.95025 5.3475,10.85012 2.39875,15.30037 -8.78625,5.125 -17.0325,-2.46237 -15.89375,-11.70025 0.755,-6.10012 7.69,-8.89987 10.49625,-15.28762 1.77875,-4.04975 2.17375,-7.97475 2.69875,-13.49975 -1.36375,2.0375 -2.4025,4.4 -4.49875,5.7 -3.57,0.275 -4.79,-4.6 -2.6975,-7.2 -0.8175,-0.5125 -2.1425,0.525 -3.59875,0.3 -0.90875,-0.6875 -1.82375,-1.375 -1.79875,-2.9875 -1.72,0.3875 -2.00375,-1.0625 -3.3,-1.8 -0.49625,0.4 0.255,1.75 -0.6,2.4 -1.6925,0.775 -4.03625,-1.3125 -3.2975,-3 -1.24125,-0.05 -0.47,1.925 -2.1,1.4875 -1.38125,0.2875 -0.575,-1.6125 -1.19875,-2.0875 -0.91125,0.4 -1.46625,1.325 -2.69875,0.6 0.28375,-2.8875 -1.09125,-3.8 -0.30125,-6.6 1.745,0.4375 2.08,-0.525 2.7,-1.2 0.9425,-0.15 1.225,0.375 1.49875,0.9 1.02,-1.85 2.1175,-1.8 4.49875,-2.1 0.845,0.9625 0.4975,2.15 0.89875,3 1.26,-0.2875 -0.09125,-1.625 0.9,-2.4 1.22875,-0.3 1.56625,-0.325 2.1,0.6 -0.18875,-3.025 3.11,-4.0375 5.9975,-3 -1.7575,-2.2125 -3.74125,-10.9625 2.9975,-8.1 -3.27125,-9.4875 -13.73125,-15.15 -9.895,-28.1875 3.16625,-2.575 8.16875,-5.7375 13.195,-3 0.5275,2.125 2.915,2.775 3.59875,5.1 1.0925,3.7375 -1.31375,8.2875 -3.59875,10.5"
       style="fill:#231f20;fill-opacity:1;fill-rule:evenodd;stroke:none"
       id="path3356"
       inkscape:connector-curvature="0" />
    <path
       d="m 53.406079,477.34226 c -5.61125,5.61287 7.16125,15.47512 7.7975,4.5 -1.3325,-1.662 -4.0475,-1.26213 -4.19875,1.20025 0.65375,0.875 2.11125,-0.77488 2.39875,0.60012 -0.4175,3.33738 -5.07625,1.39988 -4.79875,-1.20025 1.0425,-1.79975 1.6875,-3.4375 3.89875,-3.60012 2.18125,-0.162 3.41125,1.86287 4.79875,2.10012 1.40875,-4.82462 -7.13875,-6.36225 -9.89625,-3.60012 z m -32.087504,3.60012 c 1.7625,0.53763 3.5375,2.64988 5.09875,2.39988 -1.30625,-0.83738 -4.41875,-2.92475 -5.09875,-2.39988 z m -2.0975,7.48738 c 0.06625,-1.9625 -0.76875,-3.025 -1.5,-4.187 0.0062,1.88712 -0.1975,3.98725 1.5,4.187 z m -5.09875,-4.48738 c -2.095,0.39988 -2.415,2.57525 -2.99875,4.48738 1.24875,-1.25 2.3575,-2.63725 2.99875,-4.48738 z m -6.5975001,-0.60012 c -2.56375,0.22512 -5.10125,0.48787 -6.2975,2.10012 2.055,1.47513 4.55375,-1.32462 6.2975,-2.10012 z m -24.5887499,-3 c -1.455,2.47512 0.02375,4.01275 -1.49875,5.98787 -2.8425,3.69963 -9.5525,1.63713 -9.29625,-2.08737 0.1975,-2.88775 4.985,-4.2755 6.59625,-1.20025 0.35625,1.75 -2.75375,0.0376 -2.39875,1.79975 1.5875,2.88775 6.21625,-2.0625 4.19875,-4.19963 -2.84,-3.02537 -11.34875,-3.72512 -10.79625,4.19963 0.38,5.42537 4.9625,7.9375 10.49625,5.98787 6.24375,-2.1875 13.1812499,-10.48787 22.4899999,-11.6875 3.65125,-0.47512 7.3462501,0.61225 11.9950001,1.79975 3.0425,-7.22512 17.43125,-4.38762 23.99,-1.79975 6.751254,2.64988 10.467504,11.16213 17.692504,10.48725 -4.59125,-1.39987 -7.5325,-4.46237 -7.19625,-10.78762 1.9425,-4.625 10.84125,-5.3495 15.2925,-2.39988 5.1275,8.78763 -2.46125,17.02488 -11.69375,15.88775 -6.1125,-0.75 -8.90125,-7.6875 -15.295004,-10.48787 -4.05,-1.787 -7.975,-2.17475 -13.495,-2.69963 2.035,1.36225 4.395,2.39988 5.69875,4.5 0.2775,3.5625 -4.60625,4.78713 -7.1975,2.6875 -0.52375,0.82463 0.5175,2.14988 0.30125,3.60013 -0.69125,0.912 -1.37625,1.82462 -3,1.79975 0.3925,1.72512 -1.05125,2.01225 -1.79875,3.29975 0.4075,0.5 1.76,-0.25 2.4,0.60012 0.7775,1.70025 -1.31125,4.03763 -3,3.30038 -0.04125,1.23725 1.92875,0.4745 1.49875,2.0995 0.2825,1.38775 -1.6225,0.57525 -2.0975,1.20025 0.3975,0.91262 1.33,1.46237 0.59875,2.70025 -2.88625,-0.28763 -3.8,1.08737 -6.5975,0.29975 0.445,-1.75 -0.51875,-2.07525 -1.1987501,-2.70025 -0.1425,-0.9375 0.37375,-1.2245 0.9000001,-1.5 -1.8462501,-1.02488 -1.8012501,-2.11225 -2.1000001,-4.5 0.965,-0.83738 2.1562501,-0.5 2.9987501,-0.89988 -0.28125,-1.25 -1.6200001,0.10013 -2.3987501,-0.89987 -0.29625,-1.22513 -0.32,-1.5625 0.6,-2.10013 -3.0225,0.1875 -4.04,-3.11225 -3,-5.98725 -2.21,1.75 -10.965,3.73725 -8.09625,-3 -9.4862499,3.26213 -15.1499999,13.72513 -28.1862499,9.88713 -2.57625,-3.162 -5.74125,-8.162 -3,-13.1875 2.1225,-0.52488 2.77,-2.912 5.0975,-3.5995 3.73125,-1.10013 8.28875,1.3125 10.49625,3.5995"
       style="fill:#231f20;fill-opacity:1;fill-rule:evenodd;stroke:none"
       id="path3352"
       inkscape:connector-curvature="0" />
    <path
       d="m 60.988579,390.50501 c 5.61,5.6125 15.4775,-7.1625 4.4975,-7.7875 -1.65375,1.325 -1.26375,4.0375 1.19875,4.1875 0.885,-0.65 -0.77375,-2.1 0.60125,-2.4 3.34375,0.425 1.4025,5.0875 -1.2,4.8 -1.79625,-1.0375 -3.43875,-1.6875 -3.59875,-3.9 -0.1575,-2.175 1.86125,-3.4 2.1,-4.7875 -4.82375,-1.4125 -6.35625,7.1375 -3.59875,9.8875 z m 3.59875,32.0875 c 0.54,-1.7625 2.65375,-3.5375 2.39875,-5.1 -0.8375,1.3125 -2.9175,4.425 -2.39875,5.1 z m 7.49625,2.1 c -1.9675,-0.0625 -3.03125,0.7625 -4.19875,1.5 1.8925,-0.0125 3.99625,0.2 4.19875,-1.5 z m -4.49875,5.1 c 0.40375,2.1 2.5825,2.4125 4.49875,3 -1.25,-1.25 -2.64125,-2.3625 -4.49875,-3 z m -0.59875,6.6 c 0.235,2.5625 0.49625,5.1 2.0975,6.3 1.48375,-2.0625 -1.3175,-4.5625 -2.0975,-6.3 z m -3,24.5875 c 2.4825,1.45025 4.02125,-0.0249 5.9975,1.5 3.68875,2.83737 1.6325,9.54975 -2.09875,9.29975 -2.88375,-0.19963 -4.26875,-4.98725 -1.2,-6.5995 1.755,-0.36288 0.045,2.7495 1.8,2.39987 2.895,-1.58737 -2.0525,-6.22512 -4.19875,-4.20025 -3.02,2.83738 -3.72375,11.35013 4.19875,10.79988 5.425,-0.38725 7.945,-4.97463 5.9975,-10.4995 -2.1975,-6.25 -10.49625,-13.1875 -11.695,-22.50025 -0.47,-3.65 0.62,-7.3375 1.8,-11.9875 -7.22625,-3.0375 -4.38125,-17.4375 -1.8,-23.9875 2.65625,-6.75 11.16875,-10.475 10.49625,-17.7 -1.40625,4.6 -4.46375,7.5375 -10.79625,7.2 -4.61875,-1.9375 -5.34625,-10.8375 -2.39875,-15.2875 8.78625,-5.125 17.0325,2.4625 15.89375,11.6875 -0.755,6.1125 -7.69,8.9 -10.49625,15.3 -1.77875,4.05 -2.17375,7.975 -2.69875,13.4875 1.36375,-2.0375 2.4025,-4.3875 4.49875,-5.7 3.57,-0.275 4.79,4.6125 2.6975,7.2 0.8175,0.525 2.1425,-0.5125 3.59875,-0.3 0.90875,0.7 1.82375,1.375 1.79875,3 1.72,-0.3875 2.00375,1.05 3.3,1.8 0.495,-0.4125 -0.255,-1.7625 0.59875,-2.4 1.69375,-0.775 4.0375,1.3125 3.29875,3 1.24,0.0375 0.47,-1.925 2.1,-1.5 1.38,-0.275 0.575,1.625 1.19875,2.1 0.91,-0.4 1.46625,-1.3375 2.69875,-0.6 -0.285,2.8875 1.09125,3.8 0.3,6.6 -1.74375,-0.45 -2.07875,0.5125 -2.69875,1.2 -0.9425,0.1375 -1.225,-0.375 -1.49875,-0.9 -1.02125,1.85 -2.11875,1.8 -4.49875,2.1 -0.84625,-0.975 -0.4975,-2.1625 -0.9,-3 -1.2575,0.275 0.0925,1.6125 -0.89875,2.4 -1.22875,0.2875 -1.56625,0.3125 -2.1,-0.6 0.18875,3.025 -3.11,4.0375 -5.9975,3 1.7575,2.2125 3.74125,10.96237 -2.9975,8.0875 3.27125,9.48775 13.73125,15.1625 9.895,28.18737 -3.165,2.58738 -8.1675,5.75 -13.195,3 -0.5275,-2.11225 -2.915,-2.76212 -3.59875,-5.08737 -1.0925,-3.73725 1.31375,-8.29975 3.59875,-10.5"
       style="fill:#231f20;fill-opacity:1;fill-rule:evenodd;stroke:none"
       id="path3354"
       inkscape:connector-curvature="0" />
  </g>
</svg>
