<?xml version="1.0" encoding="UTF-8" standalone="no"?>
<!-- Created with Inkscape (http://www.inkscape.org/) -->

<svg
   xmlns:dc="http://purl.org/dc/elements/1.1/"
   xmlns:cc="http://creativecommons.org/ns#"
   xmlns:rdf="http://www.w3.org/1999/02/22-rdf-syntax-ns#"
   xmlns:svg="http://www.w3.org/2000/svg"
   xmlns="http://www.w3.org/2000/svg"
   xmlns:sodipodi="http://sodipodi.sourceforge.net/DTD/sodipodi-0.dtd"
   xmlns:inkscape="http://www.inkscape.org/namespaces/inkscape"
   width="163.35017"
   height="150.75183"
   id="svg4662"
   version="1.1"
   inkscape:version="0.48.2 r9819"
   sodipodi:docname="New document 29">
  <defs
     id="defs4664" />
  <sodipodi:namedview
     id="base"
     pagecolor="#ffffff"
     bordercolor="#666666"
     borderopacity="1.0"
     inkscape:pageopacity="0.0"
     inkscape:pageshadow="2"
     inkscape:zoom="2.6078945"
     inkscape:cx="81.675084"
     inkscape:cy="75.37592"
     inkscape:document-units="px"
     inkscape:current-layer="layer1"
     showgrid="false"
     fit-margin-top="0"
     fit-margin-left="0"
     fit-margin-right="0"
     fit-margin-bottom="0"
     inkscape:window-width="587"
     inkscape:window-height="666"
     inkscape:window-x="20"
     inkscape:window-y="20"
     inkscape:window-maximized="0" />
  <metadata
     id="metadata4667">
    <rdf:RDF>
      <cc:Work
         rdf:about="">
        <dc:format>image/svg+xml</dc:format>
        <dc:type
           rdf:resource="http://purl.org/dc/dcmitype/StillImage" />
        <dc:title></dc:title>
      </cc:Work>
    </rdf:RDF>
  </metadata>
  <g
     inkscape:label="Layer 1"
     inkscape:groupmode="layer"
     id="layer1"
     transform="translate(78.817941,-302.70056)">
    <path
       d="m -75.522689,324.28856 c 1.98625,0.4125 3.27375,3.125 4.7975,3 -0.94125,-1.4625 -2.83375,-3.5625 -4.7975,-3 z m 4.49875,8.1 c -1.085,1.4125 -0.425,3.2875 1.19875,3.6 1.081251,-1.3625 1.163751,-3.6 -1.19875,-3.6 z m 5.397501,-3.9 c 0,-1.3 0,-2.6 0,-3.9 -1.1325,0.5125 -1.9475,3.6625 0,3.9 z m 0.3,104.04987 c 0.815,-0.17475 1.405,-0.58738 1.79875,-1.20013 -1.1,-0.0996 -1.5375,0.46288 -1.79875,1.20013 z m 11.09625,0 c -0.13875,2.23737 0.2725,3.92487 1.19875,5.10012 0.06625,-2.16262 -0.27375,-3.92475 -1.19875,-5.10012 z M 50.42481,314.68856 c 0.575,2.025 1.92875,3.275 3.59875,4.2 -0.68,-1.925 -2.2375,-2.9625 -3.59875,-4.2 z m 12.895,81.56225 c -1.8,-12.18725 -1.77375,-24.61225 -2.39875,-35.97475 -0.32125,-5.8375 -1.645,-11.6625 -2.09875,-17.4 -0.55625,-7 -0.33875,-12.8 -2.69875,-18.5875 -8.90125,2.7625 -20.025,3.475 -31.1875,4.2 -6.983748,0.45 -14.507498,0.7125 -21.2912484,0.3 -18.4924996,-1.125 -36.2712496,3.6125 -53.9774996,4.8 -4.5075,0.3 -9.63125,-0.1875 -12.59375,2.1 2.16875,5.5 -0.2725,14.3 0.59875,21.8875 0.3,2.6125 1.51125,4.875 1.49875,7.1875 -0.0062,1.25 -0.65625,2.05 -0.59875,3.3 0.07125,1.5875 0.76625,3.2125 0.9,4.8 0.6375,7.6375 -0.27375,15.9875 0.29875,23.98737 0.725,10.11237 2.955,19.41262 4.79875,28.20025 3.8175,0.61225 7.68625,3.13712 11.695,2.98725 3.03375,-0.10013 6.27375,-1.5625 9.59625,-2.08738 3.23125,-0.52487 6.4675,-1.29975 9.59625,-1.80025 9.40375,-1.51225 18.2824996,-0.54987 27.8874996,-0.29987 6.345,0.16262 12.7050004,-0.58738 18.8912484,0 7.27875,0.67537 13.85875,1.54987 20.3925,1.20025 8.09875,-0.45025 15.74375,-3.48788 23.69,-2.70025 1.5725,-10.14988 -1.78375,-17.86225 -2.99875,-26.10012 z m -1.19875,-75.56225 c 2.36,1.4375 5.6975,0.7875 5.9975,-2.1 -2.57875,0.125 -5.72,-0.325 -5.9975,2.1 z m 10.195,107.94999 c 0.99375,3.11225 2.36625,5.83738 5.9975,6.29975 0.7125,-3.63712 -3.23625,-5.13712 -5.9975,-6.29975 z m 1.79875,-4.1875 c 2.17875,2.14988 4.945,3.42475 6.59875,0 -0.7975,-0.57525 -4.6675,-1.14987 -6.59875,0 z M 59.72231,324.28856 c 2.3275,9.0875 2.305,17.175 3.8975,27.2875 0.42875,2.7125 1.35375,5.4125 1.49875,8.1 0.50625,9.3 1.91375,18.725 2.4,28.1875 0.13625,2.675 -0.27875,5.425 0,8.10025 0.19375,1.86225 1.1575,3.537 1.49875,5.38712 1.0925,5.92487 0.7025,12.77487 0.9,20.10012 3.26625,-0.41262 10.53375,-2.03762 13.49375,-0.30025 3.17,3.3125 -1.17125,6.70013 -3.29875,8.38763 3.90125,3.60012 0.855,9.125 -4.1975,8.39987 -2.71875,-0.38712 -3.85125,-2.96237 -5.3975,-5.0995 -2.8775,8.69963 -9.58625,-0.85012 -7.7975,-7.1875 -12.38125,2.01213 -23.5625,2.96238 -35.985,2.687 -1.865,-0.0371 -3.57,-0.75 -5.3975,-0.9 -7.594998,-0.61225 -16.4774984,-0.0121 -23.0899984,-0.58737 -11.4674996,-1.01263 -21.6337496,0.9375 -31.7874996,2.6875 -5.81625,1.01275 -11.5475,3.1875 -17.3925,1.20025 1.405,2.91212 2.85,9.36225 0.9,14.10012 -2.83875,2.42475 -5.3825,-0.5255 -5.9975,-3 -1.78875,2.71238 -2.0225,6.9745 -2.69875,10.79975 -1.7725,0.64988 -2.325,1.10013 -4.1975,0.60013 -0.835,-3.66263 0.5475,-6.92538 -0.30125,-11.70025 -1.29,0.21237 -5.766251,2 -7.196251,-0.29975 -0.815,-2.85013 2.877501,-3.91263 2.998751,-5.10013 0.115,-1.13775 -2.076251,-0.72512 -0.9,-2.10012 0.77375,-4.22513 4.47125,-5.52488 8.69625,-6.29975 0.745,-4.17538 -1.785,-7.4375 -2.39875,-10.78763 -2.15,-11.75 -1.895,-24.17499 -1.5,-35.68749 0.4625,-13.45 -2.8225,-23.5875 -1.79875,-38.6875 -0.6325,-0.9625 -1.16,-2.0375 -1.19875,-3.6 -2.980001,2.0375 -6.826251,-0.3125 -8.696251,-2.1 -0.26875,-3.0625 0.12875,-5.4625 1.49875,-6.8875 -2.9125,-1.4875 -7.73625,-6.1375 -3.29875,-9.6 3.2325,0.2625 4.9325,2.025 7.49625,3.6 4.673751,-6.875 10.352501,0.1375 5.997501,6.9 12.735,-1.8125 24.99625,-2 37.785,-3.9 7.97875,-1.1875 15.7899996,-2.6375 24.2887496,-2.4 15.8875004,0.4375 35.2824984,0.3875 52.7787484,-3 -3.14125,-1.125 -7.62125,-10.7875 -1.49875,-11.1 2.74,-0.1375 4.12,3.025 6.2975,4.2 0.55625,-1.65 1.81875,-3.1 2.39875,-5.7 0.595,-2.6625 -0.045,-6.3375 2.99875,-6.2875 1.555,0.025 3.1725,2.6375 3.29875,3.6 0.52875,3.9875 -3.10375,8.4125 -3.89875,11.0875 2.3225,-1.975 7.18875,-2.8625 10.19625,-0.9 2.685,6.0375 -5.4825,10.075 -11.395,7.8"
       style="fill:#231f20;fill-opacity:1;fill-rule:evenodd;stroke:none"
       id="path3506"
       inkscape:connector-curvature="0" />
    <path
       d="m 51.20981,367.93856 c -0.19,1.4125 -1.39125,3.3875 -0.59875,4.8 0.45375,-1.2625 1.78375,-3.7625 0.59875,-4.8 z m -57.2749984,45.57499 c 11.245,-0.0249 21.9475004,-0.98725 33.2862484,0 7.9575,0.70025 16.0675,4.67475 21.59,3.60013 4.7175,-0.91263 7.585,-5.65038 8.0975,-10.5 1,-9.46237 -2.325,-22.28762 -3.59875,-30.88762 -2.07875,0.3875 -6.04,0.85 -6.8975,-0.9 -0.76,-3.9125 0.3675,-8.375 2.39875,-10.4875 0.445,-1.0625 3.0675,0.0625 3.29875,-1.2 0.50375,-8.7625 -1.0525,-17.625 -4.1975,-23.6875 -5.1725,-4.775 -12.30125,-4.2125 -18.8925,-3.9 -3.93625,0.1875 -8.359998,0.125 -12.594998,0.6 -4.8475,0.5375 -9.5687504,2.4375 -14.0937504,2.4 -1.02,-0.0125 -2.02375,-0.3125 -3,-0.3 -4.885,0.0625 -9.4749996,1.9875 -14.0924996,2.4 -3.685,0.325 -8.15875,-0.6375 -12.295,-0.3 -1.615,0.125 -2.97,0.65 -4.49875,0.6 -2.70625,-0.0875 -5.455,-1.6125 -8.09625,-1.5 -4.42,0.1875 -8.26375,2.65 -11.995,4.4875 -0.62125,2.925 -0.78375,5.8875 -0.3,9.6 0.47,3.625 2.5675,7.175 2.99875,9.9 0.4975,3.125 -0.20375,7.6 0,11.6875 0.07375,1.4875 0.59875,3.125 0.6,4.5 0.0088,7.45 -2.3825,15.89975 -2.39875,22.80012 -0.02,7.33737 3.8875,20.57462 9.59625,12.88712 -1.855,-1.89987 -4.18125,-3.51212 -3.9,-6.89987 0.58375,-6.98725 12.36375,-4.77488 9.89625,3.60012 9.72625,-2.5625 17.97375,1.53763 29.0887496,1.5 z m -46.1812496,3.60013 c -5.75125,-11.16263 -0.87125,-23.92512 -0.9,-37.18762 -0.01,-4.7 -0.08875,-10.2625 -0.6,-15.5875 -0.835,-8.7375 -3.475,-16.975 -0.89875,-21.8875 1.53125,-2.9375 10.115,-5.8125 13.79375,-6 2.42125,-0.125 6.38125,1.1125 8.99625,1.2 2.16375,0.0625 4.86375,-0.6 7.79625,-0.6 2.78875,0 5.8625,0.475 8.3975,0.3 3.71,-0.275 8.5399996,-1.9125 13.4937496,-2.1 2.66625,-0.1 5.2975,0.35 7.79625,0 2.095,-0.2875 4.07,-1.4 6.2975004,-1.8 5.29875,-0.9625 11.633748,-1.0125 17.392498,-1.2 9.22875,-0.3 18.205,-0.3875 22.4925,5.1 2.27125,2.9 4.53375,10.225 5.0975,15.2875 0.56625,5.1 -1.12375,11.7 -0.60125,15.9 1.565,12.55 4.535,23.05 5.09875,32.68737 0.74125,12.67537 -6.05,20.92537 -18.5925,19.1875 -8.07,-1.11225 -16.5325,-3.125 -25.488748,-3.29975 -4.22375,-0.0874 -8.1737504,-0.0376 -12.2950004,-0.30038 -4.32625,-0.27487 -8.48125,0.66263 -12.595,0.60013 -4.4137496,-0.0746 -9.1499996,-1.1875 -13.7937496,-1.5 -4.205,-0.27488 -9.8225,-1.4375 -14.095,0 -3.6575,1.23787 -5.07,6.6875 -11.395,5.39987 -2.61625,-0.537 -3.23375,-2.67475 -5.3975,-4.19962"
       style="fill:#231f20;fill-opacity:1;fill-rule:evenodd;stroke:none"
       id="path3508"
       inkscape:connector-curvature="0" />
  </g>
</svg>
