<?xml version="1.0" encoding="UTF-8" standalone="no"?>
<!-- Created with Inkscape (http://www.inkscape.org/) -->

<svg
   xmlns:dc="http://purl.org/dc/elements/1.1/"
   xmlns:cc="http://creativecommons.org/ns#"
   xmlns:rdf="http://www.w3.org/1999/02/22-rdf-syntax-ns#"
   xmlns:svg="http://www.w3.org/2000/svg"
   xmlns="http://www.w3.org/2000/svg"
   xmlns:sodipodi="http://sodipodi.sourceforge.net/DTD/sodipodi-0.dtd"
   xmlns:inkscape="http://www.inkscape.org/namespaces/inkscape"
   width="163.35017"
   height="150.75183"
   id="svg4662"
   version="1.1"
   inkscape:version="0.48.2 r9819"
   sodipodi:docname="timetable_hover.svg">
  <defs
     id="defs4664" />
  <sodipodi:namedview
     id="base"
     pagecolor="#ffffff"
     bordercolor="#666666"
     borderopacity="1.0"
     inkscape:pageopacity="0.0"
     inkscape:pageshadow="2"
     inkscape:zoom="3.6881198"
     inkscape:cx="116.73484"
     inkscape:cy="86.879453"
     inkscape:document-units="px"
     inkscape:current-layer="layer1"
     showgrid="false"
     fit-margin-top="0"
     fit-margin-left="0"
     fit-margin-right="0"
     fit-margin-bottom="0"
     inkscape:window-width="1542"
     inkscape:window-height="823"
     inkscape:window-x="200"
     inkscape:window-y="75"
     inkscape:window-maximized="0" />
  <metadata
     id="metadata4667">
    <rdf:RDF>
      <cc:Work
         rdf:about="">
        <dc:format>image/svg+xml</dc:format>
        <dc:type
           rdf:resource="http://purl.org/dc/dcmitype/StillImage" />
        <dc:title />
      </cc:Work>
    </rdf:RDF>
  </metadata>
  <g
     inkscape:label="Layer 1"
     inkscape:groupmode="layer"
     id="layer1"
     transform="translate(78.817941,-302.70056)">
    <path
       style="fill:#56008c;fill-opacity:0.39555556;fill-rule:nonzero"
       d="m 129.81352,64.342705 c -0.95343,0.252204 -0.92552,1.47701 -1.23033,2.264147 -0.32722,1.266968 -0.8404,2.850686 0.10993,3.972925 0.58439,0.572943 1.55532,0.249926 1.78844,-0.476319 0.67076,-1.475133 1.31633,-3.171882 0.82382,-4.79913 -0.22872,-0.59538 -0.81166,-1.130042 -1.49186,-0.961623 z"
       id="path6188"
       inkscape:connector-curvature="0"
       transform="translate(-78.817941,302.70056)" />
    <path
       style="fill:#56008c;fill-opacity:0.39555556;fill-rule:nonzero"
       d="m 110.60705,31.708293 c -7.94813,0.102015 -15.958038,0.316029 -23.711138,2.243193 -5.228667,1.379604 -10.756228,-0.08297 -15.939984,1.571817 -4.199332,1.162179 -8.522443,1.473845 -12.882317,1.159798 -3.63646,-0.201581 -7.270873,0.02473 -10.879628,0.388697 -3.886389,-0.629722 -7.928669,-2.055969 -11.85394,-0.686325 -3.113992,1.118248 -6.317355,2.356001 -8.939175,4.372146 -1.102211,1.913302 -0.597385,4.353754 -0.77953,6.481961 -0.277788,4.912979 2.137144,9.398693 3.197925,14.039881 0.05345,9.226042 0.99433,18.543061 -0.713263,27.67043 -1.125871,7.467336 -1.938387,15.465799 1.319783,22.541599 0.896434,2.24106 2.909411,4.84311 5.558388,4.49925 1.523474,-0.66286 3.114433,-1.71109 3.762079,-3.28759 -1.175758,-2.28592 -4.269051,-4.02096 -3.821391,-6.99882 0.05249,-2.95848 3.995497,-3.83662 6.024411,-2.19455 1.942995,1.21666 2.051553,3.69636 1.779362,5.71938 0.194555,1.63225 2.043924,1.01283 3.067281,0.70327 7.111061,-1.17167 14.235514,1.07929 21.293031,1.71193 12.688395,0.11121 25.387535,-0.21995 38.069076,0.24075 7.36061,0.33861 14.23228,4.13197 21.72596,3.52098 4.76813,-0.009 8.10887,-4.47418 9.39672,-8.66804 1.81271,-9.406208 -0.56706,-18.941747 -2.08875,-28.220128 -0.44973,-1.947464 -0.49065,-4.082449 -1.16494,-5.892778 -1.93879,-1.090862 -4.49292,0.04837 -6.51585,-0.694798 -0.65687,-1.07544 -0.27175,-2.81018 -0.2203,-4.05864 0.34183,-1.975337 0.84431,-4.32875 2.46569,-5.634646 1.20259,-0.06552 2.88357,-0.114614 3.11812,-1.660738 0.53677,-7.209731 -0.33309,-14.649688 -2.88935,-21.428602 -1.41799,-4.609612 -6.46876,-6.69323 -10.87105,-7.244545 -2.49507,-0.212527 -5.00478,-0.206323 -7.50722,-0.194882 z"
       id="path6186"
       inkscape:connector-curvature="0"
       transform="translate(-78.817941,302.70056)" />
    <path
       style="fill:#56008c;fill-opacity:1;fill-rule:nonzero"
       d="m 134.50982,20.701668 c -4.61356,1.103153 -9.26069,2.072932 -13.99115,2.576775 -15.02849,1.828686 -30.223912,1.934886 -45.354812,1.693694 -17.418216,0.05065 -34.459698,4.524141 -51.838745,5.058471 -2.920437,0.331578 -6.44937,0.291669 -8.523991,2.677516 0.572567,2.298228 0.889551,4.637401 0.796477,7.04119 0.06684,4.943945 -0.423224,9.903225 -0.343591,14.829041 0.554152,3.216688 2.19153,6.45915 1.224799,9.709208 -0.293279,2.696319 0.868063,5.304437 0.705219,8.032347 0.546494,11.820213 -0.333813,23.790212 2.124813,35.43492 1.021608,4.94537 1.779053,9.98507 3.101174,14.83649 1.102573,1.46206 3.253642,1.21485 4.779329,2.00127 2.950147,0.87535 5.917786,2.35798 9.097601,1.58314 5.214983,-0.82335 10.270605,-2.35664 15.504326,-3.12264 5.472555,-1.16944 11.076606,-1.34152 16.670101,-1.13573 10.331714,0.36303 20.672509,0.0597 31.003489,0.29267 9.756331,0.65165 19.647721,2.18704 29.359471,0.26267 5.44284,-1.11626 10.91207,-1.824 16.48028,-1.81326 1.66601,-0.66556 0.9018,-2.96284 1.23606,-4.42251 0.48102,-9.45974 -3.17627,-18.456437 -3.91357,-27.800884 -1.43912,-12.48037 -1.04193,-25.135122 -2.525,-37.620795 -1.34475,-8.150585 -1.46604,-16.422492 -2.68494,-24.582755 -0.58103,-1.804735 -0.58567,-4.112114 -2.0685,-5.437623 -0.26554,-0.104423 -0.55771,-0.114481 -0.83884,-0.0932 z m -21.40319,9.922061 c 5.21425,0.06348 11.0771,-0.0037 15.33641,3.457046 3.75528,3.736984 4.80527,9.253597 5.90579,14.201003 1.16188,6.782304 -1.27391,13.721767 0.13557,20.530448 1.38803,10.741023 4.33952,21.286396 4.6687,32.130194 0.008,5.40919 -2.07475,11.31785 -7.04119,14.09932 -5.13813,2.99939 -11.29332,1.30133 -16.817,0.56344 -7.72901,-1.37926 -15.50405,-2.29678 -23.362022,-2.32583 -6.427655,-0.27939 -12.863069,-0.23831 -19.277001,0.26086 -6.778766,-0.0298 -13.468264,-1.47741 -20.233066,-1.89289 -3.550525,-0.2824 -7.534943,-0.62942 -10.710967,1.2253 -2.099346,1.34341 -3.709754,3.58002 -6.058304,4.47382 -1.915752,0.37631 -4.283713,0.52795 -5.642938,-1.21327 -4.454161,-3.48809 -5.125735,-9.55705 -5.016288,-14.83488 0.03601,-8.438079 1.962878,-16.737598 1.592953,-25.199153 0.172933,-7.77368 -0.324322,-15.539143 -1.609899,-23.207964 -0.401641,-4.031911 -1.38198,-8.427134 0.101678,-12.294544 1.518403,-2.561703 4.761531,-3.349244 7.340343,-4.442247 2.856025,-1.037344 5.953878,-1.75754 8.98598,-0.88785 3.231708,0.65173 6.552939,0.94154 9.779459,0.474981 6.32198,-0.415933 12.767392,0.560937 18.958061,-1.161052 5.476891,-1.307655 11.244635,-0.383866 16.747802,-1.53341 6.814771,-2.414633 14.179209,-1.962653 21.309529,-2.347921 1.63514,-0.04464 3.27081,-0.05908 4.9064,-0.0754 z"
       id="path6184"
       inkscape:connector-curvature="0"
       transform="translate(-78.817941,302.70056)" />
    <path
       style="fill:#56008c;fill-opacity:0"
       d="m 28.183656,123.57874 -4.601413,-1.44958 -0.856693,-3.99317 C 19.432451,102.78638 18.718067,96.750863 18.755197,84.592269 18.77134,79.30617 18.576217,73.180539 18.32159,70.979755 c -0.254627,-2.200783 -0.420027,-5.532302 -0.367556,-7.403378 0.06804,-2.42641 -0.10093,-4.020805 -0.589255,-5.56004 -0.589556,-1.858325 -0.684655,-3.649421 -0.684655,-12.894717 0,-5.905147 -0.143401,-11.026935 -0.318668,-11.381752 -0.735176,-1.488315 2.080846,-2.049228 15.045026,-2.996759 3.037943,-0.222039 10.543998,-1.094164 16.680122,-1.938057 16.856741,-2.318284 21.707589,-2.642692 38.381619,-2.566828 13.671717,0.0622 19.145327,-0.167743 30.292637,-1.272594 5.59179,-0.554222 11.47042,-1.469372 14.82675,-2.308137 1.61688,-0.404065 3.03562,-0.734664 3.15276,-0.734664 0.34682,0 1.30895,3.808177 1.74381,6.902119 0.22231,1.581736 0.58335,5.377902 0.80231,8.435924 0.21895,3.058023 0.7416,7.975783 1.16145,10.928356 0.76928,5.410008 1.1199,10.294295 1.89934,26.458126 0.53013,10.993754 1.46539,18.834178 3.24761,27.225026 1.44632,6.80941 2.02842,12.60713 1.57162,15.65328 l -0.26899,1.79375 -2.58079,0 c -1.41944,0 -6.19721,0.61531 -10.61728,1.36735 -9.41115,1.60125 -15.15497,1.78379 -25.4835,0.8099 -7.927115,-0.74746 -43.3667,-1.20938 -48.506559,-0.63224 -4.289962,0.48171 -12.604902,2.03481 -17.516514,3.27181 -4.91612,1.23813 -6.550118,1.16228 -12.009221,-0.55749 l 0,0 z m 8.382467,-5.17091 c 0.695195,-0.29047 2.158197,-1.32231 3.251117,-2.29298 3.410681,-3.02917 3.732844,-3.12807 10.031403,-3.07959 3.261913,0.0251 8.254398,0.39366 12.07871,0.89166 5.757322,0.74971 7.548725,0.82073 15.338043,0.60806 13.758559,-0.37564 24.529764,0.24354 36.347124,2.08941 5.43895,0.84957 10.56391,1.54466 11.3888,1.54466 4.16052,0 9.13088,-2.102 11.33728,-4.79462 3.10262,-3.78634 4.25591,-8.47492 3.8649,-15.712268 -0.22979,-4.253244 -0.70513,-7.368918 -3.56969,-23.398259 -1.06574,-5.963642 -1.20322,-9.133525 -0.88973,-20.514634 0.1586,-5.757691 -0.40318,-8.877673 -2.65978,-14.771823 -1.96823,-5.140917 -4.18131,-7.169156 -9.507,-8.712935 -2.78822,-0.808234 -3.64204,-0.860674 -13.14338,-0.807248 -11.919466,0.06702 -17.69279,0.555981 -22.405903,1.897612 -2.831598,0.806041 -4.426202,0.996913 -9.202826,1.101568 -4.105496,0.08995 -6.887583,0.36834 -9.612268,0.961846 -3.284297,0.715404 -5.320088,0.854738 -14.18769,0.971038 -6.194634,0.08124 -11.046271,-0.02156 -12.07871,-0.255952 -4.382527,-0.994934 -10.288128,-0.0088 -15.338043,2.561268 -4.849817,2.468203 -5.469244,5.585964 -3.617671,18.208831 1.472625,10.039438 1.710335,24.248012 0.576286,34.44617 -1.317737,11.850006 -1.006566,18.732536 1.060685,23.460376 0.814171,1.86202 3.891395,5.09052 5.43176,5.69878 1.402074,0.55365 4.056328,0.50498 5.506583,-0.10097 z"
       id="path6072"
       inkscape:connector-curvature="0"
       transform="translate(-78.817941,302.70056)" />
    <path
       style="fill:#56008c;fill-opacity:0"
       d="m 28.183656,123.57874 -4.601413,-1.44958 -0.856693,-3.99317 C 19.432451,102.78638 18.718067,96.750863 18.755197,84.592269 18.77134,79.30617 18.576217,73.180539 18.32159,70.979755 c -0.254627,-2.200783 -0.420027,-5.532302 -0.367556,-7.403378 0.06804,-2.42641 -0.10093,-4.020805 -0.589255,-5.56004 -0.589556,-1.858325 -0.684655,-3.649421 -0.684655,-12.894717 0,-5.905147 -0.143401,-11.026935 -0.318668,-11.381752 -0.735176,-1.488315 2.080846,-2.049228 15.045026,-2.996759 3.037943,-0.222039 10.543998,-1.094164 16.680122,-1.938057 16.856741,-2.318284 21.707589,-2.642692 38.381619,-2.566828 13.671717,0.0622 19.145327,-0.167743 30.292637,-1.272594 5.59179,-0.554222 11.47042,-1.469372 14.82675,-2.308137 1.61688,-0.404065 3.03562,-0.734664 3.15276,-0.734664 0.34682,0 1.30895,3.808177 1.74381,6.902119 0.22231,1.581736 0.58335,5.377902 0.80231,8.435924 0.21895,3.058023 0.7416,7.975783 1.16145,10.928356 0.76928,5.410008 1.1199,10.294295 1.89934,26.458126 0.53013,10.993754 1.46539,18.834178 3.24761,27.225026 1.44632,6.80941 2.02842,12.60713 1.57162,15.65328 l -0.26899,1.79375 -2.58079,0 c -1.41944,0 -6.19721,0.61531 -10.61728,1.36735 -9.41115,1.60125 -15.15497,1.78379 -25.4835,0.8099 -7.927115,-0.74746 -43.3667,-1.20938 -48.506559,-0.63224 -4.289962,0.48171 -12.604902,2.03481 -17.516514,3.27181 -4.91612,1.23813 -6.550118,1.16228 -12.009221,-0.55749 l 0,0 z m 8.382467,-5.17091 c 0.695195,-0.29047 2.158197,-1.32231 3.251117,-2.29298 3.410681,-3.02917 3.732844,-3.12807 10.031403,-3.07959 3.261913,0.0251 8.254398,0.39366 12.07871,0.89166 5.757322,0.74971 7.548725,0.82073 15.338043,0.60806 13.758559,-0.37564 24.529764,0.24354 36.347124,2.08941 5.43895,0.84957 10.56391,1.54466 11.3888,1.54466 4.16052,0 9.13088,-2.102 11.33728,-4.79462 3.10262,-3.78634 4.25591,-8.47492 3.8649,-15.712268 -0.22979,-4.253244 -0.70513,-7.368918 -3.56969,-23.398259 -1.06574,-5.963642 -1.20322,-9.133525 -0.88973,-20.514634 0.1586,-5.757691 -0.40318,-8.877673 -2.65978,-14.771823 -1.96823,-5.140917 -4.18131,-7.169156 -9.507,-8.712935 -2.78822,-0.808234 -3.64204,-0.860674 -13.14338,-0.807248 -11.919466,0.06702 -17.69279,0.555981 -22.405903,1.897612 -2.831598,0.806041 -4.426202,0.996913 -9.202826,1.101568 -4.105496,0.08995 -6.887583,0.36834 -9.612268,0.961846 -3.284297,0.715404 -5.320088,0.854738 -14.18769,0.971038 -6.194634,0.08124 -11.046271,-0.02156 -12.07871,-0.255952 -4.382527,-0.994934 -10.288128,-0.0088 -15.338043,2.561268 -4.849817,2.468203 -5.469244,5.585964 -3.617671,18.208831 1.472625,10.039438 1.710335,24.248012 0.576286,34.44617 -1.317737,11.850006 -1.006566,18.732536 1.060685,23.460376 0.814171,1.86202 3.891395,5.09052 5.43176,5.69878 1.402074,0.55365 4.056328,0.50498 5.506583,-0.10097 z"
       id="path6074"
       inkscape:connector-curvature="0"
       transform="translate(-78.817941,302.70056)" />
    <path
       style="fill:#56008c;fill-opacity:0"
       d="m 28.183656,123.57874 -4.601413,-1.44958 -0.856693,-3.99317 C 19.432451,102.78638 18.718067,96.750863 18.755197,84.592269 18.77134,79.30617 18.576217,73.180539 18.32159,70.979755 c -0.254627,-2.200783 -0.420027,-5.532302 -0.367556,-7.403378 0.06804,-2.42641 -0.10093,-4.020805 -0.589255,-5.56004 -0.589556,-1.858325 -0.684655,-3.649421 -0.684655,-12.894717 0,-5.905147 -0.143401,-11.026935 -0.318668,-11.381752 -0.735176,-1.488315 2.080846,-2.049228 15.045026,-2.996759 3.037943,-0.222039 10.543998,-1.094164 16.680122,-1.938057 16.856741,-2.318284 21.707589,-2.642692 38.381619,-2.566828 13.671717,0.0622 19.145327,-0.167743 30.292637,-1.272594 5.59179,-0.554222 11.47042,-1.469372 14.82675,-2.308137 1.61688,-0.404065 3.03562,-0.734664 3.15276,-0.734664 0.34682,0 1.30895,3.808177 1.74381,6.902119 0.22231,1.581736 0.58335,5.377902 0.80231,8.435924 0.21895,3.058023 0.7416,7.975783 1.16145,10.928356 0.76928,5.410008 1.1199,10.294295 1.89934,26.458126 0.53013,10.993754 1.46539,18.834178 3.24761,27.225026 1.44632,6.80941 2.02842,12.60713 1.57162,15.65328 l -0.26899,1.79375 -2.58079,0 c -1.41944,0 -6.19721,0.61531 -10.61728,1.36735 -9.41115,1.60125 -15.15497,1.78379 -25.4835,0.8099 -7.927115,-0.74746 -43.3667,-1.20938 -48.506559,-0.63224 -4.289962,0.48171 -12.604902,2.03481 -17.516514,3.27181 -4.91612,1.23813 -6.550118,1.16228 -12.009221,-0.55749 l 0,0 z m 8.382467,-5.17091 c 0.695195,-0.29047 2.158197,-1.32231 3.251117,-2.29298 3.410681,-3.02917 3.732844,-3.12807 10.031403,-3.07959 3.261913,0.0251 8.254398,0.39366 12.07871,0.89166 5.757322,0.74971 7.548725,0.82073 15.338043,0.60806 13.758559,-0.37564 24.529764,0.24354 36.347124,2.08941 5.43895,0.84957 10.56391,1.54466 11.3888,1.54466 4.16052,0 9.13088,-2.102 11.33728,-4.79462 3.10262,-3.78634 4.25591,-8.47492 3.8649,-15.712268 -0.22979,-4.253244 -0.70513,-7.368918 -3.56969,-23.398259 -1.06574,-5.963642 -1.20322,-9.133525 -0.88973,-20.514634 0.1586,-5.757691 -0.40318,-8.877673 -2.65978,-14.771823 -1.96823,-5.140917 -4.18131,-7.169156 -9.507,-8.712935 -2.78822,-0.808234 -3.64204,-0.860674 -13.14338,-0.807248 -11.919466,0.06702 -17.69279,0.555981 -22.405903,1.897612 -2.831598,0.806041 -4.426202,0.996913 -9.202826,1.101568 -4.105496,0.08995 -6.887583,0.36834 -9.612268,0.961846 -3.284297,0.715404 -5.320088,0.854738 -14.18769,0.971038 -6.194634,0.08124 -11.046271,-0.02156 -12.07871,-0.255952 -4.382527,-0.994934 -10.288128,-0.0088 -15.338043,2.561268 -4.849817,2.468203 -5.469244,5.585964 -3.617671,18.208831 1.472625,10.039438 1.710335,24.248012 0.576286,34.44617 -1.317737,11.850006 -1.006566,18.732536 1.060685,23.460376 0.814171,1.86202 3.891395,5.09052 5.43176,5.69878 1.402074,0.55365 4.056328,0.50498 5.506583,-0.10097 z"
       id="path6076"
       inkscape:connector-curvature="0"
       transform="translate(-78.817941,302.70056)" />
    <path
       style="fill:#56008c;fill-opacity:0"
       d="m 28.183656,123.57874 -4.601413,-1.44958 -0.856693,-3.99317 C 19.432451,102.78638 18.718067,96.750863 18.755197,84.592269 18.77134,79.30617 18.576217,73.180539 18.32159,70.979755 c -0.254627,-2.200783 -0.420027,-5.532302 -0.367556,-7.403378 0.06804,-2.42641 -0.10093,-4.020805 -0.589255,-5.56004 -0.589556,-1.858325 -0.684655,-3.649421 -0.684655,-12.894717 0,-5.905147 -0.143401,-11.026935 -0.318668,-11.381752 -0.735176,-1.488315 2.080846,-2.049228 15.045026,-2.996759 3.037943,-0.222039 10.543998,-1.094164 16.680122,-1.938057 16.856741,-2.318284 21.707589,-2.642692 38.381619,-2.566828 13.671717,0.0622 19.145327,-0.167743 30.292637,-1.272594 5.59179,-0.554222 11.47042,-1.469372 14.82675,-2.308137 1.61688,-0.404065 3.03562,-0.734664 3.15276,-0.734664 0.34682,0 1.30895,3.808177 1.74381,6.902119 0.22231,1.581736 0.58335,5.377902 0.80231,8.435924 0.21895,3.058023 0.7416,7.975783 1.16145,10.928356 0.76928,5.410008 1.1199,10.294295 1.89934,26.458126 0.53013,10.993754 1.46539,18.834178 3.24761,27.225026 1.44632,6.80941 2.02842,12.60713 1.57162,15.65328 l -0.26899,1.79375 -2.58079,0 c -1.41944,0 -6.19721,0.61531 -10.61728,1.36735 -9.41115,1.60125 -15.15497,1.78379 -25.4835,0.8099 -7.927115,-0.74746 -43.3667,-1.20938 -48.506559,-0.63224 -4.289962,0.48171 -12.604902,2.03481 -17.516514,3.27181 -4.91612,1.23813 -6.550118,1.16228 -12.009221,-0.55749 l 0,0 z m 8.382467,-5.17091 c 0.695195,-0.29047 2.158197,-1.32231 3.251117,-2.29298 3.410681,-3.02917 3.732844,-3.12807 10.031403,-3.07959 3.261913,0.0251 8.254398,0.39366 12.07871,0.89166 5.757322,0.74971 7.548725,0.82073 15.338043,0.60806 13.758559,-0.37564 24.529764,0.24354 36.347124,2.08941 5.43895,0.84957 10.56391,1.54466 11.3888,1.54466 4.16052,0 9.13088,-2.102 11.33728,-4.79462 3.10262,-3.78634 4.25591,-8.47492 3.8649,-15.712268 -0.22979,-4.253244 -0.70513,-7.368918 -3.56969,-23.398259 -1.06574,-5.963642 -1.20322,-9.133525 -0.88973,-20.514634 0.1586,-5.757691 -0.40318,-8.877673 -2.65978,-14.771823 -1.96823,-5.140917 -4.18131,-7.169156 -9.507,-8.712935 -2.78822,-0.808234 -3.64204,-0.860674 -13.14338,-0.807248 -11.919466,0.06702 -17.69279,0.555981 -22.405903,1.897612 -2.831598,0.806041 -4.426202,0.996913 -9.202826,1.101568 -4.105496,0.08995 -6.887583,0.36834 -9.612268,0.961846 -3.284297,0.715404 -5.320088,0.854738 -14.18769,0.971038 -6.194634,0.08124 -11.046271,-0.02156 -12.07871,-0.255952 -4.382527,-0.994934 -10.288128,-0.0088 -15.338043,2.561268 -4.849817,2.468203 -5.469244,5.585964 -3.617671,18.208831 1.472625,10.039438 1.710335,24.248012 0.576286,34.44617 -1.317737,11.850006 -1.006566,18.732536 1.060685,23.460376 0.814171,1.86202 3.891395,5.09052 5.43176,5.69878 1.402074,0.55365 4.056328,0.50498 5.506583,-0.10097 z"
       id="path6078"
       inkscape:connector-curvature="0"
       transform="translate(-78.817941,302.70056)" />
    <path
       style="fill:#56008c;fill-opacity:0"
       d="m 28.183656,123.57874 -4.601413,-1.44958 -0.856693,-3.99317 C 19.432451,102.78638 18.718067,96.750863 18.755197,84.592269 18.77134,79.30617 18.576217,73.180539 18.32159,70.979755 c -0.254627,-2.200783 -0.420027,-5.532302 -0.367556,-7.403378 0.06804,-2.42641 -0.10093,-4.020805 -0.589255,-5.56004 -0.589556,-1.858325 -0.684655,-3.649421 -0.684655,-12.894717 0,-5.905147 -0.143401,-11.026935 -0.318668,-11.381752 -0.735176,-1.488315 2.080846,-2.049228 15.045026,-2.996759 3.037943,-0.222039 10.543998,-1.094164 16.680122,-1.938057 16.856741,-2.318284 21.707589,-2.642692 38.381619,-2.566828 13.671717,0.0622 19.145327,-0.167743 30.292637,-1.272594 5.59179,-0.554222 11.47042,-1.469372 14.82675,-2.308137 1.61688,-0.404065 3.03562,-0.734664 3.15276,-0.734664 0.34682,0 1.30895,3.808177 1.74381,6.902119 0.22231,1.581736 0.58335,5.377902 0.80231,8.435924 0.21895,3.058023 0.7416,7.975783 1.16145,10.928356 0.76928,5.410008 1.1199,10.294295 1.89934,26.458126 0.53013,10.993754 1.46539,18.834178 3.24761,27.225026 1.44632,6.80941 2.02842,12.60713 1.57162,15.65328 l -0.26899,1.79375 -2.58079,0 c -1.41944,0 -6.19721,0.61531 -10.61728,1.36735 -9.41115,1.60125 -15.15497,1.78379 -25.4835,0.8099 -7.927115,-0.74746 -43.3667,-1.20938 -48.506559,-0.63224 -4.289962,0.48171 -12.604902,2.03481 -17.516514,3.27181 -4.91612,1.23813 -6.550118,1.16228 -12.009221,-0.55749 l 0,0 z m 8.382467,-5.17091 c 0.695195,-0.29047 2.158197,-1.32231 3.251117,-2.29298 3.410681,-3.02917 3.732844,-3.12807 10.031403,-3.07959 3.261913,0.0251 8.254398,0.39366 12.07871,0.89166 5.757322,0.74971 7.548725,0.82073 15.338043,0.60806 13.758559,-0.37564 24.529764,0.24354 36.347124,2.08941 5.43895,0.84957 10.56391,1.54466 11.3888,1.54466 4.16052,0 9.13088,-2.102 11.33728,-4.79462 3.10262,-3.78634 4.25591,-8.47492 3.8649,-15.712268 -0.22979,-4.253244 -0.70513,-7.368918 -3.56969,-23.398259 -1.06574,-5.963642 -1.20322,-9.133525 -0.88973,-20.514634 0.1586,-5.757691 -0.40318,-8.877673 -2.65978,-14.771823 -1.96823,-5.140917 -4.18131,-7.169156 -9.507,-8.712935 -2.78822,-0.808234 -3.64204,-0.860674 -13.14338,-0.807248 -11.919466,0.06702 -17.69279,0.555981 -22.405903,1.897612 -2.831598,0.806041 -4.426202,0.996913 -9.202826,1.101568 -4.105496,0.08995 -6.887583,0.36834 -9.612268,0.961846 -3.284297,0.715404 -5.320088,0.854738 -14.18769,0.971038 -6.194634,0.08124 -11.046271,-0.02156 -12.07871,-0.255952 -4.382527,-0.994934 -10.288128,-0.0088 -15.338043,2.561268 -4.849817,2.468203 -5.469244,5.585964 -3.617671,18.208831 1.472625,10.039438 1.710335,24.248012 0.576286,34.44617 -1.317737,11.850006 -1.006566,18.732536 1.060685,23.460376 0.814171,1.86202 3.891395,5.09052 5.43176,5.69878 1.402074,0.55365 4.056328,0.50498 5.506583,-0.10097 z"
       id="path6080"
       inkscape:connector-curvature="0"
       transform="translate(-78.817941,302.70056)" />
    <path
       style="fill:#56008c;fill-opacity:0"
       d="m 28.183656,123.57874 -4.601413,-1.44958 -0.856693,-3.99317 C 19.432451,102.78638 18.718067,96.750863 18.755197,84.592269 18.77134,79.30617 18.576217,73.180539 18.32159,70.979755 c -0.254627,-2.200783 -0.420027,-5.532302 -0.367556,-7.403378 0.06804,-2.42641 -0.10093,-4.020805 -0.589255,-5.56004 -0.589556,-1.858325 -0.684655,-3.649421 -0.684655,-12.894717 0,-5.905147 -0.143401,-11.026935 -0.318668,-11.381752 -0.735176,-1.488315 2.080846,-2.049228 15.045026,-2.996759 3.037943,-0.222039 10.543998,-1.094164 16.680122,-1.938057 16.856741,-2.318284 21.707589,-2.642692 38.381619,-2.566828 13.671717,0.0622 19.145327,-0.167743 30.292637,-1.272594 5.59179,-0.554222 11.47042,-1.469372 14.82675,-2.308137 1.61688,-0.404065 3.03562,-0.734664 3.15276,-0.734664 0.34682,0 1.30895,3.808177 1.74381,6.902119 0.22231,1.581736 0.58335,5.377902 0.80231,8.435924 0.21895,3.058023 0.7416,7.975783 1.16145,10.928356 0.76928,5.410008 1.1199,10.294295 1.89934,26.458126 0.53013,10.993754 1.46539,18.834178 3.24761,27.225026 1.44632,6.80941 2.02842,12.60713 1.57162,15.65328 l -0.26899,1.79375 -2.58079,0 c -1.41944,0 -6.19721,0.61531 -10.61728,1.36735 -9.41115,1.60125 -15.15497,1.78379 -25.4835,0.8099 -7.927115,-0.74746 -43.3667,-1.20938 -48.506559,-0.63224 -4.289962,0.48171 -12.604902,2.03481 -17.516514,3.27181 -4.91612,1.23813 -6.550118,1.16228 -12.009221,-0.55749 l 0,0 z m 8.382467,-5.17091 c 0.695195,-0.29047 2.158197,-1.32231 3.251117,-2.29298 3.410681,-3.02917 3.732844,-3.12807 10.031403,-3.07959 3.261913,0.0251 8.254398,0.39366 12.07871,0.89166 5.757322,0.74971 7.548725,0.82073 15.338043,0.60806 13.758559,-0.37564 24.529764,0.24354 36.347124,2.08941 5.43895,0.84957 10.56391,1.54466 11.3888,1.54466 4.16052,0 9.13088,-2.102 11.33728,-4.79462 3.10262,-3.78634 4.25591,-8.47492 3.8649,-15.712268 -0.22979,-4.253244 -0.70513,-7.368918 -3.56969,-23.398259 -1.06574,-5.963642 -1.20322,-9.133525 -0.88973,-20.514634 0.1586,-5.757691 -0.40318,-8.877673 -2.65978,-14.771823 -1.96823,-5.140917 -4.18131,-7.169156 -9.507,-8.712935 -2.78822,-0.808234 -3.64204,-0.860674 -13.14338,-0.807248 -11.919466,0.06702 -17.69279,0.555981 -22.405903,1.897612 -2.831598,0.806041 -4.426202,0.996913 -9.202826,1.101568 -4.105496,0.08995 -6.887583,0.36834 -9.612268,0.961846 -3.284297,0.715404 -5.320088,0.854738 -14.18769,0.971038 -6.194634,0.08124 -11.046271,-0.02156 -12.07871,-0.255952 -4.382527,-0.994934 -10.288128,-0.0088 -15.338043,2.561268 -4.849817,2.468203 -5.469244,5.585964 -3.617671,18.208831 1.472625,10.039438 1.710335,24.248012 0.576286,34.44617 -1.317737,11.850006 -1.006566,18.732536 1.060685,23.460376 0.814171,1.86202 3.891395,5.09052 5.43176,5.69878 1.402074,0.55365 4.056328,0.50498 5.506583,-0.10097 z"
       id="path6082"
       inkscape:connector-curvature="0"
       transform="translate(-78.817941,302.70056)" />
    <path
       d="m 51.20981,367.93856 c -0.19,1.4125 -1.39125,3.3875 -0.59875,4.8 0.45375,-1.2625 1.78375,-3.7625 0.59875,-4.8 z m -57.2749984,45.57499 c 11.245,-0.0249 21.9475004,-0.98725 33.2862484,0 7.9575,0.70025 16.0675,4.67475 21.59,3.60013 4.7175,-0.91263 7.585,-5.65038 8.0975,-10.5 1,-9.46237 -2.325,-22.28762 -3.59875,-30.88762 -2.07875,0.3875 -6.04,0.85 -6.8975,-0.9 -0.76,-3.9125 0.3675,-8.375 2.39875,-10.4875 0.445,-1.0625 3.0675,0.0625 3.29875,-1.2 0.50375,-8.7625 -1.0525,-17.625 -4.1975,-23.6875 -5.1725,-4.775 -12.30125,-4.2125 -18.8925,-3.9 -3.93625,0.1875 -8.359998,0.125 -12.594998,0.6 -4.8475,0.5375 -9.5687504,2.4375 -14.0937504,2.4 -1.02,-0.0125 -2.02375,-0.3125 -3,-0.3 -4.885,0.0625 -9.4749996,1.9875 -14.0924996,2.4 -3.685,0.325 -8.15875,-0.6375 -12.295,-0.3 -1.615,0.125 -2.97,0.65 -4.49875,0.6 -2.70625,-0.0875 -5.455,-1.6125 -8.09625,-1.5 -4.42,0.1875 -8.26375,2.65 -11.995,4.4875 -0.62125,2.925 -0.78375,5.8875 -0.3,9.6 0.47,3.625 2.5675,7.175 2.99875,9.9 0.4975,3.125 -0.20375,7.6 0,11.6875 0.07375,1.4875 0.59875,3.125 0.6,4.5 0.0088,7.45 -2.3825,15.89975 -2.39875,22.80012 -0.02,7.33737 3.8875,20.57462 9.59625,12.88712 -1.855,-1.89987 -4.18125,-3.51212 -3.9,-6.89987 0.58375,-6.98725 12.36375,-4.77488 9.89625,3.60012 9.72625,-2.5625 17.97375,1.53763 29.0887496,1.5 z m -46.1812496,3.60013 c -5.75125,-11.16263 -0.87125,-23.92512 -0.9,-37.18762 -0.01,-4.7 -0.08875,-10.2625 -0.6,-15.5875 -0.835,-8.7375 -3.475,-16.975 -0.89875,-21.8875 1.53125,-2.9375 10.115,-5.8125 13.79375,-6 2.42125,-0.125 6.38125,1.1125 8.99625,1.2 2.16375,0.0625 4.86375,-0.6 7.79625,-0.6 2.78875,0 5.8625,0.475 8.3975,0.3 3.71,-0.275 8.5399996,-1.9125 13.4937496,-2.1 2.66625,-0.1 5.2975,0.35 7.79625,0 2.095,-0.2875 4.07,-1.4 6.2975004,-1.8 5.29875,-0.9625 11.633748,-1.0125 17.392498,-1.2 9.22875,-0.3 18.205,-0.3875 22.4925,5.1 2.27125,2.9 4.53375,10.225 5.0975,15.2875 0.56625,5.1 -1.12375,11.7 -0.60125,15.9 1.565,12.55 4.535,23.05 5.09875,32.68737 0.74125,12.67537 -6.05,20.92537 -18.5925,19.1875 -8.07,-1.11225 -16.5325,-3.125 -25.488748,-3.29975 -4.22375,-0.0874 -8.1737504,-0.0376 -12.2950004,-0.30038 -4.32625,-0.27487 -8.48125,0.66263 -12.595,0.60013 -4.4137496,-0.0746 -9.1499996,-1.1875 -13.7937496,-1.5 -4.205,-0.27488 -9.8225,-1.4375 -14.095,0 -3.6575,1.23787 -5.07,6.6875 -11.395,5.39987 -2.61625,-0.537 -3.23375,-2.67475 -5.3975,-4.19962"
       style="fill:#231f20;fill-opacity:1;fill-rule:evenodd;stroke:none"
       id="path3508"
       inkscape:connector-curvature="0" />
    <path
       d="m -75.522689,324.28856 c 1.98625,0.4125 3.27375,3.125 4.7975,3 -0.94125,-1.4625 -2.83375,-3.5625 -4.7975,-3 z m 4.49875,8.1 c -1.085,1.4125 -0.425,3.2875 1.19875,3.6 1.081251,-1.3625 1.163751,-3.6 -1.19875,-3.6 z m 5.397501,-3.9 c 0,-1.3 0,-2.6 0,-3.9 -1.1325,0.5125 -1.9475,3.6625 0,3.9 z m 0.3,104.04987 c 0.815,-0.17475 1.405,-0.58738 1.79875,-1.20013 -1.1,-0.0996 -1.5375,0.46288 -1.79875,1.20013 z m 11.09625,0 c -0.13875,2.23737 0.2725,3.92487 1.19875,5.10012 0.06625,-2.16262 -0.27375,-3.92475 -1.19875,-5.10012 z M 50.42481,314.68856 c 0.575,2.025 1.92875,3.275 3.59875,4.2 -0.68,-1.925 -2.2375,-2.9625 -3.59875,-4.2 z m 12.895,81.56225 c -1.8,-12.18725 -1.77375,-24.61225 -2.39875,-35.97475 -0.32125,-5.8375 -1.645,-11.6625 -2.09875,-17.4 -0.55625,-7 -0.33875,-12.8 -2.69875,-18.5875 -8.90125,2.7625 -20.025,3.475 -31.1875,4.2 -6.983748,0.45 -14.507498,0.7125 -21.2912484,0.3 -18.4924996,-1.125 -36.2712496,3.6125 -53.9774996,4.8 -4.5075,0.3 -9.63125,-0.1875 -12.59375,2.1 2.16875,5.5 -0.2725,14.3 0.59875,21.8875 0.3,2.6125 1.51125,4.875 1.49875,7.1875 -0.0062,1.25 -0.65625,2.05 -0.59875,3.3 0.07125,1.5875 0.76625,3.2125 0.9,4.8 0.6375,7.6375 -0.27375,15.9875 0.29875,23.98737 0.725,10.11237 2.955,19.41262 4.79875,28.20025 3.8175,0.61225 7.68625,3.13712 11.695,2.98725 3.03375,-0.10013 6.27375,-1.5625 9.59625,-2.08738 3.23125,-0.52487 6.4675,-1.29975 9.59625,-1.80025 9.40375,-1.51225 18.2824996,-0.54987 27.8874996,-0.29987 6.345,0.16262 12.7050004,-0.58738 18.8912484,0 7.27875,0.67537 13.85875,1.54987 20.3925,1.20025 8.09875,-0.45025 15.74375,-3.48788 23.69,-2.70025 1.5725,-10.14988 -1.78375,-17.86225 -2.99875,-26.10012 z m -1.19875,-75.56225 c 2.36,1.4375 5.6975,0.7875 5.9975,-2.1 -2.57875,0.125 -5.72,-0.325 -5.9975,2.1 z m 10.195,107.94999 c 0.99375,3.11225 2.36625,5.83738 5.9975,6.29975 0.7125,-3.63712 -3.23625,-5.13712 -5.9975,-6.29975 z m 1.79875,-4.1875 c 2.17875,2.14988 4.945,3.42475 6.59875,0 -0.7975,-0.57525 -4.6675,-1.14987 -6.59875,0 z M 59.72231,324.28856 c 2.3275,9.0875 2.305,17.175 3.8975,27.2875 0.42875,2.7125 1.35375,5.4125 1.49875,8.1 0.50625,9.3 1.91375,18.725 2.4,28.1875 0.13625,2.675 -0.27875,5.425 0,8.10025 0.19375,1.86225 1.1575,3.537 1.49875,5.38712 1.0925,5.92487 0.7025,12.77487 0.9,20.10012 3.26625,-0.41262 10.53375,-2.03762 13.49375,-0.30025 3.17,3.3125 -1.17125,6.70013 -3.29875,8.38763 3.90125,3.60012 0.855,9.125 -4.1975,8.39987 -2.71875,-0.38712 -3.85125,-2.96237 -5.3975,-5.0995 -2.8775,8.69963 -9.58625,-0.85012 -7.7975,-7.1875 -12.38125,2.01213 -23.5625,2.96238 -35.985,2.687 -1.865,-0.0371 -3.57,-0.75 -5.3975,-0.9 -7.594998,-0.61225 -16.4774984,-0.0121 -23.0899984,-0.58737 -11.4674996,-1.01263 -21.6337496,0.9375 -31.7874996,2.6875 -5.81625,1.01275 -11.5475,3.1875 -17.3925,1.20025 1.405,2.91212 2.85,9.36225 0.9,14.10012 -2.83875,2.42475 -5.3825,-0.5255 -5.9975,-3 -1.78875,2.71238 -2.0225,6.9745 -2.69875,10.79975 -1.7725,0.64988 -2.325,1.10013 -4.1975,0.60013 -0.835,-3.66263 0.5475,-6.92538 -0.30125,-11.70025 -1.29,0.21237 -5.766251,2 -7.196251,-0.29975 -0.815,-2.85013 2.877501,-3.91263 2.998751,-5.10013 0.115,-1.13775 -2.076251,-0.72512 -0.9,-2.10012 0.77375,-4.22513 4.47125,-5.52488 8.69625,-6.29975 0.745,-4.17538 -1.785,-7.4375 -2.39875,-10.78763 -2.15,-11.75 -1.895,-24.17499 -1.5,-35.68749 0.4625,-13.45 -2.8225,-23.5875 -1.79875,-38.6875 -0.6325,-0.9625 -1.16,-2.0375 -1.19875,-3.6 -2.980001,2.0375 -6.826251,-0.3125 -8.696251,-2.1 -0.26875,-3.0625 0.12875,-5.4625 1.49875,-6.8875 -2.9125,-1.4875 -7.73625,-6.1375 -3.29875,-9.6 3.2325,0.2625 4.9325,2.025 7.49625,3.6 4.673751,-6.875 10.352501,0.1375 5.997501,6.9 12.735,-1.8125 24.99625,-2 37.785,-3.9 7.97875,-1.1875 15.7899996,-2.6375 24.2887496,-2.4 15.8875004,0.4375 35.2824984,0.3875 52.7787484,-3 -3.14125,-1.125 -7.62125,-10.7875 -1.49875,-11.1 2.74,-0.1375 4.12,3.025 6.2975,4.2 0.55625,-1.65 1.81875,-3.1 2.39875,-5.7 0.595,-2.6625 -0.045,-6.3375 2.99875,-6.2875 1.555,0.025 3.1725,2.6375 3.29875,3.6 0.52875,3.9875 -3.10375,8.4125 -3.89875,11.0875 2.3225,-1.975 7.18875,-2.8625 10.19625,-0.9 2.685,6.0375 -5.4825,10.075 -11.395,7.8"
       style="fill:#231f20;fill-opacity:1;fill-rule:evenodd;stroke:none"
       id="path3506"
       inkscape:connector-curvature="0" />
  </g>
</svg>
