<?xml version="1.0" encoding="UTF-8" standalone="no"?>
<!-- Created with Inkscape (http://www.inkscape.org/) -->

<svg
   xmlns:dc="http://purl.org/dc/elements/1.1/"
   xmlns:cc="http://creativecommons.org/ns#"
   xmlns:rdf="http://www.w3.org/1999/02/22-rdf-syntax-ns#"
   xmlns:svg="http://www.w3.org/2000/svg"
   xmlns="http://www.w3.org/2000/svg"
   xmlns:sodipodi="http://sodipodi.sourceforge.net/DTD/sodipodi-0.dtd"
   xmlns:inkscape="http://www.inkscape.org/namespaces/inkscape"
   width="145.95522"
   height="124.15305"
   id="svg4914"
   version="1.1"
   inkscape:version="0.48.2 r9819"
   sodipodi:docname="New document 41">
  <defs
     id="defs4916" />
  <sodipodi:namedview
     id="base"
     pagecolor="#ffffff"
     bordercolor="#666666"
     borderopacity="1.0"
     inkscape:pageopacity="0.0"
     inkscape:pageshadow="2"
     inkscape:zoom="0.35"
     inkscape:cx="413.6919"
     inkscape:cy="-52.209191"
     inkscape:document-units="px"
     inkscape:current-layer="layer1"
     showgrid="false"
     fit-margin-top="0"
     fit-margin-left="0"
     fit-margin-right="0"
     fit-margin-bottom="0"
     inkscape:window-width="483"
     inkscape:window-height="424"
     inkscape:window-x="20"
     inkscape:window-y="20"
     inkscape:window-maximized="0" />
  <metadata
     id="metadata4919">
    <rdf:RDF>
      <cc:Work
         rdf:about="">
        <dc:format>image/svg+xml</dc:format>
        <dc:type
           rdf:resource="http://purl.org/dc/dcmitype/StillImage" />
        <dc:title></dc:title>
      </cc:Work>
    </rdf:RDF>
  </metadata>
  <g
     inkscape:label="Layer 1"
     inkscape:groupmode="layer"
     id="layer1"
     transform="translate(38.691895,-355.99994)">
    <path
       d="m 88.456415,401.29924 c -2.27125,0.62625 -4.36125,1.435 -6.2975,2.39875 -0.44625,-0.35375 -0.84625,-0.7525 -1.19875,-1.2 0.90875,-2.19 4.42375,-1.73125 6.2975,-3.5975 1.22,-0.0213 1.29125,1.1075 1.19875,2.39875"
       style="fill:#231f20;fill-opacity:1;fill-rule:evenodd;stroke:none"
       id="path3400"
       inkscape:connector-curvature="0" />
    <path
       d="m 88.456415,415.69299 c 0,0.4 0,0.8 0,1.19875 -2.1075,0.99375 -4.43375,1.765 -7.1975,2.1 -0.4125,-0.38625 -0.29625,-1.3025 -0.29875,-2.1 1.8875,-0.57625 5.50875,-1.04125 7.49625,-1.19875"
       style="fill:#231f20;fill-opacity:1;fill-rule:evenodd;stroke:none"
       id="path3402"
       inkscape:connector-curvature="0" />
    <path
       d="m 87.857665,395.60174 c -1.91125,0.0387 -5.2,2.69875 -7.1975,1.49875 0.0637,-0.5525 4.9175,-4.235 5.39875,-4.1975 1.0075,0.0775 1.99125,0.6225 1.79875,2.69875"
       style="fill:#231f20;fill-opacity:1;fill-rule:evenodd;stroke:none"
       id="path3404"
       inkscape:connector-curvature="0" />
    <path
       d="m 81.258915,413.89424 c -0.48625,-0.5125 -0.90625,-1.09125 -0.89875,-2.1 2.64375,-0.76625 4.785,-1.78875 7.1975,-1.79875 0.2175,3.66125 -4.14875,1.9775 -6.29875,3.89875"
       style="fill:#231f20;fill-opacity:1;fill-rule:evenodd;stroke:none"
       id="path3406"
       inkscape:connector-curvature="0" />
    <path
       d="m 87.257665,427.38799 c 0,0.2 0,0.4 0,0.6 -1.64625,1.50125 -4.6875,2.7 -7.1975,2.39875 0.2125,-1.1125 -0.5125,-1.28625 -0.30125,-2.39875 2.55375,-0.615 6.065,-0.23 7.49875,-0.6"
       style="fill:#231f20;fill-opacity:1;fill-rule:evenodd;stroke:none"
       id="path3408"
       inkscape:connector-curvature="0" />
    <path
       d="m 85.157665,434.88549 c -1.3625,1.5825 -2.4,1.93 -5.0975,2.39875 -0.6275,-1.2725 -0.58375,-1.86875 -0.30125,-3 2.37875,0.005 3.91375,0.39125 5.39875,0.60125"
       style="fill:#231f20;fill-opacity:1;fill-rule:evenodd;stroke:none"
       id="path3410"
       inkscape:connector-curvature="0" />
    <path
       d="m 83.958915,388.10549 c -1.0725,0.8175 -3.2375,1.49125 -4.7975,0.89875 1.08375,-1.8575 1.69125,-2.61625 2.9975,-3.89875 1.31125,0.2875 1.695,1.50625 1.8,3"
       style="fill:#231f20;fill-opacity:1;fill-rule:evenodd;stroke:none"
       id="path3412"
       inkscape:connector-curvature="0" />
    <path
       d="m 83.658915,443.28049 c -0.30375,1.79875 -2.15125,2.0475 -3.9,2.4 -0.42125,-1.21 -0.995,-2.8775 0,-3.89875 2.06125,-0.26125 2.17375,1.42625 3.9,1.49875"
       style="fill:#231f20;fill-opacity:1;fill-rule:evenodd;stroke:none"
       id="path3414"
       inkscape:connector-curvature="0" />
    <path
       d="m 83.057665,451.67799 c -0.625,1.37375 -2.0625,1.9325 -3.89625,2.09875 -0.64,-0.9525 -0.85,-2.725 0,-3.59875 1.75,0.0475 2.42,1.17875 3.89625,1.5"
       style="fill:#231f20;fill-opacity:1;fill-rule:evenodd;stroke:none"
       id="path3416"
       inkscape:connector-curvature="0" />
    <path
       d="m 78.560165,381.20674 c -0.15125,-1.85 1.04125,-2.35625 1.19875,-3.8975 4.0725,-0.59625 2.27125,5.14 -1.19875,3.8975"
       style="fill:#231f20;fill-opacity:1;fill-rule:evenodd;stroke:none"
       id="path3418"
       inkscape:connector-curvature="0" />
    <path
       d="m 80.660165,460.37425 c -0.36125,1.4375 -1.87,1.72875 -3.2975,2.09875 -1.09,0.01 -0.965,-1.57125 -1.8,-0.29875 -2.03375,-0.96625 -3.1475,-2.85125 -5.3975,-3.59875 -0.225,-1.525 0.2975,-2.3 1.19875,-2.69876 3.74,2.15001 4.94875,3.60126 9.29625,4.49751"
       style="fill:#231f20;fill-opacity:1;fill-rule:evenodd;stroke:none"
       id="path3420"
       inkscape:connector-curvature="0" />
    <path
       d="m 75.562665,425.88799 c 0.025,-13.71 1.00375,-29.0125 -4.8,-39.2825 -1.655,-2.93125 -5.05125,-6.9375 -8.095,-7.7975 -4.784999,-1.3525 -12.068749,-0.35875 -19.192499,-0.89875 -9.65125,-0.7325 -19.43375,-2.40375 -24.59,1.5 -6.18125,-0.15875 -14.9500004,1.04375 -20.0912504,3.8975 -8.2375,4.57125 -10.0074996,14.00375 -12.2937496,24.29 0.08625,0.80375 1.46125,0.30125 1.49875,1.79875 -1.22875,12.7625 -2.01625,26.47375 3.5987496,35.685 1.715,2.815 5.15125,5.3225 7.79625,7.4975 1.3225,1.08625 1.855,1.9975 2.99875,2.39875 1.6425,0.57625 3.76375,0.27 5.6975,0.59875 2.1262504,0.36375 4.1812504,1.30876 6.5962504,1.50001 5.9225,0.46875 13.04875,0.505 18.59375,-0.3 2.56375,-0.37125 4.93125,-1.56001 7.495,-1.79876 2.76375,-0.2575 5.5,0.30375 8.0975,0 2.98625,-0.3475 7.015,-1.81 11.09625,-2.39875 6.154999,-0.8875 10.386249,-1.56875 12.893749,-5.69875 3.15375,-5.1875 3.36875,-13.47625 3.59875,-20.09125 -0.0175,-0.18125 -0.0438,-0.355 -0.2975,-0.29875 -0.0663,-0.3375 -0.335,-0.4675 -0.60125,-0.60125 z m -90.563749,10.49625 c -2.9275,-0.5225 -4.9625,1.44125 -7.195,0 0.3575,-2.74 3.8675,-2.3275 5.99625,-3.29875 0.125,-2.99 -0.28125,-3.6375 -0.3,-6.2975 -1.7975,-0.2375 -3.46875,0.70625 -5.0975,-0.29875 0.50375,-2.95875 2.80125,-2.3775 5.0975,-3.29875 0.3675,-11.8 1.31,-24.18375 5.39875,-33.58625 -2.3425,-1.1625 -3.82625,-5.34125 -3,-7.7975 2.63625,0.56375 2.02375,4.375 3.3,6.29875 3.6062496,-6.31625 11.4037496,-11.32125 20.99125,-12.595 1.88875,-0.25125 4.01125,0.1075 6.295,-0.30125 3.3525,-0.5975 6.695,-1.86375 10.19875,-2.09875 4.71125,-0.31625 9.62375,0.51 14.9925,0.9 6.2575,0.455 12.5825,0.2525 17.6925,0.6 7.804999,0.53 11.257499,7.9925 14.692499,12.29375 5.27375,12.675 4.44625,27.05625 4.8,41.08375 0.0725,0.325 0.595,0.2025 0.5975,0.6 -0.96875,4.12625 -0.89125,9.18125 -2.09625,13.795 -2.425,9.255 -6.55125,11.81375 -17.094999,13.79376 -3.9625,0.745 -8.1625,1.71125 -11.395,2.1 -2.64375,0.315 -5.43625,-0.3725 -8.69625,0 -4.09125,0.465 -8.0075,1.77375 -12.29375,2.0975 -5.82625,0.44 -12.09,0.795 -17.6925,-0.3 -3.8562504,-0.7525 -8.6987504,-1.03375 -11.0962504,-2.09875 -2.96875,-1.3175 -8.725,-8.14876 -10.4962496,-11.39626 -1.8225,-3.34 -2.89625,-7.175 -3.59875,-10.195"
       style="fill:#231f20;fill-opacity:1;fill-rule:evenodd;stroke:none"
       id="path3422"
       inkscape:connector-curvature="0" />
    <path
       d="m 77.362665,372.81049 c -0.7575,1.2075 -1.31625,3.99375 -3.59875,2.7 -0.29125,-1.22375 0.65375,-2.40375 0,-4.2 1.27375,0.0512 2.74375,0.31 3.59875,1.5"
       style="fill:#231f20;fill-opacity:1;fill-rule:evenodd;stroke:none"
       id="path3424"
       inkscape:connector-curvature="0" />
    <path
       d="m 72.263915,371.61174 c -0.6,0 -1.20125,0 -1.79875,0 -0.4375,-1.73625 -0.25125,-3.67 0.2975,-4.7975 2.95,-0.26125 2.69125,3.1875 1.50125,4.7975"
       style="fill:#231f20;fill-opacity:1;fill-rule:evenodd;stroke:none"
       id="path3426"
       inkscape:connector-curvature="0" />
    <path
       d="m 67.166415,466.37175 c -2.21625,-1.08125 -3.4425,-3.155 -5.1,-4.7975 0.1175,-1.18375 1.22125,-1.38 1.8025,-2.09875 1.67125,1.57375 6.61125,4.95625 3.2975,6.89625"
       style="fill:#231f20;fill-opacity:1;fill-rule:evenodd;stroke:none"
       id="path3428"
       inkscape:connector-curvature="0" />
    <path
       d="m 62.066415,366.51299 c -0.58875,0.87375 -0.0237,1.99125 -0.898749,3.29875 -0.9225,-0.0775 -1.35,-0.64875 -2.09875,-0.89875 -0.17375,-1.08125 -0.08125,-1.51625 -0.3,-3 0.62625,-0.17125 0.85625,-0.7425 1.79875,-0.59875 0.961249,-0.26375 0.6225,0.7775 1.198749,0.89875 0.4225,-1.0075 2.21125,-1.11 3.30125,-0.59875 1.89625,3.77625 -2.96625,5.47875 -3.00125,0.89875"
       style="fill:#231f20;fill-opacity:1;fill-rule:evenodd;stroke:none"
       id="path3430"
       inkscape:connector-curvature="0" />
    <path
       d="m 58.467666,468.17175 c -0.3975,0 -0.7975,0 -1.19875,0 -1.71375,-1.585 -3.15625,-3.44 -3.59875,-6.29875 0.71875,-0.48125 1.41375,-0.98625 2.70125,-0.89875 1.19625,2.37875 2.775,4.27 2.09625,7.1975"
       style="fill:#231f20;fill-opacity:1;fill-rule:evenodd;stroke:none"
       id="path3432"
       inkscape:connector-curvature="0" />
    <path
       d="m 54.571416,369.51174 c -1.72875,-0.26875 -2.575,-1.42375 -2.4,-3.59875 0.48375,-0.615 1.50375,-0.695 2.7,-0.59875 0.1275,1.9125 0.535,2.845 -0.3,4.1975"
       style="fill:#231f20;fill-opacity:1;fill-rule:evenodd;stroke:none"
       id="path3434"
       inkscape:connector-curvature="0" />
    <path
       d="m 49.771416,366.21299 c -0.85625,1.3475 0.06875,2.8025 -0.89875,4.2 -1.92625,-0.37375 -2.10875,-2.49 -2.6975,-4.2 1.2625,-1.50875 2.24375,-0.9275 3.59625,0"
       style="fill:#231f20;fill-opacity:1;fill-rule:evenodd;stroke:none"
       id="path3436"
       inkscape:connector-curvature="0" />
    <path
       d="m 48.272666,468.17175 c -3.28125,-0.1175 -2.22625,-4.57125 -3.29875,-6.8975 4.7875,-2.835 4.8975,3.88125 3.29875,6.8975"
       style="fill:#231f20;fill-opacity:1;fill-rule:evenodd;stroke:none"
       id="path3438"
       inkscape:connector-curvature="0" />
    <path
       d="m 40.176416,371.31049 c -1.80875,-1.17375 -2.87,-3.45375 -1.79875,-5.3975 0.70125,0 1.39875,0 2.1,0 0.6325,1.69 0.88625,3.765 -0.30125,5.3975"
       style="fill:#231f20;fill-opacity:1;fill-rule:evenodd;stroke:none"
       id="path3440"
       inkscape:connector-curvature="0" />
    <path
       d="m 38.977666,462.473 c 0.015,2.85375 -0.2925,3.65125 -0.9,5.99875 -2.3175,-0.28375 -2.01,-3.18875 -2.4,-5.39875 0.5225,-0.77875 1.9925,-0.6075 3.3,-0.6"
       style="fill:#231f20;fill-opacity:1;fill-rule:evenodd;stroke:none"
       id="path3442"
       inkscape:connector-curvature="0" />
    <path
       d="m 34.778916,370.41299 c -2.25375,-0.14875 -2.42125,-2.3775 -2.6975,-4.5 0.48125,-0.615 1.50125,-0.695 2.6975,-0.59875 0.36125,1.95375 0.1875,2.84 0,5.09875"
       style="fill:#231f20;fill-opacity:1;fill-rule:evenodd;stroke:none"
       id="path3444"
       inkscape:connector-curvature="0" />
    <path
       d="m 31.781416,463.073 c 0.01375,2.115 -0.225,3.97375 -1.5025,4.7975 -2.43375,-0.35625 -1.525,-3.51125 -1.49875,-5.0975 1.19375,-0.30125 1.94875,-0.18375 3.00125,0.3"
       style="fill:#231f20;fill-opacity:1;fill-rule:evenodd;stroke:none"
       id="path3446"
       inkscape:connector-curvature="0" />
    <path
       d="m 27.281416,371.31049 c -1.69875,-0.99875 -2.56875,-2.8275 -2.6975,-5.3975 0.87625,-0.32 1.5475,-0.85 2.9975,-0.59875 0.1325,2.5375 0.35625,3.5575 -0.3,5.99625"
       style="fill:#231f20;fill-opacity:1;fill-rule:evenodd;stroke:none"
       id="path3448"
       inkscape:connector-curvature="0" />
    <path
       d="m 23.982666,468.47175 c -2.16,-0.4475 -1.52,-3.1175 -1.49875,-4.49875 3.61375,-2.2325 3.81375,3.11625 1.49875,4.49875"
       style="fill:#231f20;fill-opacity:1;fill-rule:evenodd;stroke:none"
       id="path3450"
       inkscape:connector-curvature="0" />
    <path
       d="m 22.483916,371.91174 c -1.91125,-1.1875 -2.76875,-3.4275 -2.9975,-6.2975 1.1375,-0.7175 1.4425,-0.40625 2.9975,-0.6 0.1975,2.4175 0.105,4.14375 0,6.8975"
       style="fill:#231f20;fill-opacity:1;fill-rule:evenodd;stroke:none"
       id="path3452"
       inkscape:connector-curvature="0" />
    <path
       d="m 12.287666,470.5705 c -0.9525,-2.275 0.55625,-3.78625 0.30125,-5.6975 5.28625,-2.18375 3.30875,5.405 -0.30125,5.6975"
       style="fill:#231f20;fill-opacity:1;fill-rule:evenodd;stroke:none"
       id="path3454"
       inkscape:connector-curvature="0" />
    <path
       d="m 13.788916,372.21174 c -1.435,-1.36625 -2.465,-3.135 -3,-5.3975 3.5925,-2.89625 4.185,1.775 3,5.3975"
       style="fill:#231f20;fill-opacity:1;fill-rule:evenodd;stroke:none"
       id="path3456"
       inkscape:connector-curvature="0" />
    <path
       d="m 9.2889156,374.01049 c -1.79875,-0.0775 -4.3725,-6.49875 -2.9975,-7.4975 1.37,-0.0962 1.66375,-0.3075 2.69875,0.30125 -0.3075,2.68375 0.275,4.07625 0.29875,7.19625"
       style="fill:#231f20;fill-opacity:1;fill-rule:evenodd;stroke:none"
       id="path3458"
       inkscape:connector-curvature="0" />
    <path
       d="m 2.6926656,470.5705 c -0.55,-3.54875 1.74875,-4.24875 2.09875,-6.8975 6.9462504,0.29125 0.56375,5.805 -2.09875,6.8975"
       style="fill:#231f20;fill-opacity:1;fill-rule:evenodd;stroke:none"
       id="path3460"
       inkscape:connector-curvature="0" />
    <path
       d="m 3.2926656,465.173 c -1.7925,1.00625 -2.8975,2.7 -5.09875,3.29875 -0.80625,-2.64 1.44875,-4.45375 2.69875,-5.99875 1.70125,0 2.50875,0.89125 2.4,2.7"
       style="fill:#231f20;fill-opacity:1;fill-rule:evenodd;stroke:none"
       id="path3462"
       inkscape:connector-curvature="0" />
    <path
       d="m 2.3926656,374.31049 c -0.5,0 -0.99875,0 -1.5,0 -0.49,-2.40875 -1.46,-4.3375 -2.09875,-6.59875 0.76125,-0.53625 1.67,-0.9275 2.7,-1.19875 0.69375,2.425 0.69,4.505 0.89875,7.7975"
       style="fill:#231f20;fill-opacity:1;fill-rule:evenodd;stroke:none"
       id="path3464"
       inkscape:connector-curvature="0" />
    <path
       d="m -2.7060844,375.81049 c -0.4,-2.59875 -1.8675,-4.13125 -2.39875,-6.5975 0.7775,-0.32375 1.115,-1.085 2.1,-1.2 1.56375,1.55 0.895,4.615 1.79875,6.89625 0.04375,0.84375 -0.73375,0.86625 -1.5,0.90125"
       style="fill:#231f20;fill-opacity:1;fill-rule:evenodd;stroke:none"
       id="path3466"
       inkscape:connector-curvature="0" />
    <path
       d="m -9.9023344,465.77175 c -1.2049996,-2.00875 1.13625,-2.78625 1.8,-3.89875 -2.1624996,0.53 -5.9837496,2.99 -6.8987496,-0.29875 1.225,-2.175 4.35875,-2.44 6.2974996,-3.89875 0.27625,0.52375 0.9375,0.66125 1.8,0.60125 0.62375,1.77375 3.1075,1.68875 3.89875,3.2975 -0.8125,2.88625 -4.11625,3.28 -6.8975,4.1975"
       style="fill:#231f20;fill-opacity:1;fill-rule:evenodd;stroke:none"
       id="path3468"
       inkscape:connector-curvature="0" />
    <path
       d="m -7.5035844,379.40924 c -1.47875,-1.56 -1.755,-4.1775 -2.6987496,-6.59875 0.7199996,-0.27875 0.7937496,-1.20375 2.0999996,-0.89875 -0.10625,2.47 2.95,6.59375 0.59875,7.4975"
       style="fill:#231f20;fill-opacity:1;fill-rule:evenodd;stroke:none"
       id="path3470"
       inkscape:connector-curvature="0" />
    <path
       d="m -10.502334,381.80674 c 0.01625,-2.5275 -3.13125,-5.625 -0.9,-7.49625 1.01625,0.9875 4.2887496,7.01 0.9,7.49625"
       style="fill:#231f20;fill-opacity:1;fill-rule:evenodd;stroke:none"
       id="path3472"
       inkscape:connector-curvature="0" />
    <path
       d="m -11.101084,456.17675 c -0.755,2.84375 -4.57875,2.61875 -7.1975,3.59875 -0.25125,-0.65 -0.77625,-1.02375 -0.6,-2.1 1.845,-1.055 4.20375,-1.5925 5.9975,-2.69876 1.2075,-0.2075 0.73625,1.26376 1.8,1.20001"
       style="fill:#231f20;fill-opacity:1;fill-rule:evenodd;stroke:none"
       id="path3474"
       inkscape:connector-curvature="0" />
    <path
       d="m -20.098584,451.67799 c -0.25125,-0.6475 -0.77625,-1.0225 -0.59875,-2.09875 1.59375,-0.93375 9.1275,-4.08375 8.39625,-0.3 -0.37625,1.94625 -5.93375,1.73375 -7.7975,2.39875"
       style="fill:#231f20;fill-opacity:1;fill-rule:evenodd;stroke:none"
       id="path3476"
       inkscape:connector-curvature="0" />
    <path
       d="m -15.001084,394.70174 c -0.72,-2.4775 -1.9325,-4.465 -2.69875,-6.89625 0.55875,-0.0425 1.0025,-0.19875 1.2,-0.60125 1.1125,1.615 5.56125,7.21 1.49875,7.4975"
       style="fill:#231f20;fill-opacity:1;fill-rule:evenodd;stroke:none"
       id="path3478"
       inkscape:connector-curvature="0" />
    <path
       d="m -15.001084,400.40049 c -0.7025,0.095 -1.125,0.47375 -2.0975,0.29875 -0.865,-2.235 -2.3325,-3.86625 -3,-6.2975 0.84625,-0.0538 0.375,-1.42625 1.49875,-1.19875 2.09375,1.505 2.4975,4.7 3.59875,7.1975"
       style="fill:#231f20;fill-opacity:1;fill-rule:evenodd;stroke:none"
       id="path3480"
       inkscape:connector-curvature="0" />
    <path
       d="m -22.797334,444.78049 c -0.345,-0.355 -0.33875,-1.06 -0.29875,-1.8 2.06875,-1.1275 4.5575,-1.8375 6.89625,-2.6975 3.39875,3.94375 -4.48375,4.24875 -6.5975,4.4975"
       style="fill:#231f20;fill-opacity:1;fill-rule:evenodd;stroke:none"
       id="path3482"
       inkscape:connector-curvature="0" />
    <path
       d="m -19.798584,405.19799 c -1.34875,-1.89125 0.55,-2.69125 1.8,-3.59875 3.1375,1.0175 1.89625,4.98 -1.8,3.59875"
       style="fill:#231f20;fill-opacity:1;fill-rule:evenodd;stroke:none"
       id="path3484"
       inkscape:connector-curvature="0" />
    <path
       d="m -21.897334,420.79049 c -0.03,-2.63625 2.9775,-3.47 4.79875,-3.2975 1.95625,3.06625 -2.02125,4.29625 -4.79875,3.2975"
       style="fill:#231f20;fill-opacity:1;fill-rule:evenodd;stroke:none"
       id="path3486"
       inkscape:connector-curvature="0" />
    <path
       d="m -17.098584,408.79674 c -1.05875,0.69875 -1.87,0.4825 -3.29875,0.3 0.0775,-0.87875 -0.67875,-0.9225 -0.6,-1.8 0.845,-0.65375 1.44125,-1.5575 2.99875,-1.5 0.335,0.965 0.82,1.77875 0.9,3"
       style="fill:#231f20;fill-opacity:1;fill-rule:evenodd;stroke:none"
       id="path3488"
       inkscape:connector-curvature="0" />
    <path
       d="m -17.098584,414.19424 c -1.3425,0.925 -1.6125,1.1675 -3.89875,0.89875 -0.2375,-0.69375 -0.2525,-0.99375 -0.3,-2.3975 1.3175,-0.28375 1.9325,-1.2675 3.5975,-1.20125 0.10125,1 0.86875,1.33 0.60125,2.7"
       style="fill:#231f20;fill-opacity:1;fill-rule:evenodd;stroke:none"
       id="path3490"
       inkscape:connector-curvature="0" />
    <path
       d="m -28.194834,405.49799 c -1.98875,4.8075 -4.815,8.77875 -8.09625,12.295 3.9675,4.7275 6.03875,11.3525 7.79625,18.29125 -0.52125,-9.745 -0.285,-24.13375 0.3,-30.58625 z m 117.551249,-26.69 c -1.16625,-2.13625 -3.15125,-4.10625 -5.0975,-6.2975 -1.92125,-2.16125 -2.97125,-5.18375 -4.7975,-6.89625 -7.46125,-6.99625 -22.746249,-4.835 -38.086249,-5.6975 -3.56125,-0.2 -7.5675,-0.85 -10.7925,-0.6 -3.2675,0.25125 -5.79625,1.36125 -9.2975,1.79875 -6.14,0.76625 -13.1650004,0.1125 -18.5925004,0.9 -6.66125,0.965 -14.6937496,5.26 -17.9924996,8.99625 -3.7575,4.255 -4.24625,11.34875 -6.2975,17.69125 -1.24125,3.84125 -3.03875,7.38125 -3.59875,10.1975 -1.555,7.8075 -1.94375,17.60125 -1.49875,26.9875 0.41625,8.8075 -0.135,19.15625 1.79875,26.39 0.37875,1.41625 1.5925,2.46625 2.09875,3.89876 0.55375,1.56375 0.09125,3.28375 0.60125,4.4975 1.2375,2.95625 5.6175,6.66875 9.595,9.29625 8.1912496,5.41 15.6224996,6.19875 27.8875,6.29625 3.965,0.0325 8.30125,0.325 12.295,0 5.06125,-0.40875 9.52375,-1.86 14.095,-2.3975 7.43125,-0.875 15.5825,-0.76125 21.888749,-1.79875 2.645,-0.43625 5.37125,-0.69 7.4975,-1.2 3.76,-0.9025 12.3375,-5.10875 14.695,-9.29625 2.79125,-4.95375 3.22,-15.79751 4.4975,-22.79001 0.7175,-3.93 1.18875,-8.07875 1.79875,-11.99625 0.66,-4.2225 1.83375,-8.17375 2.1,-11.695 0.3425,-4.5025 -0.0588,-11.4675 -0.3,-14.095 -0.77625,-8.48875 -1.1325,-16.03125 -4.4975,-22.19 z m 6.8975,53.3775 c 1.8725,-4.88875 4.997495,-11.33875 5.996245,-16.1925 -2.683745,-3.8125 -4.986245,-8.0075 -6.296245,-13.195 0.795,17.4875 -4.01875,30.96875 -5.09875,45.58125 1.83375,-5.38875 3.28375,-10.675 5.39875,-16.19375 z m 10.796245,-13.79375 c -6.31625,7.31875 -9.692495,20.43625 -13.196245,30.8875 -1.07,3.19125 -1.62125,6.55125 -2.99875,8.99751 -0.62,1.1 -2.02125,1.96 -2.9975,3.2975 -2.46625,3.3725 -4.185,6.30625 -8.39875,8.69625 -2.3575,1.33875 -5.98875,3.06375 -8.095,3.59875 -1.71,0.43375 -3.62125,0.0225 -5.69875,0.29875 -3.0225,0.405 -6.229999,1.5225 -8.993749,1.8 -4.26,0.4275 -8.4325,0.3425 -12.595,0.9 -11.5675,1.545 -25.37375,4.155 -39.8850004,2.9975 -10.16125,-0.81 -20.6962496,-6.83625 -26.0887496,-13.49375 -6.63625,-8.19125 -6.6875,-22.22626 -9.895,-33.58626 -0.84375,-2.98375 -2.18,-5.97125 -3.3,-8.39625 -0.89625,-1.9425 -3.65375,-4.60875 -3.59875,-6.89625 0.07,-2.87 4.565,-5.61125 6.2975,-8.69625 1.98875,-3.54125 3.255,-7.35625 4.49875,-10.19625 1.49,-3.4025 3.08375,-7.05 4.1975,-10.795 1.1375,-3.81875 1.65375,-7.99375 3,-11.69625 3.08,-8.465 13.2824996,-16.0225 23.3899996,-17.3925 6.2275,-0.84375 12.8237504,-0.0563 19.4912504,-0.9 4.40625,-0.55625 8.8275,-1.99375 14.09375,-1.79875 11.33125,0.4225 24.0775,0.7525 33.887499,2.1 4.32875,0.5925 8.02,3.37375 11.69375,5.0975 1.39625,2.88375 3.53,3.61125 5.0975,5.6975 1.5575,2.0725 2.65125,5.09625 4.5,7.79625 1.84375,2.69625 3.69375,5.595 4.4975,8.09625 2.585,8.0375 0.9075,15.25 4.498745,22.49125 1.81875,3.6675 5.36375,6.3875 6.5975,10.19625 -0.0637,0.5125 0.51,0.77625 0,0.89875"
       style="fill:#231f20;fill-opacity:1;fill-rule:evenodd;stroke:none"
       id="path3492"
       inkscape:connector-curvature="0" />
  </g>
</svg>
