<?xml version="1.0" encoding="UTF-8" standalone="no"?>
<!-- Created with Inkscape (http://www.inkscape.org/) -->

<svg
   xmlns:dc="http://purl.org/dc/elements/1.1/"
   xmlns:cc="http://creativecommons.org/ns#"
   xmlns:rdf="http://www.w3.org/1999/02/22-rdf-syntax-ns#"
   xmlns:svg="http://www.w3.org/2000/svg"
   xmlns="http://www.w3.org/2000/svg"
   xmlns:sodipodi="http://sodipodi.sourceforge.net/DTD/sodipodi-0.dtd"
   xmlns:inkscape="http://www.inkscape.org/namespaces/inkscape"
   width="145.95522"
   height="124.15305"
   id="svg4914"
   version="1.1"
   inkscape:version="0.48.2 r9819"
   sodipodi:docname="venue_hover.svg">
  <defs
     id="defs4916" />
  <sodipodi:namedview
     id="base"
     pagecolor="#ffffff"
     bordercolor="#666666"
     borderopacity="1.0"
     inkscape:pageopacity="0.0"
     inkscape:pageshadow="2"
     inkscape:zoom="3.959798"
     inkscape:cx="74.98773"
     inkscape:cy="73.911197"
     inkscape:document-units="px"
     inkscape:current-layer="layer1"
     showgrid="false"
     fit-margin-top="0"
     fit-margin-left="0"
     fit-margin-right="0"
     fit-margin-bottom="0"
     inkscape:window-width="1491"
     inkscape:window-height="871"
     inkscape:window-x="20"
     inkscape:window-y="20"
     inkscape:window-maximized="0" />
  <metadata
     id="metadata4919">
    <rdf:RDF>
      <cc:Work
         rdf:about="">
        <dc:format>image/svg+xml</dc:format>
        <dc:type
           rdf:resource="http://purl.org/dc/dcmitype/StillImage" />
        <dc:title />
      </cc:Work>
    </rdf:RDF>
  </metadata>
  <g
     inkscape:label="Layer 1"
     inkscape:groupmode="layer"
     id="layer1"
     transform="translate(38.691895,-355.99994)">
    <path
       style="fill:#56008c;fill-opacity:0.39607844;fill-rule:nonzero"
       d="m 67.782501,19.852049 c -3.651062,0.05065 -7.418146,0.561678 -10.622385,2.383328 -4.070667,0.218515 -8.192168,0.386473 -12.184965,1.357393 -5.750347,1.104405 -11.494697,3.943056 -14.615645,9.091373 -3.545021,5.62917 -4.818656,12.290872 -6.124049,18.727281 -0.0149,1.247321 1.807553,1.603178 1.242916,2.892887 -0.796717,10.173577 -1.612904,20.752509 1.661272,30.568416 1.317777,4.015478 3.950211,7.448239 7.24472,10.063342 2.342985,1.754155 4.254173,4.346982 7.142062,5.215211 3.544798,0.27191 7.01032,0.96691 10.456657,1.75988 5.471716,0.74518 11.041296,0.42873 16.54914,0.30778 4.789507,-0.22452 9.275347,-2.398915 14.094686,-2.1329 3.912326,0.0745 7.819278,-0.273505 11.577394,-1.410526 4.775923,-1.353192 9.981246,-1.301748 14.449916,-3.614452 4.64144,-2.536609 6.02092,-8.128124 6.71826,-12.968793 0.44095,-3.961904 1.13708,-8.026323 0.51854,-12.000915 -0.78146,-2.351481 -0.31304,-4.998808 -0.52626,-7.47331 -0.25033,-10.554079 0.43476,-21.737812 -4.46382,-31.438253 -1.84739,-3.635962 -4.60073,-7.043034 -8.26028,-8.944414 -4.178371,-1.602604 -8.796241,-1.007757 -13.179207,-1.284741 -7.2532,-0.0166 -14.439527,-0.908688 -21.678952,-1.098587 z"
       id="path10010"
       inkscape:connector-curvature="0"
       transform="translate(-38.691895,355.99994)" />
    <path
       style="fill:#56008c;fill-opacity:1;fill-rule:nonzero"
       d="m 70.610929,2.2454054 c -4.892146,0.067274 -9.47066,2.0720835 -14.362498,1.997764 -5.658031,0.4117235 -11.423222,-0.00183 -16.999582,1.1273954 -6.114308,1.4854003 -12.08138,4.3915519 -16.557032,8.8940772 -3.771057,4.499073 -4.388598,10.598479 -6.132539,16.011004 -1.472491,5.621044 -4.352447,10.885098 -4.832929,16.769123 -1.514558,11.918189 -0.692013,23.975799 -0.428635,35.948276 0.377919,5.095861 -0.01192,10.54219 2.30273,15.24842 1.13242,1.564978 1.586735,3.416435 1.643556,5.323535 0.576924,3.6685 3.825901,6.09358 6.413989,8.4319 6.101811,5.15367 13.791058,8.38219 21.787314,8.85999 7.815957,0.54409 15.697364,0.94639 23.519606,0.33398 6.30764,-0.68468 12.427781,-2.36719 18.790416,-2.66744 8.677491,-0.71007 17.518245,-0.85645 25.958555,-3.15902 4.87321,-2.00878 10.0958,-4.32107 13.22432,-8.76551 3.153,-5.13207 3.16495,-11.410904 4.18925,-17.17565 1.20326,-9.32481 2.79996,-18.624665 4.41743,-27.87613 1.17333,-8.406302 0.0567,-16.914221 -0.77209,-25.30153 -0.79081,-6.472472 -2.24263,-13.351782 -6.98265,-18.171175 -2.651,-2.663031 -4.23252,-6.06967 -6.72546,-8.8762817 C 114.4264,4.475423 107.40598,3.7663119 101.12927,3.4029075 91.528097,2.9737316 81.902538,3.04181 72.331592,2.2533049 c -0.573198,-0.015987 -1.147377,-0.0232 -1.720663,-0.0079 z M 60.10692,10.231924 c -0.03592,0.427175 0.289402,3.558812 -0.205187,2.193925 -0.233125,-0.674726 -0.537146,-1.498145 -0.457725,-2.162358 0.21917,-0.03271 0.442184,-0.0204 0.662912,-0.03157 z m 5.066547,0.252538 c -0.04711,0.541864 0.172185,2.27639 -0.102594,2.091332 -0.225718,-0.673782 -1.270954,-2.145777 0.102594,-2.162358 l 0,0.07103 z m 7.236796,0 c 0.155727,0.142515 0.25924,2.851264 -0.0947,1.594147 -0.01602,-0.434407 -0.68658,-1.765777 0.0947,-1.594147 z m 20.132024,0 c 0.03704,0.420958 0.235505,1.280198 0.05524,1.554688 -0.464112,-0.300042 -0.754253,-1.178469 -0.505076,-1.538904 0.14998,-0.0023 0.299778,-0.01668 0.449833,-0.01578 z m 9.714823,0.01578 c 0.98323,-0.460003 1.04727,1.39146 0.30778,1.507337 -0.73359,-0.06041 -0.4069,-1.062686 -0.71026,-1.452095 0.12968,-0.03566 0.2845,-0.04821 0.40248,-0.05524 z m -15.862548,0 c 1.246996,-0.219693 0.467961,1.816344 0.465617,2.004521 -0.206753,-0.563396 -0.907667,-1.517371 -0.639237,-1.980846 0.05377,-0.01712 0.116418,-0.02309 0.17362,-0.02367 z m 12.571664,0 c 0.949253,-0.04609 0.481361,0.978308 0.323565,1.570471 -0.133856,0.868553 -0.738283,-0.28142 -0.576103,-0.69448 0.0085,-0.327067 -0.298371,-0.960646 0.252538,-0.875991 z m -20.684452,0.481401 c 0.393798,0.52388 0.197319,1.63009 0.189404,2.359653 -0.60793,-0.577033 -0.824459,-1.603221 -0.568211,-2.335978 0.125946,-0.01086 0.252268,-0.02405 0.378807,-0.02367 z m -26.966337,0.03946 c 0.8353,0.454136 0.39681,2.009028 0.410374,2.454355 -0.280557,-0.689293 -1.087745,-1.681279 -0.773398,-2.304411 0.12068,-0.05892 0.230461,-0.137731 0.363024,-0.149944 z m -5.405895,0.497184 c 1.030209,-0.139423 0.460107,1.470181 0.680608,2.114358 0.177537,1.29284 -0.04203,1.242941 -0.396502,0.103243 -0.238253,-0.71096 -0.364284,-1.506018 -0.284106,-2.217601 z m -6.502857,0.583995 c 0.185626,0.961155 0.297169,2.11088 0.363024,2.975214 -0.129616,-0.950596 -1.025707,-2.183412 -0.757615,-2.975214 0.119564,-0.0081 0.449144,-0.339388 0.394591,0 z m 70.821165,-0.05524 c 0.66955,0.569708 0.57065,2.066499 -0.0947,2.493814 0.0134,-0.822851 -0.0263,-1.707853 0.0947,-2.493814 z M 35.350291,13.60173 c 0.128097,0.587876 0.566159,2.538206 0.390745,2.250217 -0.02254,-0.806898 -1.406316,-1.982111 -0.445987,-2.47908 l 0.05524,0.228863 z m 78.342069,2.990998 c 0.63872,0.144051 1.31978,0.605678 0.60767,1.262691 -0.14806,0.323622 -0.90905,1.452022 -0.75762,0.449834 0.0281,-0.556066 0.0347,-1.195035 0.14995,-1.712525 z m -45.646272,1.617823 c 5.99393,0.07712 11.950261,1.056988 17.961379,1.101206 4.904775,0.336755 9.917776,0.01692 14.726523,0.950666 4.84165,1.735848 7.62321,6.491088 10.43298,10.42509 2.4158,4.085368 3.13039,8.943643 3.98537,13.534466 1.33806,9.397171 0.71745,18.956086 1.66518,28.378973 0.11075,2.425927 -0.66359,4.872605 -0.82548,7.311118 -0.71346,5.255647 -1.59095,11.102612 -5.71684,14.888562 -4.3332,3.318296 -9.99862,3.8361 -15.153008,5.035366 -4.874027,1.137302 -9.859698,1.450182 -14.86735,1.356652 -5.953367,0.30713 -11.66489,2.42819 -17.653638,2.2604 -4.827453,0.13614 -9.681822,0.45003 -14.433471,-0.59308 -3.659343,-0.81644 -7.73045,-0.58309 -11.010216,-2.61398 -3.964768,-3.075939 -7.192615,-7.130701 -9.533314,-11.553624 -1.320784,-2.867992 -2.229037,-5.943702 -3.066664,-8.978784 -1.047713,-1.177726 -2.960744,-0.08176 -4.374305,-0.208356 -0.462888,-0.0075 -2.657844,0.359718 -1.397866,-0.148879 1.465919,-0.798447 3.579068,-0.62961 4.641597,-1.930836 0.110378,-2.409542 0.240543,-5.012624 -0.474788,-7.330434 -1.101518,-0.936149 -3.154757,-0.122206 -4.316754,-0.46934 1.255714,-1.248377 3.747083,-0.563632 4.545687,-2.225492 0.171266,-1.606724 0.338914,-3.301621 0.17362,-4.861359 0.769899,-9.353533 1.444196,-18.89653 4.90988,-27.689302 0.824902,-1.032916 -0.62117,-1.976134 0.622283,-2.544249 2.78037,-3.881703 6.51321,-7.099545 10.891245,-9.015458 3.845308,-1.815138 8.00849,-2.731292 12.247085,-2.743076 5.454192,-0.244307 10.539275,-2.498047 16.020865,-2.33625 z m 51.281022,4.230014 c 0.98483,0.37907 -0.39357,1.769052 -0.7655,1.657281 0.22131,-0.513084 0.38947,-1.328154 0.7655,-1.657281 z m -93.691645,6.005672 c 0.176194,0.688939 0.255524,1.247283 0.03157,0.236755 0.02201,0.02719 -0.09616,-0.388376 -0.03157,-0.236755 z m 95.380495,2.099223 c 0.53197,0.486066 0.55464,1.269671 -0.32356,1.286366 -1.77992,0.759981 -0.0253,-0.86796 0.32356,-1.286366 z m -97.179829,5.390111 c 0.903688,2.128185 -0.32784,-0.602884 0,0 z M 124.91452,38.05847 c 0.57508,0.419488 0.50924,0.963059 -0.31567,0.994369 -0.5146,0.122203 -3.04048,1.280921 -1.74164,0.374231 0.6562,-0.491576 1.32639,-0.998394 2.05731,-1.3686 z M 20.079626,38.760842 c 0.908287,1.27357 1.506347,2.95333 1.941387,4.316823 -0.677766,-1.447998 -1.712232,-2.854898 -2.020305,-4.411525 l 0.07892,0.0947 z m 105.979204,5.666324 c -1.44428,0.73831 -3.19178,1.139821 -4.71141,1.838793 1.50537,-0.791073 3.17711,-1.232583 4.70352,-1.996629 l 0.008,0.157836 z M 20.829348,46.865737 c 0.810391,0.432548 0.251925,1.837162 -0.702371,1.459987 -0.472201,-0.0269 -0.937399,-0.392452 -0.228863,-0.733939 0.266394,-0.26931 0.57971,-0.5519 0.931234,-0.726048 z m -0.82864,4.158988 c 0.178668,0.501169 0.709295,1.387624 -0.244647,1.144313 -1.078762,0.06591 -0.838176,-0.841136 0.244647,-1.144313 z m 0.291997,5.721567 c 0.352035,0.480115 0.274493,1.100839 -0.410375,1.096963 -0.472944,0.07206 -1.628139,0.476281 -1.404743,-0.378808 0.572317,-0.322996 1.196393,-0.593601 1.815118,-0.718155 z m 101.780765,4.782441 c -1.52294,0.288893 -0.2157,-0.01051 0,0 z m -101.157312,1.04172 c 0.587231,0.63208 -0.775272,1.310882 -1.388959,1.412635 -0.422114,0.04528 -1.905351,0.257531 -1.065396,-0.410374 0.633928,-0.657193 1.578308,-0.886877 2.454355,-1.002261 z M 122.53119,72.67987 c -0.91157,0.379305 -1.88392,0.604612 -2.86473,0.69448 -0.27129,-0.935035 1.35551,-0.386394 1.89404,-0.647129 0.31234,-0.02942 0.71027,-0.04308 0.97069,-0.04735 z m -2.13868,6.834313 c 1.4609,-0.02789 -0.59863,0.456135 -0.90756,0.473509 -0.19715,-0.823605 0.32401,-0.48706 0.90756,-0.473509 z m -98.379389,6.076699 c 0.737436,0.777429 -0.917797,1.154701 -1.404743,1.341609 -1.125361,0.301195 -2.80123,0.583338 -3.630236,0.583995 1.625311,-0.763782 3.358663,-1.286773 5.034979,-1.925604 z m 97.029889,1.278475 c 0.60411,0.218965 1.20065,0.670764 1.68096,0.978585 -0.67846,0.330113 -1.86018,1.010259 -1.71253,-0.323565 -0.025,-0.212414 -0.0568,-0.463278 0.0316,-0.65502 z m -94.322996,5.69 c 0.92704,-0.166812 0.475234,0.788575 -0.0947,0.804965 -1.744755,0.5607 -3.769155,0.850927 -5.469029,1.010152 0.483204,-0.697086 1.897766,-0.830891 2.77792,-1.215339 0.913352,-0.257104 1.832721,-0.557435 2.785811,-0.599778 z m 93.888946,2.91208 c 0.41089,0.224216 1.83853,0.504074 0.79707,0.828641 -0.61167,0.326842 -1.18138,0.403242 -0.93912,-0.497185 0.0454,-0.07369 -0.0824,-0.522223 0.14205,-0.331456 z m -92.610472,4.814013 c 0.127545,0.58614 -1.033097,1.15079 -1.673065,1.31793 -1.023433,0.23874 -2.473311,0.80349 -3.290887,0.7655 1.536015,-0.82066 3.341862,-1.56357 4.963952,-2.08343 z m 86.368042,2.24127 c 1.50584,0.95385 3.41428,1.85958 4.89293,2.43068 -0.61883,0.34945 -1.22839,0.49642 -1.75988,-0.0395 -0.71237,-0.26904 -1.52353,0.12386 -2.08344,-0.58399 -1.07889,-0.92398 -2.37055,-1.79127 -3.53553,-2.47803 0.0884,-0.80493 0.68923,-0.64293 1.18613,-0.12141 0.43326,0.26407 0.86653,0.52814 1.29979,0.79221 z m -82.40635,0.56821 c 1.480794,0.16561 2.321799,1.60692 3.685479,2.10712 0.530165,0.25914 1.103932,0.72114 0.315673,1.12063 -1.041132,1.01526 -3.076766,1.76906 -4.087962,1.90193 0.78736,-0.77514 2.486803,-2.16127 0.978586,-3.14094 -1.825744,-0.26132 -3.562811,1.22177 -5.34276,0.97858 -1.086028,-0.20719 0.08403,-0.78554 0.465617,-1.04961 1.266828,-0.73837 2.58357,-1.48186 3.985367,-1.91771 z m 73.33865,2.46225 c 0.92627,0.96403 2.53357,1.98705 2.48593,3.44872 -1.3807,-0.82103 -2.68727,-2.33689 -3.66181,-3.69337 0.46188,-0.6845 0.66473,-0.14391 1.17588,0.24465 z m -17.622423,0.14994 c 1.154806,0.1205 0.834378,1.84278 0.962801,2.65955 -0.06563,0.70447 0.07544,2.04834 -0.410374,2.39911 -0.892558,-1.43776 -0.935166,-3.32249 -1.167989,-4.94028 0.198798,-0.0655 0.405377,-0.11608 0.615562,-0.11838 z m 8.728349,0.4893 c 0.808559,1.3119 1.810413,3.04989 1.696741,4.59303 -1.077088,-1.2536 -2.241067,-2.79657 -2.446463,-4.4352 0.222109,-0.13999 0.491871,-0.15403 0.749722,-0.15783 z m -17.89864,1.82301 c -0.09976,0.76952 -0.184522,1.95909 -0.394591,2.48592 -0.21462,-0.86662 -0.754203,-2.13644 -0.394591,-2.85684 0.453402,-0.0106 1.070312,-0.46422 0.789182,0.37092 z M 40.251109,107.7511 c 0.704491,0.064 0.79247,1.28563 -0.05524,1.43631 -0.624876,0.38148 -1.743761,1.4165 -2.138683,1.42842 0.385245,-1.06697 1.094463,-2.43414 2.193925,-2.86473 z m 28.323731,0 c 0.729239,-0.1527 0.94926,0.28075 0.69448,0.94702 0.0016,0.35033 -0.541732,2.55787 -0.757615,1.43631 -0.04324,-0.79058 0.01764,-1.61925 0.06313,-2.38333 z m -5.77681,0.89967 c 0.459746,0.68865 0.27283,2.06775 -0.370915,2.40701 -0.218115,-0.63422 -0.771681,-2.76591 0.370915,-2.40701 z m -18.395825,0.22886 c 0.739689,0.0409 1.475833,0.54177 0.749723,1.22324 -0.629495,0.95574 -1.7287,1.96502 -2.549057,2.41489 0.48701,-1.21648 1.14046,-2.68219 1.799334,-3.63813 z m 8.2943,0.72605 c 1.074984,-0.0253 0.444727,1.58919 0.213079,2.11501 -0.171772,0.54789 -1.316959,1.97342 -1.033828,0.6708 0.285108,-0.84076 0.08982,-2.10356 0.615561,-2.74635 0.06883,-0.004 0.135944,-0.039 0.205188,-0.0395 z"
       id="path10520"
       inkscape:connector-curvature="0"
       transform="translate(-38.691895,355.99994)" />
    <path
       d="m 88.456415,401.29924 c -2.27125,0.62625 -4.36125,1.435 -6.2975,2.39875 -0.44625,-0.35375 -0.84625,-0.7525 -1.19875,-1.2 0.90875,-2.19 4.42375,-1.73125 6.2975,-3.5975 1.22,-0.0213 1.29125,1.1075 1.19875,2.39875"
       style="fill:#231f20;fill-opacity:1;fill-rule:evenodd;stroke:none"
       id="path3400"
       inkscape:connector-curvature="0" />
    <path
       d="m 88.456415,415.69299 c 0,0.4 0,0.8 0,1.19875 -2.1075,0.99375 -4.43375,1.765 -7.1975,2.1 -0.4125,-0.38625 -0.29625,-1.3025 -0.29875,-2.1 1.8875,-0.57625 5.50875,-1.04125 7.49625,-1.19875"
       style="fill:#231f20;fill-opacity:1;fill-rule:evenodd;stroke:none"
       id="path3402"
       inkscape:connector-curvature="0" />
    <path
       d="m 87.857665,395.60174 c -1.91125,0.0387 -5.2,2.69875 -7.1975,1.49875 0.0637,-0.5525 4.9175,-4.235 5.39875,-4.1975 1.0075,0.0775 1.99125,0.6225 1.79875,2.69875"
       style="fill:#231f20;fill-opacity:1;fill-rule:evenodd;stroke:none"
       id="path3404"
       inkscape:connector-curvature="0" />
    <path
       d="m 81.258915,413.89424 c -0.48625,-0.5125 -0.90625,-1.09125 -0.89875,-2.1 2.64375,-0.76625 4.785,-1.78875 7.1975,-1.79875 0.2175,3.66125 -4.14875,1.9775 -6.29875,3.89875"
       style="fill:#231f20;fill-opacity:1;fill-rule:evenodd;stroke:none"
       id="path3406"
       inkscape:connector-curvature="0" />
    <path
       d="m 87.257665,427.38799 c 0,0.2 0,0.4 0,0.6 -1.64625,1.50125 -4.6875,2.7 -7.1975,2.39875 0.2125,-1.1125 -0.5125,-1.28625 -0.30125,-2.39875 2.55375,-0.615 6.065,-0.23 7.49875,-0.6"
       style="fill:#231f20;fill-opacity:1;fill-rule:evenodd;stroke:none"
       id="path3408"
       inkscape:connector-curvature="0" />
    <path
       d="m 85.157665,434.88549 c -1.3625,1.5825 -2.4,1.93 -5.0975,2.39875 -0.6275,-1.2725 -0.58375,-1.86875 -0.30125,-3 2.37875,0.005 3.91375,0.39125 5.39875,0.60125"
       style="fill:#231f20;fill-opacity:1;fill-rule:evenodd;stroke:none"
       id="path3410"
       inkscape:connector-curvature="0" />
    <path
       d="m 83.958915,388.10549 c -1.0725,0.8175 -3.2375,1.49125 -4.7975,0.89875 1.08375,-1.8575 1.69125,-2.61625 2.9975,-3.89875 1.31125,0.2875 1.695,1.50625 1.8,3"
       style="fill:#231f20;fill-opacity:1;fill-rule:evenodd;stroke:none"
       id="path3412"
       inkscape:connector-curvature="0" />
    <path
       d="m 83.658915,443.28049 c -0.30375,1.79875 -2.15125,2.0475 -3.9,2.4 -0.42125,-1.21 -0.995,-2.8775 0,-3.89875 2.06125,-0.26125 2.17375,1.42625 3.9,1.49875"
       style="fill:#231f20;fill-opacity:1;fill-rule:evenodd;stroke:none"
       id="path3414"
       inkscape:connector-curvature="0" />
    <path
       d="m 83.057665,451.67799 c -0.625,1.37375 -2.0625,1.9325 -3.89625,2.09875 -0.64,-0.9525 -0.85,-2.725 0,-3.59875 1.75,0.0475 2.42,1.17875 3.89625,1.5"
       style="fill:#231f20;fill-opacity:1;fill-rule:evenodd;stroke:none"
       id="path3416"
       inkscape:connector-curvature="0" />
    <path
       d="m 78.560165,381.20674 c -0.15125,-1.85 1.04125,-2.35625 1.19875,-3.8975 4.0725,-0.59625 2.27125,5.14 -1.19875,3.8975"
       style="fill:#231f20;fill-opacity:1;fill-rule:evenodd;stroke:none"
       id="path3418"
       inkscape:connector-curvature="0" />
    <path
       d="m 80.660165,460.37425 c -0.36125,1.4375 -1.87,1.72875 -3.2975,2.09875 -1.09,0.01 -0.965,-1.57125 -1.8,-0.29875 -2.03375,-0.96625 -3.1475,-2.85125 -5.3975,-3.59875 -0.225,-1.525 0.2975,-2.3 1.19875,-2.69876 3.74,2.15001 4.94875,3.60126 9.29625,4.49751"
       style="fill:#231f20;fill-opacity:1;fill-rule:evenodd;stroke:none"
       id="path3420"
       inkscape:connector-curvature="0" />
    <path
       d="m 75.562665,425.88799 c 0.025,-13.71 1.00375,-29.0125 -4.8,-39.2825 -1.655,-2.93125 -5.05125,-6.9375 -8.095,-7.7975 -4.784999,-1.3525 -12.068749,-0.35875 -19.192499,-0.89875 -9.65125,-0.7325 -19.43375,-2.40375 -24.59,1.5 -6.18125,-0.15875 -14.9500004,1.04375 -20.0912504,3.8975 -8.2375,4.57125 -10.0074996,14.00375 -12.2937496,24.29 0.08625,0.80375 1.46125,0.30125 1.49875,1.79875 -1.22875,12.7625 -2.01625,26.47375 3.5987496,35.685 1.715,2.815 5.15125,5.3225 7.79625,7.4975 1.3225,1.08625 1.855,1.9975 2.99875,2.39875 1.6425,0.57625 3.76375,0.27 5.6975,0.59875 2.1262504,0.36375 4.1812504,1.30876 6.5962504,1.50001 5.9225,0.46875 13.04875,0.505 18.59375,-0.3 2.56375,-0.37125 4.93125,-1.56001 7.495,-1.79876 2.76375,-0.2575 5.5,0.30375 8.0975,0 2.98625,-0.3475 7.015,-1.81 11.09625,-2.39875 6.154999,-0.8875 10.386249,-1.56875 12.893749,-5.69875 3.15375,-5.1875 3.36875,-13.47625 3.59875,-20.09125 -0.0175,-0.18125 -0.0438,-0.355 -0.2975,-0.29875 -0.0663,-0.3375 -0.335,-0.4675 -0.60125,-0.60125 z m -90.563749,10.49625 c -2.9275,-0.5225 -4.9625,1.44125 -7.195,0 0.3575,-2.74 3.8675,-2.3275 5.99625,-3.29875 0.125,-2.99 -0.28125,-3.6375 -0.3,-6.2975 -1.7975,-0.2375 -3.46875,0.70625 -5.0975,-0.29875 0.50375,-2.95875 2.80125,-2.3775 5.0975,-3.29875 0.3675,-11.8 1.31,-24.18375 5.39875,-33.58625 -2.3425,-1.1625 -3.82625,-5.34125 -3,-7.7975 2.63625,0.56375 2.02375,4.375 3.3,6.29875 3.6062496,-6.31625 11.4037496,-11.32125 20.99125,-12.595 1.88875,-0.25125 4.01125,0.1075 6.295,-0.30125 3.3525,-0.5975 6.695,-1.86375 10.19875,-2.09875 4.71125,-0.31625 9.62375,0.51 14.9925,0.9 6.2575,0.455 12.5825,0.2525 17.6925,0.6 7.804999,0.53 11.257499,7.9925 14.692499,12.29375 5.27375,12.675 4.44625,27.05625 4.8,41.08375 0.0725,0.325 0.595,0.2025 0.5975,0.6 -0.96875,4.12625 -0.89125,9.18125 -2.09625,13.795 -2.425,9.255 -6.55125,11.81375 -17.094999,13.79376 -3.9625,0.745 -8.1625,1.71125 -11.395,2.1 -2.64375,0.315 -5.43625,-0.3725 -8.69625,0 -4.09125,0.465 -8.0075,1.77375 -12.29375,2.0975 -5.82625,0.44 -12.09,0.795 -17.6925,-0.3 -3.8562504,-0.7525 -8.6987504,-1.03375 -11.0962504,-2.09875 -2.96875,-1.3175 -8.725,-8.14876 -10.4962496,-11.39626 -1.8225,-3.34 -2.89625,-7.175 -3.59875,-10.195"
       style="fill:#231f20;fill-opacity:1;fill-rule:evenodd;stroke:none"
       id="path3422"
       inkscape:connector-curvature="0" />
    <path
       d="m 77.362665,372.81049 c -0.7575,1.2075 -1.31625,3.99375 -3.59875,2.7 -0.29125,-1.22375 0.65375,-2.40375 0,-4.2 1.27375,0.0512 2.74375,0.31 3.59875,1.5"
       style="fill:#231f20;fill-opacity:1;fill-rule:evenodd;stroke:none"
       id="path3424"
       inkscape:connector-curvature="0" />
    <path
       d="m 72.263915,371.61174 c -0.6,0 -1.20125,0 -1.79875,0 -0.4375,-1.73625 -0.25125,-3.67 0.2975,-4.7975 2.95,-0.26125 2.69125,3.1875 1.50125,4.7975"
       style="fill:#231f20;fill-opacity:1;fill-rule:evenodd;stroke:none"
       id="path3426"
       inkscape:connector-curvature="0" />
    <path
       d="m 67.166415,466.37175 c -2.21625,-1.08125 -3.4425,-3.155 -5.1,-4.7975 0.1175,-1.18375 1.22125,-1.38 1.8025,-2.09875 1.67125,1.57375 6.61125,4.95625 3.2975,6.89625"
       style="fill:#231f20;fill-opacity:1;fill-rule:evenodd;stroke:none"
       id="path3428"
       inkscape:connector-curvature="0" />
    <path
       d="m 62.066415,366.51299 c -0.58875,0.87375 -0.0237,1.99125 -0.898749,3.29875 -0.9225,-0.0775 -1.35,-0.64875 -2.09875,-0.89875 -0.17375,-1.08125 -0.08125,-1.51625 -0.3,-3 0.62625,-0.17125 0.85625,-0.7425 1.79875,-0.59875 0.961249,-0.26375 0.6225,0.7775 1.198749,0.89875 0.4225,-1.0075 2.21125,-1.11 3.30125,-0.59875 1.89625,3.77625 -2.96625,5.47875 -3.00125,0.89875"
       style="fill:#231f20;fill-opacity:1;fill-rule:evenodd;stroke:none"
       id="path3430"
       inkscape:connector-curvature="0" />
    <path
       d="m 58.467666,468.17175 c -0.3975,0 -0.7975,0 -1.19875,0 -1.71375,-1.585 -3.15625,-3.44 -3.59875,-6.29875 0.71875,-0.48125 1.41375,-0.98625 2.70125,-0.89875 1.19625,2.37875 2.775,4.27 2.09625,7.1975"
       style="fill:#231f20;fill-opacity:1;fill-rule:evenodd;stroke:none"
       id="path3432"
       inkscape:connector-curvature="0" />
    <path
       d="m 54.571416,369.51174 c -1.72875,-0.26875 -2.575,-1.42375 -2.4,-3.59875 0.48375,-0.615 1.50375,-0.695 2.7,-0.59875 0.1275,1.9125 0.535,2.845 -0.3,4.1975"
       style="fill:#231f20;fill-opacity:1;fill-rule:evenodd;stroke:none"
       id="path3434"
       inkscape:connector-curvature="0" />
    <path
       d="m 49.771416,366.21299 c -0.85625,1.3475 0.06875,2.8025 -0.89875,4.2 -1.92625,-0.37375 -2.10875,-2.49 -2.6975,-4.2 1.2625,-1.50875 2.24375,-0.9275 3.59625,0"
       style="fill:#231f20;fill-opacity:1;fill-rule:evenodd;stroke:none"
       id="path3436"
       inkscape:connector-curvature="0" />
    <path
       d="m 48.272666,468.17175 c -3.28125,-0.1175 -2.22625,-4.57125 -3.29875,-6.8975 4.7875,-2.835 4.8975,3.88125 3.29875,6.8975"
       style="fill:#231f20;fill-opacity:1;fill-rule:evenodd;stroke:none"
       id="path3438"
       inkscape:connector-curvature="0" />
    <path
       d="m 40.176416,371.31049 c -1.80875,-1.17375 -2.87,-3.45375 -1.79875,-5.3975 0.70125,0 1.39875,0 2.1,0 0.6325,1.69 0.88625,3.765 -0.30125,5.3975"
       style="fill:#231f20;fill-opacity:1;fill-rule:evenodd;stroke:none"
       id="path3440"
       inkscape:connector-curvature="0" />
    <path
       d="m 38.977666,462.473 c 0.015,2.85375 -0.2925,3.65125 -0.9,5.99875 -2.3175,-0.28375 -2.01,-3.18875 -2.4,-5.39875 0.5225,-0.77875 1.9925,-0.6075 3.3,-0.6"
       style="fill:#231f20;fill-opacity:1;fill-rule:evenodd;stroke:none"
       id="path3442"
       inkscape:connector-curvature="0" />
    <path
       d="m 34.778916,370.41299 c -2.25375,-0.14875 -2.42125,-2.3775 -2.6975,-4.5 0.48125,-0.615 1.50125,-0.695 2.6975,-0.59875 0.36125,1.95375 0.1875,2.84 0,5.09875"
       style="fill:#231f20;fill-opacity:1;fill-rule:evenodd;stroke:none"
       id="path3444"
       inkscape:connector-curvature="0" />
    <path
       d="m 31.781416,463.073 c 0.01375,2.115 -0.225,3.97375 -1.5025,4.7975 -2.43375,-0.35625 -1.525,-3.51125 -1.49875,-5.0975 1.19375,-0.30125 1.94875,-0.18375 3.00125,0.3"
       style="fill:#231f20;fill-opacity:1;fill-rule:evenodd;stroke:none"
       id="path3446"
       inkscape:connector-curvature="0" />
    <path
       d="m 27.281416,371.31049 c -1.69875,-0.99875 -2.56875,-2.8275 -2.6975,-5.3975 0.87625,-0.32 1.5475,-0.85 2.9975,-0.59875 0.1325,2.5375 0.35625,3.5575 -0.3,5.99625"
       style="fill:#231f20;fill-opacity:1;fill-rule:evenodd;stroke:none"
       id="path3448"
       inkscape:connector-curvature="0" />
    <path
       d="m 23.982666,468.47175 c -2.16,-0.4475 -1.52,-3.1175 -1.49875,-4.49875 3.61375,-2.2325 3.81375,3.11625 1.49875,4.49875"
       style="fill:#231f20;fill-opacity:1;fill-rule:evenodd;stroke:none"
       id="path3450"
       inkscape:connector-curvature="0" />
    <path
       d="m 22.483916,371.91174 c -1.91125,-1.1875 -2.76875,-3.4275 -2.9975,-6.2975 1.1375,-0.7175 1.4425,-0.40625 2.9975,-0.6 0.1975,2.4175 0.105,4.14375 0,6.8975"
       style="fill:#231f20;fill-opacity:1;fill-rule:evenodd;stroke:none"
       id="path3452"
       inkscape:connector-curvature="0" />
    <path
       d="m 12.287666,470.5705 c -0.9525,-2.275 0.55625,-3.78625 0.30125,-5.6975 5.28625,-2.18375 3.30875,5.405 -0.30125,5.6975"
       style="fill:#231f20;fill-opacity:1;fill-rule:evenodd;stroke:none"
       id="path3454"
       inkscape:connector-curvature="0" />
    <path
       d="m 13.788916,372.21174 c -1.435,-1.36625 -2.465,-3.135 -3,-5.3975 3.5925,-2.89625 4.185,1.775 3,5.3975"
       style="fill:#231f20;fill-opacity:1;fill-rule:evenodd;stroke:none"
       id="path3456"
       inkscape:connector-curvature="0" />
    <path
       d="m 9.2889156,374.01049 c -1.79875,-0.0775 -4.3725,-6.49875 -2.9975,-7.4975 1.37,-0.0962 1.66375,-0.3075 2.69875,0.30125 -0.3075,2.68375 0.275,4.07625 0.29875,7.19625"
       style="fill:#231f20;fill-opacity:1;fill-rule:evenodd;stroke:none"
       id="path3458"
       inkscape:connector-curvature="0" />
    <path
       d="m 2.6926656,470.5705 c -0.55,-3.54875 1.74875,-4.24875 2.09875,-6.8975 6.9462504,0.29125 0.56375,5.805 -2.09875,6.8975"
       style="fill:#231f20;fill-opacity:1;fill-rule:evenodd;stroke:none"
       id="path3460"
       inkscape:connector-curvature="0" />
    <path
       d="m 3.2926656,465.173 c -1.7925,1.00625 -2.8975,2.7 -5.09875,3.29875 -0.80625,-2.64 1.44875,-4.45375 2.69875,-5.99875 1.70125,0 2.50875,0.89125 2.4,2.7"
       style="fill:#231f20;fill-opacity:1;fill-rule:evenodd;stroke:none"
       id="path3462"
       inkscape:connector-curvature="0" />
    <path
       d="m 2.3926656,374.31049 c -0.5,0 -0.99875,0 -1.5,0 -0.49,-2.40875 -1.46,-4.3375 -2.09875,-6.59875 0.76125,-0.53625 1.67,-0.9275 2.7,-1.19875 0.69375,2.425 0.69,4.505 0.89875,7.7975"
       style="fill:#231f20;fill-opacity:1;fill-rule:evenodd;stroke:none"
       id="path3464"
       inkscape:connector-curvature="0" />
    <path
       d="m -2.7060844,375.81049 c -0.4,-2.59875 -1.8675,-4.13125 -2.39875,-6.5975 0.7775,-0.32375 1.115,-1.085 2.1,-1.2 1.56375,1.55 0.895,4.615 1.79875,6.89625 0.04375,0.84375 -0.73375,0.86625 -1.5,0.90125"
       style="fill:#231f20;fill-opacity:1;fill-rule:evenodd;stroke:none"
       id="path3466"
       inkscape:connector-curvature="0" />
    <path
       d="m -9.9023344,465.77175 c -1.2049996,-2.00875 1.13625,-2.78625 1.8,-3.89875 -2.1624996,0.53 -5.9837496,2.99 -6.8987496,-0.29875 1.225,-2.175 4.35875,-2.44 6.2974996,-3.89875 0.27625,0.52375 0.9375,0.66125 1.8,0.60125 0.62375,1.77375 3.1075,1.68875 3.89875,3.2975 -0.8125,2.88625 -4.11625,3.28 -6.8975,4.1975"
       style="fill:#231f20;fill-opacity:1;fill-rule:evenodd;stroke:none"
       id="path3468"
       inkscape:connector-curvature="0" />
    <path
       d="m -7.5035844,379.40924 c -1.47875,-1.56 -1.755,-4.1775 -2.6987496,-6.59875 0.7199996,-0.27875 0.7937496,-1.20375 2.0999996,-0.89875 -0.10625,2.47 2.95,6.59375 0.59875,7.4975"
       style="fill:#231f20;fill-opacity:1;fill-rule:evenodd;stroke:none"
       id="path3470"
       inkscape:connector-curvature="0" />
    <path
       d="m -10.502334,381.80674 c 0.01625,-2.5275 -3.13125,-5.625 -0.9,-7.49625 1.01625,0.9875 4.2887496,7.01 0.9,7.49625"
       style="fill:#231f20;fill-opacity:1;fill-rule:evenodd;stroke:none"
       id="path3472"
       inkscape:connector-curvature="0" />
    <path
       d="m -11.101084,456.17675 c -0.755,2.84375 -4.57875,2.61875 -7.1975,3.59875 -0.25125,-0.65 -0.77625,-1.02375 -0.6,-2.1 1.845,-1.055 4.20375,-1.5925 5.9975,-2.69876 1.2075,-0.2075 0.73625,1.26376 1.8,1.20001"
       style="fill:#231f20;fill-opacity:1;fill-rule:evenodd;stroke:none"
       id="path3474"
       inkscape:connector-curvature="0" />
    <path
       d="m -20.098584,451.67799 c -0.25125,-0.6475 -0.77625,-1.0225 -0.59875,-2.09875 1.59375,-0.93375 9.1275,-4.08375 8.39625,-0.3 -0.37625,1.94625 -5.93375,1.73375 -7.7975,2.39875"
       style="fill:#231f20;fill-opacity:1;fill-rule:evenodd;stroke:none"
       id="path3476"
       inkscape:connector-curvature="0" />
    <path
       d="m -15.001084,394.70174 c -0.72,-2.4775 -1.9325,-4.465 -2.69875,-6.89625 0.55875,-0.0425 1.0025,-0.19875 1.2,-0.60125 1.1125,1.615 5.56125,7.21 1.49875,7.4975"
       style="fill:#231f20;fill-opacity:1;fill-rule:evenodd;stroke:none"
       id="path3478"
       inkscape:connector-curvature="0" />
    <path
       d="m -15.001084,400.40049 c -0.7025,0.095 -1.125,0.47375 -2.0975,0.29875 -0.865,-2.235 -2.3325,-3.86625 -3,-6.2975 0.84625,-0.0538 0.375,-1.42625 1.49875,-1.19875 2.09375,1.505 2.4975,4.7 3.59875,7.1975"
       style="fill:#231f20;fill-opacity:1;fill-rule:evenodd;stroke:none"
       id="path3480"
       inkscape:connector-curvature="0" />
    <path
       d="m -22.797334,444.78049 c -0.345,-0.355 -0.33875,-1.06 -0.29875,-1.8 2.06875,-1.1275 4.5575,-1.8375 6.89625,-2.6975 3.39875,3.94375 -4.48375,4.24875 -6.5975,4.4975"
       style="fill:#231f20;fill-opacity:1;fill-rule:evenodd;stroke:none"
       id="path3482"
       inkscape:connector-curvature="0" />
    <path
       d="m -19.798584,405.19799 c -1.34875,-1.89125 0.55,-2.69125 1.8,-3.59875 3.1375,1.0175 1.89625,4.98 -1.8,3.59875"
       style="fill:#231f20;fill-opacity:1;fill-rule:evenodd;stroke:none"
       id="path3484"
       inkscape:connector-curvature="0" />
    <path
       d="m -21.897334,420.79049 c -0.03,-2.63625 2.9775,-3.47 4.79875,-3.2975 1.95625,3.06625 -2.02125,4.29625 -4.79875,3.2975"
       style="fill:#231f20;fill-opacity:1;fill-rule:evenodd;stroke:none"
       id="path3486"
       inkscape:connector-curvature="0" />
    <path
       d="m -17.098584,408.79674 c -1.05875,0.69875 -1.87,0.4825 -3.29875,0.3 0.0775,-0.87875 -0.67875,-0.9225 -0.6,-1.8 0.845,-0.65375 1.44125,-1.5575 2.99875,-1.5 0.335,0.965 0.82,1.77875 0.9,3"
       style="fill:#231f20;fill-opacity:1;fill-rule:evenodd;stroke:none"
       id="path3488"
       inkscape:connector-curvature="0" />
    <path
       d="m -17.098584,414.19424 c -1.3425,0.925 -1.6125,1.1675 -3.89875,0.89875 -0.2375,-0.69375 -0.2525,-0.99375 -0.3,-2.3975 1.3175,-0.28375 1.9325,-1.2675 3.5975,-1.20125 0.10125,1 0.86875,1.33 0.60125,2.7"
       style="fill:#231f20;fill-opacity:1;fill-rule:evenodd;stroke:none"
       id="path3490"
       inkscape:connector-curvature="0" />
    <path
       d="m -28.194834,405.49799 c -1.98875,4.8075 -4.815,8.77875 -8.09625,12.295 3.9675,4.7275 6.03875,11.3525 7.79625,18.29125 -0.52125,-9.745 -0.285,-24.13375 0.3,-30.58625 z m 117.551249,-26.69 c -1.16625,-2.13625 -3.15125,-4.10625 -5.0975,-6.2975 -1.92125,-2.16125 -2.97125,-5.18375 -4.7975,-6.89625 -7.46125,-6.99625 -22.746249,-4.835 -38.086249,-5.6975 -3.56125,-0.2 -7.5675,-0.85 -10.7925,-0.6 -3.2675,0.25125 -5.79625,1.36125 -9.2975,1.79875 -6.14,0.76625 -13.1650004,0.1125 -18.5925004,0.9 -6.66125,0.965 -14.6937496,5.26 -17.9924996,8.99625 -3.7575,4.255 -4.24625,11.34875 -6.2975,17.69125 -1.24125,3.84125 -3.03875,7.38125 -3.59875,10.1975 -1.555,7.8075 -1.94375,17.60125 -1.49875,26.9875 0.41625,8.8075 -0.135,19.15625 1.79875,26.39 0.37875,1.41625 1.5925,2.46625 2.09875,3.89876 0.55375,1.56375 0.09125,3.28375 0.60125,4.4975 1.2375,2.95625 5.6175,6.66875 9.595,9.29625 8.1912496,5.41 15.6224996,6.19875 27.8875,6.29625 3.965,0.0325 8.30125,0.325 12.295,0 5.06125,-0.40875 9.52375,-1.86 14.095,-2.3975 7.43125,-0.875 15.5825,-0.76125 21.888749,-1.79875 2.645,-0.43625 5.37125,-0.69 7.4975,-1.2 3.76,-0.9025 12.3375,-5.10875 14.695,-9.29625 2.79125,-4.95375 3.22,-15.79751 4.4975,-22.79001 0.7175,-3.93 1.18875,-8.07875 1.79875,-11.99625 0.66,-4.2225 1.83375,-8.17375 2.1,-11.695 0.3425,-4.5025 -0.0588,-11.4675 -0.3,-14.095 -0.77625,-8.48875 -1.1325,-16.03125 -4.4975,-22.19 z m 6.8975,53.3775 c 1.8725,-4.88875 4.997495,-11.33875 5.996245,-16.1925 -2.683745,-3.8125 -4.986245,-8.0075 -6.296245,-13.195 0.795,17.4875 -4.01875,30.96875 -5.09875,45.58125 1.83375,-5.38875 3.28375,-10.675 5.39875,-16.19375 z m 10.796245,-13.79375 c -6.31625,7.31875 -9.692495,20.43625 -13.196245,30.8875 -1.07,3.19125 -1.62125,6.55125 -2.99875,8.99751 -0.62,1.1 -2.02125,1.96 -2.9975,3.2975 -2.46625,3.3725 -4.185,6.30625 -8.39875,8.69625 -2.3575,1.33875 -5.98875,3.06375 -8.095,3.59875 -1.71,0.43375 -3.62125,0.0225 -5.69875,0.29875 -3.0225,0.405 -6.229999,1.5225 -8.993749,1.8 -4.26,0.4275 -8.4325,0.3425 -12.595,0.9 -11.5675,1.545 -25.37375,4.155 -39.8850004,2.9975 -10.16125,-0.81 -20.6962496,-6.83625 -26.0887496,-13.49375 -6.63625,-8.19125 -6.6875,-22.22626 -9.895,-33.58626 -0.84375,-2.98375 -2.18,-5.97125 -3.3,-8.39625 -0.89625,-1.9425 -3.65375,-4.60875 -3.59875,-6.89625 0.07,-2.87 4.565,-5.61125 6.2975,-8.69625 1.98875,-3.54125 3.255,-7.35625 4.49875,-10.19625 1.49,-3.4025 3.08375,-7.05 4.1975,-10.795 1.1375,-3.81875 1.65375,-7.99375 3,-11.69625 3.08,-8.465 13.2824996,-16.0225 23.3899996,-17.3925 6.2275,-0.84375 12.8237504,-0.0563 19.4912504,-0.9 4.40625,-0.55625 8.8275,-1.99375 14.09375,-1.79875 11.33125,0.4225 24.0775,0.7525 33.887499,2.1 4.32875,0.5925 8.02,3.37375 11.69375,5.0975 1.39625,2.88375 3.53,3.61125 5.0975,5.6975 1.5575,2.0725 2.65125,5.09625 4.5,7.79625 1.84375,2.69625 3.69375,5.595 4.4975,8.09625 2.585,8.0375 0.9075,15.25 4.498745,22.49125 1.81875,3.6675 5.36375,6.3875 6.5975,10.19625 -0.0637,0.5125 0.51,0.77625 0,0.89875"
       style="fill:#231f20;fill-opacity:1;fill-rule:evenodd;stroke:none"
       id="path3492"
       inkscape:connector-curvature="0" />
  </g>
</svg>
